%TF.GenerationSoftware,KiCad,Pcbnew,8.0.0*%
%TF.CreationDate,2024-03-24T17:38:24+02:00*%
%TF.ProjectId,Sensing1_0,53656e73-696e-4673-915f-302e6b696361,rev?*%
%TF.SameCoordinates,Original*%
%TF.FileFunction,Copper,L1,Top*%
%TF.FilePolarity,Positive*%
%FSLAX46Y46*%
G04 Gerber Fmt 4.6, Leading zero omitted, Abs format (unit mm)*
G04 Created by KiCad (PCBNEW 8.0.0) date 2024-03-24 17:38:24*
%MOMM*%
%LPD*%
G01*
G04 APERTURE LIST*
G04 Aperture macros list*
%AMRoundRect*
0 Rectangle with rounded corners*
0 $1 Rounding radius*
0 $2 $3 $4 $5 $6 $7 $8 $9 X,Y pos of 4 corners*
0 Add a 4 corners polygon primitive as box body*
4,1,4,$2,$3,$4,$5,$6,$7,$8,$9,$2,$3,0*
0 Add four circle primitives for the rounded corners*
1,1,$1+$1,$2,$3*
1,1,$1+$1,$4,$5*
1,1,$1+$1,$6,$7*
1,1,$1+$1,$8,$9*
0 Add four rect primitives between the rounded corners*
20,1,$1+$1,$2,$3,$4,$5,0*
20,1,$1+$1,$4,$5,$6,$7,0*
20,1,$1+$1,$6,$7,$8,$9,0*
20,1,$1+$1,$8,$9,$2,$3,0*%
%AMFreePoly0*
4,1,19,0.500000,-0.750000,0.000000,-0.750000,0.000000,-0.744911,-0.071157,-0.744911,-0.207708,-0.704816,-0.327430,-0.627875,-0.420627,-0.520320,-0.479746,-0.390866,-0.500000,-0.250000,-0.500000,0.250000,-0.479746,0.390866,-0.420627,0.520320,-0.327430,0.627875,-0.207708,0.704816,-0.071157,0.744911,0.000000,0.744911,0.000000,0.750000,0.500000,0.750000,0.500000,-0.750000,0.500000,-0.750000,
$1*%
%AMFreePoly1*
4,1,19,0.000000,0.744911,0.071157,0.744911,0.207708,0.704816,0.327430,0.627875,0.420627,0.520320,0.479746,0.390866,0.500000,0.250000,0.500000,-0.250000,0.479746,-0.390866,0.420627,-0.520320,0.327430,-0.627875,0.207708,-0.704816,0.071157,-0.744911,0.000000,-0.744911,0.000000,-0.750000,-0.500000,-0.750000,-0.500000,0.750000,0.000000,0.750000,0.000000,0.744911,0.000000,0.744911,
$1*%
G04 Aperture macros list end*
%TA.AperFunction,ComponentPad*%
%ADD10R,1.800000X1.800000*%
%TD*%
%TA.AperFunction,ComponentPad*%
%ADD11C,1.800000*%
%TD*%
%TA.AperFunction,ComponentPad*%
%ADD12O,1.700000X1.700000*%
%TD*%
%TA.AperFunction,ComponentPad*%
%ADD13R,1.700000X1.700000*%
%TD*%
%TA.AperFunction,SMDPad,CuDef*%
%ADD14RoundRect,0.200000X-0.200000X-0.275000X0.200000X-0.275000X0.200000X0.275000X-0.200000X0.275000X0*%
%TD*%
%TA.AperFunction,SMDPad,CuDef*%
%ADD15R,1.500000X1.500000*%
%TD*%
%TA.AperFunction,SMDPad,CuDef*%
%ADD16RoundRect,0.150000X-0.587500X-0.150000X0.587500X-0.150000X0.587500X0.150000X-0.587500X0.150000X0*%
%TD*%
%TA.AperFunction,SMDPad,CuDef*%
%ADD17FreePoly0,0.000000*%
%TD*%
%TA.AperFunction,SMDPad,CuDef*%
%ADD18FreePoly1,0.000000*%
%TD*%
%TA.AperFunction,ViaPad*%
%ADD19C,0.600000*%
%TD*%
%TA.AperFunction,Conductor*%
%ADD20C,0.400000*%
%TD*%
%TA.AperFunction,Conductor*%
%ADD21C,0.600000*%
%TD*%
%TA.AperFunction,Conductor*%
%ADD22C,0.250000*%
%TD*%
%TA.AperFunction,Conductor*%
%ADD23C,0.200000*%
%TD*%
G04 APERTURE END LIST*
D10*
%TO.P,D7,1,K*%
%TO.N,Net-(D7-K)*%
X155525000Y-59275000D03*
D11*
%TO.P,D7,2,A*%
%TO.N,+BATT*%
X155525000Y-56735000D03*
%TD*%
D10*
%TO.P,D6,1,K*%
%TO.N,Net-(D6-K)*%
X127775000Y-42975000D03*
D11*
%TO.P,D6,2,A*%
%TO.N,+BATT*%
X125235000Y-42975000D03*
%TD*%
D10*
%TO.P,D4,1,K*%
%TO.N,Net-(D4-K)*%
X83475000Y-43725000D03*
D11*
%TO.P,D4,2,A*%
%TO.N,+BATT*%
X83475000Y-46265000D03*
%TD*%
D10*
%TO.P,D3,1,K*%
%TO.N,Net-(D3-K)*%
X155525000Y-46275000D03*
D11*
%TO.P,D3,2,A*%
%TO.N,+BATT*%
X155525000Y-43735000D03*
%TD*%
D10*
%TO.P,D2,1,K*%
%TO.N,Net-(D2-K)*%
X113775000Y-42975000D03*
D11*
%TO.P,D2,2,A*%
%TO.N,+BATT*%
X111235000Y-42975000D03*
%TD*%
D10*
%TO.P,D1,1,K*%
%TO.N,Net-(D1-K)*%
X83475000Y-56725000D03*
D11*
%TO.P,D1,2,A*%
%TO.N,+BATT*%
X83475000Y-59265000D03*
%TD*%
D12*
%TO.P,J1,28,Pin_28*%
%TO.N,unconnected-(J1-Pin_28-Pad28)*%
X102780000Y-56960000D03*
%TO.P,J1,27,Pin_27*%
%TO.N,GND*%
X102780000Y-59500000D03*
%TO.P,J1,26,Pin_26*%
%TO.N,+BATT*%
X105320000Y-56960000D03*
%TO.P,J1,25,Pin_25*%
%TO.N,unconnected-(J1-Pin_25-Pad25)*%
X105320000Y-59500000D03*
%TO.P,J1,24,Pin_24*%
%TO.N,unconnected-(J1-Pin_24-Pad24)*%
X107860000Y-56960000D03*
%TO.P,J1,23,Pin_23*%
%TO.N,unconnected-(J1-Pin_23-Pad23)*%
X107860000Y-59500000D03*
%TO.P,J1,22,Pin_22*%
%TO.N,unconnected-(J1-Pin_22-Pad22)*%
X110400000Y-56960000D03*
%TO.P,J1,21,Pin_21*%
%TO.N,GND*%
X110400000Y-59500000D03*
%TO.P,J1,20,Pin_20*%
%TO.N,unconnected-(J1-Pin_20-Pad20)*%
X112940000Y-56960000D03*
%TO.P,J1,19,Pin_19*%
%TO.N,unconnected-(J1-Pin_19-Pad19)*%
X112940000Y-59500000D03*
%TO.P,J1,18,Pin_18*%
%TO.N,unconnected-(J1-Pin_18-Pad18)*%
X115480000Y-56960000D03*
%TO.P,J1,17,Pin_17*%
%TO.N,unconnected-(J1-Pin_17-Pad17)*%
X115480000Y-59500000D03*
%TO.P,J1,16,Pin_16*%
%TO.N,unconnected-(J1-Pin_16-Pad16)*%
X118020000Y-56960000D03*
%TO.P,J1,15,Pin_15*%
%TO.N,GND*%
X118020000Y-59500000D03*
%TO.P,J1,14,Pin_14*%
%TO.N,unconnected-(J1-Pin_14-Pad14)*%
X120560000Y-56960000D03*
%TO.P,J1,13,Pin_13*%
%TO.N,unconnected-(J1-Pin_13-Pad13)*%
X120560000Y-59500000D03*
%TO.P,J1,12,Pin_12*%
%TO.N,/PE13*%
X123100000Y-56960000D03*
%TO.P,J1,11,Pin_11*%
%TO.N,/PA5*%
X123100000Y-59500000D03*
%TO.P,J1,10,Pin_10*%
%TO.N,/PE14*%
X125640000Y-56960000D03*
%TO.P,J1,9,Pin_9*%
%TO.N,GND*%
X125640000Y-59500000D03*
%TO.P,J1,8,Pin_8*%
%TO.N,unconnected-(J1-Pin_8-Pad8)*%
X128180000Y-56960000D03*
%TO.P,J1,7,Pin_7*%
%TO.N,/PA4*%
X128180000Y-59500000D03*
%TO.P,J1,6,Pin_6*%
%TO.N,unconnected-(J1-Pin_6-Pad6)*%
X130720000Y-56960000D03*
%TO.P,J1,5,Pin_5*%
%TO.N,/PA3*%
X130720000Y-59500000D03*
%TO.P,J1,4,Pin_4*%
%TO.N,+BATT*%
X133260000Y-56960000D03*
%TO.P,J1,3,Pin_3*%
%TO.N,GND*%
X133260000Y-59500000D03*
%TO.P,J1,2,Pin_2*%
%TO.N,unconnected-(J1-Pin_2-Pad2)*%
X135800000Y-56960000D03*
D13*
%TO.P,J1,1,Pin_1*%
%TO.N,unconnected-(J1-Pin_1-Pad1)*%
X135800000Y-59500000D03*
%TD*%
D14*
%TO.P,R9,1*%
%TO.N,Net-(JP2-A)*%
X97175000Y-53000000D03*
%TO.P,R9,2*%
%TO.N,Net-(JP3-A)*%
X98825000Y-53000000D03*
%TD*%
D15*
%TO.P,TP5,1,1*%
%TO.N,/PA5*%
X140500000Y-43500000D03*
%TD*%
%TO.P,TP4,1,1*%
%TO.N,/PA4*%
X106000000Y-43500000D03*
%TD*%
%TO.P,TP3,1,1*%
%TO.N,Net-(JP6-A)*%
X139500000Y-48500000D03*
%TD*%
%TO.P,TP2,1,1*%
%TO.N,Net-(JP3-A)*%
X99000000Y-48000000D03*
%TD*%
%TO.P,TP1,1,1*%
%TO.N,/PA3*%
X96500000Y-43500000D03*
%TD*%
D14*
%TO.P,R21,1*%
%TO.N,Net-(JP14-A)*%
X149675000Y-55000000D03*
%TO.P,R21,2*%
%TO.N,GND*%
X151325000Y-55000000D03*
%TD*%
%TO.P,R20,1*%
%TO.N,Net-(JP13-A)*%
X149675000Y-51500000D03*
%TO.P,R20,2*%
%TO.N,Net-(JP14-A)*%
X151325000Y-51500000D03*
%TD*%
%TO.P,R19,1*%
%TO.N,Net-(JP8-A)*%
X87175000Y-55000000D03*
%TO.P,R19,2*%
%TO.N,GND*%
X88825000Y-55000000D03*
%TD*%
%TO.P,R18,1*%
%TO.N,/PA5*%
X149675000Y-48000000D03*
%TO.P,R18,2*%
%TO.N,Net-(JP13-A)*%
X151325000Y-48000000D03*
%TD*%
%TO.P,R17,1*%
%TO.N,Net-(JP11-A)*%
X123850000Y-48000000D03*
%TO.P,R17,2*%
%TO.N,GND*%
X125500000Y-48000000D03*
%TD*%
%TO.P,R16,1*%
%TO.N,Net-(JP10-A)*%
X116675000Y-48000000D03*
%TO.P,R16,2*%
%TO.N,Net-(JP11-A)*%
X118325000Y-48000000D03*
%TD*%
%TO.P,R15,1*%
%TO.N,/PA4*%
X109175000Y-48000000D03*
%TO.P,R15,2*%
%TO.N,Net-(JP10-A)*%
X110825000Y-48000000D03*
%TD*%
%TO.P,R14,1*%
%TO.N,Net-(D7-K)*%
X149675000Y-58500000D03*
%TO.P,R14,2*%
%TO.N,Net-(Q2-C)*%
X151325000Y-58500000D03*
%TD*%
%TO.P,R13,1*%
%TO.N,Net-(D6-K)*%
X131000000Y-48000000D03*
%TO.P,R13,2*%
%TO.N,Net-(Q2-C)*%
X132650000Y-48000000D03*
%TD*%
%TO.P,R12,1*%
%TO.N,Net-(D4-K)*%
X87175000Y-44500000D03*
%TO.P,R12,2*%
%TO.N,Net-(Q2-C)*%
X88825000Y-44500000D03*
%TD*%
%TO.P,R11,1*%
%TO.N,Net-(JP5-A)*%
X139675000Y-53000000D03*
%TO.P,R11,2*%
%TO.N,Net-(JP6-A)*%
X141325000Y-53000000D03*
%TD*%
%TO.P,R10,1*%
%TO.N,Net-(JP4-A)*%
X132350000Y-53000000D03*
%TO.P,R10,2*%
%TO.N,Net-(JP5-A)*%
X134000000Y-53000000D03*
%TD*%
%TO.P,R8,1*%
%TO.N,Net-(JP7-A)*%
X87175000Y-51500000D03*
%TO.P,R8,2*%
%TO.N,Net-(JP8-A)*%
X88825000Y-51500000D03*
%TD*%
%TO.P,R7,1*%
%TO.N,/PA3*%
X87175000Y-48000000D03*
%TO.P,R7,2*%
%TO.N,Net-(JP7-A)*%
X88825000Y-48000000D03*
%TD*%
%TO.P,R6,1*%
%TO.N,Net-(JP1-A)*%
X104500000Y-53000000D03*
%TO.P,R6,2*%
%TO.N,Net-(JP2-A)*%
X106150000Y-53000000D03*
%TD*%
%TO.P,R5,1*%
%TO.N,/PE14*%
X125175000Y-53000000D03*
%TO.P,R5,2*%
%TO.N,Net-(JP4-A)*%
X126825000Y-53000000D03*
%TD*%
%TO.P,R4,1*%
%TO.N,Net-(D1-K)*%
X87175000Y-58500000D03*
%TO.P,R4,2*%
%TO.N,Net-(Q1-C)*%
X88825000Y-58500000D03*
%TD*%
%TO.P,R3,1*%
%TO.N,/PE13*%
X112175000Y-53000000D03*
%TO.P,R3,2*%
%TO.N,Net-(JP1-A)*%
X113825000Y-53000000D03*
%TD*%
%TO.P,R2,1*%
%TO.N,Net-(D3-K)*%
X149675000Y-44000000D03*
%TO.P,R2,2*%
%TO.N,Net-(Q1-C)*%
X151325000Y-44000000D03*
%TD*%
%TO.P,R1,1*%
%TO.N,Net-(D2-K)*%
X105675000Y-48000000D03*
%TO.P,R1,2*%
%TO.N,Net-(Q1-C)*%
X107325000Y-48000000D03*
%TD*%
D16*
%TO.P,Q2,1,C*%
%TO.N,Net-(Q2-C)*%
X134625000Y-47550000D03*
%TO.P,Q2,2,B*%
%TO.N,Net-(JP6-A)*%
X134625000Y-49450000D03*
%TO.P,Q2,3,E*%
%TO.N,GND*%
X136500000Y-48500000D03*
%TD*%
%TO.P,Q1,1,C*%
%TO.N,Net-(Q1-C)*%
X101625000Y-47050000D03*
%TO.P,Q1,2,B*%
%TO.N,Net-(JP3-A)*%
X101625000Y-48950000D03*
%TO.P,Q1,3,E*%
%TO.N,GND*%
X103500000Y-48000000D03*
%TD*%
D17*
%TO.P,JP15,1,A*%
%TO.N,GND*%
X145200000Y-56500000D03*
D18*
%TO.P,JP15,2,B*%
%TO.N,Net-(JP14-A)*%
X146500000Y-56500000D03*
%TD*%
D17*
%TO.P,JP14,1,A*%
%TO.N,Net-(JP14-A)*%
X145200000Y-51500000D03*
D18*
%TO.P,JP14,2,B*%
%TO.N,Net-(JP13-A)*%
X146500000Y-51500000D03*
%TD*%
D17*
%TO.P,JP13,1,A*%
%TO.N,Net-(JP13-A)*%
X145200000Y-46500000D03*
D18*
%TO.P,JP13,2,B*%
%TO.N,/PA5*%
X146500000Y-46500000D03*
%TD*%
D17*
%TO.P,JP12,1,A*%
%TO.N,GND*%
X127500000Y-48000000D03*
D18*
%TO.P,JP12,2,B*%
%TO.N,Net-(JP11-A)*%
X128800000Y-48000000D03*
%TD*%
D17*
%TO.P,JP11,1,A*%
%TO.N,Net-(JP11-A)*%
X120500000Y-48000000D03*
D18*
%TO.P,JP11,2,B*%
%TO.N,Net-(JP10-A)*%
X121800000Y-48000000D03*
%TD*%
D17*
%TO.P,JP10,1,A*%
%TO.N,Net-(JP10-A)*%
X113200000Y-48000000D03*
D18*
%TO.P,JP10,2,B*%
%TO.N,/PA4*%
X114500000Y-48000000D03*
%TD*%
D17*
%TO.P,JP9,1,A*%
%TO.N,GND*%
X92200000Y-56000000D03*
D18*
%TO.P,JP9,2,B*%
%TO.N,Net-(JP8-A)*%
X93500000Y-56000000D03*
%TD*%
D17*
%TO.P,JP8,1,A*%
%TO.N,Net-(JP8-A)*%
X92200000Y-51500000D03*
D18*
%TO.P,JP8,2,B*%
%TO.N,Net-(JP7-A)*%
X93500000Y-51500000D03*
%TD*%
D17*
%TO.P,JP7,1,A*%
%TO.N,Net-(JP7-A)*%
X92200000Y-47000000D03*
D18*
%TO.P,JP7,2,B*%
%TO.N,/PA3*%
X93500000Y-47000000D03*
%TD*%
D17*
%TO.P,JP6,1,A*%
%TO.N,Net-(JP6-A)*%
X136350000Y-53000000D03*
D18*
%TO.P,JP6,2,B*%
%TO.N,Net-(JP5-A)*%
X137650000Y-53000000D03*
%TD*%
D17*
%TO.P,JP5,1,A*%
%TO.N,Net-(JP5-A)*%
X128850000Y-53000000D03*
D18*
%TO.P,JP5,2,B*%
%TO.N,Net-(JP4-A)*%
X130150000Y-53000000D03*
%TD*%
D17*
%TO.P,JP4,1,A*%
%TO.N,Net-(JP4-A)*%
X121700000Y-53000000D03*
D18*
%TO.P,JP4,2,B*%
%TO.N,/PE14*%
X123000000Y-53000000D03*
%TD*%
D17*
%TO.P,JP3,1,A*%
%TO.N,Net-(JP3-A)*%
X100850000Y-53000000D03*
D18*
%TO.P,JP3,2,B*%
%TO.N,Net-(JP2-A)*%
X102150000Y-53000000D03*
%TD*%
D17*
%TO.P,JP2,1,A*%
%TO.N,Net-(JP2-A)*%
X108500000Y-53000000D03*
D18*
%TO.P,JP2,2,B*%
%TO.N,Net-(JP1-A)*%
X109800000Y-53000000D03*
%TD*%
D17*
%TO.P,JP1,1,A*%
%TO.N,Net-(JP1-A)*%
X116200000Y-53000000D03*
D18*
%TO.P,JP1,2,B*%
%TO.N,/PE13*%
X117500000Y-53000000D03*
%TD*%
D10*
%TO.P,D9,1,K*%
%TO.N,+BATT*%
X155525000Y-52775000D03*
D11*
%TO.P,D9,2,A*%
%TO.N,/PA5*%
X155525000Y-50235000D03*
%TD*%
D10*
%TO.P,D8,1,K*%
%TO.N,+BATT*%
X120775000Y-42975000D03*
D11*
%TO.P,D8,2,A*%
%TO.N,/PA4*%
X118235000Y-42975000D03*
%TD*%
D10*
%TO.P,D5,1,K*%
%TO.N,+BATT*%
X83475000Y-50225000D03*
D11*
%TO.P,D5,2,A*%
%TO.N,/PA3*%
X83475000Y-52765000D03*
%TD*%
D19*
%TO.N,GND*%
X125500000Y-49500000D03*
X115500000Y-51125000D03*
%TO.N,+BATT*%
X117500000Y-45000000D03*
%TO.N,GND*%
X122425373Y-58129353D03*
X146500000Y-58500000D03*
X147993662Y-55982420D03*
%TO.N,/PA4*%
X117000000Y-50000000D03*
X115500000Y-48200000D03*
%TO.N,GND*%
X143500000Y-55500000D03*
X138000000Y-49500000D03*
X141500000Y-55000000D03*
X91500000Y-57500000D03*
X101000000Y-58000000D03*
%TO.N,/PE14*%
X126500000Y-54500000D03*
X124500000Y-55500000D03*
%TO.N,/PA5*%
X143500000Y-48500000D03*
X126380000Y-58230451D03*
%TO.N,+BATT*%
X133500000Y-55000000D03*
X144500000Y-59500000D03*
X105500000Y-55000000D03*
X98500000Y-56000000D03*
%TO.N,/PA4*%
X105000000Y-45000000D03*
X106000000Y-50500000D03*
%TO.N,/PA3*%
X95500000Y-54500000D03*
X100000000Y-55000000D03*
%TO.N,+BATT*%
X153500000Y-52000000D03*
X153619975Y-43380025D03*
X153000000Y-42000000D03*
X128500000Y-45500000D03*
X85563050Y-59200000D03*
X85500000Y-49500000D03*
X85000000Y-46500000D03*
X86000000Y-42000000D03*
%TO.N,Net-(Q2-C)*%
X92500000Y-43000000D03*
X132500000Y-50000000D03*
%TO.N,/PA4*%
X109000000Y-46000000D03*
X108500000Y-43500000D03*
%TO.N,Net-(JP13-A)*%
X152000000Y-49000000D03*
X149500000Y-50000000D03*
%TO.N,Net-(JP6-A)*%
X135000000Y-53000000D03*
X135000000Y-51000000D03*
%TO.N,Net-(Q1-C)*%
X107500000Y-46000000D03*
X152500000Y-44500000D03*
%TD*%
D20*
%TO.N,GND*%
X132950000Y-50700000D02*
X133487500Y-50162500D01*
X133487500Y-49068026D02*
X133805526Y-48750000D01*
X133805526Y-48750000D02*
X136250000Y-48750000D01*
X127500000Y-48755000D02*
X129445000Y-50700000D01*
X129445000Y-50700000D02*
X132950000Y-50700000D01*
X136250000Y-48750000D02*
X136500000Y-48500000D01*
X127500000Y-48000000D02*
X127500000Y-48755000D01*
X133487500Y-50162500D02*
X133487500Y-49068026D01*
X125500000Y-48000000D02*
X127500000Y-48000000D01*
X125500000Y-49500000D02*
X125500000Y-48000000D01*
X115380000Y-51245000D02*
X115500000Y-51125000D01*
X103500000Y-49338528D02*
X105406472Y-51245000D01*
X103500000Y-48000000D02*
X103500000Y-49338528D01*
X105406472Y-51245000D02*
X115380000Y-51245000D01*
D21*
%TO.N,+BATT*%
X118750000Y-45000000D02*
X117500000Y-45000000D01*
X120775000Y-42975000D02*
X118750000Y-45000000D01*
D22*
%TO.N,/PA5*%
X126380000Y-58230451D02*
X124369549Y-58230451D01*
X124369549Y-58230451D02*
X123100000Y-59500000D01*
D20*
%TO.N,Net-(JP2-A)*%
X103025000Y-53875000D02*
X102150000Y-53000000D01*
X106510050Y-53000000D02*
X105635050Y-53875000D01*
X105635050Y-53875000D02*
X103025000Y-53875000D01*
X108500000Y-53000000D02*
X106510050Y-53000000D01*
%TO.N,GND*%
X122344726Y-58210000D02*
X122425373Y-58129353D01*
X119310000Y-58210000D02*
X122344726Y-58210000D01*
X118020000Y-59500000D02*
X119310000Y-58210000D01*
X116730000Y-58210000D02*
X118020000Y-59500000D01*
X111690000Y-58210000D02*
X116730000Y-58210000D01*
X110400000Y-59500000D02*
X111690000Y-58210000D01*
X109150000Y-58250000D02*
X110400000Y-59500000D01*
X104030000Y-58250000D02*
X109150000Y-58250000D01*
X102780000Y-59500000D02*
X104030000Y-58250000D01*
X145200000Y-57200000D02*
X145200000Y-56500000D01*
X146500000Y-58500000D02*
X145200000Y-57200000D01*
X150342580Y-55982420D02*
X147993662Y-55982420D01*
X151325000Y-55000000D02*
X150342580Y-55982420D01*
%TO.N,/PA4*%
X116998932Y-50001068D02*
X116998932Y-50500000D01*
X115300000Y-48000000D02*
X115500000Y-48200000D01*
X114500000Y-48000000D02*
X115300000Y-48000000D01*
X117000000Y-50000000D02*
X116998932Y-50001068D01*
D22*
%TO.N,GND*%
X144500000Y-56500000D02*
X143500000Y-55500000D01*
X145200000Y-56500000D02*
X144500000Y-56500000D01*
D20*
X137500000Y-49500000D02*
X136500000Y-48500000D01*
X138000000Y-49500000D02*
X137500000Y-49500000D01*
X135992233Y-55000000D02*
X141500000Y-55000000D01*
X134510000Y-56482233D02*
X135992233Y-55000000D01*
X134510000Y-58250000D02*
X134510000Y-56482233D01*
X133260000Y-59500000D02*
X134510000Y-58250000D01*
X89825000Y-56000000D02*
X88825000Y-55000000D01*
X92200000Y-56000000D02*
X89825000Y-56000000D01*
X91500000Y-56700000D02*
X92200000Y-56000000D01*
X91500000Y-57500000D02*
X91500000Y-56700000D01*
X102500000Y-59500000D02*
X101000000Y-58000000D01*
X102780000Y-59500000D02*
X102500000Y-59500000D01*
%TO.N,/PE13*%
X122716470Y-56960000D02*
X118756470Y-53000000D01*
X123100000Y-56960000D02*
X122716470Y-56960000D01*
X118756470Y-53000000D02*
X117500000Y-53000000D01*
%TO.N,/PE14*%
X124500000Y-55820000D02*
X125640000Y-56960000D01*
X124500000Y-55500000D02*
X124500000Y-55820000D01*
X125175000Y-53175000D02*
X126500000Y-54500000D01*
X125175000Y-53000000D02*
X125175000Y-53175000D01*
D22*
%TO.N,/PA5*%
X141192462Y-43950000D02*
X140500000Y-43950000D01*
X143500000Y-46257538D02*
X141192462Y-43950000D01*
X143500000Y-48500000D02*
X143500000Y-46257538D01*
D21*
%TO.N,+BATT*%
X133500000Y-56720000D02*
X133260000Y-56960000D01*
X148000000Y-59500000D02*
X144500000Y-59500000D01*
X133500000Y-55000000D02*
X133500000Y-56720000D01*
X148000000Y-57000000D02*
X148000000Y-59500000D01*
X148265000Y-56735000D02*
X148000000Y-57000000D01*
X155525000Y-56735000D02*
X148265000Y-56735000D01*
X105500000Y-56780000D02*
X105320000Y-56960000D01*
X105500000Y-55000000D02*
X105500000Y-56780000D01*
X84375000Y-60165000D02*
X94335000Y-60165000D01*
X83475000Y-59265000D02*
X84375000Y-60165000D01*
X94335000Y-60165000D02*
X98500000Y-56000000D01*
D22*
%TO.N,/PA4*%
X105813604Y-43950000D02*
X105681802Y-43818198D01*
X105000000Y-45000000D02*
X105813604Y-44186396D01*
X105813604Y-44186396D02*
X105813604Y-43950000D01*
X116998932Y-50500000D02*
X106000000Y-50500000D01*
X120998932Y-54500000D02*
X116998932Y-50500000D01*
X124841701Y-54500000D02*
X120998932Y-54500000D01*
X127005000Y-56663299D02*
X124841701Y-54500000D01*
X127005000Y-58325000D02*
X127005000Y-56663299D01*
X128180000Y-59500000D02*
X127005000Y-58325000D01*
%TO.N,/PA3*%
X100000000Y-58381701D02*
X100000000Y-55000000D01*
X129545000Y-60675000D02*
X102293299Y-60675000D01*
X102293299Y-60675000D02*
X100000000Y-58381701D01*
X130720000Y-59500000D02*
X129545000Y-60675000D01*
X95500000Y-49000000D02*
X93500000Y-47000000D01*
X95500000Y-54500000D02*
X95500000Y-49000000D01*
%TO.N,Net-(JP13-A)*%
X146500000Y-51500000D02*
X149675000Y-51500000D01*
%TO.N,/PA3*%
X96500000Y-43500000D02*
X97000000Y-43500000D01*
D21*
%TO.N,+BATT*%
X155525000Y-52775000D02*
X155525000Y-56735000D01*
X154750000Y-52000000D02*
X155525000Y-52775000D01*
X153500000Y-52000000D02*
X154750000Y-52000000D01*
X153974950Y-43735000D02*
X153619975Y-43380025D01*
X155525000Y-43735000D02*
X153974950Y-43735000D01*
X153790000Y-42000000D02*
X155525000Y-43735000D01*
X127760000Y-45500000D02*
X128500000Y-45500000D01*
X153000000Y-42000000D02*
X153790000Y-42000000D01*
X125235000Y-42975000D02*
X127760000Y-45500000D01*
X125235000Y-42975000D02*
X120775000Y-42975000D01*
D20*
%TO.N,Net-(Q1-C)*%
X106325000Y-49000000D02*
X107325000Y-48000000D01*
X104637500Y-47618026D02*
X104637500Y-48291570D01*
X104069474Y-47050000D02*
X104637500Y-47618026D01*
X101625000Y-47050000D02*
X104069474Y-47050000D01*
X104637500Y-48291570D02*
X105345930Y-49000000D01*
X105345930Y-49000000D02*
X106325000Y-49000000D01*
D21*
%TO.N,+BATT*%
X83540000Y-59200000D02*
X83475000Y-59265000D01*
X85563050Y-59200000D02*
X83540000Y-59200000D01*
X84775000Y-50225000D02*
X85500000Y-49500000D01*
X83475000Y-50225000D02*
X84775000Y-50225000D01*
X83475000Y-46265000D02*
X83475000Y-50225000D01*
X83710000Y-46500000D02*
X83475000Y-46265000D01*
X85000000Y-46500000D02*
X83710000Y-46500000D01*
X86200000Y-41800000D02*
X86000000Y-42000000D01*
X110060000Y-41800000D02*
X86200000Y-41800000D01*
X111235000Y-42975000D02*
X110060000Y-41800000D01*
D20*
%TO.N,Net-(Q2-C)*%
X91000000Y-44500000D02*
X92500000Y-43000000D01*
X88825000Y-44500000D02*
X91000000Y-44500000D01*
D22*
%TO.N,Net-(JP8-A)*%
X88825000Y-51500000D02*
X92200000Y-51500000D01*
%TO.N,Net-(JP7-A)*%
X88825000Y-48000000D02*
X91200000Y-48000000D01*
X91200000Y-48000000D02*
X92200000Y-47000000D01*
%TO.N,/PA3*%
X89675000Y-45500000D02*
X87175000Y-48000000D01*
X92755000Y-45500000D02*
X89675000Y-45500000D01*
X93500000Y-46245000D02*
X92755000Y-45500000D01*
X93500000Y-47000000D02*
X93500000Y-46245000D01*
X96500000Y-44000000D02*
X96500000Y-43500000D01*
X93500000Y-47000000D02*
X96500000Y-44000000D01*
%TO.N,Net-(JP7-A)*%
X92200000Y-47416693D02*
X92200000Y-47000000D01*
X93500000Y-48716693D02*
X92200000Y-47416693D01*
X93500000Y-51500000D02*
X93500000Y-48716693D01*
%TO.N,Net-(JP8-A)*%
X93500000Y-55583307D02*
X93500000Y-56000000D01*
X92200000Y-54283307D02*
X93500000Y-55583307D01*
X92200000Y-51500000D02*
X92200000Y-54283307D01*
X88825000Y-53350000D02*
X87175000Y-55000000D01*
X88825000Y-51500000D02*
X88825000Y-53350000D01*
%TO.N,Net-(JP7-A)*%
X88825000Y-49850000D02*
X87175000Y-51500000D01*
X88825000Y-48000000D02*
X88825000Y-49850000D01*
%TO.N,/PA3*%
X87175000Y-49065000D02*
X87175000Y-48000000D01*
X83475000Y-52765000D02*
X87175000Y-49065000D01*
D20*
%TO.N,Net-(Q1-C)*%
X100575000Y-46000000D02*
X101625000Y-47050000D01*
X98700000Y-46000000D02*
X100575000Y-46000000D01*
X93500000Y-58500000D02*
X96375000Y-55625000D01*
X96375000Y-55625000D02*
X96375000Y-48325000D01*
X88825000Y-58500000D02*
X93500000Y-58500000D01*
X96375000Y-48325000D02*
X98700000Y-46000000D01*
%TO.N,Net-(D1-K)*%
X85250000Y-58500000D02*
X83475000Y-56725000D01*
X87175000Y-58500000D02*
X85250000Y-58500000D01*
%TO.N,Net-(Q2-C)*%
X132500000Y-48150000D02*
X132650000Y-48000000D01*
X132500000Y-50000000D02*
X132500000Y-48150000D01*
X88825000Y-44500000D02*
X88825000Y-44025000D01*
%TO.N,Net-(D4-K)*%
X86400000Y-43725000D02*
X87175000Y-44500000D01*
X83475000Y-43725000D02*
X86400000Y-43725000D01*
D22*
%TO.N,Net-(JP11-A)*%
X124930000Y-46920000D02*
X123850000Y-48000000D01*
X128800000Y-47245000D02*
X128475000Y-46920000D01*
X128475000Y-46920000D02*
X124930000Y-46920000D01*
X128800000Y-48000000D02*
X128800000Y-47245000D01*
X120000000Y-47000000D02*
X120000000Y-47500000D01*
X120000000Y-47500000D02*
X120500000Y-48000000D01*
X122770000Y-46920000D02*
X120080000Y-46920000D01*
X120080000Y-46920000D02*
X120000000Y-47000000D01*
X123850000Y-48000000D02*
X122770000Y-46920000D01*
%TO.N,Net-(JP10-A)*%
X117755000Y-49080000D02*
X116675000Y-48000000D01*
X121475000Y-49080000D02*
X117755000Y-49080000D01*
X121800000Y-48755000D02*
X121475000Y-49080000D01*
X121800000Y-48000000D02*
X121800000Y-48755000D01*
%TO.N,Net-(JP11-A)*%
X118325000Y-48000000D02*
X120500000Y-48000000D01*
%TO.N,Net-(JP10-A)*%
X113525000Y-49080000D02*
X113200000Y-48755000D01*
X115595000Y-49080000D02*
X113525000Y-49080000D01*
X116675000Y-48000000D02*
X115595000Y-49080000D01*
X113200000Y-48755000D02*
X113200000Y-48000000D01*
D20*
%TO.N,/PA4*%
X114500000Y-48000000D02*
X114500000Y-46710000D01*
X114500000Y-46710000D02*
X118235000Y-42975000D01*
D22*
%TO.N,Net-(JP10-A)*%
X110825000Y-48000000D02*
X113200000Y-48000000D01*
%TO.N,/PA4*%
X109000000Y-47825000D02*
X109175000Y-48000000D01*
X109000000Y-46000000D02*
X109000000Y-47825000D01*
X106000000Y-43500000D02*
X108500000Y-43500000D01*
%TO.N,Net-(JP14-A)*%
X148000000Y-55000000D02*
X146500000Y-56500000D01*
X149675000Y-55000000D02*
X148000000Y-55000000D01*
%TO.N,GND*%
X145200000Y-56500000D02*
X145200000Y-57255000D01*
%TO.N,Net-(JP13-A)*%
X152000000Y-48675000D02*
X151325000Y-48000000D01*
X152000000Y-49000000D02*
X152000000Y-48675000D01*
X149675000Y-51500000D02*
X149675000Y-50175000D01*
X149675000Y-50175000D02*
X149500000Y-50000000D01*
%TO.N,Net-(JP14-A)*%
X149675000Y-53150000D02*
X151325000Y-51500000D01*
X149675000Y-55000000D02*
X149675000Y-53150000D01*
X146500000Y-56083307D02*
X146500000Y-56500000D01*
X145200000Y-54783307D02*
X146500000Y-56083307D01*
X145200000Y-51500000D02*
X145200000Y-54783307D01*
%TO.N,Net-(JP13-A)*%
X146500000Y-51083307D02*
X146500000Y-51500000D01*
X145200000Y-49783307D02*
X146500000Y-51083307D01*
X145200000Y-46500000D02*
X145200000Y-49783307D01*
%TO.N,/PA5*%
X151910000Y-50235000D02*
X155525000Y-50235000D01*
X149675000Y-48000000D02*
X151910000Y-50235000D01*
X147500000Y-46500000D02*
X149000000Y-48000000D01*
X149000000Y-48000000D02*
X149675000Y-48000000D01*
X146500000Y-46500000D02*
X147500000Y-46500000D01*
X146500000Y-45745000D02*
X146500000Y-46500000D01*
X140500000Y-43500000D02*
X144255000Y-43500000D01*
X144255000Y-43500000D02*
X146500000Y-45745000D01*
D20*
%TO.N,Net-(D3-K)*%
X152375000Y-43125000D02*
X155525000Y-46275000D01*
X150550000Y-43125000D02*
X152375000Y-43125000D01*
X149675000Y-44000000D02*
X150550000Y-43125000D01*
%TO.N,Net-(D7-K)*%
X153875000Y-57625000D02*
X155525000Y-59275000D01*
X150550000Y-57625000D02*
X153875000Y-57625000D01*
X149675000Y-58500000D02*
X150550000Y-57625000D01*
%TO.N,Net-(Q2-C)*%
X149025000Y-60800000D02*
X151325000Y-58500000D01*
X142500000Y-60800000D02*
X149025000Y-60800000D01*
X142500000Y-46000000D02*
X142500000Y-60800000D01*
X134625000Y-47550000D02*
X136175000Y-46000000D01*
X136175000Y-46000000D02*
X142500000Y-46000000D01*
X134175000Y-48000000D02*
X134625000Y-47550000D01*
X132650000Y-48000000D02*
X134175000Y-48000000D01*
%TO.N,Net-(D6-K)*%
X131000000Y-46200000D02*
X127775000Y-42975000D01*
X131000000Y-48000000D02*
X131000000Y-46200000D01*
%TO.N,Net-(JP10-A)*%
X113000000Y-47800000D02*
X113200000Y-48000000D01*
%TO.N,/PA4*%
X114500000Y-48000000D02*
X114500000Y-48522759D01*
%TO.N,Net-(D2-K)*%
X113500000Y-45000000D02*
X113775000Y-44725000D01*
X107510050Y-45000000D02*
X113500000Y-45000000D01*
X105675000Y-46835050D02*
X107510050Y-45000000D01*
X113775000Y-44725000D02*
X113775000Y-42975000D01*
X105675000Y-48000000D02*
X105675000Y-46835050D01*
%TO.N,Net-(JP6-A)*%
X135000000Y-53000000D02*
X136350000Y-53000000D01*
X134625000Y-50625000D02*
X135000000Y-51000000D01*
X134625000Y-49450000D02*
X134625000Y-50625000D01*
%TO.N,Net-(JP5-A)*%
X139675000Y-53000000D02*
X137650000Y-53000000D01*
%TO.N,Net-(JP6-A)*%
X141325000Y-50325000D02*
X139500000Y-48500000D01*
X141325000Y-53000000D02*
X141325000Y-50325000D01*
X140170000Y-54155000D02*
X141325000Y-53000000D01*
X136750000Y-54155000D02*
X140170000Y-54155000D01*
X136350000Y-53755000D02*
X136750000Y-54155000D01*
X136350000Y-53000000D02*
X136350000Y-53755000D01*
%TO.N,Net-(JP5-A)*%
X137250000Y-51845000D02*
X137650000Y-52245000D01*
X137650000Y-52245000D02*
X137650000Y-53000000D01*
X135155000Y-51845000D02*
X137250000Y-51845000D01*
X134000000Y-53000000D02*
X135155000Y-51845000D01*
%TO.N,Net-(JP4-A)*%
X127980000Y-54155000D02*
X126825000Y-53000000D01*
X129750000Y-54155000D02*
X127980000Y-54155000D01*
X130150000Y-53755000D02*
X129750000Y-54155000D01*
X130150000Y-53000000D02*
X130150000Y-53755000D01*
X130150000Y-53000000D02*
X132350000Y-53000000D01*
%TO.N,Net-(JP5-A)*%
X132845000Y-51845000D02*
X134000000Y-53000000D01*
X129250000Y-51845000D02*
X132845000Y-51845000D01*
X128850000Y-53000000D02*
X128850000Y-52245000D01*
X128850000Y-52245000D02*
X129250000Y-51845000D01*
%TO.N,/PE14*%
X123000000Y-53000000D02*
X125175000Y-53000000D01*
%TO.N,Net-(JP4-A)*%
X125325000Y-51500000D02*
X126825000Y-53000000D01*
X122445000Y-51500000D02*
X125325000Y-51500000D01*
X121700000Y-52245000D02*
X122445000Y-51500000D01*
X121700000Y-53000000D02*
X121700000Y-52245000D01*
%TO.N,Net-(JP1-A)*%
X110675000Y-53875000D02*
X109800000Y-53000000D01*
X113125000Y-53875000D02*
X110675000Y-53875000D01*
X113825000Y-53175000D02*
X113125000Y-53875000D01*
X113825000Y-53000000D02*
X113825000Y-53175000D01*
X116200000Y-53000000D02*
X113825000Y-53000000D01*
%TO.N,/PE13*%
X117100000Y-51845000D02*
X117500000Y-52245000D01*
X112175000Y-53000000D02*
X113330000Y-51845000D01*
X113330000Y-51845000D02*
X117100000Y-51845000D01*
X117500000Y-52245000D02*
X117500000Y-53000000D01*
%TO.N,Net-(JP2-A)*%
X106150000Y-53000000D02*
X108500000Y-53000000D01*
%TO.N,Net-(JP3-A)*%
X100675000Y-48000000D02*
X101625000Y-48950000D01*
X99000000Y-48000000D02*
X100675000Y-48000000D01*
X98825000Y-53000000D02*
X98825000Y-48175000D01*
%TO.N,Net-(JP1-A)*%
X109800000Y-52245000D02*
X109800000Y-53000000D01*
X105655000Y-51845000D02*
X109400000Y-51845000D01*
X109400000Y-51845000D02*
X109800000Y-52245000D01*
X104500000Y-53000000D02*
X105655000Y-51845000D01*
%TO.N,Net-(JP3-A)*%
X98825000Y-48175000D02*
X99000000Y-48000000D01*
X98825000Y-53000000D02*
X100850000Y-53000000D01*
%TO.N,Net-(JP2-A)*%
X101750000Y-54155000D02*
X102150000Y-53755000D01*
X97175000Y-53000000D02*
X98330000Y-54155000D01*
X98330000Y-54155000D02*
X101750000Y-54155000D01*
X102150000Y-53755000D02*
X102150000Y-53000000D01*
%TO.N,Net-(Q1-C)*%
X107500000Y-46000000D02*
X107500000Y-47825000D01*
X152000000Y-44000000D02*
X152500000Y-44500000D01*
X107500000Y-47825000D02*
X107325000Y-48000000D01*
X151325000Y-44000000D02*
X152000000Y-44000000D01*
D23*
%TO.N,/PE13*%
X117500000Y-53000000D02*
X117500000Y-53500000D01*
%TD*%
%TA.AperFunction,Conductor*%
%TO.N,GND*%
G36*
X85218968Y-41520185D02*
G01*
X85264723Y-41572989D01*
X85274667Y-41642147D01*
X85268970Y-41665453D01*
X85262363Y-41684335D01*
X85252982Y-41711142D01*
X85250504Y-41717631D01*
X85230264Y-41766496D01*
X85230263Y-41766502D01*
X85227550Y-41780140D01*
X85222975Y-41796898D01*
X85214634Y-41820735D01*
X85214632Y-41820742D01*
X85208890Y-41871696D01*
X85207288Y-41881994D01*
X85199500Y-41921152D01*
X85199500Y-41948085D01*
X85198720Y-41961968D01*
X85194435Y-42000000D01*
X85197491Y-42027127D01*
X85198720Y-42038029D01*
X85199500Y-42051914D01*
X85199500Y-42078844D01*
X85207288Y-42118003D01*
X85208890Y-42128303D01*
X85214632Y-42179252D01*
X85214633Y-42179260D01*
X85222976Y-42203104D01*
X85227550Y-42219860D01*
X85230262Y-42233496D01*
X85250509Y-42282377D01*
X85252986Y-42288867D01*
X85268954Y-42334500D01*
X85274212Y-42349524D01*
X85280709Y-42359865D01*
X85290268Y-42378365D01*
X85290603Y-42379173D01*
X85290605Y-42379179D01*
X85327223Y-42433982D01*
X85329114Y-42436900D01*
X85370180Y-42502257D01*
X85370182Y-42502260D01*
X85370184Y-42502262D01*
X85497738Y-42629816D01*
X85541735Y-42657461D01*
X85563131Y-42670905D01*
X85566040Y-42672790D01*
X85620821Y-42709394D01*
X85621606Y-42709719D01*
X85640134Y-42719289D01*
X85650478Y-42725789D01*
X85711175Y-42747028D01*
X85717607Y-42749484D01*
X85746021Y-42761253D01*
X85766497Y-42769735D01*
X85766498Y-42769735D01*
X85766503Y-42769737D01*
X85780139Y-42772449D01*
X85796898Y-42777023D01*
X85815292Y-42783459D01*
X85872066Y-42824182D01*
X85897812Y-42889136D01*
X85884354Y-42957697D01*
X85835966Y-43008099D01*
X85774334Y-43024500D01*
X84999499Y-43024500D01*
X84932460Y-43004815D01*
X84886705Y-42952011D01*
X84875499Y-42900500D01*
X84875499Y-42777129D01*
X84875498Y-42777123D01*
X84875497Y-42777116D01*
X84869091Y-42717517D01*
X84866181Y-42709716D01*
X84818797Y-42582671D01*
X84818793Y-42582664D01*
X84732547Y-42467455D01*
X84732544Y-42467452D01*
X84617335Y-42381206D01*
X84617328Y-42381202D01*
X84482482Y-42330908D01*
X84482483Y-42330908D01*
X84422883Y-42324501D01*
X84422881Y-42324500D01*
X84422873Y-42324500D01*
X84422864Y-42324500D01*
X82527129Y-42324500D01*
X82527123Y-42324501D01*
X82467516Y-42330908D01*
X82332671Y-42381202D01*
X82332664Y-42381206D01*
X82217455Y-42467452D01*
X82217452Y-42467455D01*
X82131206Y-42582664D01*
X82131202Y-42582671D01*
X82080908Y-42717517D01*
X82074511Y-42777025D01*
X82074501Y-42777123D01*
X82074500Y-42777135D01*
X82074500Y-44672870D01*
X82074501Y-44672876D01*
X82080908Y-44732483D01*
X82131202Y-44867328D01*
X82131206Y-44867335D01*
X82217452Y-44982544D01*
X82217455Y-44982547D01*
X82332664Y-45068793D01*
X82332673Y-45068798D01*
X82412904Y-45098722D01*
X82468838Y-45140593D01*
X82493256Y-45206057D01*
X82478405Y-45274330D01*
X82460802Y-45298886D01*
X82366019Y-45401849D01*
X82239075Y-45596151D01*
X82145842Y-45808699D01*
X82088866Y-46033691D01*
X82088864Y-46033702D01*
X82069700Y-46264993D01*
X82069700Y-46265006D01*
X82088864Y-46496297D01*
X82088866Y-46496308D01*
X82145842Y-46721300D01*
X82239075Y-46933848D01*
X82366016Y-47128147D01*
X82366019Y-47128151D01*
X82366021Y-47128153D01*
X82523216Y-47298913D01*
X82626662Y-47379428D01*
X82667475Y-47436137D01*
X82674500Y-47477281D01*
X82674500Y-48700500D01*
X82654815Y-48767539D01*
X82602011Y-48813294D01*
X82550505Y-48824500D01*
X82527132Y-48824500D01*
X82527123Y-48824501D01*
X82467516Y-48830908D01*
X82332671Y-48881202D01*
X82332664Y-48881206D01*
X82217455Y-48967452D01*
X82217452Y-48967455D01*
X82131206Y-49082664D01*
X82131202Y-49082671D01*
X82080908Y-49217517D01*
X82074501Y-49277116D01*
X82074500Y-49277135D01*
X82074500Y-51172870D01*
X82074501Y-51172876D01*
X82080908Y-51232483D01*
X82131202Y-51367328D01*
X82131206Y-51367335D01*
X82217452Y-51482544D01*
X82217455Y-51482547D01*
X82332664Y-51568793D01*
X82332673Y-51568798D01*
X82412904Y-51598722D01*
X82468838Y-51640593D01*
X82493256Y-51706057D01*
X82478405Y-51774330D01*
X82460802Y-51798886D01*
X82366019Y-51901849D01*
X82239075Y-52096151D01*
X82145842Y-52308699D01*
X82088866Y-52533691D01*
X82088864Y-52533702D01*
X82069700Y-52764993D01*
X82069700Y-52765006D01*
X82088864Y-52996297D01*
X82088866Y-52996308D01*
X82145842Y-53221300D01*
X82239075Y-53433848D01*
X82366016Y-53628147D01*
X82366019Y-53628151D01*
X82366021Y-53628153D01*
X82523216Y-53798913D01*
X82523219Y-53798915D01*
X82523222Y-53798918D01*
X82706365Y-53941464D01*
X82706371Y-53941468D01*
X82706374Y-53941470D01*
X82910497Y-54051936D01*
X83012099Y-54086816D01*
X83130015Y-54127297D01*
X83130017Y-54127297D01*
X83130019Y-54127298D01*
X83358951Y-54165500D01*
X83358952Y-54165500D01*
X83591048Y-54165500D01*
X83591049Y-54165500D01*
X83819981Y-54127298D01*
X84039503Y-54051936D01*
X84243626Y-53941470D01*
X84426784Y-53798913D01*
X84583979Y-53628153D01*
X84710924Y-53433849D01*
X84804157Y-53221300D01*
X84861134Y-52996305D01*
X84861670Y-52989839D01*
X84880300Y-52765006D01*
X84880300Y-52764993D01*
X84861135Y-52533702D01*
X84861132Y-52533686D01*
X84843178Y-52462791D01*
X84823823Y-52386361D01*
X84826447Y-52316544D01*
X84856345Y-52268243D01*
X86064151Y-51060437D01*
X86125472Y-51026954D01*
X86195164Y-51031938D01*
X86251097Y-51073810D01*
X86275514Y-51139274D01*
X86275322Y-51159332D01*
X86274500Y-51168385D01*
X86274500Y-51831613D01*
X86280913Y-51902192D01*
X86280913Y-51902194D01*
X86280914Y-51902196D01*
X86331522Y-52064606D01*
X86415247Y-52203104D01*
X86419530Y-52210188D01*
X86539811Y-52330469D01*
X86539813Y-52330470D01*
X86539815Y-52330472D01*
X86685394Y-52418478D01*
X86847804Y-52469086D01*
X86918384Y-52475500D01*
X86918387Y-52475500D01*
X87431613Y-52475500D01*
X87431616Y-52475500D01*
X87502196Y-52469086D01*
X87664606Y-52418478D01*
X87810185Y-52330472D01*
X87912320Y-52228336D01*
X87973641Y-52194853D01*
X88043333Y-52199837D01*
X88087681Y-52228338D01*
X88163181Y-52303838D01*
X88196666Y-52365161D01*
X88199500Y-52391519D01*
X88199500Y-53039547D01*
X88179815Y-53106586D01*
X88163181Y-53127228D01*
X87302229Y-53988181D01*
X87240906Y-54021666D01*
X87214548Y-54024500D01*
X86918384Y-54024500D01*
X86899145Y-54026248D01*
X86847807Y-54030913D01*
X86685393Y-54081522D01*
X86539811Y-54169530D01*
X86419530Y-54289811D01*
X86331522Y-54435393D01*
X86280913Y-54597807D01*
X86274500Y-54668386D01*
X86274500Y-55331613D01*
X86280913Y-55402192D01*
X86280913Y-55402194D01*
X86280914Y-55402196D01*
X86331522Y-55564606D01*
X86419342Y-55709878D01*
X86419530Y-55710188D01*
X86539811Y-55830469D01*
X86539813Y-55830470D01*
X86539815Y-55830472D01*
X86685394Y-55918478D01*
X86847804Y-55969086D01*
X86918384Y-55975500D01*
X86918387Y-55975500D01*
X87431613Y-55975500D01*
X87431616Y-55975500D01*
X87502196Y-55969086D01*
X87664606Y-55918478D01*
X87810185Y-55830472D01*
X87912673Y-55727983D01*
X87973994Y-55694499D01*
X88043685Y-55699483D01*
X88088034Y-55727984D01*
X88190122Y-55830072D01*
X88335604Y-55918019D01*
X88335603Y-55918019D01*
X88497894Y-55968590D01*
X88497893Y-55968590D01*
X88568408Y-55974998D01*
X88568426Y-55974999D01*
X88574999Y-55974998D01*
X88575000Y-55974998D01*
X88575000Y-55250000D01*
X89075000Y-55250000D01*
X89075000Y-55974999D01*
X89081581Y-55974999D01*
X89152102Y-55968591D01*
X89152107Y-55968590D01*
X89314396Y-55918018D01*
X89459877Y-55830072D01*
X89580072Y-55709877D01*
X89668019Y-55564395D01*
X89718590Y-55402106D01*
X89725000Y-55331572D01*
X89725000Y-55250000D01*
X89075000Y-55250000D01*
X88575000Y-55250000D01*
X88575000Y-54874000D01*
X88594685Y-54806961D01*
X88647489Y-54761206D01*
X88699000Y-54750000D01*
X89724999Y-54750000D01*
X89724999Y-54668417D01*
X89718591Y-54597897D01*
X89718590Y-54597892D01*
X89668018Y-54435603D01*
X89580072Y-54290122D01*
X89459877Y-54169927D01*
X89314395Y-54081980D01*
X89314396Y-54081980D01*
X89253456Y-54062991D01*
X89195308Y-54024254D01*
X89167334Y-53960229D01*
X89178416Y-53891243D01*
X89202663Y-53856927D01*
X89310857Y-53748734D01*
X89321308Y-53733094D01*
X89379311Y-53646286D01*
X89426463Y-53532452D01*
X89450500Y-53411606D01*
X89450500Y-52391519D01*
X89470185Y-52324480D01*
X89486814Y-52303842D01*
X89580472Y-52210185D01*
X89595486Y-52185349D01*
X89647014Y-52138162D01*
X89701602Y-52125500D01*
X91186403Y-52125500D01*
X91253442Y-52145185D01*
X91299197Y-52197988D01*
X91315223Y-52233081D01*
X91315227Y-52233087D01*
X91315230Y-52233094D01*
X91368859Y-52316544D01*
X91393015Y-52354132D01*
X91393018Y-52354136D01*
X91475771Y-52449638D01*
X91487168Y-52462791D01*
X91487171Y-52462794D01*
X91531703Y-52501380D01*
X91569477Y-52560157D01*
X91574500Y-52595093D01*
X91574500Y-54344918D01*
X91580384Y-54374498D01*
X91580384Y-54374500D01*
X91580385Y-54374500D01*
X91596496Y-54455500D01*
X91596497Y-54455504D01*
X91596496Y-54455504D01*
X91598536Y-54465756D01*
X91598537Y-54465761D01*
X91645685Y-54579588D01*
X91645687Y-54579591D01*
X91645688Y-54579593D01*
X91673237Y-54620821D01*
X91714142Y-54682040D01*
X91801267Y-54769165D01*
X91801268Y-54769165D01*
X91808335Y-54776232D01*
X91808334Y-54776232D01*
X91808338Y-54776235D01*
X92458181Y-55426078D01*
X92491666Y-55487401D01*
X92494500Y-55513759D01*
X92494500Y-56750002D01*
X92499644Y-56821940D01*
X92540182Y-56959994D01*
X92617967Y-57081030D01*
X92617971Y-57081034D01*
X92680068Y-57134842D01*
X92726706Y-57175254D01*
X92761842Y-57191300D01*
X92857580Y-57235023D01*
X92857583Y-57235023D01*
X92857584Y-57235024D01*
X93000000Y-57255500D01*
X93000003Y-57255500D01*
X93454480Y-57255500D01*
X93521519Y-57275185D01*
X93567274Y-57327989D01*
X93577218Y-57397147D01*
X93548193Y-57460703D01*
X93542161Y-57467181D01*
X93246162Y-57763181D01*
X93184839Y-57796666D01*
X93158481Y-57799500D01*
X89641520Y-57799500D01*
X89574481Y-57779815D01*
X89553839Y-57763181D01*
X89460188Y-57669530D01*
X89402645Y-57634744D01*
X89314606Y-57581522D01*
X89152196Y-57530914D01*
X89152194Y-57530913D01*
X89152192Y-57530913D01*
X89102778Y-57526423D01*
X89081616Y-57524500D01*
X88568384Y-57524500D01*
X88549145Y-57526248D01*
X88497807Y-57530913D01*
X88335393Y-57581522D01*
X88189811Y-57669530D01*
X88189810Y-57669531D01*
X88087681Y-57771661D01*
X88026358Y-57805146D01*
X87956666Y-57800162D01*
X87912319Y-57771661D01*
X87810188Y-57669530D01*
X87752645Y-57634744D01*
X87664606Y-57581522D01*
X87502196Y-57530914D01*
X87502194Y-57530913D01*
X87502192Y-57530913D01*
X87452778Y-57526423D01*
X87431616Y-57524500D01*
X86918384Y-57524500D01*
X86899145Y-57526248D01*
X86847807Y-57530913D01*
X86685393Y-57581522D01*
X86539811Y-57669530D01*
X86539810Y-57669531D01*
X86446161Y-57763181D01*
X86384838Y-57796666D01*
X86358480Y-57799500D01*
X85591519Y-57799500D01*
X85524480Y-57779815D01*
X85503838Y-57763181D01*
X84911818Y-57171161D01*
X84878333Y-57109838D01*
X84875499Y-57083480D01*
X84875499Y-55777129D01*
X84875498Y-55777123D01*
X84875497Y-55777116D01*
X84869091Y-55717517D01*
X84866357Y-55710188D01*
X84818797Y-55582671D01*
X84818793Y-55582664D01*
X84732547Y-55467455D01*
X84732544Y-55467452D01*
X84617335Y-55381206D01*
X84617328Y-55381202D01*
X84482482Y-55330908D01*
X84482483Y-55330908D01*
X84422883Y-55324501D01*
X84422881Y-55324500D01*
X84422873Y-55324500D01*
X84422864Y-55324500D01*
X82527129Y-55324500D01*
X82527123Y-55324501D01*
X82467516Y-55330908D01*
X82332671Y-55381202D01*
X82332664Y-55381206D01*
X82217455Y-55467452D01*
X82217452Y-55467455D01*
X82131206Y-55582664D01*
X82131202Y-55582671D01*
X82080908Y-55717517D01*
X82075642Y-55766503D01*
X82074501Y-55777123D01*
X82074500Y-55777135D01*
X82074500Y-57672870D01*
X82074501Y-57672876D01*
X82080908Y-57732483D01*
X82131202Y-57867328D01*
X82131206Y-57867335D01*
X82217452Y-57982544D01*
X82217455Y-57982547D01*
X82332664Y-58068793D01*
X82332673Y-58068798D01*
X82412904Y-58098722D01*
X82468838Y-58140593D01*
X82493256Y-58206057D01*
X82478405Y-58274330D01*
X82460802Y-58298886D01*
X82366019Y-58401849D01*
X82239075Y-58596151D01*
X82145842Y-58808699D01*
X82088866Y-59033691D01*
X82088864Y-59033702D01*
X82069700Y-59264993D01*
X82069700Y-59265006D01*
X82088864Y-59496297D01*
X82088866Y-59496308D01*
X82145842Y-59721300D01*
X82239075Y-59933848D01*
X82366016Y-60128147D01*
X82366019Y-60128151D01*
X82366021Y-60128153D01*
X82523216Y-60298913D01*
X82523219Y-60298915D01*
X82523222Y-60298918D01*
X82706365Y-60441464D01*
X82706371Y-60441468D01*
X82706374Y-60441470D01*
X82873860Y-60532109D01*
X82885656Y-60538493D01*
X82910497Y-60551936D01*
X83024487Y-60591068D01*
X83130015Y-60627297D01*
X83130017Y-60627297D01*
X83130019Y-60627298D01*
X83358951Y-60665500D01*
X83358952Y-60665500D01*
X83591051Y-60665500D01*
X83617732Y-60661047D01*
X83658672Y-60654215D01*
X83728036Y-60662595D01*
X83766761Y-60688839D01*
X83841040Y-60763118D01*
X83865741Y-60787819D01*
X83899225Y-60849143D01*
X83894241Y-60918834D01*
X83852369Y-60974767D01*
X83786904Y-60999184D01*
X83778059Y-60999500D01*
X80124500Y-60999500D01*
X80057461Y-60979815D01*
X80011706Y-60927011D01*
X80000500Y-60875500D01*
X80000500Y-41624500D01*
X80020185Y-41557461D01*
X80072989Y-41511706D01*
X80124500Y-41500500D01*
X85151929Y-41500500D01*
X85218968Y-41520185D01*
G37*
%TD.AperFunction*%
%TA.AperFunction,Conductor*%
G36*
X133218334Y-53699838D02*
G01*
X133262681Y-53728339D01*
X133364811Y-53830469D01*
X133364813Y-53830470D01*
X133364815Y-53830472D01*
X133510394Y-53918478D01*
X133645756Y-53960657D01*
X133682337Y-53985027D01*
X133727739Y-53974175D01*
X133732576Y-53974517D01*
X133743384Y-53975500D01*
X133743394Y-53975500D01*
X134256613Y-53975500D01*
X134256616Y-53975500D01*
X134327196Y-53969086D01*
X134489606Y-53918478D01*
X134635185Y-53830472D01*
X134661602Y-53804054D01*
X134722924Y-53770569D01*
X134790239Y-53774694D01*
X134820745Y-53785368D01*
X134999996Y-53805565D01*
X135000000Y-53805565D01*
X135000004Y-53805565D01*
X135179249Y-53785369D01*
X135179251Y-53785368D01*
X135179255Y-53785368D01*
X135179258Y-53785366D01*
X135179262Y-53785366D01*
X135347789Y-53726396D01*
X135417568Y-53722834D01*
X135478195Y-53757562D01*
X135493060Y-53776399D01*
X135543011Y-53854126D01*
X135543018Y-53854136D01*
X135634948Y-53960229D01*
X135637168Y-53962791D01*
X135637171Y-53962794D01*
X135678487Y-53998594D01*
X135711845Y-54044853D01*
X135729224Y-54086809D01*
X135729225Y-54086810D01*
X135729228Y-54086817D01*
X135805885Y-54201543D01*
X135805888Y-54201546D01*
X136205886Y-54601542D01*
X136254818Y-54650474D01*
X136303459Y-54699115D01*
X136418182Y-54775771D01*
X136418195Y-54775778D01*
X136487592Y-54804523D01*
X136487593Y-54804523D01*
X136545671Y-54828580D01*
X136556737Y-54830781D01*
X136561888Y-54831806D01*
X136561901Y-54831808D01*
X136561915Y-54831811D01*
X136609551Y-54841286D01*
X136681004Y-54855500D01*
X136681007Y-54855500D01*
X140238996Y-54855500D01*
X140330040Y-54837389D01*
X140374328Y-54828580D01*
X140438069Y-54802177D01*
X140501807Y-54775777D01*
X140501808Y-54775776D01*
X140501811Y-54775775D01*
X140616543Y-54699114D01*
X141303838Y-54011819D01*
X141365161Y-53978334D01*
X141391519Y-53975500D01*
X141581613Y-53975500D01*
X141581616Y-53975500D01*
X141652196Y-53969086D01*
X141652197Y-53969085D01*
X141658730Y-53968492D01*
X141658861Y-53969939D01*
X141720892Y-53975486D01*
X141776072Y-54018345D01*
X141799322Y-54084233D01*
X141799500Y-54090879D01*
X141799500Y-60875085D01*
X141796710Y-60875085D01*
X141785942Y-60931959D01*
X141737892Y-60982683D01*
X141675541Y-60999500D01*
X136990103Y-60999500D01*
X136923064Y-60979815D01*
X136877309Y-60927011D01*
X136867365Y-60857853D01*
X136896390Y-60794297D01*
X136915792Y-60776234D01*
X136975240Y-60731730D01*
X137007546Y-60707546D01*
X137093796Y-60592331D01*
X137144091Y-60457483D01*
X137150500Y-60397873D01*
X137150499Y-58602128D01*
X137144091Y-58542517D01*
X137143002Y-58539598D01*
X137093797Y-58407671D01*
X137093793Y-58407664D01*
X137007547Y-58292455D01*
X137007544Y-58292452D01*
X136892335Y-58206206D01*
X136892328Y-58206202D01*
X136760917Y-58157189D01*
X136704983Y-58115318D01*
X136680566Y-58049853D01*
X136695418Y-57981580D01*
X136716563Y-57953332D01*
X136838495Y-57831401D01*
X136974035Y-57637830D01*
X137073903Y-57423663D01*
X137135063Y-57195408D01*
X137155659Y-56960000D01*
X137155658Y-56959994D01*
X137135974Y-56735006D01*
X137135063Y-56724592D01*
X137076791Y-56507114D01*
X137073905Y-56496344D01*
X137073904Y-56496343D01*
X137073903Y-56496337D01*
X136974035Y-56282171D01*
X136968425Y-56274158D01*
X136838494Y-56088597D01*
X136671402Y-55921506D01*
X136671395Y-55921501D01*
X136667076Y-55918477D01*
X136541393Y-55830472D01*
X136477834Y-55785967D01*
X136477830Y-55785965D01*
X136420499Y-55759231D01*
X136263663Y-55686097D01*
X136263659Y-55686096D01*
X136263655Y-55686094D01*
X136035413Y-55624938D01*
X136035403Y-55624936D01*
X135800001Y-55604341D01*
X135799999Y-55604341D01*
X135564596Y-55624936D01*
X135564586Y-55624938D01*
X135336344Y-55686094D01*
X135336335Y-55686098D01*
X135122171Y-55785964D01*
X135122169Y-55785965D01*
X134928597Y-55921505D01*
X134761508Y-56088594D01*
X134631574Y-56274160D01*
X134576997Y-56317784D01*
X134507498Y-56324977D01*
X134445144Y-56293455D01*
X134428429Y-56274164D01*
X134322925Y-56123488D01*
X134300597Y-56057281D01*
X134300500Y-56052365D01*
X134300500Y-55051914D01*
X134301280Y-55038029D01*
X134301371Y-55037226D01*
X134305565Y-55000000D01*
X134305564Y-54999994D01*
X134301280Y-54961969D01*
X134300500Y-54948085D01*
X134300500Y-54921157D01*
X134292711Y-54882003D01*
X134291110Y-54871714D01*
X134285368Y-54820745D01*
X134277023Y-54796898D01*
X134272449Y-54780139D01*
X134269737Y-54766503D01*
X134269734Y-54766496D01*
X134251179Y-54721700D01*
X134249484Y-54717607D01*
X134247028Y-54711175D01*
X134225789Y-54650478D01*
X134219289Y-54640134D01*
X134209719Y-54621606D01*
X134209394Y-54620821D01*
X134172790Y-54566040D01*
X134170905Y-54563131D01*
X134140125Y-54514145D01*
X134129816Y-54497738D01*
X134002262Y-54370184D01*
X134002260Y-54370182D01*
X134002257Y-54370180D01*
X133936900Y-54329114D01*
X133933982Y-54327223D01*
X133879179Y-54290605D01*
X133879173Y-54290603D01*
X133878365Y-54290268D01*
X133859865Y-54280709D01*
X133849524Y-54274212D01*
X133849523Y-54274211D01*
X133849522Y-54274211D01*
X133788867Y-54252986D01*
X133782377Y-54250509D01*
X133782005Y-54250355D01*
X133757194Y-54240078D01*
X133733496Y-54230262D01*
X133719860Y-54227550D01*
X133703102Y-54222976D01*
X133687575Y-54217543D01*
X133680468Y-54215056D01*
X133647896Y-54191695D01*
X133606823Y-54203025D01*
X133584681Y-54200661D01*
X133578842Y-54199500D01*
X133551915Y-54199500D01*
X133538031Y-54198720D01*
X133500002Y-54194435D01*
X133499998Y-54194435D01*
X133461969Y-54198720D01*
X133448085Y-54199500D01*
X133421152Y-54199500D01*
X133381994Y-54207288D01*
X133371696Y-54208890D01*
X133320742Y-54214632D01*
X133320735Y-54214634D01*
X133296898Y-54222975D01*
X133280140Y-54227550D01*
X133266502Y-54230263D01*
X133266496Y-54230264D01*
X133217631Y-54250504D01*
X133211140Y-54252982D01*
X133150477Y-54274210D01*
X133150474Y-54274212D01*
X133140127Y-54280713D01*
X133121639Y-54290266D01*
X133120832Y-54290600D01*
X133120824Y-54290604D01*
X133066047Y-54327204D01*
X133063132Y-54329092D01*
X132997742Y-54370180D01*
X132997735Y-54370186D01*
X132870186Y-54497735D01*
X132870180Y-54497742D01*
X132829092Y-54563132D01*
X132827209Y-54566038D01*
X132790608Y-54620819D01*
X132790605Y-54620823D01*
X132790600Y-54620832D01*
X132790266Y-54621639D01*
X132780713Y-54640127D01*
X132774212Y-54650474D01*
X132774210Y-54650477D01*
X132752982Y-54711140D01*
X132750504Y-54717631D01*
X132730264Y-54766496D01*
X132730263Y-54766502D01*
X132727550Y-54780140D01*
X132722975Y-54796898D01*
X132714634Y-54820735D01*
X132714632Y-54820742D01*
X132708890Y-54871696D01*
X132707288Y-54881994D01*
X132699500Y-54921152D01*
X132699500Y-54948085D01*
X132698720Y-54961969D01*
X132694436Y-54999994D01*
X132694435Y-55000000D01*
X132698629Y-55037226D01*
X132698720Y-55038029D01*
X132699500Y-55051914D01*
X132699500Y-55652256D01*
X132679815Y-55719295D01*
X132627906Y-55764638D01*
X132582168Y-55785966D01*
X132388597Y-55921505D01*
X132221505Y-56088597D01*
X132091575Y-56274158D01*
X132036998Y-56317783D01*
X131967500Y-56324977D01*
X131905145Y-56293454D01*
X131888425Y-56274158D01*
X131758494Y-56088597D01*
X131591402Y-55921506D01*
X131591395Y-55921501D01*
X131587076Y-55918477D01*
X131461393Y-55830472D01*
X131397834Y-55785967D01*
X131397830Y-55785965D01*
X131340499Y-55759231D01*
X131183663Y-55686097D01*
X131183659Y-55686096D01*
X131183655Y-55686094D01*
X130955413Y-55624938D01*
X130955403Y-55624936D01*
X130720001Y-55604341D01*
X130719999Y-55604341D01*
X130484596Y-55624936D01*
X130484586Y-55624938D01*
X130256344Y-55686094D01*
X130256335Y-55686098D01*
X130042171Y-55785964D01*
X130042169Y-55785965D01*
X129848597Y-55921505D01*
X129681505Y-56088597D01*
X129551575Y-56274158D01*
X129496998Y-56317783D01*
X129427500Y-56324977D01*
X129365145Y-56293454D01*
X129348425Y-56274158D01*
X129218494Y-56088597D01*
X129051402Y-55921506D01*
X129051395Y-55921501D01*
X129047076Y-55918477D01*
X128921393Y-55830472D01*
X128857834Y-55785967D01*
X128857830Y-55785965D01*
X128800499Y-55759231D01*
X128643663Y-55686097D01*
X128643659Y-55686096D01*
X128643655Y-55686094D01*
X128415413Y-55624938D01*
X128415403Y-55624936D01*
X128180001Y-55604341D01*
X128179999Y-55604341D01*
X127944596Y-55624936D01*
X127944586Y-55624938D01*
X127716344Y-55686094D01*
X127716335Y-55686098D01*
X127502171Y-55785964D01*
X127502169Y-55785965D01*
X127308593Y-55921508D01*
X127308202Y-55921837D01*
X127307994Y-55921927D01*
X127304164Y-55924610D01*
X127303624Y-55923840D01*
X127244193Y-55949849D01*
X127175202Y-55938808D01*
X127140818Y-55914527D01*
X126694646Y-55468355D01*
X126661161Y-55407032D01*
X126666145Y-55337340D01*
X126708017Y-55281407D01*
X126741373Y-55263632D01*
X126749451Y-55260805D01*
X126849522Y-55225789D01*
X127002262Y-55129816D01*
X127129816Y-55002262D01*
X127225789Y-54849522D01*
X127279349Y-54696455D01*
X127320071Y-54639680D01*
X127385023Y-54613932D01*
X127453585Y-54627388D01*
X127484073Y-54649730D01*
X127533453Y-54699111D01*
X127533454Y-54699112D01*
X127648192Y-54775777D01*
X127756759Y-54820746D01*
X127775672Y-54828580D01*
X127775676Y-54828580D01*
X127775677Y-54828581D01*
X127911003Y-54855500D01*
X127911006Y-54855500D01*
X129818996Y-54855500D01*
X129910040Y-54837389D01*
X129954328Y-54828580D01*
X130018069Y-54802177D01*
X130081807Y-54775777D01*
X130081808Y-54775776D01*
X130081811Y-54775775D01*
X130196543Y-54699114D01*
X130694113Y-54201543D01*
X130698167Y-54195477D01*
X130770775Y-54086811D01*
X130788153Y-54044853D01*
X130821511Y-53998594D01*
X130862832Y-53962791D01*
X130956986Y-53854130D01*
X131019111Y-53757460D01*
X131071913Y-53711706D01*
X131123426Y-53700500D01*
X131533480Y-53700500D01*
X131600519Y-53720185D01*
X131621161Y-53736819D01*
X131714811Y-53830469D01*
X131714813Y-53830470D01*
X131714815Y-53830472D01*
X131860394Y-53918478D01*
X132022804Y-53969086D01*
X132093384Y-53975500D01*
X132093387Y-53975500D01*
X132606613Y-53975500D01*
X132606616Y-53975500D01*
X132677196Y-53969086D01*
X132839606Y-53918478D01*
X132985185Y-53830472D01*
X133033175Y-53782482D01*
X133087319Y-53728339D01*
X133148642Y-53694854D01*
X133218334Y-53699838D01*
G37*
%TD.AperFunction*%
%TA.AperFunction,Conductor*%
G36*
X144330703Y-47266461D02*
G01*
X144353816Y-47293136D01*
X144393011Y-47354126D01*
X144393018Y-47354136D01*
X144464072Y-47436137D01*
X144487168Y-47462791D01*
X144487171Y-47462794D01*
X144531703Y-47501380D01*
X144569477Y-47560157D01*
X144574500Y-47595093D01*
X144574500Y-49721700D01*
X144574500Y-49844914D01*
X144580281Y-49873978D01*
X144580385Y-49874500D01*
X144580385Y-49874509D01*
X144598535Y-49965751D01*
X144598537Y-49965759D01*
X144609634Y-49992549D01*
X144609635Y-49992551D01*
X144609634Y-49992551D01*
X144645685Y-50079587D01*
X144645690Y-50079596D01*
X144668272Y-50113391D01*
X144668273Y-50113393D01*
X144714141Y-50182039D01*
X144714144Y-50182043D01*
X144717934Y-50185833D01*
X144751419Y-50247156D01*
X144746435Y-50316848D01*
X144704563Y-50372781D01*
X144697292Y-50377830D01*
X144601523Y-50439376D01*
X144600083Y-50440196D01*
X144595901Y-50442988D01*
X144487169Y-50537207D01*
X144487166Y-50537210D01*
X144393018Y-50645864D01*
X144393015Y-50645867D01*
X144315231Y-50766905D01*
X144315223Y-50766918D01*
X144258263Y-50891643D01*
X144256015Y-50895939D01*
X144214966Y-51035738D01*
X144214963Y-51035748D01*
X144194503Y-51178059D01*
X144194503Y-51234399D01*
X144194500Y-51234409D01*
X144194500Y-51765573D01*
X144194503Y-51765601D01*
X144194503Y-51821941D01*
X144213641Y-51955046D01*
X144213703Y-51955478D01*
X144213703Y-51955481D01*
X144214964Y-51964255D01*
X144255503Y-52102313D01*
X144315223Y-52233081D01*
X144315227Y-52233087D01*
X144315230Y-52233094D01*
X144368859Y-52316544D01*
X144393015Y-52354132D01*
X144393018Y-52354136D01*
X144475771Y-52449638D01*
X144487168Y-52462791D01*
X144487171Y-52462794D01*
X144531703Y-52501380D01*
X144569477Y-52560157D01*
X144574500Y-52595093D01*
X144574500Y-54721700D01*
X144574500Y-54844914D01*
X144574500Y-54844916D01*
X144574499Y-54844916D01*
X144581324Y-54879222D01*
X144581324Y-54879224D01*
X144596406Y-54955046D01*
X144598537Y-54965759D01*
X144611783Y-54997738D01*
X144645688Y-55079593D01*
X144672353Y-55119498D01*
X144672354Y-55119501D01*
X144714138Y-55182035D01*
X144714139Y-55182036D01*
X144714142Y-55182040D01*
X144801267Y-55269165D01*
X144801269Y-55269166D01*
X144808335Y-55276232D01*
X144808334Y-55276232D01*
X144808338Y-55276235D01*
X145458181Y-55926078D01*
X145491666Y-55987401D01*
X145494500Y-56013759D01*
X145494500Y-57250002D01*
X145499644Y-57321940D01*
X145540182Y-57459994D01*
X145617967Y-57581030D01*
X145617971Y-57581034D01*
X145726700Y-57675249D01*
X145726706Y-57675254D01*
X145767174Y-57693735D01*
X145857580Y-57735023D01*
X145857583Y-57735023D01*
X145857584Y-57735024D01*
X146000000Y-57755500D01*
X146000003Y-57755500D01*
X146571886Y-57755500D01*
X146571889Y-57755500D01*
X146714304Y-57735024D01*
X146852259Y-57694517D01*
X146983137Y-57634747D01*
X147008460Y-57618473D01*
X147075499Y-57598788D01*
X147142539Y-57618472D01*
X147188294Y-57671276D01*
X147199500Y-57722788D01*
X147199500Y-58575500D01*
X147179815Y-58642539D01*
X147127011Y-58688294D01*
X147075500Y-58699500D01*
X144551915Y-58699500D01*
X144538031Y-58698720D01*
X144500002Y-58694435D01*
X144499998Y-58694435D01*
X144461969Y-58698720D01*
X144448085Y-58699500D01*
X144421152Y-58699500D01*
X144381994Y-58707288D01*
X144371696Y-58708890D01*
X144320742Y-58714632D01*
X144320735Y-58714634D01*
X144296898Y-58722975D01*
X144280140Y-58727550D01*
X144266502Y-58730263D01*
X144266496Y-58730264D01*
X144217631Y-58750504D01*
X144211140Y-58752982D01*
X144150477Y-58774210D01*
X144150474Y-58774212D01*
X144140127Y-58780713D01*
X144121639Y-58790266D01*
X144120832Y-58790600D01*
X144120824Y-58790604D01*
X144120821Y-58790605D01*
X144120821Y-58790606D01*
X144073580Y-58822171D01*
X144066047Y-58827204D01*
X144063132Y-58829092D01*
X143997742Y-58870180D01*
X143997735Y-58870186D01*
X143870186Y-58997735D01*
X143870180Y-58997742D01*
X143829092Y-59063132D01*
X143827204Y-59066047D01*
X143790604Y-59120824D01*
X143790600Y-59120832D01*
X143790266Y-59121639D01*
X143780713Y-59140127D01*
X143774212Y-59150474D01*
X143774210Y-59150477D01*
X143752982Y-59211140D01*
X143750504Y-59217631D01*
X143730264Y-59266496D01*
X143730263Y-59266502D01*
X143727550Y-59280140D01*
X143722975Y-59296898D01*
X143714634Y-59320735D01*
X143714632Y-59320742D01*
X143708890Y-59371696D01*
X143707288Y-59381994D01*
X143699500Y-59421152D01*
X143699500Y-59448085D01*
X143698720Y-59461969D01*
X143694435Y-59499998D01*
X143694435Y-59500001D01*
X143698720Y-59538029D01*
X143699500Y-59551914D01*
X143699500Y-59578844D01*
X143707288Y-59618003D01*
X143708890Y-59628303D01*
X143714632Y-59679252D01*
X143714633Y-59679260D01*
X143722976Y-59703104D01*
X143727550Y-59719860D01*
X143730262Y-59733496D01*
X143750509Y-59782377D01*
X143752986Y-59788867D01*
X143772757Y-59845368D01*
X143774212Y-59849524D01*
X143780709Y-59859865D01*
X143790268Y-59878365D01*
X143790603Y-59879173D01*
X143790604Y-59879175D01*
X143790606Y-59879179D01*
X143808935Y-59906610D01*
X143829812Y-59973288D01*
X143811327Y-60040668D01*
X143759347Y-60087357D01*
X143705832Y-60099500D01*
X143324500Y-60099500D01*
X143257461Y-60079815D01*
X143211706Y-60027011D01*
X143200500Y-59975500D01*
X143200500Y-49410576D01*
X143220185Y-49343537D01*
X143272989Y-49297782D01*
X143338383Y-49287356D01*
X143499996Y-49305565D01*
X143500000Y-49305565D01*
X143500004Y-49305565D01*
X143679249Y-49285369D01*
X143679252Y-49285368D01*
X143679255Y-49285368D01*
X143849522Y-49225789D01*
X144002262Y-49129816D01*
X144129816Y-49002262D01*
X144225789Y-48849522D01*
X144285368Y-48679255D01*
X144286803Y-48666518D01*
X144305565Y-48500003D01*
X144305565Y-48499996D01*
X144285369Y-48320750D01*
X144285367Y-48320742D01*
X144266068Y-48265590D01*
X144225789Y-48150478D01*
X144225174Y-48149500D01*
X144144506Y-48021117D01*
X144125500Y-47955145D01*
X144125500Y-47360174D01*
X144145185Y-47293135D01*
X144197989Y-47247380D01*
X144267147Y-47237436D01*
X144330703Y-47266461D01*
G37*
%TD.AperFunction*%
%TA.AperFunction,Conductor*%
G36*
X102576419Y-54421750D02*
G01*
X102601976Y-54434829D01*
X102604224Y-54436331D01*
X102693189Y-54495775D01*
X102820672Y-54548580D01*
X102820676Y-54548580D01*
X102820677Y-54548581D01*
X102956003Y-54575500D01*
X102956006Y-54575500D01*
X102956007Y-54575500D01*
X104623799Y-54575500D01*
X104690838Y-54595185D01*
X104736593Y-54647989D01*
X104746537Y-54717147D01*
X104738362Y-54746949D01*
X104730262Y-54766504D01*
X104727550Y-54780140D01*
X104722975Y-54796898D01*
X104714634Y-54820735D01*
X104714632Y-54820742D01*
X104708890Y-54871696D01*
X104707288Y-54881994D01*
X104699500Y-54921152D01*
X104699500Y-54948085D01*
X104698720Y-54961969D01*
X104694436Y-54999994D01*
X104694435Y-55000000D01*
X104698629Y-55037226D01*
X104698720Y-55038029D01*
X104699500Y-55051914D01*
X104699500Y-55681274D01*
X104679815Y-55748313D01*
X104645740Y-55781625D01*
X104646605Y-55782860D01*
X104448597Y-55921505D01*
X104281505Y-56088597D01*
X104151575Y-56274158D01*
X104096998Y-56317783D01*
X104027500Y-56324977D01*
X103965145Y-56293454D01*
X103948425Y-56274158D01*
X103818494Y-56088597D01*
X103651402Y-55921506D01*
X103651395Y-55921501D01*
X103647076Y-55918477D01*
X103521393Y-55830472D01*
X103457834Y-55785967D01*
X103457830Y-55785965D01*
X103400499Y-55759231D01*
X103243663Y-55686097D01*
X103243659Y-55686096D01*
X103243655Y-55686094D01*
X103015413Y-55624938D01*
X103015403Y-55624936D01*
X102780001Y-55604341D01*
X102779999Y-55604341D01*
X102544596Y-55624936D01*
X102544586Y-55624938D01*
X102316344Y-55686094D01*
X102316335Y-55686098D01*
X102102171Y-55785964D01*
X102102169Y-55785965D01*
X101908597Y-55921505D01*
X101741505Y-56088597D01*
X101605965Y-56282169D01*
X101605964Y-56282171D01*
X101506098Y-56496335D01*
X101506094Y-56496344D01*
X101444938Y-56724586D01*
X101444936Y-56724596D01*
X101424341Y-56959999D01*
X101424341Y-56960000D01*
X101444936Y-57195403D01*
X101444938Y-57195413D01*
X101506094Y-57423655D01*
X101506096Y-57423659D01*
X101506097Y-57423663D01*
X101568280Y-57557015D01*
X101605965Y-57637830D01*
X101605967Y-57637834D01*
X101705384Y-57779815D01*
X101741501Y-57831396D01*
X101741506Y-57831402D01*
X101908597Y-57998493D01*
X101908603Y-57998498D01*
X101960661Y-58034949D01*
X102089979Y-58125499D01*
X102094594Y-58128730D01*
X102138219Y-58183307D01*
X102145413Y-58252805D01*
X102113890Y-58315160D01*
X102094595Y-58331880D01*
X101908922Y-58461890D01*
X101908920Y-58461891D01*
X101741891Y-58628920D01*
X101741886Y-58628926D01*
X101606400Y-58822420D01*
X101606395Y-58822429D01*
X101591848Y-58853624D01*
X101545674Y-58906062D01*
X101478480Y-58925212D01*
X101411600Y-58904994D01*
X101391787Y-58888897D01*
X100661819Y-58158929D01*
X100628334Y-58097606D01*
X100625500Y-58071248D01*
X100625500Y-55544854D01*
X100644507Y-55478881D01*
X100651687Y-55467455D01*
X100725789Y-55349522D01*
X100785368Y-55179255D01*
X100785369Y-55179249D01*
X100805565Y-55000003D01*
X100805565Y-54999994D01*
X100804820Y-54993382D01*
X100816875Y-54924561D01*
X100864225Y-54873182D01*
X100928040Y-54855500D01*
X101818996Y-54855500D01*
X101910040Y-54837389D01*
X101954328Y-54828580D01*
X102018069Y-54802177D01*
X102081807Y-54775777D01*
X102081808Y-54775776D01*
X102081811Y-54775775D01*
X102196543Y-54699114D01*
X102445405Y-54450250D01*
X102506727Y-54416766D01*
X102576419Y-54421750D01*
G37*
%TD.AperFunction*%
%TA.AperFunction,Conductor*%
G36*
X104134855Y-57626546D02*
G01*
X104151575Y-57645842D01*
X104281501Y-57831396D01*
X104281506Y-57831402D01*
X104448597Y-57998493D01*
X104448603Y-57998498D01*
X104634158Y-58128425D01*
X104677783Y-58183002D01*
X104684977Y-58252500D01*
X104653454Y-58314855D01*
X104634158Y-58331575D01*
X104448597Y-58461505D01*
X104281508Y-58628594D01*
X104151269Y-58814595D01*
X104096692Y-58858219D01*
X104027193Y-58865412D01*
X103964839Y-58833890D01*
X103948119Y-58814594D01*
X103818113Y-58628926D01*
X103818108Y-58628920D01*
X103651078Y-58461890D01*
X103465405Y-58331879D01*
X103421780Y-58277302D01*
X103414588Y-58207804D01*
X103446110Y-58145449D01*
X103465406Y-58128730D01*
X103470019Y-58125500D01*
X103651401Y-57998495D01*
X103818495Y-57831401D01*
X103948425Y-57645842D01*
X104003002Y-57602217D01*
X104072500Y-57595023D01*
X104134855Y-57626546D01*
G37*
%TD.AperFunction*%
%TA.AperFunction,Conductor*%
G36*
X109214855Y-57626546D02*
G01*
X109231575Y-57645842D01*
X109361501Y-57831396D01*
X109361506Y-57831402D01*
X109528597Y-57998493D01*
X109528603Y-57998498D01*
X109580661Y-58034949D01*
X109709979Y-58125499D01*
X109714594Y-58128730D01*
X109758219Y-58183307D01*
X109765413Y-58252805D01*
X109733890Y-58315160D01*
X109714595Y-58331880D01*
X109528922Y-58461890D01*
X109528920Y-58461891D01*
X109361891Y-58628920D01*
X109361890Y-58628922D01*
X109231880Y-58814595D01*
X109177303Y-58858219D01*
X109107804Y-58865412D01*
X109045450Y-58833890D01*
X109028730Y-58814594D01*
X108898494Y-58628597D01*
X108731402Y-58461506D01*
X108731396Y-58461501D01*
X108545842Y-58331575D01*
X108502217Y-58276998D01*
X108495023Y-58207500D01*
X108526546Y-58145145D01*
X108545842Y-58128425D01*
X108704323Y-58017455D01*
X108731401Y-57998495D01*
X108898495Y-57831401D01*
X109028425Y-57645842D01*
X109083002Y-57602217D01*
X109152500Y-57595023D01*
X109214855Y-57626546D01*
G37*
%TD.AperFunction*%
%TA.AperFunction,Conductor*%
G36*
X111754855Y-57626546D02*
G01*
X111771575Y-57645842D01*
X111901501Y-57831396D01*
X111901506Y-57831402D01*
X112068597Y-57998493D01*
X112068603Y-57998498D01*
X112254158Y-58128425D01*
X112297783Y-58183002D01*
X112304977Y-58252500D01*
X112273454Y-58314855D01*
X112254158Y-58331575D01*
X112068597Y-58461505D01*
X111901508Y-58628594D01*
X111771269Y-58814595D01*
X111716692Y-58858219D01*
X111647193Y-58865412D01*
X111584839Y-58833890D01*
X111568119Y-58814594D01*
X111438113Y-58628926D01*
X111438108Y-58628920D01*
X111271078Y-58461890D01*
X111085405Y-58331879D01*
X111041780Y-58277302D01*
X111034588Y-58207804D01*
X111066110Y-58145449D01*
X111085406Y-58128730D01*
X111090019Y-58125500D01*
X111271401Y-57998495D01*
X111438495Y-57831401D01*
X111568425Y-57645842D01*
X111623002Y-57602217D01*
X111692500Y-57595023D01*
X111754855Y-57626546D01*
G37*
%TD.AperFunction*%
%TA.AperFunction,Conductor*%
G36*
X116834855Y-57626546D02*
G01*
X116851575Y-57645842D01*
X116981501Y-57831396D01*
X116981506Y-57831402D01*
X117148597Y-57998493D01*
X117148603Y-57998498D01*
X117200661Y-58034949D01*
X117329979Y-58125499D01*
X117334594Y-58128730D01*
X117378219Y-58183307D01*
X117385413Y-58252805D01*
X117353890Y-58315160D01*
X117334595Y-58331880D01*
X117148922Y-58461890D01*
X117148920Y-58461891D01*
X116981891Y-58628920D01*
X116981890Y-58628922D01*
X116851880Y-58814595D01*
X116797303Y-58858219D01*
X116727804Y-58865412D01*
X116665450Y-58833890D01*
X116648730Y-58814594D01*
X116518494Y-58628597D01*
X116351402Y-58461506D01*
X116351396Y-58461501D01*
X116165842Y-58331575D01*
X116122217Y-58276998D01*
X116115023Y-58207500D01*
X116146546Y-58145145D01*
X116165842Y-58128425D01*
X116324323Y-58017455D01*
X116351401Y-57998495D01*
X116518495Y-57831401D01*
X116648425Y-57645842D01*
X116703002Y-57602217D01*
X116772500Y-57595023D01*
X116834855Y-57626546D01*
G37*
%TD.AperFunction*%
%TA.AperFunction,Conductor*%
G36*
X119374855Y-57626546D02*
G01*
X119391575Y-57645842D01*
X119521501Y-57831396D01*
X119521506Y-57831402D01*
X119688597Y-57998493D01*
X119688603Y-57998498D01*
X119874158Y-58128425D01*
X119917783Y-58183002D01*
X119924977Y-58252500D01*
X119893454Y-58314855D01*
X119874158Y-58331575D01*
X119688597Y-58461505D01*
X119521508Y-58628594D01*
X119391269Y-58814595D01*
X119336692Y-58858219D01*
X119267193Y-58865412D01*
X119204839Y-58833890D01*
X119188119Y-58814594D01*
X119058113Y-58628926D01*
X119058108Y-58628920D01*
X118891078Y-58461890D01*
X118705405Y-58331879D01*
X118661780Y-58277302D01*
X118654588Y-58207804D01*
X118686110Y-58145449D01*
X118705406Y-58128730D01*
X118710019Y-58125500D01*
X118891401Y-57998495D01*
X119058495Y-57831401D01*
X119188425Y-57645842D01*
X119243002Y-57602217D01*
X119312500Y-57595023D01*
X119374855Y-57626546D01*
G37*
%TD.AperFunction*%
%TA.AperFunction,Conductor*%
G36*
X106674855Y-57626546D02*
G01*
X106691575Y-57645842D01*
X106821501Y-57831396D01*
X106821506Y-57831402D01*
X106988597Y-57998493D01*
X106988603Y-57998498D01*
X107174158Y-58128425D01*
X107217783Y-58183002D01*
X107224977Y-58252500D01*
X107193454Y-58314855D01*
X107174158Y-58331575D01*
X106988597Y-58461505D01*
X106821505Y-58628597D01*
X106691575Y-58814158D01*
X106636998Y-58857783D01*
X106567500Y-58864977D01*
X106505145Y-58833454D01*
X106488425Y-58814158D01*
X106358494Y-58628597D01*
X106191402Y-58461506D01*
X106191396Y-58461501D01*
X106005842Y-58331575D01*
X105962217Y-58276998D01*
X105955023Y-58207500D01*
X105986546Y-58145145D01*
X106005842Y-58128425D01*
X106164323Y-58017455D01*
X106191401Y-57998495D01*
X106358495Y-57831401D01*
X106488425Y-57645842D01*
X106543002Y-57602217D01*
X106612500Y-57595023D01*
X106674855Y-57626546D01*
G37*
%TD.AperFunction*%
%TA.AperFunction,Conductor*%
G36*
X114294855Y-57626546D02*
G01*
X114311575Y-57645842D01*
X114441501Y-57831396D01*
X114441506Y-57831402D01*
X114608597Y-57998493D01*
X114608603Y-57998498D01*
X114794158Y-58128425D01*
X114837783Y-58183002D01*
X114844977Y-58252500D01*
X114813454Y-58314855D01*
X114794158Y-58331575D01*
X114608597Y-58461505D01*
X114441505Y-58628597D01*
X114311575Y-58814158D01*
X114256998Y-58857783D01*
X114187500Y-58864977D01*
X114125145Y-58833454D01*
X114108425Y-58814158D01*
X113978494Y-58628597D01*
X113811402Y-58461506D01*
X113811396Y-58461501D01*
X113625842Y-58331575D01*
X113582217Y-58276998D01*
X113575023Y-58207500D01*
X113606546Y-58145145D01*
X113625842Y-58128425D01*
X113784323Y-58017455D01*
X113811401Y-57998495D01*
X113978495Y-57831401D01*
X114108425Y-57645842D01*
X114163002Y-57602217D01*
X114232500Y-57595023D01*
X114294855Y-57626546D01*
G37*
%TD.AperFunction*%
%TA.AperFunction,Conductor*%
G36*
X121914855Y-57626546D02*
G01*
X121931575Y-57645842D01*
X122061501Y-57831396D01*
X122061506Y-57831402D01*
X122228597Y-57998493D01*
X122228603Y-57998498D01*
X122414158Y-58128425D01*
X122457783Y-58183002D01*
X122464977Y-58252500D01*
X122433454Y-58314855D01*
X122414158Y-58331575D01*
X122228597Y-58461505D01*
X122061505Y-58628597D01*
X121931575Y-58814158D01*
X121876998Y-58857783D01*
X121807500Y-58864977D01*
X121745145Y-58833454D01*
X121728425Y-58814158D01*
X121598494Y-58628597D01*
X121431402Y-58461506D01*
X121431396Y-58461501D01*
X121245842Y-58331575D01*
X121202217Y-58276998D01*
X121195023Y-58207500D01*
X121226546Y-58145145D01*
X121245842Y-58128425D01*
X121404323Y-58017455D01*
X121431401Y-57998495D01*
X121598495Y-57831401D01*
X121728425Y-57645842D01*
X121783002Y-57602217D01*
X121852500Y-57595023D01*
X121914855Y-57626546D01*
G37*
%TD.AperFunction*%
%TA.AperFunction,Conductor*%
G36*
X134614855Y-57626546D02*
G01*
X134631575Y-57645842D01*
X134761501Y-57831396D01*
X134761506Y-57831402D01*
X134883430Y-57953326D01*
X134916915Y-58014649D01*
X134911931Y-58084341D01*
X134870059Y-58140274D01*
X134839083Y-58157189D01*
X134707669Y-58206203D01*
X134707664Y-58206206D01*
X134592455Y-58292452D01*
X134592452Y-58292455D01*
X134506206Y-58407664D01*
X134506202Y-58407671D01*
X134456997Y-58539598D01*
X134415126Y-58595532D01*
X134349661Y-58619949D01*
X134281388Y-58605097D01*
X134253134Y-58583946D01*
X134131078Y-58461890D01*
X133945405Y-58331879D01*
X133901780Y-58277302D01*
X133894588Y-58207804D01*
X133926110Y-58145449D01*
X133945406Y-58128730D01*
X133950019Y-58125500D01*
X134131401Y-57998495D01*
X134298495Y-57831401D01*
X134428425Y-57645842D01*
X134483002Y-57602217D01*
X134552500Y-57595023D01*
X134614855Y-57626546D01*
G37*
%TD.AperFunction*%
%TA.AperFunction,Conductor*%
G36*
X148865437Y-55645185D02*
G01*
X148904514Y-55685349D01*
X148919528Y-55710185D01*
X148919531Y-55710189D01*
X148932161Y-55722819D01*
X148965646Y-55784142D01*
X148960662Y-55853834D01*
X148918790Y-55909767D01*
X148853326Y-55934184D01*
X148844480Y-55934500D01*
X148249453Y-55934500D01*
X148182414Y-55914815D01*
X148136659Y-55862011D01*
X148126715Y-55792853D01*
X148155740Y-55729297D01*
X148161772Y-55722819D01*
X148222772Y-55661819D01*
X148284095Y-55628334D01*
X148310453Y-55625500D01*
X148798398Y-55625500D01*
X148865437Y-55645185D01*
G37*
%TD.AperFunction*%
%TA.AperFunction,Conductor*%
G36*
X154260688Y-50880185D02*
G01*
X154297458Y-50916679D01*
X154356911Y-51007679D01*
X154377098Y-51074568D01*
X154357918Y-51141754D01*
X154305460Y-51187904D01*
X154253102Y-51199500D01*
X153551915Y-51199500D01*
X153538031Y-51198720D01*
X153500002Y-51194435D01*
X153499998Y-51194435D01*
X153461969Y-51198720D01*
X153448085Y-51199500D01*
X153421152Y-51199500D01*
X153381994Y-51207288D01*
X153371696Y-51208890D01*
X153320742Y-51214632D01*
X153320735Y-51214634D01*
X153296898Y-51222975D01*
X153280140Y-51227550D01*
X153266502Y-51230263D01*
X153266496Y-51230264D01*
X153217631Y-51250504D01*
X153211140Y-51252982D01*
X153150477Y-51274210D01*
X153150474Y-51274212D01*
X153140127Y-51280713D01*
X153121639Y-51290266D01*
X153120832Y-51290600D01*
X153120824Y-51290604D01*
X153120821Y-51290605D01*
X153120821Y-51290606D01*
X153105433Y-51300888D01*
X153066047Y-51327204D01*
X153063132Y-51329092D01*
X152997742Y-51370180D01*
X152997735Y-51370186D01*
X152870186Y-51497735D01*
X152870180Y-51497742D01*
X152829092Y-51563132D01*
X152827204Y-51566047D01*
X152790604Y-51620824D01*
X152790600Y-51620832D01*
X152790266Y-51621639D01*
X152780713Y-51640127D01*
X152774212Y-51650474D01*
X152774210Y-51650477D01*
X152752982Y-51711140D01*
X152750504Y-51717631D01*
X152730264Y-51766496D01*
X152730263Y-51766502D01*
X152727550Y-51780140D01*
X152722975Y-51796898D01*
X152714634Y-51820735D01*
X152714632Y-51820742D01*
X152708890Y-51871696D01*
X152707288Y-51881994D01*
X152699500Y-51921152D01*
X152699500Y-51948085D01*
X152698720Y-51961969D01*
X152694435Y-51999998D01*
X152694435Y-52000001D01*
X152695488Y-52009343D01*
X152698629Y-52037226D01*
X152698720Y-52038029D01*
X152699500Y-52051914D01*
X152699500Y-52078844D01*
X152707288Y-52118003D01*
X152708890Y-52128303D01*
X152714632Y-52179252D01*
X152714633Y-52179260D01*
X152722976Y-52203104D01*
X152727550Y-52219860D01*
X152730262Y-52233496D01*
X152750509Y-52282377D01*
X152752986Y-52288867D01*
X152769593Y-52336326D01*
X152774212Y-52349524D01*
X152780709Y-52359865D01*
X152790268Y-52378365D01*
X152790604Y-52379177D01*
X152827197Y-52433941D01*
X152829088Y-52436859D01*
X152870182Y-52502260D01*
X152870184Y-52502262D01*
X152997738Y-52629816D01*
X153052369Y-52664143D01*
X153063131Y-52670905D01*
X153066040Y-52672790D01*
X153120821Y-52709394D01*
X153121606Y-52709719D01*
X153140134Y-52719289D01*
X153150478Y-52725789D01*
X153211175Y-52747028D01*
X153217607Y-52749484D01*
X153244734Y-52760720D01*
X153266497Y-52769735D01*
X153266498Y-52769735D01*
X153266503Y-52769737D01*
X153280139Y-52772449D01*
X153296898Y-52777023D01*
X153320745Y-52785368D01*
X153371714Y-52791110D01*
X153381992Y-52792709D01*
X153409140Y-52798109D01*
X153421157Y-52800500D01*
X153421158Y-52800500D01*
X153448085Y-52800500D01*
X153461969Y-52801280D01*
X153499998Y-52805565D01*
X153500000Y-52805565D01*
X153500002Y-52805565D01*
X153538031Y-52801280D01*
X153551915Y-52800500D01*
X154000501Y-52800500D01*
X154067540Y-52820185D01*
X154113295Y-52872989D01*
X154124501Y-52924500D01*
X154124501Y-53722876D01*
X154130908Y-53782483D01*
X154181202Y-53917328D01*
X154181206Y-53917335D01*
X154267452Y-54032544D01*
X154267455Y-54032547D01*
X154382664Y-54118793D01*
X154382671Y-54118797D01*
X154395227Y-54123480D01*
X154517517Y-54169091D01*
X154577127Y-54175500D01*
X154600497Y-54175499D01*
X154667536Y-54195181D01*
X154713292Y-54247983D01*
X154724500Y-54299499D01*
X154724500Y-55522718D01*
X154704815Y-55589757D01*
X154676662Y-55620571D01*
X154573222Y-55701081D01*
X154573219Y-55701084D01*
X154573216Y-55701086D01*
X154573216Y-55701087D01*
X154512997Y-55766503D01*
X154416019Y-55871849D01*
X154411791Y-55878321D01*
X154358645Y-55923678D01*
X154307982Y-55934500D01*
X152154812Y-55934500D01*
X152087773Y-55914815D01*
X152042018Y-55862011D01*
X152032074Y-55792853D01*
X152061099Y-55729297D01*
X152067131Y-55722819D01*
X152080071Y-55709878D01*
X152080072Y-55709877D01*
X152168019Y-55564395D01*
X152218590Y-55402106D01*
X152225000Y-55331572D01*
X152225000Y-55250000D01*
X151199000Y-55250000D01*
X151131961Y-55230315D01*
X151086206Y-55177511D01*
X151075000Y-55126000D01*
X151075000Y-54025000D01*
X151575000Y-54025000D01*
X151575000Y-54750000D01*
X152224999Y-54750000D01*
X152224999Y-54668417D01*
X152218591Y-54597897D01*
X152218590Y-54597892D01*
X152168018Y-54435603D01*
X152080072Y-54290122D01*
X151959877Y-54169927D01*
X151814395Y-54081980D01*
X151814396Y-54081980D01*
X151652105Y-54031409D01*
X151652106Y-54031409D01*
X151581572Y-54025000D01*
X151575000Y-54025000D01*
X151075000Y-54025000D01*
X151074999Y-54024999D01*
X151068436Y-54025000D01*
X151068417Y-54025001D01*
X150997897Y-54031408D01*
X150997892Y-54031409D01*
X150835603Y-54081981D01*
X150690122Y-54169927D01*
X150690121Y-54169928D01*
X150588035Y-54272015D01*
X150526712Y-54305500D01*
X150457020Y-54300516D01*
X150412673Y-54272015D01*
X150336819Y-54196161D01*
X150303334Y-54134838D01*
X150300500Y-54108480D01*
X150300500Y-53460452D01*
X150320185Y-53393413D01*
X150336819Y-53372771D01*
X151197772Y-52511819D01*
X151259095Y-52478334D01*
X151285453Y-52475500D01*
X151581613Y-52475500D01*
X151581616Y-52475500D01*
X151652196Y-52469086D01*
X151814606Y-52418478D01*
X151960185Y-52330472D01*
X152080472Y-52210185D01*
X152168478Y-52064606D01*
X152219086Y-51902196D01*
X152225500Y-51831616D01*
X152225500Y-51168384D01*
X152219086Y-51097804D01*
X152195273Y-51021386D01*
X152194124Y-50951530D01*
X152230925Y-50892137D01*
X152293994Y-50862069D01*
X152313660Y-50860500D01*
X154193649Y-50860500D01*
X154260688Y-50880185D01*
G37*
%TD.AperFunction*%
%TA.AperFunction,Conductor*%
G36*
X103693039Y-47770185D02*
G01*
X103738794Y-47822989D01*
X103750000Y-47874500D01*
X103750000Y-48800000D01*
X104103911Y-48800000D01*
X104170950Y-48819685D01*
X104191592Y-48836319D01*
X104496870Y-49141596D01*
X104801816Y-49446542D01*
X104853011Y-49497737D01*
X104899389Y-49544115D01*
X105014112Y-49620771D01*
X105014119Y-49620775D01*
X105085827Y-49650477D01*
X105085828Y-49650478D01*
X105108930Y-49660046D01*
X105141601Y-49673580D01*
X105141610Y-49673581D01*
X105141611Y-49673582D01*
X105168475Y-49678925D01*
X105168481Y-49678926D01*
X105168521Y-49678934D01*
X105258867Y-49696905D01*
X105276936Y-49700500D01*
X105276937Y-49700500D01*
X105368060Y-49700500D01*
X105435099Y-49720185D01*
X105480854Y-49772989D01*
X105490798Y-49842147D01*
X105461773Y-49905703D01*
X105455741Y-49912181D01*
X105370184Y-49997737D01*
X105274211Y-50150476D01*
X105214631Y-50320745D01*
X105214630Y-50320750D01*
X105194435Y-50499996D01*
X105194435Y-50500003D01*
X105214630Y-50679249D01*
X105214631Y-50679254D01*
X105274211Y-50849523D01*
X105370184Y-51002262D01*
X105382146Y-51014224D01*
X105415631Y-51075547D01*
X105410647Y-51145239D01*
X105368775Y-51201172D01*
X105341922Y-51216464D01*
X105323193Y-51224222D01*
X105208454Y-51300887D01*
X105208453Y-51300888D01*
X104521162Y-51988181D01*
X104459839Y-52021666D01*
X104433481Y-52024500D01*
X104243384Y-52024500D01*
X104224145Y-52026248D01*
X104172807Y-52030913D01*
X104010393Y-52081522D01*
X103864811Y-52169530D01*
X103744530Y-52289811D01*
X103656522Y-52435393D01*
X103605913Y-52597807D01*
X103604882Y-52609155D01*
X103599886Y-52664143D01*
X103599500Y-52668386D01*
X103599500Y-53050500D01*
X103579815Y-53117539D01*
X103527011Y-53163294D01*
X103475500Y-53174500D01*
X103366519Y-53174500D01*
X103299480Y-53154815D01*
X103278838Y-53138181D01*
X103191819Y-53051162D01*
X103158334Y-52989839D01*
X103155500Y-52963481D01*
X103155500Y-52734426D01*
X103155497Y-52734399D01*
X103155497Y-52678060D01*
X103135035Y-52535744D01*
X103135034Y-52535739D01*
X103118178Y-52478334D01*
X103094498Y-52397691D01*
X103093698Y-52395939D01*
X103034776Y-52266918D01*
X103034773Y-52266914D01*
X103034770Y-52266906D01*
X102956986Y-52145870D01*
X102956985Y-52145869D01*
X102956984Y-52145867D01*
X102956981Y-52145863D01*
X102862847Y-52037226D01*
X102862830Y-52037207D01*
X102862829Y-52037206D01*
X102754091Y-51942985D01*
X102707735Y-51913194D01*
X102633142Y-51865255D01*
X102633136Y-51865252D01*
X102538297Y-51821941D01*
X102502259Y-51805483D01*
X102372958Y-51767517D01*
X102364308Y-51764977D01*
X102364296Y-51764974D01*
X102221889Y-51744500D01*
X101650000Y-51744500D01*
X101649997Y-51744500D01*
X101578061Y-51749644D01*
X101578056Y-51749645D01*
X101540735Y-51760603D01*
X101488158Y-51764363D01*
X101350001Y-51744500D01*
X101350000Y-51744500D01*
X100778111Y-51744500D01*
X100778110Y-51744500D01*
X100635703Y-51764974D01*
X100635691Y-51764977D01*
X100497741Y-51805483D01*
X100366863Y-51865252D01*
X100366861Y-51865254D01*
X100251523Y-51939376D01*
X100250083Y-51940196D01*
X100245901Y-51942988D01*
X100137169Y-52037207D01*
X100137166Y-52037210D01*
X100043018Y-52145864D01*
X100043015Y-52145867D01*
X100011535Y-52194853D01*
X99980888Y-52242539D01*
X99928087Y-52288294D01*
X99876574Y-52299500D01*
X99649500Y-52299500D01*
X99582461Y-52279815D01*
X99536706Y-52227011D01*
X99525500Y-52175500D01*
X99525500Y-49374499D01*
X99545185Y-49307460D01*
X99597989Y-49261705D01*
X99649500Y-49250499D01*
X99797871Y-49250499D01*
X99797872Y-49250499D01*
X99857483Y-49244091D01*
X99992331Y-49193796D01*
X100107546Y-49107546D01*
X100163734Y-49032487D01*
X100219667Y-48990618D01*
X100289359Y-48985634D01*
X100350682Y-49019119D01*
X100384166Y-49080443D01*
X100387000Y-49106800D01*
X100387000Y-49165701D01*
X100389901Y-49202567D01*
X100389902Y-49202573D01*
X100435754Y-49360393D01*
X100435755Y-49360396D01*
X100435756Y-49360398D01*
X100442527Y-49371847D01*
X100519417Y-49501862D01*
X100519423Y-49501870D01*
X100635629Y-49618076D01*
X100635633Y-49618079D01*
X100635635Y-49618081D01*
X100777102Y-49701744D01*
X100781274Y-49702956D01*
X100934926Y-49747597D01*
X100934929Y-49747597D01*
X100934931Y-49747598D01*
X100971806Y-49750500D01*
X100971814Y-49750500D01*
X102278186Y-49750500D01*
X102278194Y-49750500D01*
X102315069Y-49747598D01*
X102315071Y-49747597D01*
X102315073Y-49747597D01*
X102365821Y-49732853D01*
X102472898Y-49701744D01*
X102614365Y-49618081D01*
X102730581Y-49501865D01*
X102814244Y-49360398D01*
X102857018Y-49213170D01*
X102860097Y-49202573D01*
X102860098Y-49202567D01*
X102863000Y-49165694D01*
X102863000Y-48924000D01*
X102882685Y-48856961D01*
X102935489Y-48811206D01*
X102987000Y-48800000D01*
X103250000Y-48800000D01*
X103250000Y-48250000D01*
X102594315Y-48250000D01*
X102531194Y-48232732D01*
X102472896Y-48198255D01*
X102472893Y-48198254D01*
X102315073Y-48152402D01*
X102315067Y-48152401D01*
X102278201Y-48149500D01*
X102278194Y-48149500D01*
X101866519Y-48149500D01*
X101799480Y-48129815D01*
X101778838Y-48113181D01*
X101727838Y-48062181D01*
X101694353Y-48000858D01*
X101699337Y-47931166D01*
X101741209Y-47875233D01*
X101806673Y-47850816D01*
X101815519Y-47850500D01*
X102278186Y-47850500D01*
X102278194Y-47850500D01*
X102315069Y-47847598D01*
X102315071Y-47847597D01*
X102315073Y-47847597D01*
X102367676Y-47832314D01*
X102472898Y-47801744D01*
X102530348Y-47767767D01*
X102593469Y-47750500D01*
X103626000Y-47750500D01*
X103693039Y-47770185D01*
G37*
%TD.AperFunction*%
%TA.AperFunction,Conductor*%
G36*
X112826519Y-51145185D02*
G01*
X112872274Y-51197989D01*
X112882218Y-51267147D01*
X112853193Y-51330703D01*
X112847161Y-51337181D01*
X112196162Y-51988181D01*
X112134839Y-52021666D01*
X112108481Y-52024500D01*
X111918384Y-52024500D01*
X111899145Y-52026248D01*
X111847807Y-52030913D01*
X111685393Y-52081522D01*
X111539811Y-52169530D01*
X111419530Y-52289811D01*
X111331522Y-52435393D01*
X111280913Y-52597807D01*
X111279882Y-52609155D01*
X111274886Y-52664143D01*
X111274500Y-52668386D01*
X111274500Y-53050500D01*
X111254815Y-53117539D01*
X111202011Y-53163294D01*
X111150500Y-53174500D01*
X111016519Y-53174500D01*
X110949480Y-53154815D01*
X110928838Y-53138181D01*
X110841819Y-53051162D01*
X110808334Y-52989839D01*
X110805500Y-52963481D01*
X110805500Y-52734426D01*
X110805497Y-52734399D01*
X110805497Y-52678060D01*
X110785035Y-52535744D01*
X110785034Y-52535739D01*
X110768178Y-52478334D01*
X110744498Y-52397691D01*
X110743698Y-52395939D01*
X110684776Y-52266918D01*
X110684773Y-52266914D01*
X110684770Y-52266906D01*
X110606986Y-52145870D01*
X110606985Y-52145869D01*
X110606984Y-52145867D01*
X110606981Y-52145863D01*
X110512847Y-52037226D01*
X110512831Y-52037208D01*
X110512829Y-52037206D01*
X110471510Y-52001403D01*
X110438154Y-51955146D01*
X110420775Y-51913189D01*
X110420773Y-51913186D01*
X110420771Y-51913182D01*
X110344115Y-51798459D01*
X110306259Y-51760603D01*
X110246542Y-51700886D01*
X110164747Y-51619091D01*
X109882839Y-51337181D01*
X109849354Y-51275858D01*
X109854338Y-51206166D01*
X109896210Y-51150233D01*
X109961674Y-51125816D01*
X109970520Y-51125500D01*
X112759480Y-51125500D01*
X112826519Y-51145185D01*
G37*
%TD.AperFunction*%
%TA.AperFunction,Conductor*%
G36*
X129432641Y-45640482D02*
G01*
X129479087Y-45669744D01*
X130263181Y-46453838D01*
X130296666Y-46515161D01*
X130299500Y-46541519D01*
X130299500Y-47183480D01*
X130279815Y-47250519D01*
X130263181Y-47271161D01*
X130244531Y-47289810D01*
X130244530Y-47289811D01*
X130156522Y-47435393D01*
X130105913Y-47597807D01*
X130099500Y-47668386D01*
X130099500Y-48331613D01*
X130105913Y-48402192D01*
X130105913Y-48402194D01*
X130105914Y-48402196D01*
X130156522Y-48564606D01*
X130238272Y-48699837D01*
X130244530Y-48710188D01*
X130364811Y-48830469D01*
X130364813Y-48830470D01*
X130364815Y-48830472D01*
X130510394Y-48918478D01*
X130672804Y-48969086D01*
X130743384Y-48975500D01*
X130743387Y-48975500D01*
X131256613Y-48975500D01*
X131256616Y-48975500D01*
X131327196Y-48969086D01*
X131489606Y-48918478D01*
X131611352Y-48844879D01*
X131678904Y-48827044D01*
X131745378Y-48848561D01*
X131789666Y-48902602D01*
X131799500Y-48950997D01*
X131799500Y-49574507D01*
X131780494Y-49640478D01*
X131774209Y-49650479D01*
X131714633Y-49820737D01*
X131714630Y-49820750D01*
X131694435Y-49999996D01*
X131694435Y-50000003D01*
X131714630Y-50179249D01*
X131714631Y-50179254D01*
X131774211Y-50349523D01*
X131861336Y-50488181D01*
X131870184Y-50502262D01*
X131997738Y-50629816D01*
X132150478Y-50725789D01*
X132267981Y-50766905D01*
X132320745Y-50785368D01*
X132320750Y-50785369D01*
X132499996Y-50805565D01*
X132500000Y-50805565D01*
X132500004Y-50805565D01*
X132679249Y-50785369D01*
X132679252Y-50785368D01*
X132679255Y-50785368D01*
X132849522Y-50725789D01*
X133002262Y-50629816D01*
X133129816Y-50502262D01*
X133225789Y-50349522D01*
X133285368Y-50179255D01*
X133286180Y-50172051D01*
X133298339Y-50064136D01*
X133325405Y-49999722D01*
X133383000Y-49960167D01*
X133452837Y-49958029D01*
X133512743Y-49993987D01*
X133519350Y-50001797D01*
X133635629Y-50118076D01*
X133635633Y-50118079D01*
X133635635Y-50118081D01*
X133683322Y-50146283D01*
X133763202Y-50193524D01*
X133777102Y-50201744D01*
X133835095Y-50218592D01*
X133893980Y-50256197D01*
X133923187Y-50319669D01*
X133924500Y-50337668D01*
X133924500Y-50556006D01*
X133924500Y-50693994D01*
X133924500Y-50693996D01*
X133924499Y-50693996D01*
X133951418Y-50829322D01*
X133951421Y-50829332D01*
X134004222Y-50956807D01*
X134080887Y-51071545D01*
X134208630Y-51199288D01*
X134237990Y-51246013D01*
X134274209Y-51349520D01*
X134370398Y-51502603D01*
X134389398Y-51569840D01*
X134369030Y-51636675D01*
X134353085Y-51656256D01*
X134087680Y-51921661D01*
X134026357Y-51955146D01*
X133956665Y-51950162D01*
X133912318Y-51921661D01*
X133291546Y-51300888D01*
X133291545Y-51300887D01*
X133176807Y-51224222D01*
X133049332Y-51171421D01*
X133049322Y-51171418D01*
X132913996Y-51144500D01*
X132913994Y-51144500D01*
X132913993Y-51144500D01*
X129181007Y-51144500D01*
X129181003Y-51144500D01*
X129072590Y-51166065D01*
X129072589Y-51166065D01*
X129059131Y-51168742D01*
X129045673Y-51171419D01*
X129029640Y-51178060D01*
X128992866Y-51193292D01*
X128992864Y-51193293D01*
X128992863Y-51193292D01*
X128918191Y-51224223D01*
X128806910Y-51298580D01*
X128806905Y-51298583D01*
X128803456Y-51300887D01*
X128803453Y-51300889D01*
X128305888Y-51798453D01*
X128305885Y-51798456D01*
X128229228Y-51913182D01*
X128229222Y-51913194D01*
X128211845Y-51955145D01*
X128178490Y-52001401D01*
X128137168Y-52037207D01*
X128043018Y-52145864D01*
X128043015Y-52145867D01*
X128011535Y-52194853D01*
X127980890Y-52242539D01*
X127965231Y-52266905D01*
X127965223Y-52266918D01*
X127908263Y-52391643D01*
X127906016Y-52395938D01*
X127899674Y-52417537D01*
X127861898Y-52476314D01*
X127798342Y-52505338D01*
X127729184Y-52495394D01*
X127676380Y-52449638D01*
X127670192Y-52438230D01*
X127668477Y-52435393D01*
X127580472Y-52289815D01*
X127580470Y-52289813D01*
X127580469Y-52289811D01*
X127460188Y-52169530D01*
X127408299Y-52138162D01*
X127314606Y-52081522D01*
X127152196Y-52030914D01*
X127152194Y-52030913D01*
X127152192Y-52030913D01*
X127102778Y-52026423D01*
X127081616Y-52024500D01*
X127081613Y-52024500D01*
X126891518Y-52024500D01*
X126824479Y-52004815D01*
X126803837Y-51988181D01*
X125771546Y-50955888D01*
X125771545Y-50955887D01*
X125656807Y-50879222D01*
X125529332Y-50826421D01*
X125529322Y-50826418D01*
X125393996Y-50799500D01*
X125393994Y-50799500D01*
X125393993Y-50799500D01*
X122513994Y-50799500D01*
X122376006Y-50799500D01*
X122376004Y-50799500D01*
X122240677Y-50826418D01*
X122240667Y-50826421D01*
X122113192Y-50879222D01*
X121998454Y-50955887D01*
X121155885Y-51798456D01*
X121079228Y-51913182D01*
X121079222Y-51913194D01*
X121061845Y-51955145D01*
X121028490Y-52001401D01*
X120987168Y-52037207D01*
X120893018Y-52145864D01*
X120893015Y-52145867D01*
X120861535Y-52194853D01*
X120830890Y-52242539D01*
X120815231Y-52266905D01*
X120815223Y-52266918D01*
X120758263Y-52391643D01*
X120756015Y-52395939D01*
X120714966Y-52535738D01*
X120714965Y-52535744D01*
X120694503Y-52678059D01*
X120694503Y-52734399D01*
X120694500Y-52734409D01*
X120694500Y-53011616D01*
X120674815Y-53078655D01*
X120622011Y-53124410D01*
X120552853Y-53134354D01*
X120489297Y-53105329D01*
X120482819Y-53099297D01*
X117782762Y-50399240D01*
X117749277Y-50337917D01*
X117753401Y-50270608D01*
X117785368Y-50179255D01*
X117786180Y-50172051D01*
X117805565Y-50000003D01*
X117805565Y-49999997D01*
X117787919Y-49843384D01*
X117799973Y-49774562D01*
X117847323Y-49723182D01*
X117911139Y-49705500D01*
X121536608Y-49705500D01*
X121536608Y-49705499D01*
X121612018Y-49690500D01*
X121612019Y-49690500D01*
X121623454Y-49688225D01*
X121657452Y-49681463D01*
X121693665Y-49666463D01*
X121771286Y-49634312D01*
X121822509Y-49600084D01*
X121824614Y-49598678D01*
X121837878Y-49589815D01*
X121873733Y-49565858D01*
X121960858Y-49478733D01*
X121960858Y-49478731D01*
X121971066Y-49468524D01*
X121971066Y-49468522D01*
X122285857Y-49153734D01*
X122285924Y-49153632D01*
X122292676Y-49143531D01*
X122294324Y-49141061D01*
X122295781Y-49138881D01*
X122331856Y-49103436D01*
X122398486Y-49060616D01*
X122399920Y-49059801D01*
X122404098Y-49057011D01*
X122456251Y-49011819D01*
X122512832Y-48962791D01*
X122606986Y-48854130D01*
X122684770Y-48733094D01*
X122741742Y-48608342D01*
X122743986Y-48604053D01*
X122744498Y-48602308D01*
X122744499Y-48602308D01*
X122761867Y-48543157D01*
X122799641Y-48484380D01*
X122863197Y-48455355D01*
X122932356Y-48465299D01*
X122985159Y-48511054D01*
X122999228Y-48541199D01*
X123006522Y-48564606D01*
X123088272Y-48699837D01*
X123094530Y-48710188D01*
X123214811Y-48830469D01*
X123214813Y-48830470D01*
X123214815Y-48830472D01*
X123360394Y-48918478D01*
X123522804Y-48969086D01*
X123593384Y-48975500D01*
X123593387Y-48975500D01*
X124106613Y-48975500D01*
X124106616Y-48975500D01*
X124177196Y-48969086D01*
X124339606Y-48918478D01*
X124485185Y-48830472D01*
X124587673Y-48727983D01*
X124648994Y-48694499D01*
X124718685Y-48699483D01*
X124763034Y-48727984D01*
X124865122Y-48830072D01*
X125010604Y-48918019D01*
X125010603Y-48918019D01*
X125172894Y-48968590D01*
X125172893Y-48968590D01*
X125243408Y-48974998D01*
X125243426Y-48974999D01*
X125249999Y-48974998D01*
X125250000Y-48974998D01*
X125250000Y-48250000D01*
X125750000Y-48250000D01*
X125750000Y-48974999D01*
X125756581Y-48974999D01*
X125827102Y-48968591D01*
X125827107Y-48968590D01*
X125989396Y-48918018D01*
X126134877Y-48830072D01*
X126255072Y-48709877D01*
X126343019Y-48564395D01*
X126393590Y-48402106D01*
X126400000Y-48331572D01*
X126400000Y-48250000D01*
X125750000Y-48250000D01*
X125250000Y-48250000D01*
X125250000Y-47874000D01*
X125269685Y-47806961D01*
X125322489Y-47761206D01*
X125374000Y-47750000D01*
X126399999Y-47750000D01*
X126399999Y-47669500D01*
X126419684Y-47602461D01*
X126472488Y-47556706D01*
X126523999Y-47545500D01*
X127670500Y-47545500D01*
X127737539Y-47565185D01*
X127783294Y-47617989D01*
X127794500Y-47669500D01*
X127794500Y-48750000D01*
X127799644Y-48821940D01*
X127827856Y-48918018D01*
X127834153Y-48939464D01*
X127840182Y-48959994D01*
X127917967Y-49081030D01*
X127917971Y-49081034D01*
X128001871Y-49153734D01*
X128026706Y-49175254D01*
X128067174Y-49193735D01*
X128157580Y-49235023D01*
X128157583Y-49235023D01*
X128157584Y-49235024D01*
X128300000Y-49255500D01*
X128300003Y-49255500D01*
X128871886Y-49255500D01*
X128871889Y-49255500D01*
X129014304Y-49235024D01*
X129152259Y-49194517D01*
X129283137Y-49134747D01*
X129288674Y-49131189D01*
X129364180Y-49082664D01*
X129398477Y-49060622D01*
X129399915Y-49059804D01*
X129404098Y-49057011D01*
X129456251Y-49011819D01*
X129512832Y-48962791D01*
X129606986Y-48854130D01*
X129684770Y-48733094D01*
X129741742Y-48608342D01*
X129743986Y-48604053D01*
X129744498Y-48602308D01*
X129744499Y-48602308D01*
X129785035Y-48464256D01*
X129805497Y-48321941D01*
X129805497Y-48265601D01*
X129805500Y-48265590D01*
X129805500Y-47734426D01*
X129805497Y-47734399D01*
X129805497Y-47678060D01*
X129804207Y-47669091D01*
X129785035Y-47535744D01*
X129785035Y-47535743D01*
X129776791Y-47507669D01*
X129767868Y-47477281D01*
X129744498Y-47397691D01*
X129742107Y-47392455D01*
X129684776Y-47266918D01*
X129684773Y-47266914D01*
X129684770Y-47266906D01*
X129606986Y-47145870D01*
X129606985Y-47145869D01*
X129606984Y-47145867D01*
X129606981Y-47145863D01*
X129512847Y-47037226D01*
X129512830Y-47037207D01*
X129512829Y-47037206D01*
X129404091Y-46942985D01*
X129331857Y-46896563D01*
X129295794Y-46861137D01*
X129285859Y-46846268D01*
X129244557Y-46804966D01*
X129198733Y-46759142D01*
X129198732Y-46759141D01*
X128967927Y-46528337D01*
X128967925Y-46528334D01*
X128967925Y-46528335D01*
X128960858Y-46521268D01*
X128960858Y-46521267D01*
X128873733Y-46434142D01*
X128861067Y-46425679D01*
X128816263Y-46372069D01*
X128807554Y-46302744D01*
X128837708Y-46239716D01*
X128874546Y-46213652D01*
X128873805Y-46212266D01*
X128879167Y-46209398D01*
X128879179Y-46209394D01*
X128933987Y-46172771D01*
X128936825Y-46170931D01*
X129002262Y-46129816D01*
X129129816Y-46002262D01*
X129170931Y-45936825D01*
X129172777Y-45933979D01*
X129193213Y-45903395D01*
X129209394Y-45879179D01*
X129209720Y-45878390D01*
X129219287Y-45859868D01*
X129225789Y-45849522D01*
X129247023Y-45788837D01*
X129249484Y-45782389D01*
X129269737Y-45733497D01*
X129269785Y-45733251D01*
X129269848Y-45733131D01*
X129271505Y-45727670D01*
X129272540Y-45727983D01*
X129302160Y-45671337D01*
X129362870Y-45636753D01*
X129432641Y-45640482D01*
G37*
%TD.AperFunction*%
%TA.AperFunction,Conductor*%
G36*
X141742539Y-46720185D02*
G01*
X141788294Y-46772989D01*
X141799500Y-46824500D01*
X141799500Y-49509481D01*
X141779815Y-49576520D01*
X141727011Y-49622275D01*
X141657853Y-49632219D01*
X141594297Y-49603194D01*
X141587819Y-49597162D01*
X140786818Y-48796161D01*
X140753333Y-48734838D01*
X140750499Y-48708480D01*
X140750499Y-47702129D01*
X140750498Y-47702123D01*
X140750497Y-47702116D01*
X140744091Y-47642517D01*
X140727415Y-47597807D01*
X140693797Y-47507671D01*
X140693793Y-47507664D01*
X140607547Y-47392455D01*
X140607544Y-47392452D01*
X140492335Y-47306206D01*
X140492328Y-47306202D01*
X140357482Y-47255908D01*
X140357483Y-47255908D01*
X140297883Y-47249501D01*
X140297881Y-47249500D01*
X140297873Y-47249500D01*
X140297864Y-47249500D01*
X138702129Y-47249500D01*
X138702123Y-47249501D01*
X138642516Y-47255908D01*
X138507671Y-47306202D01*
X138507664Y-47306206D01*
X138392455Y-47392452D01*
X138392452Y-47392455D01*
X138306206Y-47507664D01*
X138306202Y-47507671D01*
X138255908Y-47642517D01*
X138249501Y-47702116D01*
X138249501Y-47702123D01*
X138249500Y-47702135D01*
X138249500Y-49297870D01*
X138249501Y-49297876D01*
X138255908Y-49357483D01*
X138306202Y-49492328D01*
X138306206Y-49492335D01*
X138392452Y-49607544D01*
X138392455Y-49607547D01*
X138507664Y-49693793D01*
X138507671Y-49693797D01*
X138642517Y-49744091D01*
X138642516Y-49744091D01*
X138649444Y-49744835D01*
X138702127Y-49750500D01*
X139708480Y-49750499D01*
X139775519Y-49770183D01*
X139796161Y-49786818D01*
X140588181Y-50578838D01*
X140621666Y-50640161D01*
X140624500Y-50666519D01*
X140624500Y-52183480D01*
X140604815Y-52250519D01*
X140588181Y-52271161D01*
X140587681Y-52271661D01*
X140526358Y-52305146D01*
X140456666Y-52300162D01*
X140412319Y-52271661D01*
X140310188Y-52169530D01*
X140258299Y-52138162D01*
X140164606Y-52081522D01*
X140002196Y-52030914D01*
X140002194Y-52030913D01*
X140002192Y-52030913D01*
X139952778Y-52026423D01*
X139931616Y-52024500D01*
X139418384Y-52024500D01*
X139399145Y-52026248D01*
X139347807Y-52030913D01*
X139185393Y-52081522D01*
X139039811Y-52169530D01*
X139039810Y-52169531D01*
X138946161Y-52263181D01*
X138884838Y-52296666D01*
X138858480Y-52299500D01*
X138623426Y-52299500D01*
X138556387Y-52279815D01*
X138519111Y-52242540D01*
X138456986Y-52145870D01*
X138456985Y-52145869D01*
X138456984Y-52145867D01*
X138456981Y-52145863D01*
X138362847Y-52037226D01*
X138362831Y-52037208D01*
X138362829Y-52037206D01*
X138321510Y-52001403D01*
X138288154Y-51955146D01*
X138270775Y-51913189D01*
X138270773Y-51913186D01*
X138270771Y-51913182D01*
X138194115Y-51798459D01*
X138156259Y-51760603D01*
X138096542Y-51700886D01*
X138014747Y-51619091D01*
X137696546Y-51300888D01*
X137696545Y-51300887D01*
X137581807Y-51224222D01*
X137454332Y-51171421D01*
X137454322Y-51171418D01*
X137318996Y-51144500D01*
X137318994Y-51144500D01*
X137318993Y-51144500D01*
X135928040Y-51144500D01*
X135861001Y-51124815D01*
X135815246Y-51072011D01*
X135804820Y-51006618D01*
X135805565Y-51000005D01*
X135805565Y-50999996D01*
X135785369Y-50820750D01*
X135785368Y-50820745D01*
X135766529Y-50766906D01*
X135725789Y-50650478D01*
X135719306Y-50640161D01*
X135654617Y-50537209D01*
X135629816Y-50497738D01*
X135502262Y-50370184D01*
X135498543Y-50366465D01*
X135465058Y-50305142D01*
X135470042Y-50235450D01*
X135511914Y-50179517D01*
X135523085Y-50172063D01*
X135614365Y-50118081D01*
X135730581Y-50001865D01*
X135814244Y-49860398D01*
X135859246Y-49705501D01*
X135860097Y-49702573D01*
X135860098Y-49702567D01*
X135860788Y-49693796D01*
X135863000Y-49665694D01*
X135863000Y-49424000D01*
X135882685Y-49356961D01*
X135935489Y-49311206D01*
X135987000Y-49300000D01*
X136250000Y-49300000D01*
X136250000Y-48750000D01*
X136750000Y-48750000D01*
X136750000Y-49300000D01*
X137153134Y-49300000D01*
X137153149Y-49299999D01*
X137189989Y-49297100D01*
X137189995Y-49297099D01*
X137347693Y-49251283D01*
X137347696Y-49251282D01*
X137489052Y-49167685D01*
X137489061Y-49167678D01*
X137605178Y-49051561D01*
X137605185Y-49051552D01*
X137688781Y-48910198D01*
X137734600Y-48752486D01*
X137734795Y-48750001D01*
X137734795Y-48750000D01*
X136750000Y-48750000D01*
X136250000Y-48750000D01*
X135594315Y-48750000D01*
X135531194Y-48732732D01*
X135523167Y-48727985D01*
X135472898Y-48698256D01*
X135472897Y-48698255D01*
X135472896Y-48698255D01*
X135472893Y-48698254D01*
X135315073Y-48652402D01*
X135315067Y-48652401D01*
X135278201Y-48649500D01*
X135278194Y-48649500D01*
X134815519Y-48649500D01*
X134748480Y-48629815D01*
X134702725Y-48577011D01*
X134692781Y-48507853D01*
X134721806Y-48444297D01*
X134727838Y-48437819D01*
X134778838Y-48386819D01*
X134840161Y-48353334D01*
X134866519Y-48350500D01*
X135278186Y-48350500D01*
X135278194Y-48350500D01*
X135315069Y-48347598D01*
X135315071Y-48347597D01*
X135315073Y-48347597D01*
X135403380Y-48321941D01*
X135472898Y-48301744D01*
X135531194Y-48267268D01*
X135594315Y-48250000D01*
X136250000Y-48250000D01*
X136250000Y-47700000D01*
X136750000Y-47700000D01*
X136750000Y-48250000D01*
X137734795Y-48250000D01*
X137734795Y-48249998D01*
X137734600Y-48247513D01*
X137688781Y-48089801D01*
X137605185Y-47948447D01*
X137605178Y-47948438D01*
X137489061Y-47832321D01*
X137489052Y-47832314D01*
X137347696Y-47748717D01*
X137347693Y-47748716D01*
X137189995Y-47702900D01*
X137189989Y-47702899D01*
X137153149Y-47700000D01*
X136750000Y-47700000D01*
X136250000Y-47700000D01*
X135987000Y-47700000D01*
X135919961Y-47680315D01*
X135874206Y-47627511D01*
X135863000Y-47576000D01*
X135863000Y-47354018D01*
X135882685Y-47286979D01*
X135899319Y-47266337D01*
X136163395Y-47002262D01*
X136428838Y-46736819D01*
X136490161Y-46703334D01*
X136516519Y-46700500D01*
X141675500Y-46700500D01*
X141742539Y-46720185D01*
G37*
%TD.AperFunction*%
%TD*%
M02*
