M48
; DRILL file {KiCad 8.0.0} date 2024-03-24T17:38:24+0200
; FORMAT={-:-/ absolute / inch / decimal}
; #@! TF.CreationDate,2024-03-24T17:38:24+02:00
; #@! TF.GenerationSoftware,Kicad,Pcbnew,8.0.0
; #@! TF.FileFunction,Plated,1,2,PTH
FMAT,2
INCH
; #@! TA.AperFunction,Plated,PTH,ViaDrill
T1C0.0118
; #@! TA.AperFunction,Plated,PTH,ComponentDrill
T2C0.0354
; #@! TA.AperFunction,Plated,PTH,ComponentDrill
T3C0.0394
%
G90
G05
T1
X3.3465Y-1.8307
X3.3661Y-1.9488
X3.3686Y-2.3307
X3.3858Y-1.6535
X3.6024Y-2.2638
X3.6417Y-1.6929
X3.7598Y-2.1457
X3.878Y-2.2047
X3.937Y-2.1654
X3.9764Y-2.2835
X4.1339Y-1.7717
X4.1535Y-2.1654
X4.1732Y-1.9882
X4.2323Y-1.811
X4.2717Y-1.7126
X4.2913Y-1.811
X4.5472Y-1.8976
X4.5472Y-2.0128
X4.6063Y-1.9685
X4.626Y-1.7717
X4.8199Y-2.2886
X4.9016Y-2.185
X4.9409Y-1.9488
X4.9756Y-2.2925
X4.9803Y-2.1457
X5.0591Y-1.7913
X5.2165Y-1.9685
X5.2559Y-2.1654
X5.315Y-2.0079
X5.315Y-2.0866
X5.4331Y-1.9488
X5.5709Y-2.1654
X5.6496Y-1.9094
X5.6496Y-2.185
X5.689Y-2.3425
X5.7677Y-2.3031
X5.8265Y-2.204
X5.8858Y-1.9685
X5.9843Y-1.9291
X6.0039Y-1.752
X6.0236Y-1.6535
X6.0433Y-2.0472
X6.048Y-1.7079
T2
X3.2864Y-1.7215
X3.2864Y-1.8215
X3.2864Y-1.9774
X3.2864Y-2.0774
X3.2864Y-2.2333
X3.2864Y-2.3333
X4.3793Y-1.6919
X4.4793Y-1.6919
X4.6549Y-1.6919
X4.7549Y-1.6919
X4.9305Y-1.6919
X5.0305Y-1.6919
X6.123Y-1.7219
X6.123Y-1.8219
X6.123Y-1.9778
X6.123Y-2.0778
X6.123Y-2.2337
X6.123Y-2.3337
T3
X4.0465Y-2.2425
X4.0465Y-2.3425
X4.1465Y-2.2425
X4.1465Y-2.3425
X4.2465Y-2.2425
X4.2465Y-2.3425
X4.3465Y-2.2425
X4.3465Y-2.3425
X4.4465Y-2.2425
X4.4465Y-2.3425
X4.5465Y-2.2425
X4.5465Y-2.3425
X4.6465Y-2.2425
X4.6465Y-2.3425
X4.7465Y-2.2425
X4.7465Y-2.3425
X4.8465Y-2.2425
X4.8465Y-2.3425
X4.9465Y-2.2425
X4.9465Y-2.3425
X5.0465Y-2.2425
X5.0465Y-2.3425
X5.1465Y-2.2425
X5.1465Y-2.3425
X5.2465Y-2.2425
X5.2465Y-2.3425
X5.3465Y-2.2425
X5.3465Y-2.3425
M30
