%TF.GenerationSoftware,KiCad,Pcbnew,8.0.0*%
%TF.CreationDate,2024-03-24T17:38:24+02:00*%
%TF.ProjectId,Sensing1_0,53656e73-696e-4673-915f-302e6b696361,rev?*%
%TF.SameCoordinates,Original*%
%TF.FileFunction,Copper,L2,Bot*%
%TF.FilePolarity,Positive*%
%FSLAX46Y46*%
G04 Gerber Fmt 4.6, Leading zero omitted, Abs format (unit mm)*
G04 Created by KiCad (PCBNEW 8.0.0) date 2024-03-24 17:38:24*
%MOMM*%
%LPD*%
G01*
G04 APERTURE LIST*
%TA.AperFunction,ComponentPad*%
%ADD10R,1.800000X1.800000*%
%TD*%
%TA.AperFunction,ComponentPad*%
%ADD11C,1.800000*%
%TD*%
%TA.AperFunction,ComponentPad*%
%ADD12O,1.700000X1.700000*%
%TD*%
%TA.AperFunction,ComponentPad*%
%ADD13R,1.700000X1.700000*%
%TD*%
%TA.AperFunction,ViaPad*%
%ADD14C,0.600000*%
%TD*%
%TA.AperFunction,Conductor*%
%ADD15C,0.400000*%
%TD*%
%TA.AperFunction,Conductor*%
%ADD16C,0.600000*%
%TD*%
%TA.AperFunction,Conductor*%
%ADD17C,0.250000*%
%TD*%
G04 APERTURE END LIST*
D10*
%TO.P,D7,1,K*%
%TO.N,Net-(D7-K)*%
X155525000Y-59275000D03*
D11*
%TO.P,D7,2,A*%
%TO.N,+BATT*%
X155525000Y-56735000D03*
%TD*%
D10*
%TO.P,D6,1,K*%
%TO.N,Net-(D6-K)*%
X127775000Y-42975000D03*
D11*
%TO.P,D6,2,A*%
%TO.N,+BATT*%
X125235000Y-42975000D03*
%TD*%
D10*
%TO.P,D4,1,K*%
%TO.N,Net-(D4-K)*%
X83475000Y-43725000D03*
D11*
%TO.P,D4,2,A*%
%TO.N,+BATT*%
X83475000Y-46265000D03*
%TD*%
D10*
%TO.P,D3,1,K*%
%TO.N,Net-(D3-K)*%
X155525000Y-46275000D03*
D11*
%TO.P,D3,2,A*%
%TO.N,+BATT*%
X155525000Y-43735000D03*
%TD*%
D10*
%TO.P,D2,1,K*%
%TO.N,Net-(D2-K)*%
X113775000Y-42975000D03*
D11*
%TO.P,D2,2,A*%
%TO.N,+BATT*%
X111235000Y-42975000D03*
%TD*%
D10*
%TO.P,D1,1,K*%
%TO.N,Net-(D1-K)*%
X83475000Y-56725000D03*
D11*
%TO.P,D1,2,A*%
%TO.N,+BATT*%
X83475000Y-59265000D03*
%TD*%
D12*
%TO.P,J1,28,Pin_28*%
%TO.N,unconnected-(J1-Pin_28-Pad28)*%
X102780000Y-56960000D03*
%TO.P,J1,27,Pin_27*%
%TO.N,GND*%
X102780000Y-59500000D03*
%TO.P,J1,26,Pin_26*%
%TO.N,+BATT*%
X105320000Y-56960000D03*
%TO.P,J1,25,Pin_25*%
%TO.N,unconnected-(J1-Pin_25-Pad25)*%
X105320000Y-59500000D03*
%TO.P,J1,24,Pin_24*%
%TO.N,unconnected-(J1-Pin_24-Pad24)*%
X107860000Y-56960000D03*
%TO.P,J1,23,Pin_23*%
%TO.N,unconnected-(J1-Pin_23-Pad23)*%
X107860000Y-59500000D03*
%TO.P,J1,22,Pin_22*%
%TO.N,unconnected-(J1-Pin_22-Pad22)*%
X110400000Y-56960000D03*
%TO.P,J1,21,Pin_21*%
%TO.N,GND*%
X110400000Y-59500000D03*
%TO.P,J1,20,Pin_20*%
%TO.N,unconnected-(J1-Pin_20-Pad20)*%
X112940000Y-56960000D03*
%TO.P,J1,19,Pin_19*%
%TO.N,unconnected-(J1-Pin_19-Pad19)*%
X112940000Y-59500000D03*
%TO.P,J1,18,Pin_18*%
%TO.N,unconnected-(J1-Pin_18-Pad18)*%
X115480000Y-56960000D03*
%TO.P,J1,17,Pin_17*%
%TO.N,unconnected-(J1-Pin_17-Pad17)*%
X115480000Y-59500000D03*
%TO.P,J1,16,Pin_16*%
%TO.N,unconnected-(J1-Pin_16-Pad16)*%
X118020000Y-56960000D03*
%TO.P,J1,15,Pin_15*%
%TO.N,GND*%
X118020000Y-59500000D03*
%TO.P,J1,14,Pin_14*%
%TO.N,unconnected-(J1-Pin_14-Pad14)*%
X120560000Y-56960000D03*
%TO.P,J1,13,Pin_13*%
%TO.N,unconnected-(J1-Pin_13-Pad13)*%
X120560000Y-59500000D03*
%TO.P,J1,12,Pin_12*%
%TO.N,/PE13*%
X123100000Y-56960000D03*
%TO.P,J1,11,Pin_11*%
%TO.N,/PA5*%
X123100000Y-59500000D03*
%TO.P,J1,10,Pin_10*%
%TO.N,/PE14*%
X125640000Y-56960000D03*
%TO.P,J1,9,Pin_9*%
%TO.N,GND*%
X125640000Y-59500000D03*
%TO.P,J1,8,Pin_8*%
%TO.N,unconnected-(J1-Pin_8-Pad8)*%
X128180000Y-56960000D03*
%TO.P,J1,7,Pin_7*%
%TO.N,/PA4*%
X128180000Y-59500000D03*
%TO.P,J1,6,Pin_6*%
%TO.N,unconnected-(J1-Pin_6-Pad6)*%
X130720000Y-56960000D03*
%TO.P,J1,5,Pin_5*%
%TO.N,/PA3*%
X130720000Y-59500000D03*
%TO.P,J1,4,Pin_4*%
%TO.N,+BATT*%
X133260000Y-56960000D03*
%TO.P,J1,3,Pin_3*%
%TO.N,GND*%
X133260000Y-59500000D03*
%TO.P,J1,2,Pin_2*%
%TO.N,unconnected-(J1-Pin_2-Pad2)*%
X135800000Y-56960000D03*
D13*
%TO.P,J1,1,Pin_1*%
%TO.N,unconnected-(J1-Pin_1-Pad1)*%
X135800000Y-59500000D03*
%TD*%
D10*
%TO.P,D9,1,K*%
%TO.N,+BATT*%
X155525000Y-52775000D03*
D11*
%TO.P,D9,2,A*%
%TO.N,/PA5*%
X155525000Y-50235000D03*
%TD*%
D10*
%TO.P,D8,1,K*%
%TO.N,+BATT*%
X120775000Y-42975000D03*
D11*
%TO.P,D8,2,A*%
%TO.N,/PA4*%
X118235000Y-42975000D03*
%TD*%
D10*
%TO.P,D5,1,K*%
%TO.N,+BATT*%
X83475000Y-50225000D03*
D11*
%TO.P,D5,2,A*%
%TO.N,/PA3*%
X83475000Y-52765000D03*
%TD*%
D14*
%TO.N,GND*%
X125500000Y-49500000D03*
X115500000Y-51125000D03*
%TO.N,+BATT*%
X117500000Y-45000000D03*
%TO.N,GND*%
X122425373Y-58129353D03*
X146500000Y-58500000D03*
X147993662Y-55982420D03*
%TO.N,/PA4*%
X117000000Y-50000000D03*
X115500000Y-48200000D03*
%TO.N,GND*%
X143500000Y-55500000D03*
X138000000Y-49500000D03*
X141500000Y-55000000D03*
X91500000Y-57500000D03*
X101000000Y-58000000D03*
%TO.N,/PE14*%
X126500000Y-54500000D03*
X124500000Y-55500000D03*
%TO.N,/PA5*%
X143500000Y-48500000D03*
X126380000Y-58230451D03*
%TO.N,+BATT*%
X133500000Y-55000000D03*
X144500000Y-59500000D03*
X105500000Y-55000000D03*
X98500000Y-56000000D03*
%TO.N,/PA4*%
X105000000Y-45000000D03*
X106000000Y-50500000D03*
%TO.N,/PA3*%
X95500000Y-54500000D03*
X100000000Y-55000000D03*
%TO.N,+BATT*%
X153500000Y-52000000D03*
X153619975Y-43380025D03*
X153000000Y-42000000D03*
X128500000Y-45500000D03*
X85563050Y-59200000D03*
X85500000Y-49500000D03*
X85000000Y-46500000D03*
X86000000Y-42000000D03*
%TO.N,Net-(Q2-C)*%
X92500000Y-43000000D03*
X132500000Y-50000000D03*
%TO.N,/PA4*%
X109000000Y-46000000D03*
X108500000Y-43500000D03*
%TO.N,Net-(JP13-A)*%
X152000000Y-49000000D03*
X149500000Y-50000000D03*
%TO.N,Net-(JP6-A)*%
X135000000Y-53000000D03*
X135000000Y-51000000D03*
%TO.N,Net-(Q1-C)*%
X107500000Y-46000000D03*
X152500000Y-44500000D03*
%TD*%
D15*
%TO.N,GND*%
X124000000Y-51000000D02*
X125500000Y-49500000D01*
X115500000Y-51125000D02*
X115625000Y-51000000D01*
X115625000Y-51000000D02*
X124000000Y-51000000D01*
D16*
%TO.N,+BATT*%
X113260000Y-45000000D02*
X111235000Y-42975000D01*
X117500000Y-45000000D02*
X113260000Y-45000000D01*
D17*
%TO.N,/PA5*%
X145125000Y-50125000D02*
X143500000Y-48500000D01*
X144875000Y-60125000D02*
X145125000Y-59875000D01*
X144241116Y-60125000D02*
X144875000Y-60125000D01*
X145125000Y-59875000D02*
X145125000Y-50125000D01*
X126380000Y-58230451D02*
X142346567Y-58230451D01*
X142346567Y-58230451D02*
X144241116Y-60125000D01*
D15*
%TO.N,GND*%
X132010000Y-60750000D02*
X133260000Y-59500000D01*
X126890000Y-60750000D02*
X132010000Y-60750000D01*
X125640000Y-59500000D02*
X126890000Y-60750000D01*
X122425373Y-58129353D02*
X122506020Y-58210000D01*
X122506020Y-58210000D02*
X124350000Y-58210000D01*
X124350000Y-58210000D02*
X125640000Y-59500000D01*
X147993662Y-57006338D02*
X146500000Y-58500000D01*
X147993662Y-55982420D02*
X147993662Y-57006338D01*
%TO.N,/PA4*%
X115500000Y-48500000D02*
X117000000Y-50000000D01*
X115500000Y-48200000D02*
X115500000Y-48500000D01*
D17*
%TO.N,GND*%
X142000000Y-55500000D02*
X141500000Y-55000000D01*
X143500000Y-55500000D02*
X142000000Y-55500000D01*
D15*
X141500000Y-53000000D02*
X138000000Y-49500000D01*
X141500000Y-55000000D02*
X141500000Y-53000000D01*
X101000000Y-58000000D02*
X92000000Y-58000000D01*
X92000000Y-58000000D02*
X91500000Y-57500000D01*
%TO.N,/PE14*%
X126500000Y-54500000D02*
X125500000Y-54500000D01*
X125500000Y-54500000D02*
X124500000Y-55500000D01*
D16*
%TO.N,+BATT*%
X140000000Y-55000000D02*
X133500000Y-55000000D01*
X144500000Y-59500000D02*
X140000000Y-55000000D01*
X101830811Y-56000000D02*
X102830811Y-55000000D01*
X102830811Y-55000000D02*
X105500000Y-55000000D01*
X98500000Y-56000000D02*
X101830811Y-56000000D01*
D17*
%TO.N,/PA4*%
X106000000Y-46000000D02*
X105000000Y-45000000D01*
X106000000Y-50500000D02*
X106000000Y-46000000D01*
%TO.N,/PA3*%
X100000000Y-55000000D02*
X99500000Y-54500000D01*
X99500000Y-54500000D02*
X95500000Y-54500000D01*
D16*
%TO.N,+BATT*%
X153619975Y-43380025D02*
X153500000Y-43500000D01*
X153500000Y-43500000D02*
X153500000Y-52000000D01*
X129000000Y-45500000D02*
X132500000Y-42000000D01*
X128500000Y-45500000D02*
X129000000Y-45500000D01*
X132500000Y-42000000D02*
X153000000Y-42000000D01*
X85500000Y-59136950D02*
X85563050Y-59200000D01*
X85500000Y-49500000D02*
X85500000Y-59136950D01*
X86000000Y-45500000D02*
X85000000Y-46500000D01*
X86000000Y-42000000D02*
X86000000Y-45500000D01*
D15*
%TO.N,Net-(Q2-C)*%
X92500000Y-43000000D02*
X92500000Y-53000000D01*
X133000000Y-50500000D02*
X132500000Y-50000000D01*
X133000000Y-53000000D02*
X133000000Y-50500000D01*
X92500000Y-53000000D02*
X133000000Y-53000000D01*
D17*
%TO.N,/PA4*%
X108500000Y-45500000D02*
X109000000Y-46000000D01*
X108500000Y-43500000D02*
X108500000Y-45500000D01*
%TO.N,Net-(JP13-A)*%
X151000000Y-50000000D02*
X152000000Y-49000000D01*
X149500000Y-50000000D02*
X151000000Y-50000000D01*
D15*
%TO.N,Net-(JP6-A)*%
X135000000Y-51000000D02*
X135000000Y-53000000D01*
%TO.N,Net-(Q1-C)*%
X109000000Y-47500000D02*
X107500000Y-46000000D01*
X152500000Y-44500000D02*
X152500000Y-45500000D01*
X152500000Y-47500000D02*
X109000000Y-47500000D01*
X152500000Y-45500000D02*
X152500000Y-47500000D01*
%TD*%
%TA.AperFunction,Conductor*%
%TO.N,GND*%
G36*
X85218968Y-41520185D02*
G01*
X85264723Y-41572989D01*
X85274667Y-41642147D01*
X85268971Y-41665452D01*
X85262363Y-41684335D01*
X85252982Y-41711142D01*
X85250504Y-41717631D01*
X85230264Y-41766496D01*
X85230263Y-41766502D01*
X85227550Y-41780140D01*
X85222975Y-41796898D01*
X85214634Y-41820735D01*
X85214632Y-41820742D01*
X85208890Y-41871696D01*
X85207288Y-41881994D01*
X85199500Y-41921152D01*
X85199500Y-41948085D01*
X85198720Y-41961968D01*
X85194435Y-42000000D01*
X85197491Y-42027127D01*
X85198720Y-42038029D01*
X85199500Y-42051914D01*
X85199500Y-45117059D01*
X85179815Y-45184098D01*
X85163181Y-45204740D01*
X84842941Y-45524980D01*
X84781618Y-45558465D01*
X84711926Y-45553481D01*
X84655993Y-45511609D01*
X84651451Y-45505121D01*
X84646627Y-45497738D01*
X84583979Y-45401847D01*
X84489195Y-45298884D01*
X84458275Y-45236232D01*
X84466135Y-45166806D01*
X84510283Y-45112651D01*
X84537095Y-45098722D01*
X84617326Y-45068798D01*
X84617326Y-45068797D01*
X84617331Y-45068796D01*
X84732546Y-44982546D01*
X84818796Y-44867331D01*
X84869091Y-44732483D01*
X84875500Y-44672873D01*
X84875499Y-42777128D01*
X84869091Y-42717517D01*
X84868014Y-42714630D01*
X84818797Y-42582671D01*
X84818793Y-42582664D01*
X84732547Y-42467455D01*
X84732544Y-42467452D01*
X84617335Y-42381206D01*
X84617328Y-42381202D01*
X84482482Y-42330908D01*
X84482483Y-42330908D01*
X84422883Y-42324501D01*
X84422881Y-42324500D01*
X84422873Y-42324500D01*
X84422864Y-42324500D01*
X82527129Y-42324500D01*
X82527123Y-42324501D01*
X82467516Y-42330908D01*
X82332671Y-42381202D01*
X82332664Y-42381206D01*
X82217455Y-42467452D01*
X82217452Y-42467455D01*
X82131206Y-42582664D01*
X82131202Y-42582671D01*
X82080908Y-42717517D01*
X82074501Y-42777116D01*
X82074501Y-42777123D01*
X82074500Y-42777135D01*
X82074500Y-44672870D01*
X82074501Y-44672876D01*
X82080908Y-44732483D01*
X82131202Y-44867328D01*
X82131206Y-44867335D01*
X82217452Y-44982544D01*
X82217455Y-44982547D01*
X82332664Y-45068793D01*
X82332673Y-45068798D01*
X82412904Y-45098722D01*
X82468838Y-45140593D01*
X82493256Y-45206057D01*
X82478405Y-45274330D01*
X82460802Y-45298886D01*
X82366019Y-45401849D01*
X82239075Y-45596151D01*
X82145842Y-45808699D01*
X82088866Y-46033691D01*
X82088864Y-46033702D01*
X82069700Y-46264993D01*
X82069700Y-46265006D01*
X82088864Y-46496297D01*
X82088866Y-46496308D01*
X82145842Y-46721300D01*
X82239075Y-46933848D01*
X82366016Y-47128147D01*
X82366019Y-47128151D01*
X82366021Y-47128153D01*
X82523216Y-47298913D01*
X82523219Y-47298915D01*
X82523222Y-47298918D01*
X82706365Y-47441464D01*
X82706371Y-47441468D01*
X82706374Y-47441470D01*
X82910497Y-47551936D01*
X83024487Y-47591068D01*
X83130015Y-47627297D01*
X83130017Y-47627297D01*
X83130019Y-47627298D01*
X83358951Y-47665500D01*
X83358952Y-47665500D01*
X83591048Y-47665500D01*
X83591049Y-47665500D01*
X83819981Y-47627298D01*
X84039503Y-47551936D01*
X84243626Y-47441470D01*
X84426784Y-47298913D01*
X84426788Y-47298907D01*
X84426792Y-47298905D01*
X84472277Y-47249494D01*
X84481343Y-47239644D01*
X84541229Y-47203653D01*
X84611067Y-47205752D01*
X84619990Y-47209050D01*
X84620820Y-47209393D01*
X84620821Y-47209394D01*
X84621583Y-47209709D01*
X84640134Y-47219289D01*
X84650478Y-47225789D01*
X84711175Y-47247028D01*
X84717607Y-47249484D01*
X84746021Y-47261253D01*
X84766497Y-47269735D01*
X84766498Y-47269735D01*
X84766503Y-47269737D01*
X84780139Y-47272449D01*
X84796898Y-47277023D01*
X84820745Y-47285368D01*
X84871714Y-47291110D01*
X84881992Y-47292709D01*
X84909140Y-47298109D01*
X84921157Y-47300500D01*
X84921158Y-47300500D01*
X84948085Y-47300500D01*
X84961969Y-47301280D01*
X84999998Y-47305565D01*
X85000000Y-47305565D01*
X85000002Y-47305565D01*
X85038031Y-47301280D01*
X85051915Y-47300500D01*
X85078841Y-47300500D01*
X85078842Y-47300500D01*
X85118017Y-47292707D01*
X85128283Y-47291110D01*
X85179255Y-47285368D01*
X85203100Y-47277023D01*
X85219862Y-47272448D01*
X85233497Y-47269737D01*
X85282389Y-47249484D01*
X85288837Y-47247023D01*
X85349522Y-47225789D01*
X85359868Y-47219287D01*
X85378390Y-47209720D01*
X85379179Y-47209394D01*
X85433987Y-47172771D01*
X85436825Y-47170931D01*
X85502262Y-47129816D01*
X85629816Y-47002262D01*
X86621789Y-46010289D01*
X86709394Y-45879179D01*
X86769738Y-45733497D01*
X86800500Y-45578842D01*
X86800500Y-45421157D01*
X86800500Y-42051914D01*
X86801280Y-42038029D01*
X86802509Y-42027127D01*
X86805565Y-42000000D01*
X86801279Y-41961968D01*
X86800500Y-41948085D01*
X86800500Y-41921157D01*
X86792711Y-41882003D01*
X86791110Y-41871714D01*
X86785368Y-41820745D01*
X86777023Y-41796898D01*
X86772449Y-41780139D01*
X86769737Y-41766503D01*
X86769734Y-41766496D01*
X86761253Y-41746021D01*
X86749484Y-41717607D01*
X86747016Y-41711142D01*
X86735611Y-41678547D01*
X86731029Y-41665452D01*
X86727468Y-41595673D01*
X86762198Y-41535047D01*
X86824192Y-41502821D01*
X86848071Y-41500500D01*
X110527420Y-41500500D01*
X110594459Y-41520185D01*
X110640214Y-41572989D01*
X110650158Y-41642147D01*
X110621133Y-41705703D01*
X110586437Y-41733555D01*
X110466376Y-41798528D01*
X110466365Y-41798535D01*
X110283222Y-41941081D01*
X110283219Y-41941084D01*
X110283216Y-41941086D01*
X110283216Y-41941087D01*
X110238319Y-41989858D01*
X110126016Y-42111852D01*
X109999075Y-42306151D01*
X109905842Y-42518699D01*
X109848866Y-42743691D01*
X109848864Y-42743702D01*
X109829700Y-42974993D01*
X109829700Y-42975006D01*
X109848864Y-43206297D01*
X109848866Y-43206308D01*
X109905842Y-43431300D01*
X109999075Y-43643848D01*
X110126016Y-43838147D01*
X110126019Y-43838151D01*
X110126021Y-43838153D01*
X110283216Y-44008913D01*
X110283219Y-44008915D01*
X110283222Y-44008918D01*
X110466365Y-44151464D01*
X110466371Y-44151468D01*
X110466374Y-44151470D01*
X110670497Y-44261936D01*
X110784487Y-44301068D01*
X110890015Y-44337297D01*
X110890017Y-44337297D01*
X110890019Y-44337298D01*
X111118951Y-44375500D01*
X111118952Y-44375500D01*
X111351051Y-44375500D01*
X111382905Y-44370184D01*
X111418672Y-44364215D01*
X111488036Y-44372595D01*
X111526764Y-44398842D01*
X112638211Y-45510289D01*
X112706764Y-45578842D01*
X112749712Y-45621790D01*
X112823185Y-45670883D01*
X112880821Y-45709394D01*
X112983833Y-45752062D01*
X113026502Y-45769737D01*
X113156171Y-45795530D01*
X113181152Y-45800499D01*
X113181155Y-45800500D01*
X113181157Y-45800500D01*
X113181158Y-45800500D01*
X117448085Y-45800500D01*
X117461969Y-45801280D01*
X117499998Y-45805565D01*
X117500000Y-45805565D01*
X117500002Y-45805565D01*
X117538031Y-45801280D01*
X117551915Y-45800500D01*
X117578841Y-45800500D01*
X117578842Y-45800500D01*
X117618017Y-45792707D01*
X117628283Y-45791110D01*
X117679255Y-45785368D01*
X117703100Y-45777023D01*
X117719862Y-45772448D01*
X117733497Y-45769737D01*
X117782389Y-45749484D01*
X117788837Y-45747023D01*
X117849522Y-45725789D01*
X117859868Y-45719287D01*
X117878390Y-45709720D01*
X117879179Y-45709394D01*
X117933987Y-45672771D01*
X117936825Y-45670931D01*
X118002262Y-45629816D01*
X118129816Y-45502262D01*
X118170931Y-45436825D01*
X118172777Y-45433979D01*
X118209389Y-45379186D01*
X118209394Y-45379179D01*
X118209720Y-45378390D01*
X118219287Y-45359868D01*
X118225789Y-45349522D01*
X118247023Y-45288837D01*
X118249484Y-45282389D01*
X118269737Y-45233497D01*
X118272448Y-45219862D01*
X118277023Y-45203100D01*
X118285368Y-45179255D01*
X118291110Y-45128283D01*
X118292707Y-45118017D01*
X118300500Y-45078842D01*
X118300500Y-45051914D01*
X118301280Y-45038029D01*
X118305565Y-45000001D01*
X118305565Y-44999998D01*
X118301280Y-44961969D01*
X118300500Y-44948085D01*
X118300500Y-44921157D01*
X118292711Y-44882003D01*
X118291110Y-44871714D01*
X118285368Y-44820745D01*
X118277023Y-44796898D01*
X118272449Y-44780139D01*
X118269737Y-44766503D01*
X118249484Y-44717607D01*
X118247028Y-44711175D01*
X118225789Y-44650478D01*
X118219289Y-44640134D01*
X118209719Y-44621606D01*
X118209394Y-44620821D01*
X118174360Y-44568389D01*
X118153483Y-44501714D01*
X118171967Y-44434334D01*
X118223946Y-44387643D01*
X118277463Y-44375500D01*
X118351048Y-44375500D01*
X118351049Y-44375500D01*
X118579981Y-44337298D01*
X118799503Y-44261936D01*
X119003626Y-44151470D01*
X119186784Y-44008913D01*
X119195130Y-43999846D01*
X119255010Y-43963854D01*
X119324849Y-43965949D01*
X119382468Y-44005469D01*
X119402544Y-44040491D01*
X119431203Y-44117330D01*
X119431206Y-44117335D01*
X119517452Y-44232544D01*
X119517455Y-44232547D01*
X119632664Y-44318793D01*
X119632671Y-44318797D01*
X119767517Y-44369091D01*
X119767516Y-44369091D01*
X119774444Y-44369835D01*
X119827127Y-44375500D01*
X121722872Y-44375499D01*
X121782483Y-44369091D01*
X121917331Y-44318796D01*
X122032546Y-44232546D01*
X122118796Y-44117331D01*
X122169091Y-43982483D01*
X122175500Y-43922873D01*
X122175499Y-42027128D01*
X122169091Y-41967517D01*
X122161843Y-41948085D01*
X122118797Y-41832671D01*
X122118793Y-41832664D01*
X122032547Y-41717455D01*
X122027273Y-41712181D01*
X121993788Y-41650858D01*
X121998772Y-41581166D01*
X122040644Y-41525233D01*
X122106108Y-41500816D01*
X122114954Y-41500500D01*
X124527420Y-41500500D01*
X124594459Y-41520185D01*
X124640214Y-41572989D01*
X124650158Y-41642147D01*
X124621133Y-41705703D01*
X124586437Y-41733555D01*
X124466376Y-41798528D01*
X124466365Y-41798535D01*
X124283222Y-41941081D01*
X124283219Y-41941084D01*
X124283216Y-41941086D01*
X124283216Y-41941087D01*
X124238319Y-41989858D01*
X124126016Y-42111852D01*
X123999075Y-42306151D01*
X123905842Y-42518699D01*
X123848866Y-42743691D01*
X123848864Y-42743702D01*
X123829700Y-42974993D01*
X123829700Y-42975006D01*
X123848864Y-43206297D01*
X123848866Y-43206308D01*
X123905842Y-43431300D01*
X123999075Y-43643848D01*
X124126016Y-43838147D01*
X124126019Y-43838151D01*
X124126021Y-43838153D01*
X124283216Y-44008913D01*
X124283219Y-44008915D01*
X124283222Y-44008918D01*
X124466365Y-44151464D01*
X124466371Y-44151468D01*
X124466374Y-44151470D01*
X124670497Y-44261936D01*
X124784487Y-44301068D01*
X124890015Y-44337297D01*
X124890017Y-44337297D01*
X124890019Y-44337298D01*
X125118951Y-44375500D01*
X125118952Y-44375500D01*
X125351048Y-44375500D01*
X125351049Y-44375500D01*
X125579981Y-44337298D01*
X125799503Y-44261936D01*
X126003626Y-44151470D01*
X126186784Y-44008913D01*
X126195130Y-43999846D01*
X126255010Y-43963854D01*
X126324849Y-43965949D01*
X126382468Y-44005469D01*
X126402544Y-44040491D01*
X126431203Y-44117330D01*
X126431206Y-44117335D01*
X126517452Y-44232544D01*
X126517455Y-44232547D01*
X126632664Y-44318793D01*
X126632671Y-44318797D01*
X126767517Y-44369091D01*
X126767516Y-44369091D01*
X126774444Y-44369835D01*
X126827127Y-44375500D01*
X128693060Y-44375499D01*
X128760099Y-44395184D01*
X128805854Y-44447987D01*
X128815798Y-44517146D01*
X128786773Y-44580702D01*
X128780742Y-44587180D01*
X128704739Y-44663182D01*
X128643419Y-44696666D01*
X128617060Y-44699500D01*
X128551915Y-44699500D01*
X128538031Y-44698720D01*
X128500002Y-44694435D01*
X128499998Y-44694435D01*
X128461969Y-44698720D01*
X128448085Y-44699500D01*
X128421152Y-44699500D01*
X128381994Y-44707288D01*
X128371696Y-44708890D01*
X128320742Y-44714632D01*
X128320735Y-44714634D01*
X128296898Y-44722975D01*
X128280140Y-44727550D01*
X128266502Y-44730263D01*
X128266496Y-44730264D01*
X128217631Y-44750504D01*
X128211140Y-44752982D01*
X128150477Y-44774210D01*
X128150474Y-44774212D01*
X128140127Y-44780713D01*
X128121639Y-44790266D01*
X128120832Y-44790600D01*
X128120824Y-44790604D01*
X128066047Y-44827204D01*
X128063132Y-44829092D01*
X127997742Y-44870180D01*
X127997735Y-44870186D01*
X127870186Y-44997735D01*
X127870180Y-44997742D01*
X127829092Y-45063132D01*
X127827204Y-45066047D01*
X127790604Y-45120824D01*
X127790600Y-45120832D01*
X127790266Y-45121639D01*
X127780713Y-45140127D01*
X127774212Y-45150474D01*
X127774210Y-45150477D01*
X127752982Y-45211140D01*
X127750504Y-45217631D01*
X127730264Y-45266496D01*
X127730263Y-45266502D01*
X127727550Y-45280140D01*
X127722975Y-45296898D01*
X127714634Y-45320735D01*
X127714632Y-45320742D01*
X127708890Y-45371696D01*
X127707288Y-45381994D01*
X127699500Y-45421152D01*
X127699500Y-45448085D01*
X127698720Y-45461969D01*
X127694435Y-45499998D01*
X127694435Y-45500001D01*
X127698720Y-45538029D01*
X127699500Y-45551914D01*
X127699500Y-45578844D01*
X127707288Y-45618003D01*
X127708890Y-45628303D01*
X127714632Y-45679252D01*
X127714633Y-45679260D01*
X127722976Y-45703104D01*
X127727550Y-45719860D01*
X127730262Y-45733496D01*
X127750509Y-45782377D01*
X127752986Y-45788867D01*
X127757056Y-45800499D01*
X127774212Y-45849524D01*
X127780709Y-45859865D01*
X127790268Y-45878365D01*
X127790603Y-45879173D01*
X127790605Y-45879179D01*
X127827223Y-45933982D01*
X127829114Y-45936900D01*
X127870180Y-46002257D01*
X127870182Y-46002260D01*
X127870184Y-46002262D01*
X127997738Y-46129816D01*
X128063131Y-46170905D01*
X128066040Y-46172790D01*
X128120821Y-46209394D01*
X128121606Y-46209719D01*
X128140134Y-46219289D01*
X128150478Y-46225789D01*
X128211175Y-46247028D01*
X128217607Y-46249484D01*
X128246021Y-46261253D01*
X128266497Y-46269735D01*
X128266498Y-46269735D01*
X128266503Y-46269737D01*
X128280139Y-46272449D01*
X128296898Y-46277023D01*
X128320745Y-46285368D01*
X128371714Y-46291110D01*
X128381992Y-46292709D01*
X128409140Y-46298109D01*
X128421157Y-46300500D01*
X128421158Y-46300500D01*
X128448085Y-46300500D01*
X128461969Y-46301280D01*
X128499998Y-46305565D01*
X128500000Y-46305565D01*
X128500002Y-46305565D01*
X128538031Y-46301280D01*
X128551915Y-46300500D01*
X129078844Y-46300500D01*
X129078845Y-46300499D01*
X129233497Y-46269737D01*
X129379179Y-46209394D01*
X129510289Y-46121789D01*
X132795259Y-42836819D01*
X132856582Y-42803334D01*
X132882940Y-42800500D01*
X152772650Y-42800500D01*
X152839689Y-42820185D01*
X152885444Y-42872989D01*
X152895388Y-42942147D01*
X152875752Y-42993391D01*
X152790609Y-43120814D01*
X152790602Y-43120827D01*
X152730264Y-43266498D01*
X152730261Y-43266510D01*
X152699500Y-43421153D01*
X152699500Y-43578156D01*
X152679815Y-43645195D01*
X152627011Y-43690950D01*
X152561618Y-43701377D01*
X152521815Y-43696892D01*
X152500000Y-43694435D01*
X152499998Y-43694435D01*
X152499997Y-43694435D01*
X152499996Y-43694435D01*
X152320750Y-43714630D01*
X152320745Y-43714631D01*
X152150476Y-43774211D01*
X151997737Y-43870184D01*
X151870184Y-43997737D01*
X151774211Y-44150476D01*
X151714631Y-44320745D01*
X151714630Y-44320750D01*
X151694435Y-44499996D01*
X151694435Y-44500003D01*
X151714630Y-44679249D01*
X151714631Y-44679254D01*
X151774212Y-44849525D01*
X151780492Y-44859519D01*
X151799500Y-44925493D01*
X151799500Y-46675500D01*
X151779815Y-46742539D01*
X151727011Y-46788294D01*
X151675500Y-46799500D01*
X109631940Y-46799500D01*
X109564901Y-46779815D01*
X109519146Y-46727011D01*
X109509202Y-46657853D01*
X109538227Y-46594297D01*
X109544259Y-46587819D01*
X109629816Y-46502262D01*
X109725789Y-46349522D01*
X109785368Y-46179255D01*
X109786309Y-46170905D01*
X109805565Y-46000003D01*
X109805565Y-45999996D01*
X109785369Y-45820750D01*
X109785368Y-45820745D01*
X109767520Y-45769738D01*
X109725789Y-45650478D01*
X109707762Y-45621789D01*
X109659483Y-45544953D01*
X109629816Y-45497738D01*
X109502262Y-45370184D01*
X109469377Y-45349521D01*
X109349523Y-45274211D01*
X109208545Y-45224881D01*
X109151769Y-45184159D01*
X109126022Y-45119206D01*
X109125500Y-45107839D01*
X109125500Y-44044854D01*
X109144507Y-43978881D01*
X109225788Y-43849524D01*
X109229769Y-43838147D01*
X109285368Y-43679255D01*
X109289206Y-43645195D01*
X109305565Y-43500003D01*
X109305565Y-43499996D01*
X109285369Y-43320750D01*
X109285368Y-43320745D01*
X109245321Y-43206297D01*
X109225789Y-43150478D01*
X109129816Y-42997738D01*
X109002262Y-42870184D01*
X108949162Y-42836819D01*
X108849523Y-42774211D01*
X108679254Y-42714631D01*
X108679249Y-42714630D01*
X108500004Y-42694435D01*
X108499996Y-42694435D01*
X108320750Y-42714630D01*
X108320745Y-42714631D01*
X108150476Y-42774211D01*
X107997737Y-42870184D01*
X107870184Y-42997737D01*
X107774211Y-43150476D01*
X107714631Y-43320745D01*
X107714630Y-43320750D01*
X107694435Y-43499996D01*
X107694435Y-43500003D01*
X107714630Y-43679249D01*
X107714631Y-43679254D01*
X107774211Y-43849524D01*
X107855493Y-43978881D01*
X107874500Y-44044854D01*
X107874500Y-45108188D01*
X107854815Y-45175227D01*
X107802011Y-45220982D01*
X107732853Y-45230926D01*
X107709548Y-45225230D01*
X107679264Y-45214634D01*
X107679249Y-45214630D01*
X107500004Y-45194435D01*
X107499996Y-45194435D01*
X107320750Y-45214630D01*
X107320745Y-45214631D01*
X107150476Y-45274211D01*
X106997737Y-45370184D01*
X106870184Y-45497737D01*
X106774209Y-45650479D01*
X106768484Y-45666842D01*
X106727762Y-45723618D01*
X106662809Y-45749364D01*
X106594247Y-45735907D01*
X106548341Y-45694778D01*
X106485855Y-45601263D01*
X105826211Y-44941621D01*
X105792726Y-44880298D01*
X105790673Y-44867838D01*
X105785368Y-44820745D01*
X105725789Y-44650478D01*
X105707152Y-44620818D01*
X105631237Y-44500000D01*
X105629816Y-44497738D01*
X105502262Y-44370184D01*
X105471586Y-44350909D01*
X105349523Y-44274211D01*
X105179254Y-44214631D01*
X105179249Y-44214630D01*
X105000004Y-44194435D01*
X104999996Y-44194435D01*
X104820750Y-44214630D01*
X104820745Y-44214631D01*
X104650476Y-44274211D01*
X104497737Y-44370184D01*
X104370184Y-44497737D01*
X104274211Y-44650476D01*
X104214631Y-44820745D01*
X104214630Y-44820750D01*
X104194435Y-44999996D01*
X104194435Y-45000003D01*
X104214630Y-45179249D01*
X104214631Y-45179254D01*
X104274211Y-45349523D01*
X104319219Y-45421152D01*
X104370184Y-45502262D01*
X104497738Y-45629816D01*
X104563096Y-45670883D01*
X104647022Y-45723618D01*
X104650478Y-45725789D01*
X104820745Y-45785368D01*
X104867823Y-45790672D01*
X104932236Y-45817737D01*
X104941621Y-45826211D01*
X105338181Y-46222771D01*
X105371666Y-46284094D01*
X105374500Y-46310452D01*
X105374500Y-49955145D01*
X105355494Y-50021117D01*
X105274211Y-50150476D01*
X105214631Y-50320745D01*
X105214630Y-50320750D01*
X105194435Y-50499996D01*
X105194435Y-50500003D01*
X105214630Y-50679249D01*
X105214631Y-50679254D01*
X105274211Y-50849523D01*
X105368760Y-50999996D01*
X105370184Y-51002262D01*
X105497738Y-51129816D01*
X105650478Y-51225789D01*
X105820745Y-51285368D01*
X105820750Y-51285369D01*
X105999996Y-51305565D01*
X106000000Y-51305565D01*
X106000004Y-51305565D01*
X106179249Y-51285369D01*
X106179252Y-51285368D01*
X106179255Y-51285368D01*
X106349522Y-51225789D01*
X106502262Y-51129816D01*
X106629816Y-51002262D01*
X106725789Y-50849522D01*
X106785368Y-50679255D01*
X106785369Y-50679249D01*
X106805565Y-50500003D01*
X106805565Y-50499996D01*
X106785369Y-50320750D01*
X106785368Y-50320745D01*
X106759218Y-50246013D01*
X106725789Y-50150478D01*
X106671070Y-50063394D01*
X106644506Y-50021117D01*
X106625500Y-49955145D01*
X106625500Y-46543263D01*
X106645185Y-46476224D01*
X106697989Y-46430469D01*
X106767147Y-46420525D01*
X106830703Y-46449550D01*
X106854492Y-46477289D01*
X106870184Y-46502262D01*
X106997738Y-46629816D01*
X107042359Y-46657853D01*
X107143333Y-46721300D01*
X107150478Y-46725789D01*
X107198347Y-46742539D01*
X107253986Y-46762008D01*
X107300712Y-46791369D01*
X108455886Y-47946542D01*
X108553458Y-48044114D01*
X108553459Y-48044115D01*
X108668182Y-48120771D01*
X108668189Y-48120775D01*
X108739897Y-48150477D01*
X108739898Y-48150478D01*
X108763000Y-48160046D01*
X108795671Y-48173580D01*
X108795680Y-48173581D01*
X108795681Y-48173582D01*
X108822545Y-48178925D01*
X108822551Y-48178926D01*
X108822591Y-48178934D01*
X108912937Y-48196905D01*
X108931006Y-48200500D01*
X108931007Y-48200500D01*
X114583678Y-48200500D01*
X114650717Y-48220185D01*
X114696472Y-48272989D01*
X114706898Y-48310617D01*
X114714630Y-48379249D01*
X114714631Y-48379254D01*
X114714632Y-48379255D01*
X114774211Y-48549522D01*
X114793382Y-48580034D01*
X114810006Y-48621813D01*
X114826418Y-48704322D01*
X114826420Y-48704330D01*
X114879222Y-48831807D01*
X114955887Y-48946545D01*
X114955888Y-48946546D01*
X116208631Y-50199287D01*
X116237991Y-50246013D01*
X116274210Y-50349520D01*
X116274212Y-50349524D01*
X116325410Y-50431005D01*
X116370184Y-50502262D01*
X116497738Y-50629816D01*
X116650478Y-50725789D01*
X116780695Y-50771354D01*
X116820745Y-50785368D01*
X116820750Y-50785369D01*
X116999996Y-50805565D01*
X117000000Y-50805565D01*
X117000004Y-50805565D01*
X117179249Y-50785369D01*
X117179252Y-50785368D01*
X117179255Y-50785368D01*
X117349522Y-50725789D01*
X117502262Y-50629816D01*
X117629816Y-50502262D01*
X117725789Y-50349522D01*
X117785368Y-50179255D01*
X117785369Y-50179249D01*
X117805565Y-50000003D01*
X117805565Y-49999996D01*
X117785369Y-49820750D01*
X117785368Y-49820745D01*
X117752141Y-49725788D01*
X117725789Y-49650478D01*
X117629816Y-49497738D01*
X117502262Y-49370184D01*
X117451330Y-49338181D01*
X117349524Y-49274212D01*
X117349520Y-49274210D01*
X117246013Y-49237991D01*
X117199287Y-49208631D01*
X116402838Y-48412181D01*
X116369353Y-48350858D01*
X116374337Y-48281166D01*
X116416209Y-48225233D01*
X116481673Y-48200816D01*
X116490519Y-48200500D01*
X142589424Y-48200500D01*
X142656463Y-48220185D01*
X142702218Y-48272989D01*
X142712644Y-48338383D01*
X142694435Y-48499996D01*
X142694435Y-48500003D01*
X142714630Y-48679249D01*
X142714631Y-48679254D01*
X142774211Y-48849523D01*
X142835175Y-48946546D01*
X142870184Y-49002262D01*
X142997738Y-49129816D01*
X143076891Y-49179551D01*
X143132721Y-49214632D01*
X143150478Y-49225789D01*
X143320745Y-49285368D01*
X143367823Y-49290672D01*
X143432236Y-49317737D01*
X143441621Y-49326211D01*
X144463181Y-50347771D01*
X144496666Y-50409094D01*
X144499500Y-50435452D01*
X144499500Y-58068059D01*
X144479815Y-58135098D01*
X144427011Y-58180853D01*
X144357853Y-58190797D01*
X144294297Y-58161772D01*
X144287819Y-58155740D01*
X140510292Y-54378213D01*
X140510288Y-54378210D01*
X140379185Y-54290609D01*
X140379172Y-54290602D01*
X140233501Y-54230264D01*
X140233489Y-54230261D01*
X140078845Y-54199500D01*
X140078842Y-54199500D01*
X133551915Y-54199500D01*
X133538031Y-54198720D01*
X133500002Y-54194435D01*
X133499998Y-54194435D01*
X133461969Y-54198720D01*
X133448085Y-54199500D01*
X133421152Y-54199500D01*
X133381994Y-54207288D01*
X133371696Y-54208890D01*
X133320742Y-54214632D01*
X133320735Y-54214634D01*
X133296898Y-54222975D01*
X133280140Y-54227550D01*
X133266502Y-54230263D01*
X133266496Y-54230264D01*
X133217631Y-54250504D01*
X133211140Y-54252982D01*
X133150477Y-54274210D01*
X133150474Y-54274212D01*
X133140127Y-54280713D01*
X133121639Y-54290266D01*
X133120832Y-54290600D01*
X133120824Y-54290604D01*
X133066047Y-54327204D01*
X133063132Y-54329092D01*
X132997742Y-54370180D01*
X132997735Y-54370186D01*
X132870186Y-54497735D01*
X132870180Y-54497742D01*
X132829092Y-54563132D01*
X132827204Y-54566047D01*
X132790604Y-54620824D01*
X132790600Y-54620832D01*
X132790266Y-54621639D01*
X132780713Y-54640127D01*
X132774212Y-54650474D01*
X132774210Y-54650477D01*
X132752982Y-54711140D01*
X132750504Y-54717631D01*
X132730264Y-54766496D01*
X132730263Y-54766502D01*
X132727550Y-54780140D01*
X132722975Y-54796898D01*
X132714634Y-54820735D01*
X132714632Y-54820742D01*
X132708890Y-54871696D01*
X132707288Y-54881994D01*
X132699500Y-54921152D01*
X132699500Y-54948085D01*
X132698720Y-54961969D01*
X132694435Y-54999998D01*
X132694435Y-55000001D01*
X132698720Y-55038029D01*
X132699500Y-55051914D01*
X132699500Y-55078844D01*
X132707288Y-55118003D01*
X132708890Y-55128303D01*
X132714632Y-55179252D01*
X132714633Y-55179260D01*
X132722976Y-55203104D01*
X132727550Y-55219860D01*
X132730262Y-55233496D01*
X132750509Y-55282377D01*
X132752986Y-55288867D01*
X132772996Y-55346051D01*
X132774212Y-55349524D01*
X132780709Y-55359865D01*
X132790268Y-55378365D01*
X132790603Y-55379173D01*
X132790605Y-55379179D01*
X132827223Y-55433982D01*
X132829079Y-55436844D01*
X132860530Y-55486898D01*
X132869020Y-55500410D01*
X132888019Y-55567647D01*
X132867650Y-55634482D01*
X132814382Y-55679695D01*
X132798097Y-55685456D01*
X132796340Y-55686095D01*
X132582171Y-55785964D01*
X132582169Y-55785965D01*
X132388597Y-55921505D01*
X132221505Y-56088597D01*
X132091575Y-56274158D01*
X132036998Y-56317783D01*
X131967500Y-56324977D01*
X131905145Y-56293454D01*
X131888425Y-56274158D01*
X131758494Y-56088597D01*
X131591402Y-55921506D01*
X131591395Y-55921501D01*
X131397834Y-55785967D01*
X131397830Y-55785965D01*
X131356094Y-55766503D01*
X131183663Y-55686097D01*
X131183659Y-55686096D01*
X131183655Y-55686094D01*
X130955413Y-55624938D01*
X130955403Y-55624936D01*
X130720001Y-55604341D01*
X130719999Y-55604341D01*
X130484596Y-55624936D01*
X130484586Y-55624938D01*
X130256344Y-55686094D01*
X130256335Y-55686098D01*
X130042171Y-55785964D01*
X130042169Y-55785965D01*
X129848597Y-55921505D01*
X129681505Y-56088597D01*
X129551575Y-56274158D01*
X129496998Y-56317783D01*
X129427500Y-56324977D01*
X129365145Y-56293454D01*
X129348425Y-56274158D01*
X129218494Y-56088597D01*
X129051402Y-55921506D01*
X129051395Y-55921501D01*
X128857834Y-55785967D01*
X128857830Y-55785965D01*
X128816094Y-55766503D01*
X128643663Y-55686097D01*
X128643659Y-55686096D01*
X128643655Y-55686094D01*
X128415413Y-55624938D01*
X128415403Y-55624936D01*
X128180001Y-55604341D01*
X128179999Y-55604341D01*
X127944596Y-55624936D01*
X127944586Y-55624938D01*
X127716344Y-55686094D01*
X127716335Y-55686098D01*
X127502171Y-55785964D01*
X127502169Y-55785965D01*
X127308597Y-55921505D01*
X127141505Y-56088597D01*
X127011575Y-56274158D01*
X126956998Y-56317783D01*
X126887500Y-56324977D01*
X126825145Y-56293454D01*
X126808425Y-56274158D01*
X126678494Y-56088597D01*
X126511402Y-55921506D01*
X126511395Y-55921501D01*
X126317834Y-55785967D01*
X126317830Y-55785965D01*
X126276094Y-55766503D01*
X126103663Y-55686097D01*
X126103659Y-55686096D01*
X126103655Y-55686094D01*
X125875413Y-55624938D01*
X125875403Y-55624936D01*
X125671630Y-55607108D01*
X125606562Y-55581655D01*
X125565583Y-55525064D01*
X125561705Y-55455302D01*
X125594755Y-55395901D01*
X125753840Y-55236816D01*
X125815161Y-55203334D01*
X125841519Y-55200500D01*
X126074506Y-55200500D01*
X126140477Y-55219506D01*
X126150474Y-55225787D01*
X126150475Y-55225787D01*
X126150478Y-55225789D01*
X126288860Y-55274211D01*
X126320745Y-55285368D01*
X126320750Y-55285369D01*
X126499996Y-55305565D01*
X126500000Y-55305565D01*
X126500004Y-55305565D01*
X126679249Y-55285369D01*
X126679252Y-55285368D01*
X126679255Y-55285368D01*
X126849522Y-55225789D01*
X127002262Y-55129816D01*
X127129816Y-55002262D01*
X127225789Y-54849522D01*
X127285368Y-54679255D01*
X127285369Y-54679249D01*
X127305565Y-54500003D01*
X127305565Y-54499996D01*
X127285369Y-54320750D01*
X127285368Y-54320745D01*
X127274821Y-54290603D01*
X127225789Y-54150478D01*
X127211223Y-54127297D01*
X127140123Y-54014142D01*
X127129816Y-53997738D01*
X127044259Y-53912181D01*
X127010774Y-53850858D01*
X127015758Y-53781166D01*
X127057630Y-53725233D01*
X127123094Y-53700816D01*
X127131940Y-53700500D01*
X133068995Y-53700500D01*
X133160041Y-53682389D01*
X133204328Y-53673580D01*
X133331811Y-53620775D01*
X133446542Y-53544114D01*
X133544114Y-53446542D01*
X133620775Y-53331811D01*
X133673580Y-53204328D01*
X133700500Y-53068993D01*
X133700500Y-53000003D01*
X134194435Y-53000003D01*
X134214630Y-53179249D01*
X134214631Y-53179254D01*
X134274211Y-53349523D01*
X134338184Y-53451334D01*
X134370184Y-53502262D01*
X134497738Y-53629816D01*
X134567385Y-53673578D01*
X134645835Y-53722872D01*
X134650478Y-53725789D01*
X134751754Y-53761227D01*
X134820745Y-53785368D01*
X134820750Y-53785369D01*
X134999996Y-53805565D01*
X135000000Y-53805565D01*
X135000004Y-53805565D01*
X135179249Y-53785369D01*
X135179252Y-53785368D01*
X135179255Y-53785368D01*
X135349522Y-53725789D01*
X135502262Y-53629816D01*
X135629816Y-53502262D01*
X135725789Y-53349522D01*
X135785368Y-53179255D01*
X135785369Y-53179249D01*
X135805565Y-53000003D01*
X135805565Y-52999996D01*
X135785369Y-52820750D01*
X135785366Y-52820737D01*
X135725790Y-52650479D01*
X135719506Y-52640478D01*
X135700500Y-52574507D01*
X135700500Y-51425493D01*
X135719508Y-51359519D01*
X135725787Y-51349525D01*
X135725786Y-51349525D01*
X135725789Y-51349522D01*
X135785368Y-51179255D01*
X135786087Y-51172876D01*
X135805565Y-51000003D01*
X135805565Y-50999996D01*
X135785369Y-50820750D01*
X135785368Y-50820745D01*
X135740073Y-50691300D01*
X135725789Y-50650478D01*
X135629816Y-50497738D01*
X135502262Y-50370184D01*
X135469379Y-50349522D01*
X135349523Y-50274211D01*
X135179254Y-50214631D01*
X135179249Y-50214630D01*
X135000004Y-50194435D01*
X134999996Y-50194435D01*
X134820750Y-50214630D01*
X134820745Y-50214631D01*
X134650476Y-50274211D01*
X134497737Y-50370184D01*
X134370184Y-50497737D01*
X134274211Y-50650476D01*
X134214631Y-50820745D01*
X134214630Y-50820750D01*
X134194435Y-50999996D01*
X134194435Y-51000003D01*
X134214630Y-51179249D01*
X134214631Y-51179254D01*
X134274212Y-51349525D01*
X134280492Y-51359519D01*
X134299500Y-51425493D01*
X134299500Y-52574507D01*
X134280494Y-52640478D01*
X134274209Y-52650479D01*
X134214633Y-52820737D01*
X134214630Y-52820750D01*
X134194435Y-52999996D01*
X134194435Y-53000003D01*
X133700500Y-53000003D01*
X133700500Y-50431007D01*
X133688401Y-50370184D01*
X133673580Y-50295672D01*
X133620775Y-50168189D01*
X133544114Y-50053457D01*
X133544112Y-50053454D01*
X133544111Y-50053453D01*
X133291367Y-49800710D01*
X133262006Y-49753983D01*
X133253618Y-49730012D01*
X133225789Y-49650478D01*
X133129816Y-49497738D01*
X133002262Y-49370184D01*
X132951330Y-49338181D01*
X132849523Y-49274211D01*
X132679254Y-49214631D01*
X132679249Y-49214630D01*
X132500004Y-49194435D01*
X132499996Y-49194435D01*
X132320750Y-49214630D01*
X132320745Y-49214631D01*
X132150476Y-49274211D01*
X131997737Y-49370184D01*
X131870184Y-49497737D01*
X131774211Y-49650476D01*
X131714631Y-49820745D01*
X131714630Y-49820750D01*
X131694435Y-49999996D01*
X131694435Y-50000003D01*
X131714630Y-50179249D01*
X131714631Y-50179254D01*
X131774211Y-50349523D01*
X131859876Y-50485857D01*
X131870184Y-50502262D01*
X131997738Y-50629816D01*
X132054504Y-50665484D01*
X132150477Y-50725789D01*
X132183575Y-50737370D01*
X132216453Y-50748874D01*
X132273230Y-50789595D01*
X132298978Y-50854547D01*
X132299500Y-50865916D01*
X132299500Y-52175500D01*
X132279815Y-52242539D01*
X132227011Y-52288294D01*
X132175500Y-52299500D01*
X93324500Y-52299500D01*
X93257461Y-52279815D01*
X93211706Y-52227011D01*
X93200500Y-52175500D01*
X93200500Y-43425493D01*
X93219508Y-43359519D01*
X93225787Y-43349525D01*
X93225786Y-43349525D01*
X93225789Y-43349522D01*
X93285368Y-43179255D01*
X93285369Y-43179249D01*
X93305565Y-43000003D01*
X93305565Y-42999996D01*
X93285369Y-42820750D01*
X93285368Y-42820745D01*
X93270104Y-42777123D01*
X93225789Y-42650478D01*
X93189645Y-42592956D01*
X93178024Y-42574460D01*
X93129816Y-42497738D01*
X93002262Y-42370184D01*
X92969377Y-42349521D01*
X92849523Y-42274211D01*
X92679254Y-42214631D01*
X92679249Y-42214630D01*
X92500004Y-42194435D01*
X92499996Y-42194435D01*
X92320750Y-42214630D01*
X92320745Y-42214631D01*
X92150476Y-42274211D01*
X91997737Y-42370184D01*
X91870184Y-42497737D01*
X91774211Y-42650476D01*
X91714631Y-42820745D01*
X91714630Y-42820750D01*
X91694435Y-42999996D01*
X91694435Y-43000003D01*
X91714630Y-43179249D01*
X91714631Y-43179254D01*
X91774212Y-43349525D01*
X91780492Y-43359519D01*
X91799500Y-43425493D01*
X91799500Y-52931007D01*
X91799500Y-53068993D01*
X91799500Y-53068995D01*
X91799499Y-53068995D01*
X91826418Y-53204322D01*
X91826421Y-53204332D01*
X91879221Y-53331804D01*
X91879228Y-53331817D01*
X91955885Y-53446541D01*
X91955888Y-53446545D01*
X92053454Y-53544111D01*
X92053458Y-53544114D01*
X92168182Y-53620771D01*
X92168195Y-53620778D01*
X92295667Y-53673578D01*
X92295672Y-53673580D01*
X92295676Y-53673580D01*
X92295677Y-53673581D01*
X92431004Y-53700500D01*
X92431007Y-53700500D01*
X94868060Y-53700500D01*
X94935099Y-53720185D01*
X94980854Y-53772989D01*
X94990798Y-53842147D01*
X94961773Y-53905703D01*
X94955741Y-53912181D01*
X94870184Y-53997737D01*
X94774211Y-54150476D01*
X94714631Y-54320745D01*
X94714630Y-54320750D01*
X94694435Y-54499996D01*
X94694435Y-54500003D01*
X94714630Y-54679249D01*
X94714631Y-54679254D01*
X94774211Y-54849523D01*
X94794620Y-54882003D01*
X94870184Y-55002262D01*
X94997738Y-55129816D01*
X95050838Y-55163181D01*
X95150474Y-55225787D01*
X95150478Y-55225789D01*
X95288860Y-55274211D01*
X95320745Y-55285368D01*
X95320750Y-55285369D01*
X95499996Y-55305565D01*
X95500000Y-55305565D01*
X95500004Y-55305565D01*
X95679249Y-55285369D01*
X95679252Y-55285368D01*
X95679255Y-55285368D01*
X95849522Y-55225789D01*
X95978883Y-55144505D01*
X96044855Y-55125500D01*
X97956737Y-55125500D01*
X98023776Y-55145185D01*
X98069531Y-55197989D01*
X98079475Y-55267147D01*
X98050450Y-55330703D01*
X98022711Y-55354491D01*
X98014184Y-55359850D01*
X97997739Y-55370183D01*
X97997735Y-55370186D01*
X97870186Y-55497735D01*
X97870180Y-55497742D01*
X97829092Y-55563132D01*
X97827209Y-55566038D01*
X97793752Y-55616113D01*
X97790604Y-55620824D01*
X97790600Y-55620832D01*
X97790266Y-55621639D01*
X97780713Y-55640127D01*
X97774212Y-55650474D01*
X97774210Y-55650477D01*
X97752982Y-55711140D01*
X97750504Y-55717631D01*
X97730264Y-55766496D01*
X97730263Y-55766502D01*
X97727550Y-55780140D01*
X97722975Y-55796898D01*
X97714634Y-55820735D01*
X97714632Y-55820742D01*
X97708890Y-55871696D01*
X97707288Y-55881994D01*
X97699500Y-55921152D01*
X97699500Y-55948085D01*
X97698720Y-55961969D01*
X97694435Y-55999998D01*
X97694435Y-56000001D01*
X97698720Y-56038029D01*
X97699500Y-56051914D01*
X97699500Y-56078844D01*
X97707288Y-56118003D01*
X97708890Y-56128303D01*
X97714632Y-56179252D01*
X97714633Y-56179260D01*
X97722976Y-56203104D01*
X97727550Y-56219860D01*
X97730262Y-56233496D01*
X97743210Y-56264756D01*
X97748985Y-56278699D01*
X97750509Y-56282377D01*
X97752986Y-56288867D01*
X97757145Y-56300753D01*
X97774212Y-56349524D01*
X97780709Y-56359865D01*
X97790268Y-56378365D01*
X97790603Y-56379173D01*
X97790605Y-56379179D01*
X97827223Y-56433982D01*
X97829114Y-56436900D01*
X97870180Y-56502257D01*
X97870182Y-56502260D01*
X97870184Y-56502262D01*
X97997738Y-56629816D01*
X98063131Y-56670905D01*
X98066040Y-56672790D01*
X98120821Y-56709394D01*
X98121606Y-56709719D01*
X98140134Y-56719289D01*
X98150478Y-56725789D01*
X98211175Y-56747028D01*
X98217607Y-56749484D01*
X98246021Y-56761253D01*
X98266497Y-56769735D01*
X98266498Y-56769735D01*
X98266503Y-56769737D01*
X98280139Y-56772449D01*
X98296898Y-56777023D01*
X98320745Y-56785368D01*
X98371714Y-56791110D01*
X98381992Y-56792709D01*
X98409140Y-56798109D01*
X98421157Y-56800500D01*
X98421158Y-56800500D01*
X98448085Y-56800500D01*
X98461969Y-56801280D01*
X98499998Y-56805565D01*
X98500000Y-56805565D01*
X98500002Y-56805565D01*
X98538031Y-56801280D01*
X98551915Y-56800500D01*
X101302973Y-56800500D01*
X101370012Y-56820185D01*
X101415767Y-56872989D01*
X101426501Y-56935307D01*
X101424341Y-56959997D01*
X101424341Y-56960000D01*
X101444936Y-57195403D01*
X101444938Y-57195413D01*
X101506094Y-57423655D01*
X101506096Y-57423659D01*
X101506097Y-57423663D01*
X101587463Y-57598153D01*
X101605965Y-57637830D01*
X101605967Y-57637834D01*
X101694147Y-57763767D01*
X101741501Y-57831396D01*
X101741506Y-57831402D01*
X101908597Y-57998493D01*
X101908603Y-57998498D01*
X101996403Y-58059976D01*
X102089979Y-58125499D01*
X102094594Y-58128730D01*
X102138219Y-58183307D01*
X102145413Y-58252805D01*
X102113890Y-58315160D01*
X102094595Y-58331880D01*
X101908922Y-58461890D01*
X101908920Y-58461891D01*
X101741891Y-58628920D01*
X101741886Y-58628926D01*
X101606400Y-58822420D01*
X101606399Y-58822422D01*
X101506570Y-59036507D01*
X101506567Y-59036513D01*
X101449364Y-59249999D01*
X101449364Y-59250000D01*
X102346988Y-59250000D01*
X102314075Y-59307007D01*
X102280000Y-59434174D01*
X102280000Y-59565826D01*
X102314075Y-59692993D01*
X102346988Y-59750000D01*
X101449364Y-59750000D01*
X101506567Y-59963486D01*
X101506570Y-59963492D01*
X101606399Y-60177578D01*
X101741894Y-60371082D01*
X101908917Y-60538105D01*
X102102421Y-60673600D01*
X102294393Y-60763118D01*
X102346832Y-60809290D01*
X102365984Y-60876484D01*
X102345768Y-60943365D01*
X102292603Y-60988700D01*
X102241988Y-60999500D01*
X80124500Y-60999500D01*
X80057461Y-60979815D01*
X80011706Y-60927011D01*
X80000500Y-60875500D01*
X80000500Y-59265006D01*
X82069700Y-59265006D01*
X82088864Y-59496297D01*
X82088866Y-59496308D01*
X82145842Y-59721300D01*
X82239075Y-59933848D01*
X82366016Y-60128147D01*
X82366019Y-60128151D01*
X82366021Y-60128153D01*
X82523216Y-60298913D01*
X82523219Y-60298915D01*
X82523222Y-60298918D01*
X82706365Y-60441464D01*
X82706371Y-60441468D01*
X82706374Y-60441470D01*
X82873860Y-60532109D01*
X82885656Y-60538493D01*
X82910497Y-60551936D01*
X83024487Y-60591068D01*
X83130015Y-60627297D01*
X83130017Y-60627297D01*
X83130019Y-60627298D01*
X83358951Y-60665500D01*
X83358952Y-60665500D01*
X83591048Y-60665500D01*
X83591049Y-60665500D01*
X83819981Y-60627298D01*
X84039503Y-60551936D01*
X84243626Y-60441470D01*
X84426784Y-60298913D01*
X84583979Y-60128153D01*
X84710924Y-59933849D01*
X84776413Y-59784548D01*
X84821369Y-59731063D01*
X84888105Y-59710373D01*
X84955433Y-59729048D01*
X84977650Y-59746678D01*
X85060788Y-59829816D01*
X85126187Y-59870909D01*
X85129096Y-59872794D01*
X85183871Y-59909393D01*
X85184661Y-59909720D01*
X85203182Y-59919288D01*
X85213528Y-59925789D01*
X85274210Y-59947022D01*
X85280677Y-59949492D01*
X85329544Y-59969734D01*
X85329548Y-59969735D01*
X85329553Y-59969737D01*
X85343189Y-59972449D01*
X85359948Y-59977023D01*
X85383795Y-59985368D01*
X85434763Y-59991110D01*
X85445041Y-59992709D01*
X85472189Y-59998109D01*
X85484206Y-60000500D01*
X85484207Y-60000500D01*
X85511135Y-60000500D01*
X85525019Y-60001280D01*
X85563048Y-60005565D01*
X85563050Y-60005565D01*
X85563052Y-60005565D01*
X85601081Y-60001280D01*
X85614965Y-60000500D01*
X85641891Y-60000500D01*
X85641892Y-60000500D01*
X85681067Y-59992707D01*
X85691333Y-59991110D01*
X85742305Y-59985368D01*
X85766157Y-59977020D01*
X85782902Y-59972450D01*
X85796547Y-59969737D01*
X85845432Y-59949487D01*
X85851902Y-59947017D01*
X85912572Y-59925789D01*
X85922910Y-59919292D01*
X85941439Y-59909719D01*
X85942229Y-59909393D01*
X85997026Y-59872778D01*
X85999904Y-59870914D01*
X85999912Y-59870909D01*
X86065312Y-59829816D01*
X86192866Y-59702262D01*
X86233971Y-59636842D01*
X86235828Y-59633976D01*
X86272443Y-59579179D01*
X86272769Y-59578389D01*
X86282343Y-59559859D01*
X86288839Y-59549522D01*
X86310067Y-59488852D01*
X86312543Y-59482368D01*
X86332787Y-59433497D01*
X86335500Y-59419852D01*
X86340070Y-59403107D01*
X86348418Y-59379255D01*
X86354160Y-59328283D01*
X86355757Y-59318017D01*
X86363550Y-59278842D01*
X86363550Y-59251914D01*
X86364330Y-59238029D01*
X86368615Y-59200001D01*
X86368615Y-59199998D01*
X86364330Y-59161969D01*
X86363550Y-59148085D01*
X86363550Y-59121156D01*
X86355761Y-59082002D01*
X86354160Y-59071713D01*
X86348418Y-59020745D01*
X86340073Y-58996898D01*
X86335499Y-58980139D01*
X86332787Y-58966503D01*
X86312542Y-58917629D01*
X86310062Y-58911129D01*
X86307454Y-58903673D01*
X86300500Y-58862732D01*
X86300500Y-49551914D01*
X86301280Y-49538029D01*
X86305565Y-49500001D01*
X86305565Y-49499998D01*
X86301280Y-49461969D01*
X86300500Y-49448085D01*
X86300500Y-49421157D01*
X86298109Y-49409140D01*
X86292709Y-49381992D01*
X86291110Y-49371714D01*
X86285368Y-49320745D01*
X86277023Y-49296898D01*
X86272449Y-49280139D01*
X86269737Y-49266503D01*
X86268507Y-49263534D01*
X86257927Y-49237991D01*
X86249484Y-49217607D01*
X86247028Y-49211175D01*
X86225789Y-49150478D01*
X86219289Y-49140134D01*
X86209719Y-49121606D01*
X86209394Y-49120821D01*
X86172790Y-49066040D01*
X86170905Y-49063131D01*
X86168014Y-49058530D01*
X86129816Y-48997738D01*
X86002262Y-48870184D01*
X86002260Y-48870182D01*
X86002257Y-48870180D01*
X85936900Y-48829114D01*
X85933982Y-48827223D01*
X85879179Y-48790605D01*
X85879173Y-48790603D01*
X85878365Y-48790268D01*
X85859865Y-48780709D01*
X85849524Y-48774212D01*
X85849523Y-48774211D01*
X85849522Y-48774211D01*
X85788867Y-48752986D01*
X85782377Y-48750509D01*
X85733496Y-48730262D01*
X85719860Y-48727550D01*
X85703104Y-48722976D01*
X85679260Y-48714633D01*
X85679256Y-48714632D01*
X85679255Y-48714632D01*
X85658575Y-48712301D01*
X85628303Y-48708890D01*
X85618003Y-48707288D01*
X85578844Y-48699500D01*
X85578842Y-48699500D01*
X85551915Y-48699500D01*
X85538031Y-48698720D01*
X85500002Y-48694435D01*
X85499998Y-48694435D01*
X85461969Y-48698720D01*
X85448085Y-48699500D01*
X85421152Y-48699500D01*
X85381994Y-48707288D01*
X85371696Y-48708890D01*
X85320742Y-48714632D01*
X85320735Y-48714634D01*
X85296898Y-48722975D01*
X85280140Y-48727550D01*
X85266502Y-48730263D01*
X85266496Y-48730264D01*
X85217631Y-48750504D01*
X85211140Y-48752982D01*
X85150477Y-48774210D01*
X85150474Y-48774212D01*
X85140127Y-48780713D01*
X85121639Y-48790266D01*
X85120832Y-48790600D01*
X85120824Y-48790604D01*
X85066047Y-48827204D01*
X85063132Y-48829092D01*
X84997742Y-48870180D01*
X84997735Y-48870186D01*
X84904188Y-48963734D01*
X84842865Y-48997219D01*
X84773173Y-48992235D01*
X84740696Y-48971363D01*
X84739645Y-48972768D01*
X84617335Y-48881206D01*
X84617328Y-48881202D01*
X84482482Y-48830908D01*
X84482483Y-48830908D01*
X84422883Y-48824501D01*
X84422881Y-48824500D01*
X84422873Y-48824500D01*
X84422864Y-48824500D01*
X82527129Y-48824500D01*
X82527123Y-48824501D01*
X82467516Y-48830908D01*
X82332671Y-48881202D01*
X82332664Y-48881206D01*
X82217455Y-48967452D01*
X82217452Y-48967455D01*
X82131206Y-49082664D01*
X82131202Y-49082671D01*
X82080908Y-49217517D01*
X82074501Y-49277116D01*
X82074500Y-49277135D01*
X82074500Y-51172870D01*
X82074501Y-51172876D01*
X82080908Y-51232483D01*
X82131202Y-51367328D01*
X82131206Y-51367335D01*
X82217452Y-51482544D01*
X82217455Y-51482547D01*
X82332664Y-51568793D01*
X82332673Y-51568798D01*
X82412904Y-51598722D01*
X82468838Y-51640593D01*
X82493256Y-51706057D01*
X82478405Y-51774330D01*
X82460802Y-51798886D01*
X82366019Y-51901849D01*
X82239075Y-52096151D01*
X82145842Y-52308699D01*
X82088866Y-52533691D01*
X82088864Y-52533702D01*
X82069700Y-52764993D01*
X82069700Y-52765006D01*
X82088864Y-52996297D01*
X82088866Y-52996308D01*
X82145842Y-53221300D01*
X82239075Y-53433848D01*
X82366016Y-53628147D01*
X82366019Y-53628151D01*
X82366021Y-53628153D01*
X82523216Y-53798913D01*
X82523219Y-53798915D01*
X82523222Y-53798918D01*
X82706365Y-53941464D01*
X82706371Y-53941468D01*
X82706374Y-53941470D01*
X82910497Y-54051936D01*
X83024487Y-54091068D01*
X83130015Y-54127297D01*
X83130017Y-54127297D01*
X83130019Y-54127298D01*
X83358951Y-54165500D01*
X83358952Y-54165500D01*
X83591048Y-54165500D01*
X83591049Y-54165500D01*
X83819981Y-54127298D01*
X84039503Y-54051936D01*
X84243626Y-53941470D01*
X84261443Y-53927603D01*
X84329669Y-53874500D01*
X84426784Y-53798913D01*
X84484270Y-53736465D01*
X84544157Y-53700475D01*
X84613995Y-53702574D01*
X84671611Y-53742098D01*
X84698713Y-53806498D01*
X84699500Y-53820448D01*
X84699500Y-55233257D01*
X84679815Y-55300296D01*
X84627011Y-55346051D01*
X84557853Y-55355995D01*
X84532168Y-55349439D01*
X84482485Y-55330909D01*
X84482483Y-55330908D01*
X84422883Y-55324501D01*
X84422881Y-55324500D01*
X84422873Y-55324500D01*
X84422864Y-55324500D01*
X82527129Y-55324500D01*
X82527123Y-55324501D01*
X82467516Y-55330908D01*
X82332671Y-55381202D01*
X82332664Y-55381206D01*
X82217455Y-55467452D01*
X82217452Y-55467455D01*
X82131206Y-55582664D01*
X82131202Y-55582671D01*
X82080908Y-55717517D01*
X82074501Y-55777116D01*
X82074500Y-55777135D01*
X82074500Y-57672870D01*
X82074501Y-57672876D01*
X82080908Y-57732483D01*
X82131202Y-57867328D01*
X82131206Y-57867335D01*
X82217452Y-57982544D01*
X82217455Y-57982547D01*
X82332664Y-58068793D01*
X82332673Y-58068798D01*
X82412904Y-58098722D01*
X82468838Y-58140593D01*
X82493256Y-58206057D01*
X82478405Y-58274330D01*
X82460802Y-58298886D01*
X82366019Y-58401849D01*
X82239075Y-58596151D01*
X82145842Y-58808699D01*
X82088866Y-59033691D01*
X82088864Y-59033702D01*
X82069700Y-59264993D01*
X82069700Y-59265006D01*
X80000500Y-59265006D01*
X80000500Y-41624500D01*
X80020185Y-41557461D01*
X80072989Y-41511706D01*
X80124500Y-41500500D01*
X85151929Y-41500500D01*
X85218968Y-41520185D01*
G37*
%TD.AperFunction*%
%TA.AperFunction,Conductor*%
G36*
X126994549Y-60166110D02*
G01*
X127011269Y-60185405D01*
X127141505Y-60371401D01*
X127308599Y-60538495D01*
X127405384Y-60606265D01*
X127502165Y-60674032D01*
X127502167Y-60674033D01*
X127502170Y-60674035D01*
X127693209Y-60763118D01*
X127745648Y-60809290D01*
X127764800Y-60876484D01*
X127744584Y-60943365D01*
X127691419Y-60988700D01*
X127640804Y-60999500D01*
X126178012Y-60999500D01*
X126110973Y-60979815D01*
X126065218Y-60927011D01*
X126055274Y-60857853D01*
X126084299Y-60794297D01*
X126125607Y-60763118D01*
X126317578Y-60673600D01*
X126511082Y-60538105D01*
X126678105Y-60371082D01*
X126808119Y-60185405D01*
X126862696Y-60141781D01*
X126932195Y-60134588D01*
X126994549Y-60166110D01*
G37*
%TD.AperFunction*%
%TA.AperFunction,Conductor*%
G36*
X129534855Y-60166546D02*
G01*
X129551575Y-60185842D01*
X129681281Y-60371082D01*
X129681505Y-60371401D01*
X129848599Y-60538495D01*
X129945384Y-60606265D01*
X130042165Y-60674032D01*
X130042167Y-60674033D01*
X130042170Y-60674035D01*
X130233209Y-60763118D01*
X130285648Y-60809290D01*
X130304800Y-60876484D01*
X130284584Y-60943365D01*
X130231419Y-60988700D01*
X130180804Y-60999500D01*
X128719196Y-60999500D01*
X128652157Y-60979815D01*
X128606402Y-60927011D01*
X128596458Y-60857853D01*
X128625483Y-60794297D01*
X128666791Y-60763118D01*
X128857830Y-60674035D01*
X129051401Y-60538495D01*
X129218495Y-60371401D01*
X129348425Y-60185842D01*
X129403002Y-60142217D01*
X129472500Y-60135023D01*
X129534855Y-60166546D01*
G37*
%TD.AperFunction*%
%TA.AperFunction,Conductor*%
G36*
X132075160Y-60166110D02*
G01*
X132091879Y-60185405D01*
X132221890Y-60371078D01*
X132388917Y-60538105D01*
X132582421Y-60673600D01*
X132774393Y-60763118D01*
X132826832Y-60809290D01*
X132845984Y-60876484D01*
X132825768Y-60943365D01*
X132772603Y-60988700D01*
X132721988Y-60999500D01*
X131259196Y-60999500D01*
X131192157Y-60979815D01*
X131146402Y-60927011D01*
X131136458Y-60857853D01*
X131165483Y-60794297D01*
X131206791Y-60763118D01*
X131397830Y-60674035D01*
X131591401Y-60538495D01*
X131758495Y-60371401D01*
X131888730Y-60185405D01*
X131943307Y-60141781D01*
X132012805Y-60134587D01*
X132075160Y-60166110D01*
G37*
%TD.AperFunction*%
%TA.AperFunction,Conductor*%
G36*
X158942539Y-41520185D02*
G01*
X158988294Y-41572989D01*
X158999500Y-41624500D01*
X158999500Y-60875500D01*
X158979815Y-60942539D01*
X158927011Y-60988294D01*
X158875500Y-60999500D01*
X136990103Y-60999500D01*
X136923064Y-60979815D01*
X136877309Y-60927011D01*
X136867365Y-60857853D01*
X136896390Y-60794297D01*
X136915792Y-60776234D01*
X136982276Y-60726463D01*
X137007546Y-60707546D01*
X137093796Y-60592331D01*
X137144091Y-60457483D01*
X137150500Y-60397873D01*
X137150499Y-58979950D01*
X137170184Y-58912912D01*
X137222987Y-58867157D01*
X137274499Y-58855951D01*
X142036115Y-58855951D01*
X142103154Y-58875636D01*
X142123796Y-58892270D01*
X143752132Y-60520606D01*
X143752161Y-60520637D01*
X143842380Y-60610856D01*
X143842383Y-60610858D01*
X143919306Y-60662256D01*
X143944826Y-60679309D01*
X143944828Y-60679310D01*
X143944831Y-60679312D01*
X144011512Y-60706931D01*
X144011514Y-60706933D01*
X144051756Y-60723601D01*
X144058664Y-60726463D01*
X144119087Y-60738481D01*
X144179509Y-60750500D01*
X144936607Y-60750500D01*
X144997029Y-60738481D01*
X145057452Y-60726463D01*
X145057455Y-60726461D01*
X145057458Y-60726461D01*
X145090787Y-60712654D01*
X145090786Y-60712654D01*
X145090792Y-60712652D01*
X145171286Y-60679312D01*
X145222509Y-60645084D01*
X145273733Y-60610858D01*
X145360858Y-60523733D01*
X145360858Y-60523731D01*
X145371066Y-60513524D01*
X145371066Y-60513522D01*
X145610857Y-60273734D01*
X145644842Y-60222873D01*
X145679311Y-60171286D01*
X145726463Y-60057452D01*
X145750500Y-59936606D01*
X145750500Y-56735006D01*
X154119700Y-56735006D01*
X154138864Y-56966297D01*
X154138866Y-56966308D01*
X154195842Y-57191300D01*
X154289075Y-57403848D01*
X154416016Y-57598147D01*
X154416019Y-57598151D01*
X154416021Y-57598153D01*
X154510803Y-57701114D01*
X154541724Y-57763767D01*
X154533864Y-57833193D01*
X154489716Y-57887348D01*
X154462906Y-57901277D01*
X154382669Y-57931203D01*
X154382664Y-57931206D01*
X154267455Y-58017452D01*
X154267452Y-58017455D01*
X154181206Y-58132664D01*
X154181202Y-58132671D01*
X154130908Y-58267517D01*
X154125733Y-58315659D01*
X154124501Y-58327123D01*
X154124500Y-58327135D01*
X154124500Y-60222870D01*
X154124501Y-60222872D01*
X154130908Y-60282483D01*
X154181202Y-60417328D01*
X154181206Y-60417335D01*
X154267452Y-60532544D01*
X154267455Y-60532547D01*
X154382664Y-60618793D01*
X154382671Y-60618797D01*
X154517517Y-60669091D01*
X154517516Y-60669091D01*
X154524444Y-60669835D01*
X154577127Y-60675500D01*
X156472872Y-60675499D01*
X156532483Y-60669091D01*
X156667331Y-60618796D01*
X156782546Y-60532546D01*
X156868796Y-60417331D01*
X156919091Y-60282483D01*
X156925500Y-60222873D01*
X156925499Y-58327128D01*
X156919091Y-58267517D01*
X156890476Y-58190797D01*
X156868797Y-58132671D01*
X156868793Y-58132664D01*
X156782547Y-58017455D01*
X156782544Y-58017452D01*
X156667335Y-57931206D01*
X156667328Y-57931202D01*
X156587094Y-57901277D01*
X156531160Y-57859406D01*
X156506743Y-57793941D01*
X156521595Y-57725668D01*
X156539190Y-57701121D01*
X156633979Y-57598153D01*
X156760924Y-57403849D01*
X156854157Y-57191300D01*
X156911134Y-56966305D01*
X156911135Y-56966297D01*
X156930300Y-56735006D01*
X156930300Y-56734993D01*
X156911135Y-56503702D01*
X156911133Y-56503691D01*
X156854157Y-56278699D01*
X156760924Y-56066151D01*
X156633983Y-55871852D01*
X156633980Y-55871849D01*
X156633979Y-55871847D01*
X156476784Y-55701087D01*
X156476779Y-55701083D01*
X156476777Y-55701081D01*
X156293634Y-55558535D01*
X156293628Y-55558531D01*
X156089504Y-55448064D01*
X156089495Y-55448061D01*
X155869984Y-55372702D01*
X155698282Y-55344050D01*
X155641049Y-55334500D01*
X155408951Y-55334500D01*
X155363164Y-55342140D01*
X155180015Y-55372702D01*
X154960504Y-55448061D01*
X154960495Y-55448064D01*
X154756371Y-55558531D01*
X154756365Y-55558535D01*
X154573222Y-55701081D01*
X154573219Y-55701084D01*
X154416016Y-55871852D01*
X154289075Y-56066151D01*
X154195842Y-56278699D01*
X154138866Y-56503691D01*
X154138864Y-56503702D01*
X154119700Y-56734993D01*
X154119700Y-56735006D01*
X145750500Y-56735006D01*
X145750500Y-50063394D01*
X145750144Y-50061606D01*
X145730077Y-49960717D01*
X145726463Y-49942548D01*
X145696489Y-49870184D01*
X145679312Y-49828714D01*
X145642893Y-49774211D01*
X145610858Y-49726267D01*
X145610856Y-49726264D01*
X145520637Y-49636045D01*
X145520606Y-49636016D01*
X144326211Y-48441621D01*
X144292726Y-48380298D01*
X144290673Y-48367832D01*
X144287355Y-48338379D01*
X144299412Y-48269558D01*
X144346763Y-48218180D01*
X144410576Y-48200500D01*
X151368060Y-48200500D01*
X151435099Y-48220185D01*
X151480854Y-48272989D01*
X151490798Y-48342147D01*
X151461773Y-48405703D01*
X151455741Y-48412181D01*
X151370184Y-48497737D01*
X151274210Y-48650478D01*
X151214630Y-48820750D01*
X151209326Y-48867825D01*
X151182258Y-48932238D01*
X151173788Y-48941620D01*
X150777227Y-49338182D01*
X150715907Y-49371666D01*
X150689548Y-49374500D01*
X150044855Y-49374500D01*
X149978883Y-49355494D01*
X149849523Y-49274211D01*
X149679254Y-49214631D01*
X149679249Y-49214630D01*
X149500004Y-49194435D01*
X149499996Y-49194435D01*
X149320750Y-49214630D01*
X149320745Y-49214631D01*
X149150476Y-49274211D01*
X148997737Y-49370184D01*
X148870184Y-49497737D01*
X148774211Y-49650476D01*
X148714631Y-49820745D01*
X148714630Y-49820750D01*
X148694435Y-49999996D01*
X148694435Y-50000003D01*
X148714630Y-50179249D01*
X148714631Y-50179254D01*
X148774211Y-50349523D01*
X148859876Y-50485857D01*
X148870184Y-50502262D01*
X148997738Y-50629816D01*
X149150478Y-50725789D01*
X149280695Y-50771354D01*
X149320745Y-50785368D01*
X149320750Y-50785369D01*
X149499996Y-50805565D01*
X149500000Y-50805565D01*
X149500004Y-50805565D01*
X149679249Y-50785369D01*
X149679252Y-50785368D01*
X149679255Y-50785368D01*
X149849522Y-50725789D01*
X149978883Y-50644505D01*
X150044855Y-50625500D01*
X151061608Y-50625500D01*
X151061608Y-50625499D01*
X151125978Y-50612696D01*
X151125979Y-50612696D01*
X151145150Y-50608882D01*
X151182452Y-50601463D01*
X151215792Y-50587652D01*
X151296286Y-50554312D01*
X151359233Y-50512251D01*
X151398733Y-50485858D01*
X151485858Y-50398733D01*
X151485858Y-50398731D01*
X151496066Y-50388524D01*
X151496067Y-50388521D01*
X152058380Y-49826209D01*
X152119701Y-49792726D01*
X152132158Y-49790674D01*
X152179255Y-49785368D01*
X152349522Y-49725789D01*
X152502262Y-49629816D01*
X152502262Y-49629815D01*
X152508158Y-49626111D01*
X152509602Y-49628409D01*
X152562849Y-49606659D01*
X152631547Y-49619401D01*
X152682450Y-49667261D01*
X152699500Y-49730012D01*
X152699500Y-51948085D01*
X152698720Y-51961969D01*
X152694435Y-51999998D01*
X152694435Y-52000001D01*
X152698720Y-52038029D01*
X152699500Y-52051914D01*
X152699500Y-52078844D01*
X152707288Y-52118003D01*
X152708890Y-52128303D01*
X152714632Y-52179252D01*
X152714633Y-52179260D01*
X152722976Y-52203104D01*
X152727550Y-52219860D01*
X152730262Y-52233496D01*
X152750509Y-52282377D01*
X152752988Y-52288872D01*
X152774212Y-52349524D01*
X152780709Y-52359865D01*
X152790268Y-52378365D01*
X152790603Y-52379173D01*
X152790605Y-52379179D01*
X152827223Y-52433982D01*
X152829114Y-52436900D01*
X152870180Y-52502257D01*
X152870182Y-52502260D01*
X152870184Y-52502262D01*
X152997738Y-52629816D01*
X153030623Y-52650479D01*
X153063131Y-52670905D01*
X153066040Y-52672790D01*
X153120821Y-52709394D01*
X153121606Y-52709719D01*
X153140134Y-52719289D01*
X153150478Y-52725789D01*
X153211175Y-52747028D01*
X153217607Y-52749484D01*
X153246021Y-52761253D01*
X153266497Y-52769735D01*
X153266498Y-52769735D01*
X153266503Y-52769737D01*
X153280139Y-52772449D01*
X153296898Y-52777023D01*
X153320745Y-52785368D01*
X153371714Y-52791110D01*
X153381992Y-52792709D01*
X153409140Y-52798109D01*
X153421157Y-52800500D01*
X153421158Y-52800500D01*
X153448085Y-52800500D01*
X153461969Y-52801280D01*
X153499998Y-52805565D01*
X153500000Y-52805565D01*
X153500002Y-52805565D01*
X153538031Y-52801280D01*
X153551915Y-52800500D01*
X153578841Y-52800500D01*
X153578842Y-52800500D01*
X153618017Y-52792707D01*
X153628283Y-52791110D01*
X153679255Y-52785368D01*
X153703100Y-52777023D01*
X153719862Y-52772448D01*
X153733497Y-52769737D01*
X153782389Y-52749484D01*
X153788837Y-52747023D01*
X153849522Y-52725789D01*
X153859868Y-52719287D01*
X153878390Y-52709720D01*
X153879179Y-52709394D01*
X153931609Y-52674361D01*
X153998286Y-52653483D01*
X154065666Y-52671967D01*
X154112357Y-52723946D01*
X154124500Y-52777463D01*
X154124500Y-53722870D01*
X154124501Y-53722876D01*
X154130908Y-53782483D01*
X154181202Y-53917328D01*
X154181206Y-53917335D01*
X154267452Y-54032544D01*
X154267455Y-54032547D01*
X154382664Y-54118793D01*
X154382671Y-54118797D01*
X154517517Y-54169091D01*
X154517516Y-54169091D01*
X154524444Y-54169835D01*
X154577127Y-54175500D01*
X156472872Y-54175499D01*
X156532483Y-54169091D01*
X156667331Y-54118796D01*
X156782546Y-54032546D01*
X156868796Y-53917331D01*
X156919091Y-53782483D01*
X156925500Y-53722873D01*
X156925499Y-51827128D01*
X156919091Y-51767517D01*
X156871751Y-51640593D01*
X156868797Y-51632671D01*
X156868793Y-51632664D01*
X156782547Y-51517455D01*
X156782544Y-51517452D01*
X156667335Y-51431206D01*
X156667328Y-51431202D01*
X156587094Y-51401277D01*
X156531160Y-51359406D01*
X156506743Y-51293941D01*
X156521595Y-51225668D01*
X156539190Y-51201121D01*
X156633979Y-51098153D01*
X156760924Y-50903849D01*
X156854157Y-50691300D01*
X156911134Y-50466305D01*
X156911135Y-50466297D01*
X156930300Y-50235006D01*
X156930300Y-50234993D01*
X156911135Y-50003702D01*
X156911133Y-50003691D01*
X156854157Y-49778699D01*
X156760924Y-49566151D01*
X156633983Y-49371852D01*
X156633980Y-49371849D01*
X156633979Y-49371847D01*
X156476784Y-49201087D01*
X156476779Y-49201083D01*
X156476777Y-49201081D01*
X156293634Y-49058535D01*
X156293628Y-49058531D01*
X156089504Y-48948064D01*
X156089495Y-48948061D01*
X155869984Y-48872702D01*
X155698282Y-48844050D01*
X155641049Y-48834500D01*
X155408951Y-48834500D01*
X155363164Y-48842140D01*
X155180015Y-48872702D01*
X154960504Y-48948061D01*
X154960495Y-48948064D01*
X154756371Y-49058531D01*
X154756365Y-49058535D01*
X154573222Y-49201081D01*
X154573218Y-49201084D01*
X154515730Y-49263534D01*
X154455843Y-49299525D01*
X154386004Y-49297424D01*
X154328388Y-49257900D01*
X154301287Y-49193501D01*
X154300500Y-49179551D01*
X154300500Y-47766742D01*
X154320185Y-47699703D01*
X154372989Y-47653948D01*
X154442147Y-47644004D01*
X154467830Y-47650559D01*
X154517517Y-47669091D01*
X154577127Y-47675500D01*
X156472872Y-47675499D01*
X156532483Y-47669091D01*
X156667331Y-47618796D01*
X156782546Y-47532546D01*
X156868796Y-47417331D01*
X156919091Y-47282483D01*
X156925500Y-47222873D01*
X156925499Y-45327128D01*
X156919091Y-45267517D01*
X156918712Y-45266502D01*
X156868797Y-45132671D01*
X156868793Y-45132664D01*
X156782547Y-45017455D01*
X156782544Y-45017452D01*
X156667335Y-44931206D01*
X156667328Y-44931202D01*
X156587094Y-44901277D01*
X156531160Y-44859406D01*
X156506743Y-44793941D01*
X156521595Y-44725668D01*
X156539190Y-44701121D01*
X156633979Y-44598153D01*
X156760924Y-44403849D01*
X156854157Y-44191300D01*
X156911134Y-43966305D01*
X156911135Y-43966297D01*
X156930300Y-43735006D01*
X156930300Y-43734993D01*
X156911135Y-43503702D01*
X156911133Y-43503691D01*
X156854157Y-43278699D01*
X156760924Y-43066151D01*
X156633983Y-42871852D01*
X156633980Y-42871849D01*
X156633979Y-42871847D01*
X156476784Y-42701087D01*
X156476779Y-42701083D01*
X156476777Y-42701081D01*
X156293634Y-42558535D01*
X156293628Y-42558531D01*
X156089504Y-42448064D01*
X156089495Y-42448061D01*
X155869984Y-42372702D01*
X155698282Y-42344050D01*
X155641049Y-42334500D01*
X155408951Y-42334500D01*
X155363164Y-42342140D01*
X155180015Y-42372702D01*
X154960504Y-42448061D01*
X154960495Y-42448064D01*
X154756371Y-42558531D01*
X154756365Y-42558535D01*
X154573222Y-42701081D01*
X154573219Y-42701084D01*
X154573216Y-42701086D01*
X154573216Y-42701087D01*
X154533993Y-42743695D01*
X154421036Y-42866399D01*
X154361149Y-42902389D01*
X154291311Y-42900289D01*
X154242125Y-42870097D01*
X154122237Y-42750209D01*
X154056817Y-42709103D01*
X154053898Y-42707211D01*
X153999154Y-42670632D01*
X153998356Y-42670301D01*
X153979844Y-42660737D01*
X153973550Y-42656782D01*
X153969496Y-42654235D01*
X153908831Y-42633007D01*
X153902338Y-42630528D01*
X153853472Y-42610288D01*
X153853468Y-42610287D01*
X153839835Y-42607575D01*
X153823079Y-42603001D01*
X153799235Y-42594658D01*
X153799227Y-42594656D01*
X153787624Y-42593349D01*
X153784132Y-42592955D01*
X153719720Y-42565888D01*
X153680166Y-42508293D01*
X153678029Y-42438456D01*
X153694917Y-42400845D01*
X153695103Y-42400565D01*
X153709394Y-42379179D01*
X153709720Y-42378390D01*
X153719287Y-42359868D01*
X153725789Y-42349522D01*
X153747023Y-42288837D01*
X153749484Y-42282389D01*
X153769737Y-42233497D01*
X153772448Y-42219862D01*
X153777023Y-42203100D01*
X153785368Y-42179255D01*
X153791110Y-42128283D01*
X153792707Y-42118017D01*
X153800500Y-42078842D01*
X153800500Y-42051914D01*
X153801280Y-42038029D01*
X153802509Y-42027127D01*
X153805565Y-42000000D01*
X153801279Y-41961968D01*
X153800500Y-41948085D01*
X153800500Y-41921157D01*
X153792711Y-41882003D01*
X153791110Y-41871714D01*
X153785368Y-41820745D01*
X153777023Y-41796898D01*
X153772449Y-41780139D01*
X153769737Y-41766503D01*
X153769734Y-41766496D01*
X153761253Y-41746021D01*
X153749484Y-41717607D01*
X153747016Y-41711142D01*
X153735611Y-41678547D01*
X153731029Y-41665452D01*
X153727468Y-41595673D01*
X153762198Y-41535047D01*
X153824192Y-41502821D01*
X153848071Y-41500500D01*
X158875500Y-41500500D01*
X158942539Y-41520185D01*
G37*
%TD.AperFunction*%
%TA.AperFunction,Conductor*%
G36*
X124454855Y-57626546D02*
G01*
X124471575Y-57645842D01*
X124601501Y-57831396D01*
X124601506Y-57831402D01*
X124768597Y-57998493D01*
X124768603Y-57998498D01*
X124856403Y-58059976D01*
X124949979Y-58125499D01*
X124954594Y-58128730D01*
X124998219Y-58183307D01*
X125005413Y-58252805D01*
X124973890Y-58315160D01*
X124954595Y-58331880D01*
X124768922Y-58461890D01*
X124768920Y-58461891D01*
X124601891Y-58628920D01*
X124601890Y-58628922D01*
X124471880Y-58814595D01*
X124417303Y-58858219D01*
X124347804Y-58865412D01*
X124285450Y-58833890D01*
X124268730Y-58814594D01*
X124138494Y-58628597D01*
X123971402Y-58461506D01*
X123971396Y-58461501D01*
X123785842Y-58331575D01*
X123742217Y-58276998D01*
X123735023Y-58207500D01*
X123766546Y-58145145D01*
X123785842Y-58128425D01*
X123944323Y-58017455D01*
X123971401Y-57998495D01*
X124138495Y-57831401D01*
X124268425Y-57645842D01*
X124323002Y-57602217D01*
X124392500Y-57595023D01*
X124454855Y-57626546D01*
G37*
%TD.AperFunction*%
%TA.AperFunction,Conductor*%
G36*
X121914855Y-57626546D02*
G01*
X121931575Y-57645842D01*
X122061501Y-57831396D01*
X122061506Y-57831402D01*
X122228597Y-57998493D01*
X122228603Y-57998498D01*
X122414158Y-58128425D01*
X122457783Y-58183002D01*
X122464977Y-58252500D01*
X122433454Y-58314855D01*
X122414158Y-58331575D01*
X122228597Y-58461505D01*
X122061505Y-58628597D01*
X121931575Y-58814158D01*
X121876998Y-58857783D01*
X121807500Y-58864977D01*
X121745145Y-58833454D01*
X121728425Y-58814158D01*
X121598494Y-58628597D01*
X121431402Y-58461506D01*
X121431396Y-58461501D01*
X121245842Y-58331575D01*
X121202217Y-58276998D01*
X121195023Y-58207500D01*
X121226546Y-58145145D01*
X121245842Y-58128425D01*
X121404323Y-58017455D01*
X121431401Y-57998495D01*
X121598495Y-57831401D01*
X121728425Y-57645842D01*
X121783002Y-57602217D01*
X121852500Y-57595023D01*
X121914855Y-57626546D01*
G37*
%TD.AperFunction*%
%TD*%
M02*
