%TF.GenerationSoftware,KiCad,Pcbnew,8.0.0*%
%TF.CreationDate,2024-03-24T17:38:24+02:00*%
%TF.ProjectId,Sensing1_0,53656e73-696e-4673-915f-302e6b696361,rev?*%
%TF.SameCoordinates,Original*%
%TF.FileFunction,Soldermask,Top*%
%TF.FilePolarity,Negative*%
%FSLAX46Y46*%
G04 Gerber Fmt 4.6, Leading zero omitted, Abs format (unit mm)*
G04 Created by KiCad (PCBNEW 8.0.0) date 2024-03-24 17:38:24*
%MOMM*%
%LPD*%
G01*
G04 APERTURE LIST*
G04 Aperture macros list*
%AMRoundRect*
0 Rectangle with rounded corners*
0 $1 Rounding radius*
0 $2 $3 $4 $5 $6 $7 $8 $9 X,Y pos of 4 corners*
0 Add a 4 corners polygon primitive as box body*
4,1,4,$2,$3,$4,$5,$6,$7,$8,$9,$2,$3,0*
0 Add four circle primitives for the rounded corners*
1,1,$1+$1,$2,$3*
1,1,$1+$1,$4,$5*
1,1,$1+$1,$6,$7*
1,1,$1+$1,$8,$9*
0 Add four rect primitives between the rounded corners*
20,1,$1+$1,$2,$3,$4,$5,0*
20,1,$1+$1,$4,$5,$6,$7,0*
20,1,$1+$1,$6,$7,$8,$9,0*
20,1,$1+$1,$8,$9,$2,$3,0*%
%AMFreePoly0*
4,1,19,0.500000,-0.750000,0.000000,-0.750000,0.000000,-0.744911,-0.071157,-0.744911,-0.207708,-0.704816,-0.327430,-0.627875,-0.420627,-0.520320,-0.479746,-0.390866,-0.500000,-0.250000,-0.500000,0.250000,-0.479746,0.390866,-0.420627,0.520320,-0.327430,0.627875,-0.207708,0.704816,-0.071157,0.744911,0.000000,0.744911,0.000000,0.750000,0.500000,0.750000,0.500000,-0.750000,0.500000,-0.750000,
$1*%
%AMFreePoly1*
4,1,19,0.000000,0.744911,0.071157,0.744911,0.207708,0.704816,0.327430,0.627875,0.420627,0.520320,0.479746,0.390866,0.500000,0.250000,0.500000,-0.250000,0.479746,-0.390866,0.420627,-0.520320,0.327430,-0.627875,0.207708,-0.704816,0.071157,-0.744911,0.000000,-0.744911,0.000000,-0.750000,-0.500000,-0.750000,-0.500000,0.750000,0.000000,0.750000,0.000000,0.744911,0.000000,0.744911,
$1*%
G04 Aperture macros list end*
%ADD10R,1.800000X1.800000*%
%ADD11C,1.800000*%
%ADD12O,1.700000X1.700000*%
%ADD13R,1.700000X1.700000*%
%ADD14RoundRect,0.200000X-0.200000X-0.275000X0.200000X-0.275000X0.200000X0.275000X-0.200000X0.275000X0*%
%ADD15R,1.500000X1.500000*%
%ADD16RoundRect,0.150000X-0.587500X-0.150000X0.587500X-0.150000X0.587500X0.150000X-0.587500X0.150000X0*%
%ADD17FreePoly0,0.000000*%
%ADD18FreePoly1,0.000000*%
G04 APERTURE END LIST*
D10*
%TO.C,D7*%
X155525000Y-59275000D03*
D11*
X155525000Y-56735000D03*
%TD*%
D10*
%TO.C,D6*%
X127775000Y-42975000D03*
D11*
X125235000Y-42975000D03*
%TD*%
D10*
%TO.C,D4*%
X83475000Y-43725000D03*
D11*
X83475000Y-46265000D03*
%TD*%
D10*
%TO.C,D3*%
X155525000Y-46275000D03*
D11*
X155525000Y-43735000D03*
%TD*%
D10*
%TO.C,D2*%
X113775000Y-42975000D03*
D11*
X111235000Y-42975000D03*
%TD*%
D10*
%TO.C,D1*%
X83475000Y-56725000D03*
D11*
X83475000Y-59265000D03*
%TD*%
D12*
%TO.C,J1*%
X102780000Y-56960000D03*
X102780000Y-59500000D03*
X105320000Y-56960000D03*
X105320000Y-59500000D03*
X107860000Y-56960000D03*
X107860000Y-59500000D03*
X110400000Y-56960000D03*
X110400000Y-59500000D03*
X112940000Y-56960000D03*
X112940000Y-59500000D03*
X115480000Y-56960000D03*
X115480000Y-59500000D03*
X118020000Y-56960000D03*
X118020000Y-59500000D03*
X120560000Y-56960000D03*
X120560000Y-59500000D03*
X123100000Y-56960000D03*
X123100000Y-59500000D03*
X125640000Y-56960000D03*
X125640000Y-59500000D03*
X128180000Y-56960000D03*
X128180000Y-59500000D03*
X130720000Y-56960000D03*
X130720000Y-59500000D03*
X133260000Y-56960000D03*
X133260000Y-59500000D03*
X135800000Y-56960000D03*
D13*
X135800000Y-59500000D03*
%TD*%
D14*
%TO.C,R9*%
X97175000Y-53000000D03*
X98825000Y-53000000D03*
%TD*%
D15*
%TO.C,TP5*%
X140500000Y-43500000D03*
%TD*%
%TO.C,TP4*%
X106000000Y-43500000D03*
%TD*%
%TO.C,TP3*%
X139500000Y-48500000D03*
%TD*%
%TO.C,TP2*%
X99000000Y-48000000D03*
%TD*%
%TO.C,TP1*%
X96500000Y-43500000D03*
%TD*%
D14*
%TO.C,R21*%
X149675000Y-55000000D03*
X151325000Y-55000000D03*
%TD*%
%TO.C,R20*%
X149675000Y-51500000D03*
X151325000Y-51500000D03*
%TD*%
%TO.C,R19*%
X87175000Y-55000000D03*
X88825000Y-55000000D03*
%TD*%
%TO.C,R18*%
X149675000Y-48000000D03*
X151325000Y-48000000D03*
%TD*%
%TO.C,R17*%
X123850000Y-48000000D03*
X125500000Y-48000000D03*
%TD*%
%TO.C,R16*%
X116675000Y-48000000D03*
X118325000Y-48000000D03*
%TD*%
%TO.C,R15*%
X109175000Y-48000000D03*
X110825000Y-48000000D03*
%TD*%
%TO.C,R14*%
X149675000Y-58500000D03*
X151325000Y-58500000D03*
%TD*%
%TO.C,R13*%
X131000000Y-48000000D03*
X132650000Y-48000000D03*
%TD*%
%TO.C,R12*%
X87175000Y-44500000D03*
X88825000Y-44500000D03*
%TD*%
%TO.C,R11*%
X139675000Y-53000000D03*
X141325000Y-53000000D03*
%TD*%
%TO.C,R10*%
X132350000Y-53000000D03*
X134000000Y-53000000D03*
%TD*%
%TO.C,R8*%
X87175000Y-51500000D03*
X88825000Y-51500000D03*
%TD*%
%TO.C,R7*%
X87175000Y-48000000D03*
X88825000Y-48000000D03*
%TD*%
%TO.C,R6*%
X104500000Y-53000000D03*
X106150000Y-53000000D03*
%TD*%
%TO.C,R5*%
X125175000Y-53000000D03*
X126825000Y-53000000D03*
%TD*%
%TO.C,R4*%
X87175000Y-58500000D03*
X88825000Y-58500000D03*
%TD*%
%TO.C,R3*%
X112175000Y-53000000D03*
X113825000Y-53000000D03*
%TD*%
%TO.C,R2*%
X149675000Y-44000000D03*
X151325000Y-44000000D03*
%TD*%
%TO.C,R1*%
X105675000Y-48000000D03*
X107325000Y-48000000D03*
%TD*%
D16*
%TO.C,Q2*%
X134625000Y-47550000D03*
X134625000Y-49450000D03*
X136500000Y-48500000D03*
%TD*%
%TO.C,Q1*%
X101625000Y-47050000D03*
X101625000Y-48950000D03*
X103500000Y-48000000D03*
%TD*%
D17*
%TO.C,JP15*%
X145200000Y-56500000D03*
D18*
X146500000Y-56500000D03*
%TD*%
D17*
%TO.C,JP14*%
X145200000Y-51500000D03*
D18*
X146500000Y-51500000D03*
%TD*%
D17*
%TO.C,JP13*%
X145200000Y-46500000D03*
D18*
X146500000Y-46500000D03*
%TD*%
D17*
%TO.C,JP12*%
X127500000Y-48000000D03*
D18*
X128800000Y-48000000D03*
%TD*%
D17*
%TO.C,JP11*%
X120500000Y-48000000D03*
D18*
X121800000Y-48000000D03*
%TD*%
D17*
%TO.C,JP10*%
X113200000Y-48000000D03*
D18*
X114500000Y-48000000D03*
%TD*%
D17*
%TO.C,JP9*%
X92200000Y-56000000D03*
D18*
X93500000Y-56000000D03*
%TD*%
D17*
%TO.C,JP8*%
X92200000Y-51500000D03*
D18*
X93500000Y-51500000D03*
%TD*%
D17*
%TO.C,JP7*%
X92200000Y-47000000D03*
D18*
X93500000Y-47000000D03*
%TD*%
D17*
%TO.C,JP6*%
X136350000Y-53000000D03*
D18*
X137650000Y-53000000D03*
%TD*%
D17*
%TO.C,JP5*%
X128850000Y-53000000D03*
D18*
X130150000Y-53000000D03*
%TD*%
D17*
%TO.C,JP4*%
X121700000Y-53000000D03*
D18*
X123000000Y-53000000D03*
%TD*%
D17*
%TO.C,JP3*%
X100850000Y-53000000D03*
D18*
X102150000Y-53000000D03*
%TD*%
D17*
%TO.C,JP2*%
X108500000Y-53000000D03*
D18*
X109800000Y-53000000D03*
%TD*%
D17*
%TO.C,JP1*%
X116200000Y-53000000D03*
D18*
X117500000Y-53000000D03*
%TD*%
D10*
%TO.C,D9*%
X155525000Y-52775000D03*
D11*
X155525000Y-50235000D03*
%TD*%
D10*
%TO.C,D8*%
X120775000Y-42975000D03*
D11*
X118235000Y-42975000D03*
%TD*%
D10*
%TO.C,D5*%
X83475000Y-50225000D03*
D11*
X83475000Y-52765000D03*
%TD*%
M02*
