%TF.GenerationSoftware,KiCad,Pcbnew,8.0.0*%
%TF.CreationDate,2024-03-24T17:38:24+02:00*%
%TF.ProjectId,Sensing1_0,53656e73-696e-4673-915f-302e6b696361,rev?*%
%TF.SameCoordinates,Original*%
%TF.FileFunction,Legend,Bot*%
%TF.FilePolarity,Positive*%
%FSLAX46Y46*%
G04 Gerber Fmt 4.6, Leading zero omitted, Abs format (unit mm)*
G04 Created by KiCad (PCBNEW 8.0.0) date 2024-03-24 17:38:24*
%MOMM*%
%LPD*%
G01*
G04 APERTURE LIST*
%ADD10R,1.800000X1.800000*%
%ADD11C,1.800000*%
%ADD12O,1.700000X1.700000*%
%ADD13R,1.700000X1.700000*%
G04 APERTURE END LIST*
%LPC*%
D10*
%TO.C,D7*%
X155525000Y-59275000D03*
D11*
X155525000Y-56735000D03*
%TD*%
D10*
%TO.C,D6*%
X127775000Y-42975000D03*
D11*
X125235000Y-42975000D03*
%TD*%
D10*
%TO.C,D4*%
X83475000Y-43725000D03*
D11*
X83475000Y-46265000D03*
%TD*%
D10*
%TO.C,D3*%
X155525000Y-46275000D03*
D11*
X155525000Y-43735000D03*
%TD*%
D10*
%TO.C,D2*%
X113775000Y-42975000D03*
D11*
X111235000Y-42975000D03*
%TD*%
D10*
%TO.C,D1*%
X83475000Y-56725000D03*
D11*
X83475000Y-59265000D03*
%TD*%
D12*
%TO.C,J1*%
X102780000Y-56960000D03*
X102780000Y-59500000D03*
X105320000Y-56960000D03*
X105320000Y-59500000D03*
X107860000Y-56960000D03*
X107860000Y-59500000D03*
X110400000Y-56960000D03*
X110400000Y-59500000D03*
X112940000Y-56960000D03*
X112940000Y-59500000D03*
X115480000Y-56960000D03*
X115480000Y-59500000D03*
X118020000Y-56960000D03*
X118020000Y-59500000D03*
X120560000Y-56960000D03*
X120560000Y-59500000D03*
X123100000Y-56960000D03*
X123100000Y-59500000D03*
X125640000Y-56960000D03*
X125640000Y-59500000D03*
X128180000Y-56960000D03*
X128180000Y-59500000D03*
X130720000Y-56960000D03*
X130720000Y-59500000D03*
X133260000Y-56960000D03*
X133260000Y-59500000D03*
X135800000Y-56960000D03*
D13*
X135800000Y-59500000D03*
%TD*%
D10*
%TO.C,D9*%
X155525000Y-52775000D03*
D11*
X155525000Y-50235000D03*
%TD*%
D10*
%TO.C,D8*%
X120775000Y-42975000D03*
D11*
X118235000Y-42975000D03*
%TD*%
D10*
%TO.C,D5*%
X83475000Y-50225000D03*
D11*
X83475000Y-52765000D03*
%TD*%
%LPD*%
M02*
