%TF.GenerationSoftware,KiCad,Pcbnew,8.0.0*%
%TF.CreationDate,2024-03-24T17:38:24+02:00*%
%TF.ProjectId,Sensing1_0,53656e73-696e-4673-915f-302e6b696361,rev?*%
%TF.SameCoordinates,Original*%
%TF.FileFunction,Paste,Top*%
%TF.FilePolarity,Positive*%
%FSLAX46Y46*%
G04 Gerber Fmt 4.6, Leading zero omitted, Abs format (unit mm)*
G04 Created by KiCad (PCBNEW 8.0.0) date 2024-03-24 17:38:24*
%MOMM*%
%LPD*%
G01*
G04 APERTURE LIST*
G04 Aperture macros list*
%AMRoundRect*
0 Rectangle with rounded corners*
0 $1 Rounding radius*
0 $2 $3 $4 $5 $6 $7 $8 $9 X,Y pos of 4 corners*
0 Add a 4 corners polygon primitive as box body*
4,1,4,$2,$3,$4,$5,$6,$7,$8,$9,$2,$3,0*
0 Add four circle primitives for the rounded corners*
1,1,$1+$1,$2,$3*
1,1,$1+$1,$4,$5*
1,1,$1+$1,$6,$7*
1,1,$1+$1,$8,$9*
0 Add four rect primitives between the rounded corners*
20,1,$1+$1,$2,$3,$4,$5,0*
20,1,$1+$1,$4,$5,$6,$7,0*
20,1,$1+$1,$6,$7,$8,$9,0*
20,1,$1+$1,$8,$9,$2,$3,0*%
G04 Aperture macros list end*
%ADD10RoundRect,0.200000X-0.200000X-0.275000X0.200000X-0.275000X0.200000X0.275000X-0.200000X0.275000X0*%
%ADD11RoundRect,0.150000X-0.587500X-0.150000X0.587500X-0.150000X0.587500X0.150000X-0.587500X0.150000X0*%
G04 APERTURE END LIST*
D10*
%TO.C,R9*%
X97175000Y-53000000D03*
X98825000Y-53000000D03*
%TD*%
%TO.C,R21*%
X149675000Y-55000000D03*
X151325000Y-55000000D03*
%TD*%
%TO.C,R20*%
X149675000Y-51500000D03*
X151325000Y-51500000D03*
%TD*%
%TO.C,R19*%
X87175000Y-55000000D03*
X88825000Y-55000000D03*
%TD*%
%TO.C,R18*%
X149675000Y-48000000D03*
X151325000Y-48000000D03*
%TD*%
%TO.C,R17*%
X123850000Y-48000000D03*
X125500000Y-48000000D03*
%TD*%
%TO.C,R16*%
X116675000Y-48000000D03*
X118325000Y-48000000D03*
%TD*%
%TO.C,R15*%
X109175000Y-48000000D03*
X110825000Y-48000000D03*
%TD*%
%TO.C,R14*%
X149675000Y-58500000D03*
X151325000Y-58500000D03*
%TD*%
%TO.C,R13*%
X131000000Y-48000000D03*
X132650000Y-48000000D03*
%TD*%
%TO.C,R12*%
X87175000Y-44500000D03*
X88825000Y-44500000D03*
%TD*%
%TO.C,R11*%
X139675000Y-53000000D03*
X141325000Y-53000000D03*
%TD*%
%TO.C,R10*%
X132350000Y-53000000D03*
X134000000Y-53000000D03*
%TD*%
%TO.C,R8*%
X87175000Y-51500000D03*
X88825000Y-51500000D03*
%TD*%
%TO.C,R7*%
X87175000Y-48000000D03*
X88825000Y-48000000D03*
%TD*%
%TO.C,R6*%
X104500000Y-53000000D03*
X106150000Y-53000000D03*
%TD*%
%TO.C,R5*%
X125175000Y-53000000D03*
X126825000Y-53000000D03*
%TD*%
%TO.C,R4*%
X87175000Y-58500000D03*
X88825000Y-58500000D03*
%TD*%
%TO.C,R3*%
X112175000Y-53000000D03*
X113825000Y-53000000D03*
%TD*%
%TO.C,R2*%
X149675000Y-44000000D03*
X151325000Y-44000000D03*
%TD*%
%TO.C,R1*%
X105675000Y-48000000D03*
X107325000Y-48000000D03*
%TD*%
D11*
%TO.C,Q2*%
X134625000Y-47550000D03*
X134625000Y-49450000D03*
X136500000Y-48500000D03*
%TD*%
%TO.C,Q1*%
X101625000Y-47050000D03*
X101625000Y-48950000D03*
X103500000Y-48000000D03*
%TD*%
M02*
