%TF.GenerationSoftware,KiCad,Pcbnew,8.0.0*%
%TF.CreationDate,2024-03-24T17:38:24+02:00*%
%TF.ProjectId,Sensing1_0,53656e73-696e-4673-915f-302e6b696361,rev?*%
%TF.SameCoordinates,Original*%
%TF.FileFunction,Legend,Top*%
%TF.FilePolarity,Positive*%
%FSLAX46Y46*%
G04 Gerber Fmt 4.6, Leading zero omitted, Abs format (unit mm)*
G04 Created by KiCad (PCBNEW 8.0.0) date 2024-03-24 17:38:24*
%MOMM*%
%LPD*%
G01*
G04 APERTURE LIST*
G04 Aperture macros list*
%AMRoundRect*
0 Rectangle with rounded corners*
0 $1 Rounding radius*
0 $2 $3 $4 $5 $6 $7 $8 $9 X,Y pos of 4 corners*
0 Add a 4 corners polygon primitive as box body*
4,1,4,$2,$3,$4,$5,$6,$7,$8,$9,$2,$3,0*
0 Add four circle primitives for the rounded corners*
1,1,$1+$1,$2,$3*
1,1,$1+$1,$4,$5*
1,1,$1+$1,$6,$7*
1,1,$1+$1,$8,$9*
0 Add four rect primitives between the rounded corners*
20,1,$1+$1,$2,$3,$4,$5,0*
20,1,$1+$1,$4,$5,$6,$7,0*
20,1,$1+$1,$6,$7,$8,$9,0*
20,1,$1+$1,$8,$9,$2,$3,0*%
%AMFreePoly0*
4,1,19,0.500000,-0.750000,0.000000,-0.750000,0.000000,-0.744911,-0.071157,-0.744911,-0.207708,-0.704816,-0.327430,-0.627875,-0.420627,-0.520320,-0.479746,-0.390866,-0.500000,-0.250000,-0.500000,0.250000,-0.479746,0.390866,-0.420627,0.520320,-0.327430,0.627875,-0.207708,0.704816,-0.071157,0.744911,0.000000,0.744911,0.000000,0.750000,0.500000,0.750000,0.500000,-0.750000,0.500000,-0.750000,
$1*%
%AMFreePoly1*
4,1,19,0.000000,0.744911,0.071157,0.744911,0.207708,0.704816,0.327430,0.627875,0.420627,0.520320,0.479746,0.390866,0.500000,0.250000,0.500000,-0.250000,0.479746,-0.390866,0.420627,-0.520320,0.327430,-0.627875,0.207708,-0.704816,0.071157,-0.744911,0.000000,-0.744911,0.000000,-0.750000,-0.500000,-0.750000,-0.500000,0.750000,0.000000,0.750000,0.000000,0.744911,0.000000,0.744911,
$1*%
G04 Aperture macros list end*
%ADD10C,0.100000*%
%ADD11C,0.150000*%
%ADD12C,0.120000*%
%ADD13R,1.800000X1.800000*%
%ADD14C,1.800000*%
%ADD15O,1.700000X1.700000*%
%ADD16R,1.700000X1.700000*%
%ADD17RoundRect,0.200000X-0.200000X-0.275000X0.200000X-0.275000X0.200000X0.275000X-0.200000X0.275000X0*%
%ADD18R,1.500000X1.500000*%
%ADD19RoundRect,0.150000X-0.587500X-0.150000X0.587500X-0.150000X0.587500X0.150000X-0.587500X0.150000X0*%
%ADD20FreePoly0,0.000000*%
%ADD21FreePoly1,0.000000*%
G04 APERTURE END LIST*
D10*
X135500000Y-43500000D02*
X135000000Y-43500000D01*
X134500000Y-42500000D01*
X135500000Y-43500000D01*
G36*
X135500000Y-43500000D02*
G01*
X135000000Y-43500000D01*
X134500000Y-42500000D01*
X135500000Y-43500000D01*
G37*
X135500000Y-44500000D02*
X134500000Y-43500000D01*
X135000000Y-43500000D01*
X135500000Y-44500000D01*
G36*
X135500000Y-44500000D02*
G01*
X134500000Y-43500000D01*
X135000000Y-43500000D01*
X135500000Y-44500000D01*
G37*
X136041979Y-44500038D02*
X136041979Y-42500038D01*
X136041979Y-42500038D02*
X136518169Y-42500038D01*
X136518169Y-42500038D02*
X136803884Y-42595276D01*
X136803884Y-42595276D02*
X136994360Y-42785752D01*
X136994360Y-42785752D02*
X137089598Y-42976228D01*
X137089598Y-42976228D02*
X137184836Y-43357180D01*
X137184836Y-43357180D02*
X137184836Y-43642895D01*
X137184836Y-43642895D02*
X137089598Y-44023847D01*
X137089598Y-44023847D02*
X136994360Y-44214323D01*
X136994360Y-44214323D02*
X136803884Y-44404800D01*
X136803884Y-44404800D02*
X136518169Y-44500038D01*
X136518169Y-44500038D02*
X136041979Y-44500038D01*
X100541979Y-44500038D02*
X100541979Y-42500038D01*
X100541979Y-42500038D02*
X101018169Y-42500038D01*
X101018169Y-42500038D02*
X101303884Y-42595276D01*
X101303884Y-42595276D02*
X101494360Y-42785752D01*
X101494360Y-42785752D02*
X101589598Y-42976228D01*
X101589598Y-42976228D02*
X101684836Y-43357180D01*
X101684836Y-43357180D02*
X101684836Y-43642895D01*
X101684836Y-43642895D02*
X101589598Y-44023847D01*
X101589598Y-44023847D02*
X101494360Y-44214323D01*
X101494360Y-44214323D02*
X101303884Y-44404800D01*
X101303884Y-44404800D02*
X101018169Y-44500038D01*
X101018169Y-44500038D02*
X100541979Y-44500038D01*
X100000000Y-44500000D02*
X99000000Y-43500000D01*
X99500000Y-43500000D01*
X100000000Y-44500000D01*
G36*
X100000000Y-44500000D02*
G01*
X99000000Y-43500000D01*
X99500000Y-43500000D01*
X100000000Y-44500000D01*
G37*
X100000000Y-43500000D02*
X99500000Y-43500000D01*
X99000000Y-42500000D01*
X100000000Y-43500000D01*
G36*
X100000000Y-43500000D02*
G01*
X99500000Y-43500000D01*
X99000000Y-42500000D01*
X100000000Y-43500000D01*
G37*
X81402390Y-47103885D02*
X81402390Y-46865790D01*
X81402390Y-46865790D02*
X81902390Y-46865790D01*
X81664295Y-47270552D02*
X81664295Y-47437219D01*
X81402390Y-47508647D02*
X81402390Y-47270552D01*
X81402390Y-47270552D02*
X81902390Y-47270552D01*
X81902390Y-47270552D02*
X81902390Y-47508647D01*
X81402390Y-47722933D02*
X81902390Y-47722933D01*
X81902390Y-47722933D02*
X81902390Y-47841981D01*
X81902390Y-47841981D02*
X81878580Y-47913409D01*
X81878580Y-47913409D02*
X81830961Y-47961028D01*
X81830961Y-47961028D02*
X81783342Y-47984838D01*
X81783342Y-47984838D02*
X81688104Y-48008647D01*
X81688104Y-48008647D02*
X81616676Y-48008647D01*
X81616676Y-48008647D02*
X81521438Y-47984838D01*
X81521438Y-47984838D02*
X81473819Y-47961028D01*
X81473819Y-47961028D02*
X81426200Y-47913409D01*
X81426200Y-47913409D02*
X81402390Y-47841981D01*
X81402390Y-47841981D02*
X81402390Y-47722933D01*
X81426200Y-48199124D02*
X81402390Y-48246743D01*
X81402390Y-48246743D02*
X81402390Y-48341981D01*
X81402390Y-48341981D02*
X81426200Y-48389600D01*
X81426200Y-48389600D02*
X81473819Y-48413409D01*
X81473819Y-48413409D02*
X81497628Y-48413409D01*
X81497628Y-48413409D02*
X81545247Y-48389600D01*
X81545247Y-48389600D02*
X81569057Y-48341981D01*
X81569057Y-48341981D02*
X81569057Y-48270552D01*
X81569057Y-48270552D02*
X81592866Y-48222933D01*
X81592866Y-48222933D02*
X81640485Y-48199124D01*
X81640485Y-48199124D02*
X81664295Y-48199124D01*
X81664295Y-48199124D02*
X81711914Y-48222933D01*
X81711914Y-48222933D02*
X81735723Y-48270552D01*
X81735723Y-48270552D02*
X81735723Y-48341981D01*
X81735723Y-48341981D02*
X81711914Y-48389600D01*
X81664295Y-49175314D02*
X81640485Y-49246742D01*
X81640485Y-49246742D02*
X81616676Y-49270552D01*
X81616676Y-49270552D02*
X81569057Y-49294361D01*
X81569057Y-49294361D02*
X81497628Y-49294361D01*
X81497628Y-49294361D02*
X81450009Y-49270552D01*
X81450009Y-49270552D02*
X81426200Y-49246742D01*
X81426200Y-49246742D02*
X81402390Y-49199123D01*
X81402390Y-49199123D02*
X81402390Y-49008647D01*
X81402390Y-49008647D02*
X81902390Y-49008647D01*
X81902390Y-49008647D02*
X81902390Y-49175314D01*
X81902390Y-49175314D02*
X81878580Y-49222933D01*
X81878580Y-49222933D02*
X81854771Y-49246742D01*
X81854771Y-49246742D02*
X81807152Y-49270552D01*
X81807152Y-49270552D02*
X81759533Y-49270552D01*
X81759533Y-49270552D02*
X81711914Y-49246742D01*
X81711914Y-49246742D02*
X81688104Y-49222933D01*
X81688104Y-49222933D02*
X81664295Y-49175314D01*
X81664295Y-49175314D02*
X81664295Y-49008647D01*
X81426200Y-49699123D02*
X81402390Y-49651504D01*
X81402390Y-49651504D02*
X81402390Y-49556266D01*
X81402390Y-49556266D02*
X81426200Y-49508647D01*
X81426200Y-49508647D02*
X81473819Y-49484838D01*
X81473819Y-49484838D02*
X81664295Y-49484838D01*
X81664295Y-49484838D02*
X81711914Y-49508647D01*
X81711914Y-49508647D02*
X81735723Y-49556266D01*
X81735723Y-49556266D02*
X81735723Y-49651504D01*
X81735723Y-49651504D02*
X81711914Y-49699123D01*
X81711914Y-49699123D02*
X81664295Y-49722933D01*
X81664295Y-49722933D02*
X81616676Y-49722933D01*
X81616676Y-49722933D02*
X81569057Y-49484838D01*
X81735723Y-49937218D02*
X81402390Y-49937218D01*
X81688104Y-49937218D02*
X81711914Y-49961028D01*
X81711914Y-49961028D02*
X81735723Y-50008647D01*
X81735723Y-50008647D02*
X81735723Y-50080075D01*
X81735723Y-50080075D02*
X81711914Y-50127694D01*
X81711914Y-50127694D02*
X81664295Y-50151504D01*
X81664295Y-50151504D02*
X81402390Y-50151504D01*
X81735723Y-50318171D02*
X81735723Y-50508647D01*
X81902390Y-50389599D02*
X81473819Y-50389599D01*
X81473819Y-50389599D02*
X81426200Y-50413409D01*
X81426200Y-50413409D02*
X81402390Y-50461028D01*
X81402390Y-50461028D02*
X81402390Y-50508647D01*
X81735723Y-50984837D02*
X81735723Y-51175313D01*
X81902390Y-51056265D02*
X81473819Y-51056265D01*
X81473819Y-51056265D02*
X81426200Y-51080075D01*
X81426200Y-51080075D02*
X81402390Y-51127694D01*
X81402390Y-51127694D02*
X81402390Y-51175313D01*
X81402390Y-51341979D02*
X81902390Y-51341979D01*
X81402390Y-51556265D02*
X81664295Y-51556265D01*
X81664295Y-51556265D02*
X81711914Y-51532455D01*
X81711914Y-51532455D02*
X81735723Y-51484836D01*
X81735723Y-51484836D02*
X81735723Y-51413408D01*
X81735723Y-51413408D02*
X81711914Y-51365789D01*
X81711914Y-51365789D02*
X81688104Y-51341979D01*
X81402390Y-51794360D02*
X81735723Y-51794360D01*
X81902390Y-51794360D02*
X81878580Y-51770551D01*
X81878580Y-51770551D02*
X81854771Y-51794360D01*
X81854771Y-51794360D02*
X81878580Y-51818170D01*
X81878580Y-51818170D02*
X81902390Y-51794360D01*
X81902390Y-51794360D02*
X81854771Y-51794360D01*
X81426200Y-52008646D02*
X81402390Y-52056265D01*
X81402390Y-52056265D02*
X81402390Y-52151503D01*
X81402390Y-52151503D02*
X81426200Y-52199122D01*
X81426200Y-52199122D02*
X81473819Y-52222931D01*
X81473819Y-52222931D02*
X81497628Y-52222931D01*
X81497628Y-52222931D02*
X81545247Y-52199122D01*
X81545247Y-52199122D02*
X81569057Y-52151503D01*
X81569057Y-52151503D02*
X81569057Y-52080074D01*
X81569057Y-52080074D02*
X81592866Y-52032455D01*
X81592866Y-52032455D02*
X81640485Y-52008646D01*
X81640485Y-52008646D02*
X81664295Y-52008646D01*
X81664295Y-52008646D02*
X81711914Y-52032455D01*
X81711914Y-52032455D02*
X81735723Y-52080074D01*
X81735723Y-52080074D02*
X81735723Y-52151503D01*
X81735723Y-52151503D02*
X81711914Y-52199122D01*
X81735723Y-52770550D02*
X81402390Y-52865788D01*
X81402390Y-52865788D02*
X81640485Y-52961026D01*
X81640485Y-52961026D02*
X81402390Y-53056264D01*
X81402390Y-53056264D02*
X81735723Y-53151502D01*
X81402390Y-53556265D02*
X81664295Y-53556265D01*
X81664295Y-53556265D02*
X81711914Y-53532455D01*
X81711914Y-53532455D02*
X81735723Y-53484836D01*
X81735723Y-53484836D02*
X81735723Y-53389598D01*
X81735723Y-53389598D02*
X81711914Y-53341979D01*
X81426200Y-53556265D02*
X81402390Y-53508646D01*
X81402390Y-53508646D02*
X81402390Y-53389598D01*
X81402390Y-53389598D02*
X81426200Y-53341979D01*
X81426200Y-53341979D02*
X81473819Y-53318170D01*
X81473819Y-53318170D02*
X81521438Y-53318170D01*
X81521438Y-53318170D02*
X81569057Y-53341979D01*
X81569057Y-53341979D02*
X81592866Y-53389598D01*
X81592866Y-53389598D02*
X81592866Y-53508646D01*
X81592866Y-53508646D02*
X81616676Y-53556265D01*
X81735723Y-53746741D02*
X81402390Y-53865789D01*
X81735723Y-53984836D02*
X81402390Y-53865789D01*
X81402390Y-53865789D02*
X81283342Y-53818170D01*
X81283342Y-53818170D02*
X81259533Y-53794360D01*
X81259533Y-53794360D02*
X81235723Y-53746741D01*
X81735723Y-54556264D02*
X81235723Y-54556264D01*
X81711914Y-54556264D02*
X81735723Y-54603883D01*
X81735723Y-54603883D02*
X81735723Y-54699121D01*
X81735723Y-54699121D02*
X81711914Y-54746740D01*
X81711914Y-54746740D02*
X81688104Y-54770550D01*
X81688104Y-54770550D02*
X81640485Y-54794359D01*
X81640485Y-54794359D02*
X81497628Y-54794359D01*
X81497628Y-54794359D02*
X81450009Y-54770550D01*
X81450009Y-54770550D02*
X81426200Y-54746740D01*
X81426200Y-54746740D02*
X81402390Y-54699121D01*
X81402390Y-54699121D02*
X81402390Y-54603883D01*
X81402390Y-54603883D02*
X81426200Y-54556264D01*
X81402390Y-55080074D02*
X81426200Y-55032455D01*
X81426200Y-55032455D02*
X81473819Y-55008645D01*
X81473819Y-55008645D02*
X81902390Y-55008645D01*
X81426200Y-55461026D02*
X81402390Y-55413407D01*
X81402390Y-55413407D02*
X81402390Y-55318169D01*
X81402390Y-55318169D02*
X81426200Y-55270550D01*
X81426200Y-55270550D02*
X81473819Y-55246741D01*
X81473819Y-55246741D02*
X81664295Y-55246741D01*
X81664295Y-55246741D02*
X81711914Y-55270550D01*
X81711914Y-55270550D02*
X81735723Y-55318169D01*
X81735723Y-55318169D02*
X81735723Y-55413407D01*
X81735723Y-55413407D02*
X81711914Y-55461026D01*
X81711914Y-55461026D02*
X81664295Y-55484836D01*
X81664295Y-55484836D02*
X81616676Y-55484836D01*
X81616676Y-55484836D02*
X81569057Y-55246741D01*
X81402390Y-55913407D02*
X81664295Y-55913407D01*
X81664295Y-55913407D02*
X81711914Y-55889597D01*
X81711914Y-55889597D02*
X81735723Y-55841978D01*
X81735723Y-55841978D02*
X81735723Y-55746740D01*
X81735723Y-55746740D02*
X81711914Y-55699121D01*
X81426200Y-55913407D02*
X81402390Y-55865788D01*
X81402390Y-55865788D02*
X81402390Y-55746740D01*
X81402390Y-55746740D02*
X81426200Y-55699121D01*
X81426200Y-55699121D02*
X81473819Y-55675312D01*
X81473819Y-55675312D02*
X81521438Y-55675312D01*
X81521438Y-55675312D02*
X81569057Y-55699121D01*
X81569057Y-55699121D02*
X81592866Y-55746740D01*
X81592866Y-55746740D02*
X81592866Y-55865788D01*
X81592866Y-55865788D02*
X81616676Y-55913407D01*
X81426200Y-56127693D02*
X81402390Y-56175312D01*
X81402390Y-56175312D02*
X81402390Y-56270550D01*
X81402390Y-56270550D02*
X81426200Y-56318169D01*
X81426200Y-56318169D02*
X81473819Y-56341978D01*
X81473819Y-56341978D02*
X81497628Y-56341978D01*
X81497628Y-56341978D02*
X81545247Y-56318169D01*
X81545247Y-56318169D02*
X81569057Y-56270550D01*
X81569057Y-56270550D02*
X81569057Y-56199121D01*
X81569057Y-56199121D02*
X81592866Y-56151502D01*
X81592866Y-56151502D02*
X81640485Y-56127693D01*
X81640485Y-56127693D02*
X81664295Y-56127693D01*
X81664295Y-56127693D02*
X81711914Y-56151502D01*
X81711914Y-56151502D02*
X81735723Y-56199121D01*
X81735723Y-56199121D02*
X81735723Y-56270550D01*
X81735723Y-56270550D02*
X81711914Y-56318169D01*
X81426200Y-56746740D02*
X81402390Y-56699121D01*
X81402390Y-56699121D02*
X81402390Y-56603883D01*
X81402390Y-56603883D02*
X81426200Y-56556264D01*
X81426200Y-56556264D02*
X81473819Y-56532455D01*
X81473819Y-56532455D02*
X81664295Y-56532455D01*
X81664295Y-56532455D02*
X81711914Y-56556264D01*
X81711914Y-56556264D02*
X81735723Y-56603883D01*
X81735723Y-56603883D02*
X81735723Y-56699121D01*
X81735723Y-56699121D02*
X81711914Y-56746740D01*
X81711914Y-56746740D02*
X81664295Y-56770550D01*
X81664295Y-56770550D02*
X81616676Y-56770550D01*
X81616676Y-56770550D02*
X81569057Y-56532455D01*
X80000000Y-52000000D02*
X80500000Y-51500000D01*
X80500000Y-51500000D02*
X80000000Y-52000000D01*
X80000000Y-52000000D02*
X80500000Y-52500000D01*
X80500000Y-52000000D02*
X80000000Y-52000000D01*
X80500000Y-52000000D02*
X81000000Y-52000000D01*
X123000000Y-42500000D02*
X123500000Y-43000000D01*
X123500000Y-43000000D02*
X123000000Y-42500000D01*
X123000000Y-42500000D02*
X122500000Y-43000000D01*
X123000000Y-43000000D02*
X123000000Y-42500000D01*
X123000000Y-43000000D02*
X123000000Y-43500000D01*
X116000000Y-42500000D02*
X116500000Y-43000000D01*
X116500000Y-43000000D02*
X116000000Y-42500000D01*
X116000000Y-42500000D02*
X115500000Y-43000000D01*
X116000000Y-43000000D02*
X116000000Y-42500000D01*
X116000000Y-43000000D02*
X116000000Y-43500000D01*
X123904591Y-41574865D02*
X124142686Y-41574865D01*
X124142686Y-41574865D02*
X124142686Y-42074865D01*
X123737924Y-41836770D02*
X123571257Y-41836770D01*
X123499829Y-41574865D02*
X123737924Y-41574865D01*
X123737924Y-41574865D02*
X123737924Y-42074865D01*
X123737924Y-42074865D02*
X123499829Y-42074865D01*
X123285543Y-41574865D02*
X123285543Y-42074865D01*
X123285543Y-42074865D02*
X123166495Y-42074865D01*
X123166495Y-42074865D02*
X123095067Y-42051055D01*
X123095067Y-42051055D02*
X123047448Y-42003436D01*
X123047448Y-42003436D02*
X123023638Y-41955817D01*
X123023638Y-41955817D02*
X122999829Y-41860579D01*
X122999829Y-41860579D02*
X122999829Y-41789151D01*
X122999829Y-41789151D02*
X123023638Y-41693913D01*
X123023638Y-41693913D02*
X123047448Y-41646294D01*
X123047448Y-41646294D02*
X123095067Y-41598675D01*
X123095067Y-41598675D02*
X123166495Y-41574865D01*
X123166495Y-41574865D02*
X123285543Y-41574865D01*
X122809352Y-41598675D02*
X122761733Y-41574865D01*
X122761733Y-41574865D02*
X122666495Y-41574865D01*
X122666495Y-41574865D02*
X122618876Y-41598675D01*
X122618876Y-41598675D02*
X122595067Y-41646294D01*
X122595067Y-41646294D02*
X122595067Y-41670103D01*
X122595067Y-41670103D02*
X122618876Y-41717722D01*
X122618876Y-41717722D02*
X122666495Y-41741532D01*
X122666495Y-41741532D02*
X122737924Y-41741532D01*
X122737924Y-41741532D02*
X122785543Y-41765341D01*
X122785543Y-41765341D02*
X122809352Y-41812960D01*
X122809352Y-41812960D02*
X122809352Y-41836770D01*
X122809352Y-41836770D02*
X122785543Y-41884389D01*
X122785543Y-41884389D02*
X122737924Y-41908198D01*
X122737924Y-41908198D02*
X122666495Y-41908198D01*
X122666495Y-41908198D02*
X122618876Y-41884389D01*
X121833162Y-41836770D02*
X121761734Y-41812960D01*
X121761734Y-41812960D02*
X121737924Y-41789151D01*
X121737924Y-41789151D02*
X121714115Y-41741532D01*
X121714115Y-41741532D02*
X121714115Y-41670103D01*
X121714115Y-41670103D02*
X121737924Y-41622484D01*
X121737924Y-41622484D02*
X121761734Y-41598675D01*
X121761734Y-41598675D02*
X121809353Y-41574865D01*
X121809353Y-41574865D02*
X121999829Y-41574865D01*
X121999829Y-41574865D02*
X121999829Y-42074865D01*
X121999829Y-42074865D02*
X121833162Y-42074865D01*
X121833162Y-42074865D02*
X121785543Y-42051055D01*
X121785543Y-42051055D02*
X121761734Y-42027246D01*
X121761734Y-42027246D02*
X121737924Y-41979627D01*
X121737924Y-41979627D02*
X121737924Y-41932008D01*
X121737924Y-41932008D02*
X121761734Y-41884389D01*
X121761734Y-41884389D02*
X121785543Y-41860579D01*
X121785543Y-41860579D02*
X121833162Y-41836770D01*
X121833162Y-41836770D02*
X121999829Y-41836770D01*
X121309353Y-41598675D02*
X121356972Y-41574865D01*
X121356972Y-41574865D02*
X121452210Y-41574865D01*
X121452210Y-41574865D02*
X121499829Y-41598675D01*
X121499829Y-41598675D02*
X121523638Y-41646294D01*
X121523638Y-41646294D02*
X121523638Y-41836770D01*
X121523638Y-41836770D02*
X121499829Y-41884389D01*
X121499829Y-41884389D02*
X121452210Y-41908198D01*
X121452210Y-41908198D02*
X121356972Y-41908198D01*
X121356972Y-41908198D02*
X121309353Y-41884389D01*
X121309353Y-41884389D02*
X121285543Y-41836770D01*
X121285543Y-41836770D02*
X121285543Y-41789151D01*
X121285543Y-41789151D02*
X121523638Y-41741532D01*
X121071258Y-41908198D02*
X121071258Y-41574865D01*
X121071258Y-41860579D02*
X121047448Y-41884389D01*
X121047448Y-41884389D02*
X120999829Y-41908198D01*
X120999829Y-41908198D02*
X120928401Y-41908198D01*
X120928401Y-41908198D02*
X120880782Y-41884389D01*
X120880782Y-41884389D02*
X120856972Y-41836770D01*
X120856972Y-41836770D02*
X120856972Y-41574865D01*
X120690305Y-41908198D02*
X120499829Y-41908198D01*
X120618877Y-42074865D02*
X120618877Y-41646294D01*
X120618877Y-41646294D02*
X120595067Y-41598675D01*
X120595067Y-41598675D02*
X120547448Y-41574865D01*
X120547448Y-41574865D02*
X120499829Y-41574865D01*
X120023639Y-41908198D02*
X119833163Y-41908198D01*
X119952211Y-42074865D02*
X119952211Y-41646294D01*
X119952211Y-41646294D02*
X119928401Y-41598675D01*
X119928401Y-41598675D02*
X119880782Y-41574865D01*
X119880782Y-41574865D02*
X119833163Y-41574865D01*
X119666497Y-41574865D02*
X119666497Y-42074865D01*
X119452211Y-41574865D02*
X119452211Y-41836770D01*
X119452211Y-41836770D02*
X119476021Y-41884389D01*
X119476021Y-41884389D02*
X119523640Y-41908198D01*
X119523640Y-41908198D02*
X119595068Y-41908198D01*
X119595068Y-41908198D02*
X119642687Y-41884389D01*
X119642687Y-41884389D02*
X119666497Y-41860579D01*
X119214116Y-41574865D02*
X119214116Y-41908198D01*
X119214116Y-42074865D02*
X119237925Y-42051055D01*
X119237925Y-42051055D02*
X119214116Y-42027246D01*
X119214116Y-42027246D02*
X119190306Y-42051055D01*
X119190306Y-42051055D02*
X119214116Y-42074865D01*
X119214116Y-42074865D02*
X119214116Y-42027246D01*
X118999830Y-41598675D02*
X118952211Y-41574865D01*
X118952211Y-41574865D02*
X118856973Y-41574865D01*
X118856973Y-41574865D02*
X118809354Y-41598675D01*
X118809354Y-41598675D02*
X118785545Y-41646294D01*
X118785545Y-41646294D02*
X118785545Y-41670103D01*
X118785545Y-41670103D02*
X118809354Y-41717722D01*
X118809354Y-41717722D02*
X118856973Y-41741532D01*
X118856973Y-41741532D02*
X118928402Y-41741532D01*
X118928402Y-41741532D02*
X118976021Y-41765341D01*
X118976021Y-41765341D02*
X118999830Y-41812960D01*
X118999830Y-41812960D02*
X118999830Y-41836770D01*
X118999830Y-41836770D02*
X118976021Y-41884389D01*
X118976021Y-41884389D02*
X118928402Y-41908198D01*
X118928402Y-41908198D02*
X118856973Y-41908198D01*
X118856973Y-41908198D02*
X118809354Y-41884389D01*
X118237926Y-41908198D02*
X118142688Y-41574865D01*
X118142688Y-41574865D02*
X118047450Y-41812960D01*
X118047450Y-41812960D02*
X117952212Y-41574865D01*
X117952212Y-41574865D02*
X117856974Y-41908198D01*
X117452211Y-41574865D02*
X117452211Y-41836770D01*
X117452211Y-41836770D02*
X117476021Y-41884389D01*
X117476021Y-41884389D02*
X117523640Y-41908198D01*
X117523640Y-41908198D02*
X117618878Y-41908198D01*
X117618878Y-41908198D02*
X117666497Y-41884389D01*
X117452211Y-41598675D02*
X117499830Y-41574865D01*
X117499830Y-41574865D02*
X117618878Y-41574865D01*
X117618878Y-41574865D02*
X117666497Y-41598675D01*
X117666497Y-41598675D02*
X117690306Y-41646294D01*
X117690306Y-41646294D02*
X117690306Y-41693913D01*
X117690306Y-41693913D02*
X117666497Y-41741532D01*
X117666497Y-41741532D02*
X117618878Y-41765341D01*
X117618878Y-41765341D02*
X117499830Y-41765341D01*
X117499830Y-41765341D02*
X117452211Y-41789151D01*
X117261735Y-41908198D02*
X117142687Y-41574865D01*
X117023640Y-41908198D02*
X117142687Y-41574865D01*
X117142687Y-41574865D02*
X117190306Y-41455817D01*
X117190306Y-41455817D02*
X117214116Y-41432008D01*
X117214116Y-41432008D02*
X117261735Y-41408198D01*
X116452212Y-41908198D02*
X116452212Y-41408198D01*
X116452212Y-41884389D02*
X116404593Y-41908198D01*
X116404593Y-41908198D02*
X116309355Y-41908198D01*
X116309355Y-41908198D02*
X116261736Y-41884389D01*
X116261736Y-41884389D02*
X116237926Y-41860579D01*
X116237926Y-41860579D02*
X116214117Y-41812960D01*
X116214117Y-41812960D02*
X116214117Y-41670103D01*
X116214117Y-41670103D02*
X116237926Y-41622484D01*
X116237926Y-41622484D02*
X116261736Y-41598675D01*
X116261736Y-41598675D02*
X116309355Y-41574865D01*
X116309355Y-41574865D02*
X116404593Y-41574865D01*
X116404593Y-41574865D02*
X116452212Y-41598675D01*
X115928402Y-41574865D02*
X115976021Y-41598675D01*
X115976021Y-41598675D02*
X115999831Y-41646294D01*
X115999831Y-41646294D02*
X115999831Y-42074865D01*
X115547450Y-41598675D02*
X115595069Y-41574865D01*
X115595069Y-41574865D02*
X115690307Y-41574865D01*
X115690307Y-41574865D02*
X115737926Y-41598675D01*
X115737926Y-41598675D02*
X115761735Y-41646294D01*
X115761735Y-41646294D02*
X115761735Y-41836770D01*
X115761735Y-41836770D02*
X115737926Y-41884389D01*
X115737926Y-41884389D02*
X115690307Y-41908198D01*
X115690307Y-41908198D02*
X115595069Y-41908198D01*
X115595069Y-41908198D02*
X115547450Y-41884389D01*
X115547450Y-41884389D02*
X115523640Y-41836770D01*
X115523640Y-41836770D02*
X115523640Y-41789151D01*
X115523640Y-41789151D02*
X115761735Y-41741532D01*
X115095069Y-41574865D02*
X115095069Y-41836770D01*
X115095069Y-41836770D02*
X115118879Y-41884389D01*
X115118879Y-41884389D02*
X115166498Y-41908198D01*
X115166498Y-41908198D02*
X115261736Y-41908198D01*
X115261736Y-41908198D02*
X115309355Y-41884389D01*
X115095069Y-41598675D02*
X115142688Y-41574865D01*
X115142688Y-41574865D02*
X115261736Y-41574865D01*
X115261736Y-41574865D02*
X115309355Y-41598675D01*
X115309355Y-41598675D02*
X115333164Y-41646294D01*
X115333164Y-41646294D02*
X115333164Y-41693913D01*
X115333164Y-41693913D02*
X115309355Y-41741532D01*
X115309355Y-41741532D02*
X115261736Y-41765341D01*
X115261736Y-41765341D02*
X115142688Y-41765341D01*
X115142688Y-41765341D02*
X115095069Y-41789151D01*
X114880783Y-41598675D02*
X114833164Y-41574865D01*
X114833164Y-41574865D02*
X114737926Y-41574865D01*
X114737926Y-41574865D02*
X114690307Y-41598675D01*
X114690307Y-41598675D02*
X114666498Y-41646294D01*
X114666498Y-41646294D02*
X114666498Y-41670103D01*
X114666498Y-41670103D02*
X114690307Y-41717722D01*
X114690307Y-41717722D02*
X114737926Y-41741532D01*
X114737926Y-41741532D02*
X114809355Y-41741532D01*
X114809355Y-41741532D02*
X114856974Y-41765341D01*
X114856974Y-41765341D02*
X114880783Y-41812960D01*
X114880783Y-41812960D02*
X114880783Y-41836770D01*
X114880783Y-41836770D02*
X114856974Y-41884389D01*
X114856974Y-41884389D02*
X114809355Y-41908198D01*
X114809355Y-41908198D02*
X114737926Y-41908198D01*
X114737926Y-41908198D02*
X114690307Y-41884389D01*
X114261736Y-41598675D02*
X114309355Y-41574865D01*
X114309355Y-41574865D02*
X114404593Y-41574865D01*
X114404593Y-41574865D02*
X114452212Y-41598675D01*
X114452212Y-41598675D02*
X114476021Y-41646294D01*
X114476021Y-41646294D02*
X114476021Y-41836770D01*
X114476021Y-41836770D02*
X114452212Y-41884389D01*
X114452212Y-41884389D02*
X114404593Y-41908198D01*
X114404593Y-41908198D02*
X114309355Y-41908198D01*
X114309355Y-41908198D02*
X114261736Y-41884389D01*
X114261736Y-41884389D02*
X114237926Y-41836770D01*
X114237926Y-41836770D02*
X114237926Y-41789151D01*
X114237926Y-41789151D02*
X114476021Y-41741532D01*
X158500000Y-51000000D02*
X158000000Y-51000000D01*
X159000000Y-51000000D02*
X158500000Y-50500000D01*
X158500000Y-51500000D02*
X159000000Y-51000000D01*
X159000000Y-51000000D02*
X158500000Y-51500000D01*
X158500000Y-51000000D02*
X159000000Y-51000000D01*
X157433609Y-56077068D02*
X157433609Y-56315163D01*
X157433609Y-56315163D02*
X156933609Y-56315163D01*
X157171704Y-55910401D02*
X157171704Y-55743734D01*
X157433609Y-55672306D02*
X157433609Y-55910401D01*
X157433609Y-55910401D02*
X156933609Y-55910401D01*
X156933609Y-55910401D02*
X156933609Y-55672306D01*
X157433609Y-55458020D02*
X156933609Y-55458020D01*
X156933609Y-55458020D02*
X156933609Y-55338972D01*
X156933609Y-55338972D02*
X156957419Y-55267544D01*
X156957419Y-55267544D02*
X157005038Y-55219925D01*
X157005038Y-55219925D02*
X157052657Y-55196115D01*
X157052657Y-55196115D02*
X157147895Y-55172306D01*
X157147895Y-55172306D02*
X157219323Y-55172306D01*
X157219323Y-55172306D02*
X157314561Y-55196115D01*
X157314561Y-55196115D02*
X157362180Y-55219925D01*
X157362180Y-55219925D02*
X157409800Y-55267544D01*
X157409800Y-55267544D02*
X157433609Y-55338972D01*
X157433609Y-55338972D02*
X157433609Y-55458020D01*
X157409800Y-54981829D02*
X157433609Y-54934210D01*
X157433609Y-54934210D02*
X157433609Y-54838972D01*
X157433609Y-54838972D02*
X157409800Y-54791353D01*
X157409800Y-54791353D02*
X157362180Y-54767544D01*
X157362180Y-54767544D02*
X157338371Y-54767544D01*
X157338371Y-54767544D02*
X157290752Y-54791353D01*
X157290752Y-54791353D02*
X157266942Y-54838972D01*
X157266942Y-54838972D02*
X157266942Y-54910401D01*
X157266942Y-54910401D02*
X157243133Y-54958020D01*
X157243133Y-54958020D02*
X157195514Y-54981829D01*
X157195514Y-54981829D02*
X157171704Y-54981829D01*
X157171704Y-54981829D02*
X157124085Y-54958020D01*
X157124085Y-54958020D02*
X157100276Y-54910401D01*
X157100276Y-54910401D02*
X157100276Y-54838972D01*
X157100276Y-54838972D02*
X157124085Y-54791353D01*
X157171704Y-54005639D02*
X157195514Y-53934211D01*
X157195514Y-53934211D02*
X157219323Y-53910401D01*
X157219323Y-53910401D02*
X157266942Y-53886592D01*
X157266942Y-53886592D02*
X157338371Y-53886592D01*
X157338371Y-53886592D02*
X157385990Y-53910401D01*
X157385990Y-53910401D02*
X157409800Y-53934211D01*
X157409800Y-53934211D02*
X157433609Y-53981830D01*
X157433609Y-53981830D02*
X157433609Y-54172306D01*
X157433609Y-54172306D02*
X156933609Y-54172306D01*
X156933609Y-54172306D02*
X156933609Y-54005639D01*
X156933609Y-54005639D02*
X156957419Y-53958020D01*
X156957419Y-53958020D02*
X156981228Y-53934211D01*
X156981228Y-53934211D02*
X157028847Y-53910401D01*
X157028847Y-53910401D02*
X157076466Y-53910401D01*
X157076466Y-53910401D02*
X157124085Y-53934211D01*
X157124085Y-53934211D02*
X157147895Y-53958020D01*
X157147895Y-53958020D02*
X157171704Y-54005639D01*
X157171704Y-54005639D02*
X157171704Y-54172306D01*
X157409800Y-53481830D02*
X157433609Y-53529449D01*
X157433609Y-53529449D02*
X157433609Y-53624687D01*
X157433609Y-53624687D02*
X157409800Y-53672306D01*
X157409800Y-53672306D02*
X157362180Y-53696115D01*
X157362180Y-53696115D02*
X157171704Y-53696115D01*
X157171704Y-53696115D02*
X157124085Y-53672306D01*
X157124085Y-53672306D02*
X157100276Y-53624687D01*
X157100276Y-53624687D02*
X157100276Y-53529449D01*
X157100276Y-53529449D02*
X157124085Y-53481830D01*
X157124085Y-53481830D02*
X157171704Y-53458020D01*
X157171704Y-53458020D02*
X157219323Y-53458020D01*
X157219323Y-53458020D02*
X157266942Y-53696115D01*
X157100276Y-53243735D02*
X157433609Y-53243735D01*
X157147895Y-53243735D02*
X157124085Y-53219925D01*
X157124085Y-53219925D02*
X157100276Y-53172306D01*
X157100276Y-53172306D02*
X157100276Y-53100878D01*
X157100276Y-53100878D02*
X157124085Y-53053259D01*
X157124085Y-53053259D02*
X157171704Y-53029449D01*
X157171704Y-53029449D02*
X157433609Y-53029449D01*
X157100276Y-52862782D02*
X157100276Y-52672306D01*
X156933609Y-52791354D02*
X157362180Y-52791354D01*
X157362180Y-52791354D02*
X157409800Y-52767544D01*
X157409800Y-52767544D02*
X157433609Y-52719925D01*
X157433609Y-52719925D02*
X157433609Y-52672306D01*
X157100276Y-52196116D02*
X157100276Y-52005640D01*
X156933609Y-52124688D02*
X157362180Y-52124688D01*
X157362180Y-52124688D02*
X157409800Y-52100878D01*
X157409800Y-52100878D02*
X157433609Y-52053259D01*
X157433609Y-52053259D02*
X157433609Y-52005640D01*
X157433609Y-51838974D02*
X156933609Y-51838974D01*
X157433609Y-51624688D02*
X157171704Y-51624688D01*
X157171704Y-51624688D02*
X157124085Y-51648498D01*
X157124085Y-51648498D02*
X157100276Y-51696117D01*
X157100276Y-51696117D02*
X157100276Y-51767545D01*
X157100276Y-51767545D02*
X157124085Y-51815164D01*
X157124085Y-51815164D02*
X157147895Y-51838974D01*
X157433609Y-51386593D02*
X157100276Y-51386593D01*
X156933609Y-51386593D02*
X156957419Y-51410402D01*
X156957419Y-51410402D02*
X156981228Y-51386593D01*
X156981228Y-51386593D02*
X156957419Y-51362783D01*
X156957419Y-51362783D02*
X156933609Y-51386593D01*
X156933609Y-51386593D02*
X156981228Y-51386593D01*
X157409800Y-51172307D02*
X157433609Y-51124688D01*
X157433609Y-51124688D02*
X157433609Y-51029450D01*
X157433609Y-51029450D02*
X157409800Y-50981831D01*
X157409800Y-50981831D02*
X157362180Y-50958022D01*
X157362180Y-50958022D02*
X157338371Y-50958022D01*
X157338371Y-50958022D02*
X157290752Y-50981831D01*
X157290752Y-50981831D02*
X157266942Y-51029450D01*
X157266942Y-51029450D02*
X157266942Y-51100879D01*
X157266942Y-51100879D02*
X157243133Y-51148498D01*
X157243133Y-51148498D02*
X157195514Y-51172307D01*
X157195514Y-51172307D02*
X157171704Y-51172307D01*
X157171704Y-51172307D02*
X157124085Y-51148498D01*
X157124085Y-51148498D02*
X157100276Y-51100879D01*
X157100276Y-51100879D02*
X157100276Y-51029450D01*
X157100276Y-51029450D02*
X157124085Y-50981831D01*
X157100276Y-50410403D02*
X157433609Y-50315165D01*
X157433609Y-50315165D02*
X157195514Y-50219927D01*
X157195514Y-50219927D02*
X157433609Y-50124689D01*
X157433609Y-50124689D02*
X157100276Y-50029451D01*
X157433609Y-49624688D02*
X157171704Y-49624688D01*
X157171704Y-49624688D02*
X157124085Y-49648498D01*
X157124085Y-49648498D02*
X157100276Y-49696117D01*
X157100276Y-49696117D02*
X157100276Y-49791355D01*
X157100276Y-49791355D02*
X157124085Y-49838974D01*
X157409800Y-49624688D02*
X157433609Y-49672307D01*
X157433609Y-49672307D02*
X157433609Y-49791355D01*
X157433609Y-49791355D02*
X157409800Y-49838974D01*
X157409800Y-49838974D02*
X157362180Y-49862783D01*
X157362180Y-49862783D02*
X157314561Y-49862783D01*
X157314561Y-49862783D02*
X157266942Y-49838974D01*
X157266942Y-49838974D02*
X157243133Y-49791355D01*
X157243133Y-49791355D02*
X157243133Y-49672307D01*
X157243133Y-49672307D02*
X157219323Y-49624688D01*
X157100276Y-49434212D02*
X157433609Y-49315164D01*
X157100276Y-49196117D02*
X157433609Y-49315164D01*
X157433609Y-49315164D02*
X157552657Y-49362783D01*
X157552657Y-49362783D02*
X157576466Y-49386593D01*
X157576466Y-49386593D02*
X157600276Y-49434212D01*
X157100276Y-48624689D02*
X157600276Y-48624689D01*
X157124085Y-48624689D02*
X157100276Y-48577070D01*
X157100276Y-48577070D02*
X157100276Y-48481832D01*
X157100276Y-48481832D02*
X157124085Y-48434213D01*
X157124085Y-48434213D02*
X157147895Y-48410403D01*
X157147895Y-48410403D02*
X157195514Y-48386594D01*
X157195514Y-48386594D02*
X157338371Y-48386594D01*
X157338371Y-48386594D02*
X157385990Y-48410403D01*
X157385990Y-48410403D02*
X157409800Y-48434213D01*
X157409800Y-48434213D02*
X157433609Y-48481832D01*
X157433609Y-48481832D02*
X157433609Y-48577070D01*
X157433609Y-48577070D02*
X157409800Y-48624689D01*
X157433609Y-48100879D02*
X157409800Y-48148498D01*
X157409800Y-48148498D02*
X157362180Y-48172308D01*
X157362180Y-48172308D02*
X156933609Y-48172308D01*
X157409800Y-47719927D02*
X157433609Y-47767546D01*
X157433609Y-47767546D02*
X157433609Y-47862784D01*
X157433609Y-47862784D02*
X157409800Y-47910403D01*
X157409800Y-47910403D02*
X157362180Y-47934212D01*
X157362180Y-47934212D02*
X157171704Y-47934212D01*
X157171704Y-47934212D02*
X157124085Y-47910403D01*
X157124085Y-47910403D02*
X157100276Y-47862784D01*
X157100276Y-47862784D02*
X157100276Y-47767546D01*
X157100276Y-47767546D02*
X157124085Y-47719927D01*
X157124085Y-47719927D02*
X157171704Y-47696117D01*
X157171704Y-47696117D02*
X157219323Y-47696117D01*
X157219323Y-47696117D02*
X157266942Y-47934212D01*
X157433609Y-47267546D02*
X157171704Y-47267546D01*
X157171704Y-47267546D02*
X157124085Y-47291356D01*
X157124085Y-47291356D02*
X157100276Y-47338975D01*
X157100276Y-47338975D02*
X157100276Y-47434213D01*
X157100276Y-47434213D02*
X157124085Y-47481832D01*
X157409800Y-47267546D02*
X157433609Y-47315165D01*
X157433609Y-47315165D02*
X157433609Y-47434213D01*
X157433609Y-47434213D02*
X157409800Y-47481832D01*
X157409800Y-47481832D02*
X157362180Y-47505641D01*
X157362180Y-47505641D02*
X157314561Y-47505641D01*
X157314561Y-47505641D02*
X157266942Y-47481832D01*
X157266942Y-47481832D02*
X157243133Y-47434213D01*
X157243133Y-47434213D02*
X157243133Y-47315165D01*
X157243133Y-47315165D02*
X157219323Y-47267546D01*
X157409800Y-47053260D02*
X157433609Y-47005641D01*
X157433609Y-47005641D02*
X157433609Y-46910403D01*
X157433609Y-46910403D02*
X157409800Y-46862784D01*
X157409800Y-46862784D02*
X157362180Y-46838975D01*
X157362180Y-46838975D02*
X157338371Y-46838975D01*
X157338371Y-46838975D02*
X157290752Y-46862784D01*
X157290752Y-46862784D02*
X157266942Y-46910403D01*
X157266942Y-46910403D02*
X157266942Y-46981832D01*
X157266942Y-46981832D02*
X157243133Y-47029451D01*
X157243133Y-47029451D02*
X157195514Y-47053260D01*
X157195514Y-47053260D02*
X157171704Y-47053260D01*
X157171704Y-47053260D02*
X157124085Y-47029451D01*
X157124085Y-47029451D02*
X157100276Y-46981832D01*
X157100276Y-46981832D02*
X157100276Y-46910403D01*
X157100276Y-46910403D02*
X157124085Y-46862784D01*
X157409800Y-46434213D02*
X157433609Y-46481832D01*
X157433609Y-46481832D02*
X157433609Y-46577070D01*
X157433609Y-46577070D02*
X157409800Y-46624689D01*
X157409800Y-46624689D02*
X157362180Y-46648498D01*
X157362180Y-46648498D02*
X157171704Y-46648498D01*
X157171704Y-46648498D02*
X157124085Y-46624689D01*
X157124085Y-46624689D02*
X157100276Y-46577070D01*
X157100276Y-46577070D02*
X157100276Y-46481832D01*
X157100276Y-46481832D02*
X157124085Y-46434213D01*
X157124085Y-46434213D02*
X157171704Y-46410403D01*
X157171704Y-46410403D02*
X157219323Y-46410403D01*
X157219323Y-46410403D02*
X157266942Y-46648498D01*
D11*
X154019819Y-58743094D02*
X153019819Y-58743094D01*
X153019819Y-58743094D02*
X153019819Y-58504999D01*
X153019819Y-58504999D02*
X153067438Y-58362142D01*
X153067438Y-58362142D02*
X153162676Y-58266904D01*
X153162676Y-58266904D02*
X153257914Y-58219285D01*
X153257914Y-58219285D02*
X153448390Y-58171666D01*
X153448390Y-58171666D02*
X153591247Y-58171666D01*
X153591247Y-58171666D02*
X153781723Y-58219285D01*
X153781723Y-58219285D02*
X153876961Y-58266904D01*
X153876961Y-58266904D02*
X153972200Y-58362142D01*
X153972200Y-58362142D02*
X154019819Y-58504999D01*
X154019819Y-58504999D02*
X154019819Y-58743094D01*
X153019819Y-57838332D02*
X153019819Y-57171666D01*
X153019819Y-57171666D02*
X154019819Y-57600237D01*
X125766905Y-45389819D02*
X125766905Y-44389819D01*
X125766905Y-44389819D02*
X126005000Y-44389819D01*
X126005000Y-44389819D02*
X126147857Y-44437438D01*
X126147857Y-44437438D02*
X126243095Y-44532676D01*
X126243095Y-44532676D02*
X126290714Y-44627914D01*
X126290714Y-44627914D02*
X126338333Y-44818390D01*
X126338333Y-44818390D02*
X126338333Y-44961247D01*
X126338333Y-44961247D02*
X126290714Y-45151723D01*
X126290714Y-45151723D02*
X126243095Y-45246961D01*
X126243095Y-45246961D02*
X126147857Y-45342200D01*
X126147857Y-45342200D02*
X126005000Y-45389819D01*
X126005000Y-45389819D02*
X125766905Y-45389819D01*
X127195476Y-44389819D02*
X127005000Y-44389819D01*
X127005000Y-44389819D02*
X126909762Y-44437438D01*
X126909762Y-44437438D02*
X126862143Y-44485057D01*
X126862143Y-44485057D02*
X126766905Y-44627914D01*
X126766905Y-44627914D02*
X126719286Y-44818390D01*
X126719286Y-44818390D02*
X126719286Y-45199342D01*
X126719286Y-45199342D02*
X126766905Y-45294580D01*
X126766905Y-45294580D02*
X126814524Y-45342200D01*
X126814524Y-45342200D02*
X126909762Y-45389819D01*
X126909762Y-45389819D02*
X127100238Y-45389819D01*
X127100238Y-45389819D02*
X127195476Y-45342200D01*
X127195476Y-45342200D02*
X127243095Y-45294580D01*
X127243095Y-45294580D02*
X127290714Y-45199342D01*
X127290714Y-45199342D02*
X127290714Y-44961247D01*
X127290714Y-44961247D02*
X127243095Y-44866009D01*
X127243095Y-44866009D02*
X127195476Y-44818390D01*
X127195476Y-44818390D02*
X127100238Y-44770771D01*
X127100238Y-44770771D02*
X126909762Y-44770771D01*
X126909762Y-44770771D02*
X126814524Y-44818390D01*
X126814524Y-44818390D02*
X126766905Y-44866009D01*
X126766905Y-44866009D02*
X126719286Y-44961247D01*
X85889819Y-45733094D02*
X84889819Y-45733094D01*
X84889819Y-45733094D02*
X84889819Y-45494999D01*
X84889819Y-45494999D02*
X84937438Y-45352142D01*
X84937438Y-45352142D02*
X85032676Y-45256904D01*
X85032676Y-45256904D02*
X85127914Y-45209285D01*
X85127914Y-45209285D02*
X85318390Y-45161666D01*
X85318390Y-45161666D02*
X85461247Y-45161666D01*
X85461247Y-45161666D02*
X85651723Y-45209285D01*
X85651723Y-45209285D02*
X85746961Y-45256904D01*
X85746961Y-45256904D02*
X85842200Y-45352142D01*
X85842200Y-45352142D02*
X85889819Y-45494999D01*
X85889819Y-45494999D02*
X85889819Y-45733094D01*
X85223152Y-44304523D02*
X85889819Y-44304523D01*
X84842200Y-44542618D02*
X85556485Y-44780713D01*
X85556485Y-44780713D02*
X85556485Y-44161666D01*
X154019819Y-45743094D02*
X153019819Y-45743094D01*
X153019819Y-45743094D02*
X153019819Y-45504999D01*
X153019819Y-45504999D02*
X153067438Y-45362142D01*
X153067438Y-45362142D02*
X153162676Y-45266904D01*
X153162676Y-45266904D02*
X153257914Y-45219285D01*
X153257914Y-45219285D02*
X153448390Y-45171666D01*
X153448390Y-45171666D02*
X153591247Y-45171666D01*
X153591247Y-45171666D02*
X153781723Y-45219285D01*
X153781723Y-45219285D02*
X153876961Y-45266904D01*
X153876961Y-45266904D02*
X153972200Y-45362142D01*
X153972200Y-45362142D02*
X154019819Y-45504999D01*
X154019819Y-45504999D02*
X154019819Y-45743094D01*
X153019819Y-44838332D02*
X153019819Y-44219285D01*
X153019819Y-44219285D02*
X153400771Y-44552618D01*
X153400771Y-44552618D02*
X153400771Y-44409761D01*
X153400771Y-44409761D02*
X153448390Y-44314523D01*
X153448390Y-44314523D02*
X153496009Y-44266904D01*
X153496009Y-44266904D02*
X153591247Y-44219285D01*
X153591247Y-44219285D02*
X153829342Y-44219285D01*
X153829342Y-44219285D02*
X153924580Y-44266904D01*
X153924580Y-44266904D02*
X153972200Y-44314523D01*
X153972200Y-44314523D02*
X154019819Y-44409761D01*
X154019819Y-44409761D02*
X154019819Y-44695475D01*
X154019819Y-44695475D02*
X153972200Y-44790713D01*
X153972200Y-44790713D02*
X153924580Y-44838332D01*
X111766905Y-45389819D02*
X111766905Y-44389819D01*
X111766905Y-44389819D02*
X112005000Y-44389819D01*
X112005000Y-44389819D02*
X112147857Y-44437438D01*
X112147857Y-44437438D02*
X112243095Y-44532676D01*
X112243095Y-44532676D02*
X112290714Y-44627914D01*
X112290714Y-44627914D02*
X112338333Y-44818390D01*
X112338333Y-44818390D02*
X112338333Y-44961247D01*
X112338333Y-44961247D02*
X112290714Y-45151723D01*
X112290714Y-45151723D02*
X112243095Y-45246961D01*
X112243095Y-45246961D02*
X112147857Y-45342200D01*
X112147857Y-45342200D02*
X112005000Y-45389819D01*
X112005000Y-45389819D02*
X111766905Y-45389819D01*
X112719286Y-44485057D02*
X112766905Y-44437438D01*
X112766905Y-44437438D02*
X112862143Y-44389819D01*
X112862143Y-44389819D02*
X113100238Y-44389819D01*
X113100238Y-44389819D02*
X113195476Y-44437438D01*
X113195476Y-44437438D02*
X113243095Y-44485057D01*
X113243095Y-44485057D02*
X113290714Y-44580295D01*
X113290714Y-44580295D02*
X113290714Y-44675533D01*
X113290714Y-44675533D02*
X113243095Y-44818390D01*
X113243095Y-44818390D02*
X112671667Y-45389819D01*
X112671667Y-45389819D02*
X113290714Y-45389819D01*
X85889819Y-58733094D02*
X84889819Y-58733094D01*
X84889819Y-58733094D02*
X84889819Y-58494999D01*
X84889819Y-58494999D02*
X84937438Y-58352142D01*
X84937438Y-58352142D02*
X85032676Y-58256904D01*
X85032676Y-58256904D02*
X85127914Y-58209285D01*
X85127914Y-58209285D02*
X85318390Y-58161666D01*
X85318390Y-58161666D02*
X85461247Y-58161666D01*
X85461247Y-58161666D02*
X85651723Y-58209285D01*
X85651723Y-58209285D02*
X85746961Y-58256904D01*
X85746961Y-58256904D02*
X85842200Y-58352142D01*
X85842200Y-58352142D02*
X85889819Y-58494999D01*
X85889819Y-58494999D02*
X85889819Y-58733094D01*
X85889819Y-57209285D02*
X85889819Y-57780713D01*
X85889819Y-57494999D02*
X84889819Y-57494999D01*
X84889819Y-57494999D02*
X85032676Y-57590237D01*
X85032676Y-57590237D02*
X85127914Y-57685475D01*
X85127914Y-57685475D02*
X85175533Y-57780713D01*
X138024819Y-58563333D02*
X138739104Y-58563333D01*
X138739104Y-58563333D02*
X138881961Y-58610952D01*
X138881961Y-58610952D02*
X138977200Y-58706190D01*
X138977200Y-58706190D02*
X139024819Y-58849047D01*
X139024819Y-58849047D02*
X139024819Y-58944285D01*
X139024819Y-57563333D02*
X139024819Y-58134761D01*
X139024819Y-57849047D02*
X138024819Y-57849047D01*
X138024819Y-57849047D02*
X138167676Y-57944285D01*
X138167676Y-57944285D02*
X138262914Y-58039523D01*
X138262914Y-58039523D02*
X138310533Y-58134761D01*
X97833333Y-52024819D02*
X97500000Y-51548628D01*
X97261905Y-52024819D02*
X97261905Y-51024819D01*
X97261905Y-51024819D02*
X97642857Y-51024819D01*
X97642857Y-51024819D02*
X97738095Y-51072438D01*
X97738095Y-51072438D02*
X97785714Y-51120057D01*
X97785714Y-51120057D02*
X97833333Y-51215295D01*
X97833333Y-51215295D02*
X97833333Y-51358152D01*
X97833333Y-51358152D02*
X97785714Y-51453390D01*
X97785714Y-51453390D02*
X97738095Y-51501009D01*
X97738095Y-51501009D02*
X97642857Y-51548628D01*
X97642857Y-51548628D02*
X97261905Y-51548628D01*
X98309524Y-52024819D02*
X98500000Y-52024819D01*
X98500000Y-52024819D02*
X98595238Y-51977200D01*
X98595238Y-51977200D02*
X98642857Y-51929580D01*
X98642857Y-51929580D02*
X98738095Y-51786723D01*
X98738095Y-51786723D02*
X98785714Y-51596247D01*
X98785714Y-51596247D02*
X98785714Y-51215295D01*
X98785714Y-51215295D02*
X98738095Y-51120057D01*
X98738095Y-51120057D02*
X98690476Y-51072438D01*
X98690476Y-51072438D02*
X98595238Y-51024819D01*
X98595238Y-51024819D02*
X98404762Y-51024819D01*
X98404762Y-51024819D02*
X98309524Y-51072438D01*
X98309524Y-51072438D02*
X98261905Y-51120057D01*
X98261905Y-51120057D02*
X98214286Y-51215295D01*
X98214286Y-51215295D02*
X98214286Y-51453390D01*
X98214286Y-51453390D02*
X98261905Y-51548628D01*
X98261905Y-51548628D02*
X98309524Y-51596247D01*
X98309524Y-51596247D02*
X98404762Y-51643866D01*
X98404762Y-51643866D02*
X98595238Y-51643866D01*
X98595238Y-51643866D02*
X98690476Y-51596247D01*
X98690476Y-51596247D02*
X98738095Y-51548628D01*
X98738095Y-51548628D02*
X98785714Y-51453390D01*
X139238095Y-41306819D02*
X139809523Y-41306819D01*
X139523809Y-42306819D02*
X139523809Y-41306819D01*
X140142857Y-42306819D02*
X140142857Y-41306819D01*
X140142857Y-41306819D02*
X140523809Y-41306819D01*
X140523809Y-41306819D02*
X140619047Y-41354438D01*
X140619047Y-41354438D02*
X140666666Y-41402057D01*
X140666666Y-41402057D02*
X140714285Y-41497295D01*
X140714285Y-41497295D02*
X140714285Y-41640152D01*
X140714285Y-41640152D02*
X140666666Y-41735390D01*
X140666666Y-41735390D02*
X140619047Y-41783009D01*
X140619047Y-41783009D02*
X140523809Y-41830628D01*
X140523809Y-41830628D02*
X140142857Y-41830628D01*
X141619047Y-41306819D02*
X141142857Y-41306819D01*
X141142857Y-41306819D02*
X141095238Y-41783009D01*
X141095238Y-41783009D02*
X141142857Y-41735390D01*
X141142857Y-41735390D02*
X141238095Y-41687771D01*
X141238095Y-41687771D02*
X141476190Y-41687771D01*
X141476190Y-41687771D02*
X141571428Y-41735390D01*
X141571428Y-41735390D02*
X141619047Y-41783009D01*
X141619047Y-41783009D02*
X141666666Y-41878247D01*
X141666666Y-41878247D02*
X141666666Y-42116342D01*
X141666666Y-42116342D02*
X141619047Y-42211580D01*
X141619047Y-42211580D02*
X141571428Y-42259200D01*
X141571428Y-42259200D02*
X141476190Y-42306819D01*
X141476190Y-42306819D02*
X141238095Y-42306819D01*
X141238095Y-42306819D02*
X141142857Y-42259200D01*
X141142857Y-42259200D02*
X141095238Y-42211580D01*
X104738095Y-41306819D02*
X105309523Y-41306819D01*
X105023809Y-42306819D02*
X105023809Y-41306819D01*
X105642857Y-42306819D02*
X105642857Y-41306819D01*
X105642857Y-41306819D02*
X106023809Y-41306819D01*
X106023809Y-41306819D02*
X106119047Y-41354438D01*
X106119047Y-41354438D02*
X106166666Y-41402057D01*
X106166666Y-41402057D02*
X106214285Y-41497295D01*
X106214285Y-41497295D02*
X106214285Y-41640152D01*
X106214285Y-41640152D02*
X106166666Y-41735390D01*
X106166666Y-41735390D02*
X106119047Y-41783009D01*
X106119047Y-41783009D02*
X106023809Y-41830628D01*
X106023809Y-41830628D02*
X105642857Y-41830628D01*
X107071428Y-41640152D02*
X107071428Y-42306819D01*
X106833333Y-41259200D02*
X106595238Y-41973485D01*
X106595238Y-41973485D02*
X107214285Y-41973485D01*
X138238095Y-46306819D02*
X138809523Y-46306819D01*
X138523809Y-47306819D02*
X138523809Y-46306819D01*
X139142857Y-47306819D02*
X139142857Y-46306819D01*
X139142857Y-46306819D02*
X139523809Y-46306819D01*
X139523809Y-46306819D02*
X139619047Y-46354438D01*
X139619047Y-46354438D02*
X139666666Y-46402057D01*
X139666666Y-46402057D02*
X139714285Y-46497295D01*
X139714285Y-46497295D02*
X139714285Y-46640152D01*
X139714285Y-46640152D02*
X139666666Y-46735390D01*
X139666666Y-46735390D02*
X139619047Y-46783009D01*
X139619047Y-46783009D02*
X139523809Y-46830628D01*
X139523809Y-46830628D02*
X139142857Y-46830628D01*
X140047619Y-46306819D02*
X140666666Y-46306819D01*
X140666666Y-46306819D02*
X140333333Y-46687771D01*
X140333333Y-46687771D02*
X140476190Y-46687771D01*
X140476190Y-46687771D02*
X140571428Y-46735390D01*
X140571428Y-46735390D02*
X140619047Y-46783009D01*
X140619047Y-46783009D02*
X140666666Y-46878247D01*
X140666666Y-46878247D02*
X140666666Y-47116342D01*
X140666666Y-47116342D02*
X140619047Y-47211580D01*
X140619047Y-47211580D02*
X140571428Y-47259200D01*
X140571428Y-47259200D02*
X140476190Y-47306819D01*
X140476190Y-47306819D02*
X140190476Y-47306819D01*
X140190476Y-47306819D02*
X140095238Y-47259200D01*
X140095238Y-47259200D02*
X140047619Y-47211580D01*
X97738095Y-45806819D02*
X98309523Y-45806819D01*
X98023809Y-46806819D02*
X98023809Y-45806819D01*
X98642857Y-46806819D02*
X98642857Y-45806819D01*
X98642857Y-45806819D02*
X99023809Y-45806819D01*
X99023809Y-45806819D02*
X99119047Y-45854438D01*
X99119047Y-45854438D02*
X99166666Y-45902057D01*
X99166666Y-45902057D02*
X99214285Y-45997295D01*
X99214285Y-45997295D02*
X99214285Y-46140152D01*
X99214285Y-46140152D02*
X99166666Y-46235390D01*
X99166666Y-46235390D02*
X99119047Y-46283009D01*
X99119047Y-46283009D02*
X99023809Y-46330628D01*
X99023809Y-46330628D02*
X98642857Y-46330628D01*
X99595238Y-45902057D02*
X99642857Y-45854438D01*
X99642857Y-45854438D02*
X99738095Y-45806819D01*
X99738095Y-45806819D02*
X99976190Y-45806819D01*
X99976190Y-45806819D02*
X100071428Y-45854438D01*
X100071428Y-45854438D02*
X100119047Y-45902057D01*
X100119047Y-45902057D02*
X100166666Y-45997295D01*
X100166666Y-45997295D02*
X100166666Y-46092533D01*
X100166666Y-46092533D02*
X100119047Y-46235390D01*
X100119047Y-46235390D02*
X99547619Y-46806819D01*
X99547619Y-46806819D02*
X100166666Y-46806819D01*
X95238095Y-41306819D02*
X95809523Y-41306819D01*
X95523809Y-42306819D02*
X95523809Y-41306819D01*
X96142857Y-42306819D02*
X96142857Y-41306819D01*
X96142857Y-41306819D02*
X96523809Y-41306819D01*
X96523809Y-41306819D02*
X96619047Y-41354438D01*
X96619047Y-41354438D02*
X96666666Y-41402057D01*
X96666666Y-41402057D02*
X96714285Y-41497295D01*
X96714285Y-41497295D02*
X96714285Y-41640152D01*
X96714285Y-41640152D02*
X96666666Y-41735390D01*
X96666666Y-41735390D02*
X96619047Y-41783009D01*
X96619047Y-41783009D02*
X96523809Y-41830628D01*
X96523809Y-41830628D02*
X96142857Y-41830628D01*
X97666666Y-42306819D02*
X97095238Y-42306819D01*
X97380952Y-42306819D02*
X97380952Y-41306819D01*
X97380952Y-41306819D02*
X97285714Y-41449676D01*
X97285714Y-41449676D02*
X97190476Y-41544914D01*
X97190476Y-41544914D02*
X97095238Y-41592533D01*
X149857142Y-54024819D02*
X149523809Y-53548628D01*
X149285714Y-54024819D02*
X149285714Y-53024819D01*
X149285714Y-53024819D02*
X149666666Y-53024819D01*
X149666666Y-53024819D02*
X149761904Y-53072438D01*
X149761904Y-53072438D02*
X149809523Y-53120057D01*
X149809523Y-53120057D02*
X149857142Y-53215295D01*
X149857142Y-53215295D02*
X149857142Y-53358152D01*
X149857142Y-53358152D02*
X149809523Y-53453390D01*
X149809523Y-53453390D02*
X149761904Y-53501009D01*
X149761904Y-53501009D02*
X149666666Y-53548628D01*
X149666666Y-53548628D02*
X149285714Y-53548628D01*
X150238095Y-53120057D02*
X150285714Y-53072438D01*
X150285714Y-53072438D02*
X150380952Y-53024819D01*
X150380952Y-53024819D02*
X150619047Y-53024819D01*
X150619047Y-53024819D02*
X150714285Y-53072438D01*
X150714285Y-53072438D02*
X150761904Y-53120057D01*
X150761904Y-53120057D02*
X150809523Y-53215295D01*
X150809523Y-53215295D02*
X150809523Y-53310533D01*
X150809523Y-53310533D02*
X150761904Y-53453390D01*
X150761904Y-53453390D02*
X150190476Y-54024819D01*
X150190476Y-54024819D02*
X150809523Y-54024819D01*
X151761904Y-54024819D02*
X151190476Y-54024819D01*
X151476190Y-54024819D02*
X151476190Y-53024819D01*
X151476190Y-53024819D02*
X151380952Y-53167676D01*
X151380952Y-53167676D02*
X151285714Y-53262914D01*
X151285714Y-53262914D02*
X151190476Y-53310533D01*
X149857142Y-50524819D02*
X149523809Y-50048628D01*
X149285714Y-50524819D02*
X149285714Y-49524819D01*
X149285714Y-49524819D02*
X149666666Y-49524819D01*
X149666666Y-49524819D02*
X149761904Y-49572438D01*
X149761904Y-49572438D02*
X149809523Y-49620057D01*
X149809523Y-49620057D02*
X149857142Y-49715295D01*
X149857142Y-49715295D02*
X149857142Y-49858152D01*
X149857142Y-49858152D02*
X149809523Y-49953390D01*
X149809523Y-49953390D02*
X149761904Y-50001009D01*
X149761904Y-50001009D02*
X149666666Y-50048628D01*
X149666666Y-50048628D02*
X149285714Y-50048628D01*
X150238095Y-49620057D02*
X150285714Y-49572438D01*
X150285714Y-49572438D02*
X150380952Y-49524819D01*
X150380952Y-49524819D02*
X150619047Y-49524819D01*
X150619047Y-49524819D02*
X150714285Y-49572438D01*
X150714285Y-49572438D02*
X150761904Y-49620057D01*
X150761904Y-49620057D02*
X150809523Y-49715295D01*
X150809523Y-49715295D02*
X150809523Y-49810533D01*
X150809523Y-49810533D02*
X150761904Y-49953390D01*
X150761904Y-49953390D02*
X150190476Y-50524819D01*
X150190476Y-50524819D02*
X150809523Y-50524819D01*
X151428571Y-49524819D02*
X151523809Y-49524819D01*
X151523809Y-49524819D02*
X151619047Y-49572438D01*
X151619047Y-49572438D02*
X151666666Y-49620057D01*
X151666666Y-49620057D02*
X151714285Y-49715295D01*
X151714285Y-49715295D02*
X151761904Y-49905771D01*
X151761904Y-49905771D02*
X151761904Y-50143866D01*
X151761904Y-50143866D02*
X151714285Y-50334342D01*
X151714285Y-50334342D02*
X151666666Y-50429580D01*
X151666666Y-50429580D02*
X151619047Y-50477200D01*
X151619047Y-50477200D02*
X151523809Y-50524819D01*
X151523809Y-50524819D02*
X151428571Y-50524819D01*
X151428571Y-50524819D02*
X151333333Y-50477200D01*
X151333333Y-50477200D02*
X151285714Y-50429580D01*
X151285714Y-50429580D02*
X151238095Y-50334342D01*
X151238095Y-50334342D02*
X151190476Y-50143866D01*
X151190476Y-50143866D02*
X151190476Y-49905771D01*
X151190476Y-49905771D02*
X151238095Y-49715295D01*
X151238095Y-49715295D02*
X151285714Y-49620057D01*
X151285714Y-49620057D02*
X151333333Y-49572438D01*
X151333333Y-49572438D02*
X151428571Y-49524819D01*
X87357142Y-54024819D02*
X87023809Y-53548628D01*
X86785714Y-54024819D02*
X86785714Y-53024819D01*
X86785714Y-53024819D02*
X87166666Y-53024819D01*
X87166666Y-53024819D02*
X87261904Y-53072438D01*
X87261904Y-53072438D02*
X87309523Y-53120057D01*
X87309523Y-53120057D02*
X87357142Y-53215295D01*
X87357142Y-53215295D02*
X87357142Y-53358152D01*
X87357142Y-53358152D02*
X87309523Y-53453390D01*
X87309523Y-53453390D02*
X87261904Y-53501009D01*
X87261904Y-53501009D02*
X87166666Y-53548628D01*
X87166666Y-53548628D02*
X86785714Y-53548628D01*
X88309523Y-54024819D02*
X87738095Y-54024819D01*
X88023809Y-54024819D02*
X88023809Y-53024819D01*
X88023809Y-53024819D02*
X87928571Y-53167676D01*
X87928571Y-53167676D02*
X87833333Y-53262914D01*
X87833333Y-53262914D02*
X87738095Y-53310533D01*
X88785714Y-54024819D02*
X88976190Y-54024819D01*
X88976190Y-54024819D02*
X89071428Y-53977200D01*
X89071428Y-53977200D02*
X89119047Y-53929580D01*
X89119047Y-53929580D02*
X89214285Y-53786723D01*
X89214285Y-53786723D02*
X89261904Y-53596247D01*
X89261904Y-53596247D02*
X89261904Y-53215295D01*
X89261904Y-53215295D02*
X89214285Y-53120057D01*
X89214285Y-53120057D02*
X89166666Y-53072438D01*
X89166666Y-53072438D02*
X89071428Y-53024819D01*
X89071428Y-53024819D02*
X88880952Y-53024819D01*
X88880952Y-53024819D02*
X88785714Y-53072438D01*
X88785714Y-53072438D02*
X88738095Y-53120057D01*
X88738095Y-53120057D02*
X88690476Y-53215295D01*
X88690476Y-53215295D02*
X88690476Y-53453390D01*
X88690476Y-53453390D02*
X88738095Y-53548628D01*
X88738095Y-53548628D02*
X88785714Y-53596247D01*
X88785714Y-53596247D02*
X88880952Y-53643866D01*
X88880952Y-53643866D02*
X89071428Y-53643866D01*
X89071428Y-53643866D02*
X89166666Y-53596247D01*
X89166666Y-53596247D02*
X89214285Y-53548628D01*
X89214285Y-53548628D02*
X89261904Y-53453390D01*
X149857142Y-47024819D02*
X149523809Y-46548628D01*
X149285714Y-47024819D02*
X149285714Y-46024819D01*
X149285714Y-46024819D02*
X149666666Y-46024819D01*
X149666666Y-46024819D02*
X149761904Y-46072438D01*
X149761904Y-46072438D02*
X149809523Y-46120057D01*
X149809523Y-46120057D02*
X149857142Y-46215295D01*
X149857142Y-46215295D02*
X149857142Y-46358152D01*
X149857142Y-46358152D02*
X149809523Y-46453390D01*
X149809523Y-46453390D02*
X149761904Y-46501009D01*
X149761904Y-46501009D02*
X149666666Y-46548628D01*
X149666666Y-46548628D02*
X149285714Y-46548628D01*
X150809523Y-47024819D02*
X150238095Y-47024819D01*
X150523809Y-47024819D02*
X150523809Y-46024819D01*
X150523809Y-46024819D02*
X150428571Y-46167676D01*
X150428571Y-46167676D02*
X150333333Y-46262914D01*
X150333333Y-46262914D02*
X150238095Y-46310533D01*
X151380952Y-46453390D02*
X151285714Y-46405771D01*
X151285714Y-46405771D02*
X151238095Y-46358152D01*
X151238095Y-46358152D02*
X151190476Y-46262914D01*
X151190476Y-46262914D02*
X151190476Y-46215295D01*
X151190476Y-46215295D02*
X151238095Y-46120057D01*
X151238095Y-46120057D02*
X151285714Y-46072438D01*
X151285714Y-46072438D02*
X151380952Y-46024819D01*
X151380952Y-46024819D02*
X151571428Y-46024819D01*
X151571428Y-46024819D02*
X151666666Y-46072438D01*
X151666666Y-46072438D02*
X151714285Y-46120057D01*
X151714285Y-46120057D02*
X151761904Y-46215295D01*
X151761904Y-46215295D02*
X151761904Y-46262914D01*
X151761904Y-46262914D02*
X151714285Y-46358152D01*
X151714285Y-46358152D02*
X151666666Y-46405771D01*
X151666666Y-46405771D02*
X151571428Y-46453390D01*
X151571428Y-46453390D02*
X151380952Y-46453390D01*
X151380952Y-46453390D02*
X151285714Y-46501009D01*
X151285714Y-46501009D02*
X151238095Y-46548628D01*
X151238095Y-46548628D02*
X151190476Y-46643866D01*
X151190476Y-46643866D02*
X151190476Y-46834342D01*
X151190476Y-46834342D02*
X151238095Y-46929580D01*
X151238095Y-46929580D02*
X151285714Y-46977200D01*
X151285714Y-46977200D02*
X151380952Y-47024819D01*
X151380952Y-47024819D02*
X151571428Y-47024819D01*
X151571428Y-47024819D02*
X151666666Y-46977200D01*
X151666666Y-46977200D02*
X151714285Y-46929580D01*
X151714285Y-46929580D02*
X151761904Y-46834342D01*
X151761904Y-46834342D02*
X151761904Y-46643866D01*
X151761904Y-46643866D02*
X151714285Y-46548628D01*
X151714285Y-46548628D02*
X151666666Y-46501009D01*
X151666666Y-46501009D02*
X151571428Y-46453390D01*
X124032142Y-47024819D02*
X123698809Y-46548628D01*
X123460714Y-47024819D02*
X123460714Y-46024819D01*
X123460714Y-46024819D02*
X123841666Y-46024819D01*
X123841666Y-46024819D02*
X123936904Y-46072438D01*
X123936904Y-46072438D02*
X123984523Y-46120057D01*
X123984523Y-46120057D02*
X124032142Y-46215295D01*
X124032142Y-46215295D02*
X124032142Y-46358152D01*
X124032142Y-46358152D02*
X123984523Y-46453390D01*
X123984523Y-46453390D02*
X123936904Y-46501009D01*
X123936904Y-46501009D02*
X123841666Y-46548628D01*
X123841666Y-46548628D02*
X123460714Y-46548628D01*
X124984523Y-47024819D02*
X124413095Y-47024819D01*
X124698809Y-47024819D02*
X124698809Y-46024819D01*
X124698809Y-46024819D02*
X124603571Y-46167676D01*
X124603571Y-46167676D02*
X124508333Y-46262914D01*
X124508333Y-46262914D02*
X124413095Y-46310533D01*
X125317857Y-46024819D02*
X125984523Y-46024819D01*
X125984523Y-46024819D02*
X125555952Y-47024819D01*
X116857142Y-47024819D02*
X116523809Y-46548628D01*
X116285714Y-47024819D02*
X116285714Y-46024819D01*
X116285714Y-46024819D02*
X116666666Y-46024819D01*
X116666666Y-46024819D02*
X116761904Y-46072438D01*
X116761904Y-46072438D02*
X116809523Y-46120057D01*
X116809523Y-46120057D02*
X116857142Y-46215295D01*
X116857142Y-46215295D02*
X116857142Y-46358152D01*
X116857142Y-46358152D02*
X116809523Y-46453390D01*
X116809523Y-46453390D02*
X116761904Y-46501009D01*
X116761904Y-46501009D02*
X116666666Y-46548628D01*
X116666666Y-46548628D02*
X116285714Y-46548628D01*
X117809523Y-47024819D02*
X117238095Y-47024819D01*
X117523809Y-47024819D02*
X117523809Y-46024819D01*
X117523809Y-46024819D02*
X117428571Y-46167676D01*
X117428571Y-46167676D02*
X117333333Y-46262914D01*
X117333333Y-46262914D02*
X117238095Y-46310533D01*
X118666666Y-46024819D02*
X118476190Y-46024819D01*
X118476190Y-46024819D02*
X118380952Y-46072438D01*
X118380952Y-46072438D02*
X118333333Y-46120057D01*
X118333333Y-46120057D02*
X118238095Y-46262914D01*
X118238095Y-46262914D02*
X118190476Y-46453390D01*
X118190476Y-46453390D02*
X118190476Y-46834342D01*
X118190476Y-46834342D02*
X118238095Y-46929580D01*
X118238095Y-46929580D02*
X118285714Y-46977200D01*
X118285714Y-46977200D02*
X118380952Y-47024819D01*
X118380952Y-47024819D02*
X118571428Y-47024819D01*
X118571428Y-47024819D02*
X118666666Y-46977200D01*
X118666666Y-46977200D02*
X118714285Y-46929580D01*
X118714285Y-46929580D02*
X118761904Y-46834342D01*
X118761904Y-46834342D02*
X118761904Y-46596247D01*
X118761904Y-46596247D02*
X118714285Y-46501009D01*
X118714285Y-46501009D02*
X118666666Y-46453390D01*
X118666666Y-46453390D02*
X118571428Y-46405771D01*
X118571428Y-46405771D02*
X118380952Y-46405771D01*
X118380952Y-46405771D02*
X118285714Y-46453390D01*
X118285714Y-46453390D02*
X118238095Y-46501009D01*
X118238095Y-46501009D02*
X118190476Y-46596247D01*
X109357142Y-47024819D02*
X109023809Y-46548628D01*
X108785714Y-47024819D02*
X108785714Y-46024819D01*
X108785714Y-46024819D02*
X109166666Y-46024819D01*
X109166666Y-46024819D02*
X109261904Y-46072438D01*
X109261904Y-46072438D02*
X109309523Y-46120057D01*
X109309523Y-46120057D02*
X109357142Y-46215295D01*
X109357142Y-46215295D02*
X109357142Y-46358152D01*
X109357142Y-46358152D02*
X109309523Y-46453390D01*
X109309523Y-46453390D02*
X109261904Y-46501009D01*
X109261904Y-46501009D02*
X109166666Y-46548628D01*
X109166666Y-46548628D02*
X108785714Y-46548628D01*
X110309523Y-47024819D02*
X109738095Y-47024819D01*
X110023809Y-47024819D02*
X110023809Y-46024819D01*
X110023809Y-46024819D02*
X109928571Y-46167676D01*
X109928571Y-46167676D02*
X109833333Y-46262914D01*
X109833333Y-46262914D02*
X109738095Y-46310533D01*
X111214285Y-46024819D02*
X110738095Y-46024819D01*
X110738095Y-46024819D02*
X110690476Y-46501009D01*
X110690476Y-46501009D02*
X110738095Y-46453390D01*
X110738095Y-46453390D02*
X110833333Y-46405771D01*
X110833333Y-46405771D02*
X111071428Y-46405771D01*
X111071428Y-46405771D02*
X111166666Y-46453390D01*
X111166666Y-46453390D02*
X111214285Y-46501009D01*
X111214285Y-46501009D02*
X111261904Y-46596247D01*
X111261904Y-46596247D02*
X111261904Y-46834342D01*
X111261904Y-46834342D02*
X111214285Y-46929580D01*
X111214285Y-46929580D02*
X111166666Y-46977200D01*
X111166666Y-46977200D02*
X111071428Y-47024819D01*
X111071428Y-47024819D02*
X110833333Y-47024819D01*
X110833333Y-47024819D02*
X110738095Y-46977200D01*
X110738095Y-46977200D02*
X110690476Y-46929580D01*
X149857142Y-57524819D02*
X149523809Y-57048628D01*
X149285714Y-57524819D02*
X149285714Y-56524819D01*
X149285714Y-56524819D02*
X149666666Y-56524819D01*
X149666666Y-56524819D02*
X149761904Y-56572438D01*
X149761904Y-56572438D02*
X149809523Y-56620057D01*
X149809523Y-56620057D02*
X149857142Y-56715295D01*
X149857142Y-56715295D02*
X149857142Y-56858152D01*
X149857142Y-56858152D02*
X149809523Y-56953390D01*
X149809523Y-56953390D02*
X149761904Y-57001009D01*
X149761904Y-57001009D02*
X149666666Y-57048628D01*
X149666666Y-57048628D02*
X149285714Y-57048628D01*
X150809523Y-57524819D02*
X150238095Y-57524819D01*
X150523809Y-57524819D02*
X150523809Y-56524819D01*
X150523809Y-56524819D02*
X150428571Y-56667676D01*
X150428571Y-56667676D02*
X150333333Y-56762914D01*
X150333333Y-56762914D02*
X150238095Y-56810533D01*
X151666666Y-56858152D02*
X151666666Y-57524819D01*
X151428571Y-56477200D02*
X151190476Y-57191485D01*
X151190476Y-57191485D02*
X151809523Y-57191485D01*
X131182142Y-47024819D02*
X130848809Y-46548628D01*
X130610714Y-47024819D02*
X130610714Y-46024819D01*
X130610714Y-46024819D02*
X130991666Y-46024819D01*
X130991666Y-46024819D02*
X131086904Y-46072438D01*
X131086904Y-46072438D02*
X131134523Y-46120057D01*
X131134523Y-46120057D02*
X131182142Y-46215295D01*
X131182142Y-46215295D02*
X131182142Y-46358152D01*
X131182142Y-46358152D02*
X131134523Y-46453390D01*
X131134523Y-46453390D02*
X131086904Y-46501009D01*
X131086904Y-46501009D02*
X130991666Y-46548628D01*
X130991666Y-46548628D02*
X130610714Y-46548628D01*
X132134523Y-47024819D02*
X131563095Y-47024819D01*
X131848809Y-47024819D02*
X131848809Y-46024819D01*
X131848809Y-46024819D02*
X131753571Y-46167676D01*
X131753571Y-46167676D02*
X131658333Y-46262914D01*
X131658333Y-46262914D02*
X131563095Y-46310533D01*
X132467857Y-46024819D02*
X133086904Y-46024819D01*
X133086904Y-46024819D02*
X132753571Y-46405771D01*
X132753571Y-46405771D02*
X132896428Y-46405771D01*
X132896428Y-46405771D02*
X132991666Y-46453390D01*
X132991666Y-46453390D02*
X133039285Y-46501009D01*
X133039285Y-46501009D02*
X133086904Y-46596247D01*
X133086904Y-46596247D02*
X133086904Y-46834342D01*
X133086904Y-46834342D02*
X133039285Y-46929580D01*
X133039285Y-46929580D02*
X132991666Y-46977200D01*
X132991666Y-46977200D02*
X132896428Y-47024819D01*
X132896428Y-47024819D02*
X132610714Y-47024819D01*
X132610714Y-47024819D02*
X132515476Y-46977200D01*
X132515476Y-46977200D02*
X132467857Y-46929580D01*
X87357142Y-43524819D02*
X87023809Y-43048628D01*
X86785714Y-43524819D02*
X86785714Y-42524819D01*
X86785714Y-42524819D02*
X87166666Y-42524819D01*
X87166666Y-42524819D02*
X87261904Y-42572438D01*
X87261904Y-42572438D02*
X87309523Y-42620057D01*
X87309523Y-42620057D02*
X87357142Y-42715295D01*
X87357142Y-42715295D02*
X87357142Y-42858152D01*
X87357142Y-42858152D02*
X87309523Y-42953390D01*
X87309523Y-42953390D02*
X87261904Y-43001009D01*
X87261904Y-43001009D02*
X87166666Y-43048628D01*
X87166666Y-43048628D02*
X86785714Y-43048628D01*
X88309523Y-43524819D02*
X87738095Y-43524819D01*
X88023809Y-43524819D02*
X88023809Y-42524819D01*
X88023809Y-42524819D02*
X87928571Y-42667676D01*
X87928571Y-42667676D02*
X87833333Y-42762914D01*
X87833333Y-42762914D02*
X87738095Y-42810533D01*
X88690476Y-42620057D02*
X88738095Y-42572438D01*
X88738095Y-42572438D02*
X88833333Y-42524819D01*
X88833333Y-42524819D02*
X89071428Y-42524819D01*
X89071428Y-42524819D02*
X89166666Y-42572438D01*
X89166666Y-42572438D02*
X89214285Y-42620057D01*
X89214285Y-42620057D02*
X89261904Y-42715295D01*
X89261904Y-42715295D02*
X89261904Y-42810533D01*
X89261904Y-42810533D02*
X89214285Y-42953390D01*
X89214285Y-42953390D02*
X88642857Y-43524819D01*
X88642857Y-43524819D02*
X89261904Y-43524819D01*
X139857142Y-52024819D02*
X139523809Y-51548628D01*
X139285714Y-52024819D02*
X139285714Y-51024819D01*
X139285714Y-51024819D02*
X139666666Y-51024819D01*
X139666666Y-51024819D02*
X139761904Y-51072438D01*
X139761904Y-51072438D02*
X139809523Y-51120057D01*
X139809523Y-51120057D02*
X139857142Y-51215295D01*
X139857142Y-51215295D02*
X139857142Y-51358152D01*
X139857142Y-51358152D02*
X139809523Y-51453390D01*
X139809523Y-51453390D02*
X139761904Y-51501009D01*
X139761904Y-51501009D02*
X139666666Y-51548628D01*
X139666666Y-51548628D02*
X139285714Y-51548628D01*
X140809523Y-52024819D02*
X140238095Y-52024819D01*
X140523809Y-52024819D02*
X140523809Y-51024819D01*
X140523809Y-51024819D02*
X140428571Y-51167676D01*
X140428571Y-51167676D02*
X140333333Y-51262914D01*
X140333333Y-51262914D02*
X140238095Y-51310533D01*
X141761904Y-52024819D02*
X141190476Y-52024819D01*
X141476190Y-52024819D02*
X141476190Y-51024819D01*
X141476190Y-51024819D02*
X141380952Y-51167676D01*
X141380952Y-51167676D02*
X141285714Y-51262914D01*
X141285714Y-51262914D02*
X141190476Y-51310533D01*
X132532142Y-52024819D02*
X132198809Y-51548628D01*
X131960714Y-52024819D02*
X131960714Y-51024819D01*
X131960714Y-51024819D02*
X132341666Y-51024819D01*
X132341666Y-51024819D02*
X132436904Y-51072438D01*
X132436904Y-51072438D02*
X132484523Y-51120057D01*
X132484523Y-51120057D02*
X132532142Y-51215295D01*
X132532142Y-51215295D02*
X132532142Y-51358152D01*
X132532142Y-51358152D02*
X132484523Y-51453390D01*
X132484523Y-51453390D02*
X132436904Y-51501009D01*
X132436904Y-51501009D02*
X132341666Y-51548628D01*
X132341666Y-51548628D02*
X131960714Y-51548628D01*
X133484523Y-52024819D02*
X132913095Y-52024819D01*
X133198809Y-52024819D02*
X133198809Y-51024819D01*
X133198809Y-51024819D02*
X133103571Y-51167676D01*
X133103571Y-51167676D02*
X133008333Y-51262914D01*
X133008333Y-51262914D02*
X132913095Y-51310533D01*
X134103571Y-51024819D02*
X134198809Y-51024819D01*
X134198809Y-51024819D02*
X134294047Y-51072438D01*
X134294047Y-51072438D02*
X134341666Y-51120057D01*
X134341666Y-51120057D02*
X134389285Y-51215295D01*
X134389285Y-51215295D02*
X134436904Y-51405771D01*
X134436904Y-51405771D02*
X134436904Y-51643866D01*
X134436904Y-51643866D02*
X134389285Y-51834342D01*
X134389285Y-51834342D02*
X134341666Y-51929580D01*
X134341666Y-51929580D02*
X134294047Y-51977200D01*
X134294047Y-51977200D02*
X134198809Y-52024819D01*
X134198809Y-52024819D02*
X134103571Y-52024819D01*
X134103571Y-52024819D02*
X134008333Y-51977200D01*
X134008333Y-51977200D02*
X133960714Y-51929580D01*
X133960714Y-51929580D02*
X133913095Y-51834342D01*
X133913095Y-51834342D02*
X133865476Y-51643866D01*
X133865476Y-51643866D02*
X133865476Y-51405771D01*
X133865476Y-51405771D02*
X133913095Y-51215295D01*
X133913095Y-51215295D02*
X133960714Y-51120057D01*
X133960714Y-51120057D02*
X134008333Y-51072438D01*
X134008333Y-51072438D02*
X134103571Y-51024819D01*
X87833333Y-50524819D02*
X87500000Y-50048628D01*
X87261905Y-50524819D02*
X87261905Y-49524819D01*
X87261905Y-49524819D02*
X87642857Y-49524819D01*
X87642857Y-49524819D02*
X87738095Y-49572438D01*
X87738095Y-49572438D02*
X87785714Y-49620057D01*
X87785714Y-49620057D02*
X87833333Y-49715295D01*
X87833333Y-49715295D02*
X87833333Y-49858152D01*
X87833333Y-49858152D02*
X87785714Y-49953390D01*
X87785714Y-49953390D02*
X87738095Y-50001009D01*
X87738095Y-50001009D02*
X87642857Y-50048628D01*
X87642857Y-50048628D02*
X87261905Y-50048628D01*
X88404762Y-49953390D02*
X88309524Y-49905771D01*
X88309524Y-49905771D02*
X88261905Y-49858152D01*
X88261905Y-49858152D02*
X88214286Y-49762914D01*
X88214286Y-49762914D02*
X88214286Y-49715295D01*
X88214286Y-49715295D02*
X88261905Y-49620057D01*
X88261905Y-49620057D02*
X88309524Y-49572438D01*
X88309524Y-49572438D02*
X88404762Y-49524819D01*
X88404762Y-49524819D02*
X88595238Y-49524819D01*
X88595238Y-49524819D02*
X88690476Y-49572438D01*
X88690476Y-49572438D02*
X88738095Y-49620057D01*
X88738095Y-49620057D02*
X88785714Y-49715295D01*
X88785714Y-49715295D02*
X88785714Y-49762914D01*
X88785714Y-49762914D02*
X88738095Y-49858152D01*
X88738095Y-49858152D02*
X88690476Y-49905771D01*
X88690476Y-49905771D02*
X88595238Y-49953390D01*
X88595238Y-49953390D02*
X88404762Y-49953390D01*
X88404762Y-49953390D02*
X88309524Y-50001009D01*
X88309524Y-50001009D02*
X88261905Y-50048628D01*
X88261905Y-50048628D02*
X88214286Y-50143866D01*
X88214286Y-50143866D02*
X88214286Y-50334342D01*
X88214286Y-50334342D02*
X88261905Y-50429580D01*
X88261905Y-50429580D02*
X88309524Y-50477200D01*
X88309524Y-50477200D02*
X88404762Y-50524819D01*
X88404762Y-50524819D02*
X88595238Y-50524819D01*
X88595238Y-50524819D02*
X88690476Y-50477200D01*
X88690476Y-50477200D02*
X88738095Y-50429580D01*
X88738095Y-50429580D02*
X88785714Y-50334342D01*
X88785714Y-50334342D02*
X88785714Y-50143866D01*
X88785714Y-50143866D02*
X88738095Y-50048628D01*
X88738095Y-50048628D02*
X88690476Y-50001009D01*
X88690476Y-50001009D02*
X88595238Y-49953390D01*
X87833333Y-47024819D02*
X87500000Y-46548628D01*
X87261905Y-47024819D02*
X87261905Y-46024819D01*
X87261905Y-46024819D02*
X87642857Y-46024819D01*
X87642857Y-46024819D02*
X87738095Y-46072438D01*
X87738095Y-46072438D02*
X87785714Y-46120057D01*
X87785714Y-46120057D02*
X87833333Y-46215295D01*
X87833333Y-46215295D02*
X87833333Y-46358152D01*
X87833333Y-46358152D02*
X87785714Y-46453390D01*
X87785714Y-46453390D02*
X87738095Y-46501009D01*
X87738095Y-46501009D02*
X87642857Y-46548628D01*
X87642857Y-46548628D02*
X87261905Y-46548628D01*
X88166667Y-46024819D02*
X88833333Y-46024819D01*
X88833333Y-46024819D02*
X88404762Y-47024819D01*
X105158333Y-52024819D02*
X104825000Y-51548628D01*
X104586905Y-52024819D02*
X104586905Y-51024819D01*
X104586905Y-51024819D02*
X104967857Y-51024819D01*
X104967857Y-51024819D02*
X105063095Y-51072438D01*
X105063095Y-51072438D02*
X105110714Y-51120057D01*
X105110714Y-51120057D02*
X105158333Y-51215295D01*
X105158333Y-51215295D02*
X105158333Y-51358152D01*
X105158333Y-51358152D02*
X105110714Y-51453390D01*
X105110714Y-51453390D02*
X105063095Y-51501009D01*
X105063095Y-51501009D02*
X104967857Y-51548628D01*
X104967857Y-51548628D02*
X104586905Y-51548628D01*
X106015476Y-51024819D02*
X105825000Y-51024819D01*
X105825000Y-51024819D02*
X105729762Y-51072438D01*
X105729762Y-51072438D02*
X105682143Y-51120057D01*
X105682143Y-51120057D02*
X105586905Y-51262914D01*
X105586905Y-51262914D02*
X105539286Y-51453390D01*
X105539286Y-51453390D02*
X105539286Y-51834342D01*
X105539286Y-51834342D02*
X105586905Y-51929580D01*
X105586905Y-51929580D02*
X105634524Y-51977200D01*
X105634524Y-51977200D02*
X105729762Y-52024819D01*
X105729762Y-52024819D02*
X105920238Y-52024819D01*
X105920238Y-52024819D02*
X106015476Y-51977200D01*
X106015476Y-51977200D02*
X106063095Y-51929580D01*
X106063095Y-51929580D02*
X106110714Y-51834342D01*
X106110714Y-51834342D02*
X106110714Y-51596247D01*
X106110714Y-51596247D02*
X106063095Y-51501009D01*
X106063095Y-51501009D02*
X106015476Y-51453390D01*
X106015476Y-51453390D02*
X105920238Y-51405771D01*
X105920238Y-51405771D02*
X105729762Y-51405771D01*
X105729762Y-51405771D02*
X105634524Y-51453390D01*
X105634524Y-51453390D02*
X105586905Y-51501009D01*
X105586905Y-51501009D02*
X105539286Y-51596247D01*
X125833333Y-52024819D02*
X125500000Y-51548628D01*
X125261905Y-52024819D02*
X125261905Y-51024819D01*
X125261905Y-51024819D02*
X125642857Y-51024819D01*
X125642857Y-51024819D02*
X125738095Y-51072438D01*
X125738095Y-51072438D02*
X125785714Y-51120057D01*
X125785714Y-51120057D02*
X125833333Y-51215295D01*
X125833333Y-51215295D02*
X125833333Y-51358152D01*
X125833333Y-51358152D02*
X125785714Y-51453390D01*
X125785714Y-51453390D02*
X125738095Y-51501009D01*
X125738095Y-51501009D02*
X125642857Y-51548628D01*
X125642857Y-51548628D02*
X125261905Y-51548628D01*
X126738095Y-51024819D02*
X126261905Y-51024819D01*
X126261905Y-51024819D02*
X126214286Y-51501009D01*
X126214286Y-51501009D02*
X126261905Y-51453390D01*
X126261905Y-51453390D02*
X126357143Y-51405771D01*
X126357143Y-51405771D02*
X126595238Y-51405771D01*
X126595238Y-51405771D02*
X126690476Y-51453390D01*
X126690476Y-51453390D02*
X126738095Y-51501009D01*
X126738095Y-51501009D02*
X126785714Y-51596247D01*
X126785714Y-51596247D02*
X126785714Y-51834342D01*
X126785714Y-51834342D02*
X126738095Y-51929580D01*
X126738095Y-51929580D02*
X126690476Y-51977200D01*
X126690476Y-51977200D02*
X126595238Y-52024819D01*
X126595238Y-52024819D02*
X126357143Y-52024819D01*
X126357143Y-52024819D02*
X126261905Y-51977200D01*
X126261905Y-51977200D02*
X126214286Y-51929580D01*
X87833333Y-57524819D02*
X87500000Y-57048628D01*
X87261905Y-57524819D02*
X87261905Y-56524819D01*
X87261905Y-56524819D02*
X87642857Y-56524819D01*
X87642857Y-56524819D02*
X87738095Y-56572438D01*
X87738095Y-56572438D02*
X87785714Y-56620057D01*
X87785714Y-56620057D02*
X87833333Y-56715295D01*
X87833333Y-56715295D02*
X87833333Y-56858152D01*
X87833333Y-56858152D02*
X87785714Y-56953390D01*
X87785714Y-56953390D02*
X87738095Y-57001009D01*
X87738095Y-57001009D02*
X87642857Y-57048628D01*
X87642857Y-57048628D02*
X87261905Y-57048628D01*
X88690476Y-56858152D02*
X88690476Y-57524819D01*
X88452381Y-56477200D02*
X88214286Y-57191485D01*
X88214286Y-57191485D02*
X88833333Y-57191485D01*
X112833333Y-52024819D02*
X112500000Y-51548628D01*
X112261905Y-52024819D02*
X112261905Y-51024819D01*
X112261905Y-51024819D02*
X112642857Y-51024819D01*
X112642857Y-51024819D02*
X112738095Y-51072438D01*
X112738095Y-51072438D02*
X112785714Y-51120057D01*
X112785714Y-51120057D02*
X112833333Y-51215295D01*
X112833333Y-51215295D02*
X112833333Y-51358152D01*
X112833333Y-51358152D02*
X112785714Y-51453390D01*
X112785714Y-51453390D02*
X112738095Y-51501009D01*
X112738095Y-51501009D02*
X112642857Y-51548628D01*
X112642857Y-51548628D02*
X112261905Y-51548628D01*
X113166667Y-51024819D02*
X113785714Y-51024819D01*
X113785714Y-51024819D02*
X113452381Y-51405771D01*
X113452381Y-51405771D02*
X113595238Y-51405771D01*
X113595238Y-51405771D02*
X113690476Y-51453390D01*
X113690476Y-51453390D02*
X113738095Y-51501009D01*
X113738095Y-51501009D02*
X113785714Y-51596247D01*
X113785714Y-51596247D02*
X113785714Y-51834342D01*
X113785714Y-51834342D02*
X113738095Y-51929580D01*
X113738095Y-51929580D02*
X113690476Y-51977200D01*
X113690476Y-51977200D02*
X113595238Y-52024819D01*
X113595238Y-52024819D02*
X113309524Y-52024819D01*
X113309524Y-52024819D02*
X113214286Y-51977200D01*
X113214286Y-51977200D02*
X113166667Y-51929580D01*
X150333333Y-43024819D02*
X150000000Y-42548628D01*
X149761905Y-43024819D02*
X149761905Y-42024819D01*
X149761905Y-42024819D02*
X150142857Y-42024819D01*
X150142857Y-42024819D02*
X150238095Y-42072438D01*
X150238095Y-42072438D02*
X150285714Y-42120057D01*
X150285714Y-42120057D02*
X150333333Y-42215295D01*
X150333333Y-42215295D02*
X150333333Y-42358152D01*
X150333333Y-42358152D02*
X150285714Y-42453390D01*
X150285714Y-42453390D02*
X150238095Y-42501009D01*
X150238095Y-42501009D02*
X150142857Y-42548628D01*
X150142857Y-42548628D02*
X149761905Y-42548628D01*
X150714286Y-42120057D02*
X150761905Y-42072438D01*
X150761905Y-42072438D02*
X150857143Y-42024819D01*
X150857143Y-42024819D02*
X151095238Y-42024819D01*
X151095238Y-42024819D02*
X151190476Y-42072438D01*
X151190476Y-42072438D02*
X151238095Y-42120057D01*
X151238095Y-42120057D02*
X151285714Y-42215295D01*
X151285714Y-42215295D02*
X151285714Y-42310533D01*
X151285714Y-42310533D02*
X151238095Y-42453390D01*
X151238095Y-42453390D02*
X150666667Y-43024819D01*
X150666667Y-43024819D02*
X151285714Y-43024819D01*
X106333333Y-47024819D02*
X106000000Y-46548628D01*
X105761905Y-47024819D02*
X105761905Y-46024819D01*
X105761905Y-46024819D02*
X106142857Y-46024819D01*
X106142857Y-46024819D02*
X106238095Y-46072438D01*
X106238095Y-46072438D02*
X106285714Y-46120057D01*
X106285714Y-46120057D02*
X106333333Y-46215295D01*
X106333333Y-46215295D02*
X106333333Y-46358152D01*
X106333333Y-46358152D02*
X106285714Y-46453390D01*
X106285714Y-46453390D02*
X106238095Y-46501009D01*
X106238095Y-46501009D02*
X106142857Y-46548628D01*
X106142857Y-46548628D02*
X105761905Y-46548628D01*
X107285714Y-47024819D02*
X106714286Y-47024819D01*
X107000000Y-47024819D02*
X107000000Y-46024819D01*
X107000000Y-46024819D02*
X106904762Y-46167676D01*
X106904762Y-46167676D02*
X106809524Y-46262914D01*
X106809524Y-46262914D02*
X106714286Y-46310533D01*
X135467261Y-46650057D02*
X135372023Y-46602438D01*
X135372023Y-46602438D02*
X135276785Y-46507200D01*
X135276785Y-46507200D02*
X135133928Y-46364342D01*
X135133928Y-46364342D02*
X135038690Y-46316723D01*
X135038690Y-46316723D02*
X134943452Y-46316723D01*
X134991071Y-46554819D02*
X134895833Y-46507200D01*
X134895833Y-46507200D02*
X134800595Y-46411961D01*
X134800595Y-46411961D02*
X134752976Y-46221485D01*
X134752976Y-46221485D02*
X134752976Y-45888152D01*
X134752976Y-45888152D02*
X134800595Y-45697676D01*
X134800595Y-45697676D02*
X134895833Y-45602438D01*
X134895833Y-45602438D02*
X134991071Y-45554819D01*
X134991071Y-45554819D02*
X135181547Y-45554819D01*
X135181547Y-45554819D02*
X135276785Y-45602438D01*
X135276785Y-45602438D02*
X135372023Y-45697676D01*
X135372023Y-45697676D02*
X135419642Y-45888152D01*
X135419642Y-45888152D02*
X135419642Y-46221485D01*
X135419642Y-46221485D02*
X135372023Y-46411961D01*
X135372023Y-46411961D02*
X135276785Y-46507200D01*
X135276785Y-46507200D02*
X135181547Y-46554819D01*
X135181547Y-46554819D02*
X134991071Y-46554819D01*
X135800595Y-45650057D02*
X135848214Y-45602438D01*
X135848214Y-45602438D02*
X135943452Y-45554819D01*
X135943452Y-45554819D02*
X136181547Y-45554819D01*
X136181547Y-45554819D02*
X136276785Y-45602438D01*
X136276785Y-45602438D02*
X136324404Y-45650057D01*
X136324404Y-45650057D02*
X136372023Y-45745295D01*
X136372023Y-45745295D02*
X136372023Y-45840533D01*
X136372023Y-45840533D02*
X136324404Y-45983390D01*
X136324404Y-45983390D02*
X135752976Y-46554819D01*
X135752976Y-46554819D02*
X136372023Y-46554819D01*
X102467261Y-46150057D02*
X102372023Y-46102438D01*
X102372023Y-46102438D02*
X102276785Y-46007200D01*
X102276785Y-46007200D02*
X102133928Y-45864342D01*
X102133928Y-45864342D02*
X102038690Y-45816723D01*
X102038690Y-45816723D02*
X101943452Y-45816723D01*
X101991071Y-46054819D02*
X101895833Y-46007200D01*
X101895833Y-46007200D02*
X101800595Y-45911961D01*
X101800595Y-45911961D02*
X101752976Y-45721485D01*
X101752976Y-45721485D02*
X101752976Y-45388152D01*
X101752976Y-45388152D02*
X101800595Y-45197676D01*
X101800595Y-45197676D02*
X101895833Y-45102438D01*
X101895833Y-45102438D02*
X101991071Y-45054819D01*
X101991071Y-45054819D02*
X102181547Y-45054819D01*
X102181547Y-45054819D02*
X102276785Y-45102438D01*
X102276785Y-45102438D02*
X102372023Y-45197676D01*
X102372023Y-45197676D02*
X102419642Y-45388152D01*
X102419642Y-45388152D02*
X102419642Y-45721485D01*
X102419642Y-45721485D02*
X102372023Y-45911961D01*
X102372023Y-45911961D02*
X102276785Y-46007200D01*
X102276785Y-46007200D02*
X102181547Y-46054819D01*
X102181547Y-46054819D02*
X101991071Y-46054819D01*
X103372023Y-46054819D02*
X102800595Y-46054819D01*
X103086309Y-46054819D02*
X103086309Y-45054819D01*
X103086309Y-45054819D02*
X102991071Y-45197676D01*
X102991071Y-45197676D02*
X102895833Y-45292914D01*
X102895833Y-45292914D02*
X102800595Y-45340533D01*
X144540476Y-54154819D02*
X144540476Y-54869104D01*
X144540476Y-54869104D02*
X144492857Y-55011961D01*
X144492857Y-55011961D02*
X144397619Y-55107200D01*
X144397619Y-55107200D02*
X144254762Y-55154819D01*
X144254762Y-55154819D02*
X144159524Y-55154819D01*
X145016667Y-55154819D02*
X145016667Y-54154819D01*
X145016667Y-54154819D02*
X145397619Y-54154819D01*
X145397619Y-54154819D02*
X145492857Y-54202438D01*
X145492857Y-54202438D02*
X145540476Y-54250057D01*
X145540476Y-54250057D02*
X145588095Y-54345295D01*
X145588095Y-54345295D02*
X145588095Y-54488152D01*
X145588095Y-54488152D02*
X145540476Y-54583390D01*
X145540476Y-54583390D02*
X145492857Y-54631009D01*
X145492857Y-54631009D02*
X145397619Y-54678628D01*
X145397619Y-54678628D02*
X145016667Y-54678628D01*
X146540476Y-55154819D02*
X145969048Y-55154819D01*
X146254762Y-55154819D02*
X146254762Y-54154819D01*
X146254762Y-54154819D02*
X146159524Y-54297676D01*
X146159524Y-54297676D02*
X146064286Y-54392914D01*
X146064286Y-54392914D02*
X145969048Y-54440533D01*
X147445238Y-54154819D02*
X146969048Y-54154819D01*
X146969048Y-54154819D02*
X146921429Y-54631009D01*
X146921429Y-54631009D02*
X146969048Y-54583390D01*
X146969048Y-54583390D02*
X147064286Y-54535771D01*
X147064286Y-54535771D02*
X147302381Y-54535771D01*
X147302381Y-54535771D02*
X147397619Y-54583390D01*
X147397619Y-54583390D02*
X147445238Y-54631009D01*
X147445238Y-54631009D02*
X147492857Y-54726247D01*
X147492857Y-54726247D02*
X147492857Y-54964342D01*
X147492857Y-54964342D02*
X147445238Y-55059580D01*
X147445238Y-55059580D02*
X147397619Y-55107200D01*
X147397619Y-55107200D02*
X147302381Y-55154819D01*
X147302381Y-55154819D02*
X147064286Y-55154819D01*
X147064286Y-55154819D02*
X146969048Y-55107200D01*
X146969048Y-55107200D02*
X146921429Y-55059580D01*
X144540476Y-49154819D02*
X144540476Y-49869104D01*
X144540476Y-49869104D02*
X144492857Y-50011961D01*
X144492857Y-50011961D02*
X144397619Y-50107200D01*
X144397619Y-50107200D02*
X144254762Y-50154819D01*
X144254762Y-50154819D02*
X144159524Y-50154819D01*
X145016667Y-50154819D02*
X145016667Y-49154819D01*
X145016667Y-49154819D02*
X145397619Y-49154819D01*
X145397619Y-49154819D02*
X145492857Y-49202438D01*
X145492857Y-49202438D02*
X145540476Y-49250057D01*
X145540476Y-49250057D02*
X145588095Y-49345295D01*
X145588095Y-49345295D02*
X145588095Y-49488152D01*
X145588095Y-49488152D02*
X145540476Y-49583390D01*
X145540476Y-49583390D02*
X145492857Y-49631009D01*
X145492857Y-49631009D02*
X145397619Y-49678628D01*
X145397619Y-49678628D02*
X145016667Y-49678628D01*
X146540476Y-50154819D02*
X145969048Y-50154819D01*
X146254762Y-50154819D02*
X146254762Y-49154819D01*
X146254762Y-49154819D02*
X146159524Y-49297676D01*
X146159524Y-49297676D02*
X146064286Y-49392914D01*
X146064286Y-49392914D02*
X145969048Y-49440533D01*
X147397619Y-49488152D02*
X147397619Y-50154819D01*
X147159524Y-49107200D02*
X146921429Y-49821485D01*
X146921429Y-49821485D02*
X147540476Y-49821485D01*
X144540476Y-44154819D02*
X144540476Y-44869104D01*
X144540476Y-44869104D02*
X144492857Y-45011961D01*
X144492857Y-45011961D02*
X144397619Y-45107200D01*
X144397619Y-45107200D02*
X144254762Y-45154819D01*
X144254762Y-45154819D02*
X144159524Y-45154819D01*
X145016667Y-45154819D02*
X145016667Y-44154819D01*
X145016667Y-44154819D02*
X145397619Y-44154819D01*
X145397619Y-44154819D02*
X145492857Y-44202438D01*
X145492857Y-44202438D02*
X145540476Y-44250057D01*
X145540476Y-44250057D02*
X145588095Y-44345295D01*
X145588095Y-44345295D02*
X145588095Y-44488152D01*
X145588095Y-44488152D02*
X145540476Y-44583390D01*
X145540476Y-44583390D02*
X145492857Y-44631009D01*
X145492857Y-44631009D02*
X145397619Y-44678628D01*
X145397619Y-44678628D02*
X145016667Y-44678628D01*
X146540476Y-45154819D02*
X145969048Y-45154819D01*
X146254762Y-45154819D02*
X146254762Y-44154819D01*
X146254762Y-44154819D02*
X146159524Y-44297676D01*
X146159524Y-44297676D02*
X146064286Y-44392914D01*
X146064286Y-44392914D02*
X145969048Y-44440533D01*
X146873810Y-44154819D02*
X147492857Y-44154819D01*
X147492857Y-44154819D02*
X147159524Y-44535771D01*
X147159524Y-44535771D02*
X147302381Y-44535771D01*
X147302381Y-44535771D02*
X147397619Y-44583390D01*
X147397619Y-44583390D02*
X147445238Y-44631009D01*
X147445238Y-44631009D02*
X147492857Y-44726247D01*
X147492857Y-44726247D02*
X147492857Y-44964342D01*
X147492857Y-44964342D02*
X147445238Y-45059580D01*
X147445238Y-45059580D02*
X147397619Y-45107200D01*
X147397619Y-45107200D02*
X147302381Y-45154819D01*
X147302381Y-45154819D02*
X147016667Y-45154819D01*
X147016667Y-45154819D02*
X146921429Y-45107200D01*
X146921429Y-45107200D02*
X146873810Y-45059580D01*
X126840476Y-45654819D02*
X126840476Y-46369104D01*
X126840476Y-46369104D02*
X126792857Y-46511961D01*
X126792857Y-46511961D02*
X126697619Y-46607200D01*
X126697619Y-46607200D02*
X126554762Y-46654819D01*
X126554762Y-46654819D02*
X126459524Y-46654819D01*
X127316667Y-46654819D02*
X127316667Y-45654819D01*
X127316667Y-45654819D02*
X127697619Y-45654819D01*
X127697619Y-45654819D02*
X127792857Y-45702438D01*
X127792857Y-45702438D02*
X127840476Y-45750057D01*
X127840476Y-45750057D02*
X127888095Y-45845295D01*
X127888095Y-45845295D02*
X127888095Y-45988152D01*
X127888095Y-45988152D02*
X127840476Y-46083390D01*
X127840476Y-46083390D02*
X127792857Y-46131009D01*
X127792857Y-46131009D02*
X127697619Y-46178628D01*
X127697619Y-46178628D02*
X127316667Y-46178628D01*
X128840476Y-46654819D02*
X128269048Y-46654819D01*
X128554762Y-46654819D02*
X128554762Y-45654819D01*
X128554762Y-45654819D02*
X128459524Y-45797676D01*
X128459524Y-45797676D02*
X128364286Y-45892914D01*
X128364286Y-45892914D02*
X128269048Y-45940533D01*
X129221429Y-45750057D02*
X129269048Y-45702438D01*
X129269048Y-45702438D02*
X129364286Y-45654819D01*
X129364286Y-45654819D02*
X129602381Y-45654819D01*
X129602381Y-45654819D02*
X129697619Y-45702438D01*
X129697619Y-45702438D02*
X129745238Y-45750057D01*
X129745238Y-45750057D02*
X129792857Y-45845295D01*
X129792857Y-45845295D02*
X129792857Y-45940533D01*
X129792857Y-45940533D02*
X129745238Y-46083390D01*
X129745238Y-46083390D02*
X129173810Y-46654819D01*
X129173810Y-46654819D02*
X129792857Y-46654819D01*
X119840476Y-45654819D02*
X119840476Y-46369104D01*
X119840476Y-46369104D02*
X119792857Y-46511961D01*
X119792857Y-46511961D02*
X119697619Y-46607200D01*
X119697619Y-46607200D02*
X119554762Y-46654819D01*
X119554762Y-46654819D02*
X119459524Y-46654819D01*
X120316667Y-46654819D02*
X120316667Y-45654819D01*
X120316667Y-45654819D02*
X120697619Y-45654819D01*
X120697619Y-45654819D02*
X120792857Y-45702438D01*
X120792857Y-45702438D02*
X120840476Y-45750057D01*
X120840476Y-45750057D02*
X120888095Y-45845295D01*
X120888095Y-45845295D02*
X120888095Y-45988152D01*
X120888095Y-45988152D02*
X120840476Y-46083390D01*
X120840476Y-46083390D02*
X120792857Y-46131009D01*
X120792857Y-46131009D02*
X120697619Y-46178628D01*
X120697619Y-46178628D02*
X120316667Y-46178628D01*
X121840476Y-46654819D02*
X121269048Y-46654819D01*
X121554762Y-46654819D02*
X121554762Y-45654819D01*
X121554762Y-45654819D02*
X121459524Y-45797676D01*
X121459524Y-45797676D02*
X121364286Y-45892914D01*
X121364286Y-45892914D02*
X121269048Y-45940533D01*
X122792857Y-46654819D02*
X122221429Y-46654819D01*
X122507143Y-46654819D02*
X122507143Y-45654819D01*
X122507143Y-45654819D02*
X122411905Y-45797676D01*
X122411905Y-45797676D02*
X122316667Y-45892914D01*
X122316667Y-45892914D02*
X122221429Y-45940533D01*
X112540476Y-45654819D02*
X112540476Y-46369104D01*
X112540476Y-46369104D02*
X112492857Y-46511961D01*
X112492857Y-46511961D02*
X112397619Y-46607200D01*
X112397619Y-46607200D02*
X112254762Y-46654819D01*
X112254762Y-46654819D02*
X112159524Y-46654819D01*
X113016667Y-46654819D02*
X113016667Y-45654819D01*
X113016667Y-45654819D02*
X113397619Y-45654819D01*
X113397619Y-45654819D02*
X113492857Y-45702438D01*
X113492857Y-45702438D02*
X113540476Y-45750057D01*
X113540476Y-45750057D02*
X113588095Y-45845295D01*
X113588095Y-45845295D02*
X113588095Y-45988152D01*
X113588095Y-45988152D02*
X113540476Y-46083390D01*
X113540476Y-46083390D02*
X113492857Y-46131009D01*
X113492857Y-46131009D02*
X113397619Y-46178628D01*
X113397619Y-46178628D02*
X113016667Y-46178628D01*
X114540476Y-46654819D02*
X113969048Y-46654819D01*
X114254762Y-46654819D02*
X114254762Y-45654819D01*
X114254762Y-45654819D02*
X114159524Y-45797676D01*
X114159524Y-45797676D02*
X114064286Y-45892914D01*
X114064286Y-45892914D02*
X113969048Y-45940533D01*
X115159524Y-45654819D02*
X115254762Y-45654819D01*
X115254762Y-45654819D02*
X115350000Y-45702438D01*
X115350000Y-45702438D02*
X115397619Y-45750057D01*
X115397619Y-45750057D02*
X115445238Y-45845295D01*
X115445238Y-45845295D02*
X115492857Y-46035771D01*
X115492857Y-46035771D02*
X115492857Y-46273866D01*
X115492857Y-46273866D02*
X115445238Y-46464342D01*
X115445238Y-46464342D02*
X115397619Y-46559580D01*
X115397619Y-46559580D02*
X115350000Y-46607200D01*
X115350000Y-46607200D02*
X115254762Y-46654819D01*
X115254762Y-46654819D02*
X115159524Y-46654819D01*
X115159524Y-46654819D02*
X115064286Y-46607200D01*
X115064286Y-46607200D02*
X115016667Y-46559580D01*
X115016667Y-46559580D02*
X114969048Y-46464342D01*
X114969048Y-46464342D02*
X114921429Y-46273866D01*
X114921429Y-46273866D02*
X114921429Y-46035771D01*
X114921429Y-46035771D02*
X114969048Y-45845295D01*
X114969048Y-45845295D02*
X115016667Y-45750057D01*
X115016667Y-45750057D02*
X115064286Y-45702438D01*
X115064286Y-45702438D02*
X115159524Y-45654819D01*
X92016666Y-53654819D02*
X92016666Y-54369104D01*
X92016666Y-54369104D02*
X91969047Y-54511961D01*
X91969047Y-54511961D02*
X91873809Y-54607200D01*
X91873809Y-54607200D02*
X91730952Y-54654819D01*
X91730952Y-54654819D02*
X91635714Y-54654819D01*
X92492857Y-54654819D02*
X92492857Y-53654819D01*
X92492857Y-53654819D02*
X92873809Y-53654819D01*
X92873809Y-53654819D02*
X92969047Y-53702438D01*
X92969047Y-53702438D02*
X93016666Y-53750057D01*
X93016666Y-53750057D02*
X93064285Y-53845295D01*
X93064285Y-53845295D02*
X93064285Y-53988152D01*
X93064285Y-53988152D02*
X93016666Y-54083390D01*
X93016666Y-54083390D02*
X92969047Y-54131009D01*
X92969047Y-54131009D02*
X92873809Y-54178628D01*
X92873809Y-54178628D02*
X92492857Y-54178628D01*
X93540476Y-54654819D02*
X93730952Y-54654819D01*
X93730952Y-54654819D02*
X93826190Y-54607200D01*
X93826190Y-54607200D02*
X93873809Y-54559580D01*
X93873809Y-54559580D02*
X93969047Y-54416723D01*
X93969047Y-54416723D02*
X94016666Y-54226247D01*
X94016666Y-54226247D02*
X94016666Y-53845295D01*
X94016666Y-53845295D02*
X93969047Y-53750057D01*
X93969047Y-53750057D02*
X93921428Y-53702438D01*
X93921428Y-53702438D02*
X93826190Y-53654819D01*
X93826190Y-53654819D02*
X93635714Y-53654819D01*
X93635714Y-53654819D02*
X93540476Y-53702438D01*
X93540476Y-53702438D02*
X93492857Y-53750057D01*
X93492857Y-53750057D02*
X93445238Y-53845295D01*
X93445238Y-53845295D02*
X93445238Y-54083390D01*
X93445238Y-54083390D02*
X93492857Y-54178628D01*
X93492857Y-54178628D02*
X93540476Y-54226247D01*
X93540476Y-54226247D02*
X93635714Y-54273866D01*
X93635714Y-54273866D02*
X93826190Y-54273866D01*
X93826190Y-54273866D02*
X93921428Y-54226247D01*
X93921428Y-54226247D02*
X93969047Y-54178628D01*
X93969047Y-54178628D02*
X94016666Y-54083390D01*
X92016666Y-49154819D02*
X92016666Y-49869104D01*
X92016666Y-49869104D02*
X91969047Y-50011961D01*
X91969047Y-50011961D02*
X91873809Y-50107200D01*
X91873809Y-50107200D02*
X91730952Y-50154819D01*
X91730952Y-50154819D02*
X91635714Y-50154819D01*
X92492857Y-50154819D02*
X92492857Y-49154819D01*
X92492857Y-49154819D02*
X92873809Y-49154819D01*
X92873809Y-49154819D02*
X92969047Y-49202438D01*
X92969047Y-49202438D02*
X93016666Y-49250057D01*
X93016666Y-49250057D02*
X93064285Y-49345295D01*
X93064285Y-49345295D02*
X93064285Y-49488152D01*
X93064285Y-49488152D02*
X93016666Y-49583390D01*
X93016666Y-49583390D02*
X92969047Y-49631009D01*
X92969047Y-49631009D02*
X92873809Y-49678628D01*
X92873809Y-49678628D02*
X92492857Y-49678628D01*
X93635714Y-49583390D02*
X93540476Y-49535771D01*
X93540476Y-49535771D02*
X93492857Y-49488152D01*
X93492857Y-49488152D02*
X93445238Y-49392914D01*
X93445238Y-49392914D02*
X93445238Y-49345295D01*
X93445238Y-49345295D02*
X93492857Y-49250057D01*
X93492857Y-49250057D02*
X93540476Y-49202438D01*
X93540476Y-49202438D02*
X93635714Y-49154819D01*
X93635714Y-49154819D02*
X93826190Y-49154819D01*
X93826190Y-49154819D02*
X93921428Y-49202438D01*
X93921428Y-49202438D02*
X93969047Y-49250057D01*
X93969047Y-49250057D02*
X94016666Y-49345295D01*
X94016666Y-49345295D02*
X94016666Y-49392914D01*
X94016666Y-49392914D02*
X93969047Y-49488152D01*
X93969047Y-49488152D02*
X93921428Y-49535771D01*
X93921428Y-49535771D02*
X93826190Y-49583390D01*
X93826190Y-49583390D02*
X93635714Y-49583390D01*
X93635714Y-49583390D02*
X93540476Y-49631009D01*
X93540476Y-49631009D02*
X93492857Y-49678628D01*
X93492857Y-49678628D02*
X93445238Y-49773866D01*
X93445238Y-49773866D02*
X93445238Y-49964342D01*
X93445238Y-49964342D02*
X93492857Y-50059580D01*
X93492857Y-50059580D02*
X93540476Y-50107200D01*
X93540476Y-50107200D02*
X93635714Y-50154819D01*
X93635714Y-50154819D02*
X93826190Y-50154819D01*
X93826190Y-50154819D02*
X93921428Y-50107200D01*
X93921428Y-50107200D02*
X93969047Y-50059580D01*
X93969047Y-50059580D02*
X94016666Y-49964342D01*
X94016666Y-49964342D02*
X94016666Y-49773866D01*
X94016666Y-49773866D02*
X93969047Y-49678628D01*
X93969047Y-49678628D02*
X93921428Y-49631009D01*
X93921428Y-49631009D02*
X93826190Y-49583390D01*
X92016666Y-44654819D02*
X92016666Y-45369104D01*
X92016666Y-45369104D02*
X91969047Y-45511961D01*
X91969047Y-45511961D02*
X91873809Y-45607200D01*
X91873809Y-45607200D02*
X91730952Y-45654819D01*
X91730952Y-45654819D02*
X91635714Y-45654819D01*
X92492857Y-45654819D02*
X92492857Y-44654819D01*
X92492857Y-44654819D02*
X92873809Y-44654819D01*
X92873809Y-44654819D02*
X92969047Y-44702438D01*
X92969047Y-44702438D02*
X93016666Y-44750057D01*
X93016666Y-44750057D02*
X93064285Y-44845295D01*
X93064285Y-44845295D02*
X93064285Y-44988152D01*
X93064285Y-44988152D02*
X93016666Y-45083390D01*
X93016666Y-45083390D02*
X92969047Y-45131009D01*
X92969047Y-45131009D02*
X92873809Y-45178628D01*
X92873809Y-45178628D02*
X92492857Y-45178628D01*
X93397619Y-44654819D02*
X94064285Y-44654819D01*
X94064285Y-44654819D02*
X93635714Y-45654819D01*
X136166666Y-50654819D02*
X136166666Y-51369104D01*
X136166666Y-51369104D02*
X136119047Y-51511961D01*
X136119047Y-51511961D02*
X136023809Y-51607200D01*
X136023809Y-51607200D02*
X135880952Y-51654819D01*
X135880952Y-51654819D02*
X135785714Y-51654819D01*
X136642857Y-51654819D02*
X136642857Y-50654819D01*
X136642857Y-50654819D02*
X137023809Y-50654819D01*
X137023809Y-50654819D02*
X137119047Y-50702438D01*
X137119047Y-50702438D02*
X137166666Y-50750057D01*
X137166666Y-50750057D02*
X137214285Y-50845295D01*
X137214285Y-50845295D02*
X137214285Y-50988152D01*
X137214285Y-50988152D02*
X137166666Y-51083390D01*
X137166666Y-51083390D02*
X137119047Y-51131009D01*
X137119047Y-51131009D02*
X137023809Y-51178628D01*
X137023809Y-51178628D02*
X136642857Y-51178628D01*
X138071428Y-50654819D02*
X137880952Y-50654819D01*
X137880952Y-50654819D02*
X137785714Y-50702438D01*
X137785714Y-50702438D02*
X137738095Y-50750057D01*
X137738095Y-50750057D02*
X137642857Y-50892914D01*
X137642857Y-50892914D02*
X137595238Y-51083390D01*
X137595238Y-51083390D02*
X137595238Y-51464342D01*
X137595238Y-51464342D02*
X137642857Y-51559580D01*
X137642857Y-51559580D02*
X137690476Y-51607200D01*
X137690476Y-51607200D02*
X137785714Y-51654819D01*
X137785714Y-51654819D02*
X137976190Y-51654819D01*
X137976190Y-51654819D02*
X138071428Y-51607200D01*
X138071428Y-51607200D02*
X138119047Y-51559580D01*
X138119047Y-51559580D02*
X138166666Y-51464342D01*
X138166666Y-51464342D02*
X138166666Y-51226247D01*
X138166666Y-51226247D02*
X138119047Y-51131009D01*
X138119047Y-51131009D02*
X138071428Y-51083390D01*
X138071428Y-51083390D02*
X137976190Y-51035771D01*
X137976190Y-51035771D02*
X137785714Y-51035771D01*
X137785714Y-51035771D02*
X137690476Y-51083390D01*
X137690476Y-51083390D02*
X137642857Y-51131009D01*
X137642857Y-51131009D02*
X137595238Y-51226247D01*
X128666666Y-50654819D02*
X128666666Y-51369104D01*
X128666666Y-51369104D02*
X128619047Y-51511961D01*
X128619047Y-51511961D02*
X128523809Y-51607200D01*
X128523809Y-51607200D02*
X128380952Y-51654819D01*
X128380952Y-51654819D02*
X128285714Y-51654819D01*
X129142857Y-51654819D02*
X129142857Y-50654819D01*
X129142857Y-50654819D02*
X129523809Y-50654819D01*
X129523809Y-50654819D02*
X129619047Y-50702438D01*
X129619047Y-50702438D02*
X129666666Y-50750057D01*
X129666666Y-50750057D02*
X129714285Y-50845295D01*
X129714285Y-50845295D02*
X129714285Y-50988152D01*
X129714285Y-50988152D02*
X129666666Y-51083390D01*
X129666666Y-51083390D02*
X129619047Y-51131009D01*
X129619047Y-51131009D02*
X129523809Y-51178628D01*
X129523809Y-51178628D02*
X129142857Y-51178628D01*
X130619047Y-50654819D02*
X130142857Y-50654819D01*
X130142857Y-50654819D02*
X130095238Y-51131009D01*
X130095238Y-51131009D02*
X130142857Y-51083390D01*
X130142857Y-51083390D02*
X130238095Y-51035771D01*
X130238095Y-51035771D02*
X130476190Y-51035771D01*
X130476190Y-51035771D02*
X130571428Y-51083390D01*
X130571428Y-51083390D02*
X130619047Y-51131009D01*
X130619047Y-51131009D02*
X130666666Y-51226247D01*
X130666666Y-51226247D02*
X130666666Y-51464342D01*
X130666666Y-51464342D02*
X130619047Y-51559580D01*
X130619047Y-51559580D02*
X130571428Y-51607200D01*
X130571428Y-51607200D02*
X130476190Y-51654819D01*
X130476190Y-51654819D02*
X130238095Y-51654819D01*
X130238095Y-51654819D02*
X130142857Y-51607200D01*
X130142857Y-51607200D02*
X130095238Y-51559580D01*
X121516666Y-50654819D02*
X121516666Y-51369104D01*
X121516666Y-51369104D02*
X121469047Y-51511961D01*
X121469047Y-51511961D02*
X121373809Y-51607200D01*
X121373809Y-51607200D02*
X121230952Y-51654819D01*
X121230952Y-51654819D02*
X121135714Y-51654819D01*
X121992857Y-51654819D02*
X121992857Y-50654819D01*
X121992857Y-50654819D02*
X122373809Y-50654819D01*
X122373809Y-50654819D02*
X122469047Y-50702438D01*
X122469047Y-50702438D02*
X122516666Y-50750057D01*
X122516666Y-50750057D02*
X122564285Y-50845295D01*
X122564285Y-50845295D02*
X122564285Y-50988152D01*
X122564285Y-50988152D02*
X122516666Y-51083390D01*
X122516666Y-51083390D02*
X122469047Y-51131009D01*
X122469047Y-51131009D02*
X122373809Y-51178628D01*
X122373809Y-51178628D02*
X121992857Y-51178628D01*
X123421428Y-50988152D02*
X123421428Y-51654819D01*
X123183333Y-50607200D02*
X122945238Y-51321485D01*
X122945238Y-51321485D02*
X123564285Y-51321485D01*
X100666666Y-50654819D02*
X100666666Y-51369104D01*
X100666666Y-51369104D02*
X100619047Y-51511961D01*
X100619047Y-51511961D02*
X100523809Y-51607200D01*
X100523809Y-51607200D02*
X100380952Y-51654819D01*
X100380952Y-51654819D02*
X100285714Y-51654819D01*
X101142857Y-51654819D02*
X101142857Y-50654819D01*
X101142857Y-50654819D02*
X101523809Y-50654819D01*
X101523809Y-50654819D02*
X101619047Y-50702438D01*
X101619047Y-50702438D02*
X101666666Y-50750057D01*
X101666666Y-50750057D02*
X101714285Y-50845295D01*
X101714285Y-50845295D02*
X101714285Y-50988152D01*
X101714285Y-50988152D02*
X101666666Y-51083390D01*
X101666666Y-51083390D02*
X101619047Y-51131009D01*
X101619047Y-51131009D02*
X101523809Y-51178628D01*
X101523809Y-51178628D02*
X101142857Y-51178628D01*
X102047619Y-50654819D02*
X102666666Y-50654819D01*
X102666666Y-50654819D02*
X102333333Y-51035771D01*
X102333333Y-51035771D02*
X102476190Y-51035771D01*
X102476190Y-51035771D02*
X102571428Y-51083390D01*
X102571428Y-51083390D02*
X102619047Y-51131009D01*
X102619047Y-51131009D02*
X102666666Y-51226247D01*
X102666666Y-51226247D02*
X102666666Y-51464342D01*
X102666666Y-51464342D02*
X102619047Y-51559580D01*
X102619047Y-51559580D02*
X102571428Y-51607200D01*
X102571428Y-51607200D02*
X102476190Y-51654819D01*
X102476190Y-51654819D02*
X102190476Y-51654819D01*
X102190476Y-51654819D02*
X102095238Y-51607200D01*
X102095238Y-51607200D02*
X102047619Y-51559580D01*
X108316666Y-50654819D02*
X108316666Y-51369104D01*
X108316666Y-51369104D02*
X108269047Y-51511961D01*
X108269047Y-51511961D02*
X108173809Y-51607200D01*
X108173809Y-51607200D02*
X108030952Y-51654819D01*
X108030952Y-51654819D02*
X107935714Y-51654819D01*
X108792857Y-51654819D02*
X108792857Y-50654819D01*
X108792857Y-50654819D02*
X109173809Y-50654819D01*
X109173809Y-50654819D02*
X109269047Y-50702438D01*
X109269047Y-50702438D02*
X109316666Y-50750057D01*
X109316666Y-50750057D02*
X109364285Y-50845295D01*
X109364285Y-50845295D02*
X109364285Y-50988152D01*
X109364285Y-50988152D02*
X109316666Y-51083390D01*
X109316666Y-51083390D02*
X109269047Y-51131009D01*
X109269047Y-51131009D02*
X109173809Y-51178628D01*
X109173809Y-51178628D02*
X108792857Y-51178628D01*
X109745238Y-50750057D02*
X109792857Y-50702438D01*
X109792857Y-50702438D02*
X109888095Y-50654819D01*
X109888095Y-50654819D02*
X110126190Y-50654819D01*
X110126190Y-50654819D02*
X110221428Y-50702438D01*
X110221428Y-50702438D02*
X110269047Y-50750057D01*
X110269047Y-50750057D02*
X110316666Y-50845295D01*
X110316666Y-50845295D02*
X110316666Y-50940533D01*
X110316666Y-50940533D02*
X110269047Y-51083390D01*
X110269047Y-51083390D02*
X109697619Y-51654819D01*
X109697619Y-51654819D02*
X110316666Y-51654819D01*
X116016666Y-50654819D02*
X116016666Y-51369104D01*
X116016666Y-51369104D02*
X115969047Y-51511961D01*
X115969047Y-51511961D02*
X115873809Y-51607200D01*
X115873809Y-51607200D02*
X115730952Y-51654819D01*
X115730952Y-51654819D02*
X115635714Y-51654819D01*
X116492857Y-51654819D02*
X116492857Y-50654819D01*
X116492857Y-50654819D02*
X116873809Y-50654819D01*
X116873809Y-50654819D02*
X116969047Y-50702438D01*
X116969047Y-50702438D02*
X117016666Y-50750057D01*
X117016666Y-50750057D02*
X117064285Y-50845295D01*
X117064285Y-50845295D02*
X117064285Y-50988152D01*
X117064285Y-50988152D02*
X117016666Y-51083390D01*
X117016666Y-51083390D02*
X116969047Y-51131009D01*
X116969047Y-51131009D02*
X116873809Y-51178628D01*
X116873809Y-51178628D02*
X116492857Y-51178628D01*
X118016666Y-51654819D02*
X117445238Y-51654819D01*
X117730952Y-51654819D02*
X117730952Y-50654819D01*
X117730952Y-50654819D02*
X117635714Y-50797676D01*
X117635714Y-50797676D02*
X117540476Y-50892914D01*
X117540476Y-50892914D02*
X117445238Y-50940533D01*
X154019819Y-52243094D02*
X153019819Y-52243094D01*
X153019819Y-52243094D02*
X153019819Y-52004999D01*
X153019819Y-52004999D02*
X153067438Y-51862142D01*
X153067438Y-51862142D02*
X153162676Y-51766904D01*
X153162676Y-51766904D02*
X153257914Y-51719285D01*
X153257914Y-51719285D02*
X153448390Y-51671666D01*
X153448390Y-51671666D02*
X153591247Y-51671666D01*
X153591247Y-51671666D02*
X153781723Y-51719285D01*
X153781723Y-51719285D02*
X153876961Y-51766904D01*
X153876961Y-51766904D02*
X153972200Y-51862142D01*
X153972200Y-51862142D02*
X154019819Y-52004999D01*
X154019819Y-52004999D02*
X154019819Y-52243094D01*
X154019819Y-51195475D02*
X154019819Y-51004999D01*
X154019819Y-51004999D02*
X153972200Y-50909761D01*
X153972200Y-50909761D02*
X153924580Y-50862142D01*
X153924580Y-50862142D02*
X153781723Y-50766904D01*
X153781723Y-50766904D02*
X153591247Y-50719285D01*
X153591247Y-50719285D02*
X153210295Y-50719285D01*
X153210295Y-50719285D02*
X153115057Y-50766904D01*
X153115057Y-50766904D02*
X153067438Y-50814523D01*
X153067438Y-50814523D02*
X153019819Y-50909761D01*
X153019819Y-50909761D02*
X153019819Y-51100237D01*
X153019819Y-51100237D02*
X153067438Y-51195475D01*
X153067438Y-51195475D02*
X153115057Y-51243094D01*
X153115057Y-51243094D02*
X153210295Y-51290713D01*
X153210295Y-51290713D02*
X153448390Y-51290713D01*
X153448390Y-51290713D02*
X153543628Y-51243094D01*
X153543628Y-51243094D02*
X153591247Y-51195475D01*
X153591247Y-51195475D02*
X153638866Y-51100237D01*
X153638866Y-51100237D02*
X153638866Y-50909761D01*
X153638866Y-50909761D02*
X153591247Y-50814523D01*
X153591247Y-50814523D02*
X153543628Y-50766904D01*
X153543628Y-50766904D02*
X153448390Y-50719285D01*
X118766905Y-45389819D02*
X118766905Y-44389819D01*
X118766905Y-44389819D02*
X119005000Y-44389819D01*
X119005000Y-44389819D02*
X119147857Y-44437438D01*
X119147857Y-44437438D02*
X119243095Y-44532676D01*
X119243095Y-44532676D02*
X119290714Y-44627914D01*
X119290714Y-44627914D02*
X119338333Y-44818390D01*
X119338333Y-44818390D02*
X119338333Y-44961247D01*
X119338333Y-44961247D02*
X119290714Y-45151723D01*
X119290714Y-45151723D02*
X119243095Y-45246961D01*
X119243095Y-45246961D02*
X119147857Y-45342200D01*
X119147857Y-45342200D02*
X119005000Y-45389819D01*
X119005000Y-45389819D02*
X118766905Y-45389819D01*
X119909762Y-44818390D02*
X119814524Y-44770771D01*
X119814524Y-44770771D02*
X119766905Y-44723152D01*
X119766905Y-44723152D02*
X119719286Y-44627914D01*
X119719286Y-44627914D02*
X119719286Y-44580295D01*
X119719286Y-44580295D02*
X119766905Y-44485057D01*
X119766905Y-44485057D02*
X119814524Y-44437438D01*
X119814524Y-44437438D02*
X119909762Y-44389819D01*
X119909762Y-44389819D02*
X120100238Y-44389819D01*
X120100238Y-44389819D02*
X120195476Y-44437438D01*
X120195476Y-44437438D02*
X120243095Y-44485057D01*
X120243095Y-44485057D02*
X120290714Y-44580295D01*
X120290714Y-44580295D02*
X120290714Y-44627914D01*
X120290714Y-44627914D02*
X120243095Y-44723152D01*
X120243095Y-44723152D02*
X120195476Y-44770771D01*
X120195476Y-44770771D02*
X120100238Y-44818390D01*
X120100238Y-44818390D02*
X119909762Y-44818390D01*
X119909762Y-44818390D02*
X119814524Y-44866009D01*
X119814524Y-44866009D02*
X119766905Y-44913628D01*
X119766905Y-44913628D02*
X119719286Y-45008866D01*
X119719286Y-45008866D02*
X119719286Y-45199342D01*
X119719286Y-45199342D02*
X119766905Y-45294580D01*
X119766905Y-45294580D02*
X119814524Y-45342200D01*
X119814524Y-45342200D02*
X119909762Y-45389819D01*
X119909762Y-45389819D02*
X120100238Y-45389819D01*
X120100238Y-45389819D02*
X120195476Y-45342200D01*
X120195476Y-45342200D02*
X120243095Y-45294580D01*
X120243095Y-45294580D02*
X120290714Y-45199342D01*
X120290714Y-45199342D02*
X120290714Y-45008866D01*
X120290714Y-45008866D02*
X120243095Y-44913628D01*
X120243095Y-44913628D02*
X120195476Y-44866009D01*
X120195476Y-44866009D02*
X120100238Y-44818390D01*
X85889819Y-52233094D02*
X84889819Y-52233094D01*
X84889819Y-52233094D02*
X84889819Y-51994999D01*
X84889819Y-51994999D02*
X84937438Y-51852142D01*
X84937438Y-51852142D02*
X85032676Y-51756904D01*
X85032676Y-51756904D02*
X85127914Y-51709285D01*
X85127914Y-51709285D02*
X85318390Y-51661666D01*
X85318390Y-51661666D02*
X85461247Y-51661666D01*
X85461247Y-51661666D02*
X85651723Y-51709285D01*
X85651723Y-51709285D02*
X85746961Y-51756904D01*
X85746961Y-51756904D02*
X85842200Y-51852142D01*
X85842200Y-51852142D02*
X85889819Y-51994999D01*
X85889819Y-51994999D02*
X85889819Y-52233094D01*
X84889819Y-50756904D02*
X84889819Y-51233094D01*
X84889819Y-51233094D02*
X85366009Y-51280713D01*
X85366009Y-51280713D02*
X85318390Y-51233094D01*
X85318390Y-51233094D02*
X85270771Y-51137856D01*
X85270771Y-51137856D02*
X85270771Y-50899761D01*
X85270771Y-50899761D02*
X85318390Y-50804523D01*
X85318390Y-50804523D02*
X85366009Y-50756904D01*
X85366009Y-50756904D02*
X85461247Y-50709285D01*
X85461247Y-50709285D02*
X85699342Y-50709285D01*
X85699342Y-50709285D02*
X85794580Y-50756904D01*
X85794580Y-50756904D02*
X85842200Y-50804523D01*
X85842200Y-50804523D02*
X85889819Y-50899761D01*
X85889819Y-50899761D02*
X85889819Y-51137856D01*
X85889819Y-51137856D02*
X85842200Y-51233094D01*
X85842200Y-51233094D02*
X85794580Y-51280713D01*
D12*
%TO.C,D7*%
X156735000Y-60565000D02*
X162895000Y-60565000D01*
X156735000Y-60565000D02*
X156735000Y-55445000D01*
X156605000Y-59275000D02*
X156605000Y-59275000D01*
X156605000Y-59275000D02*
X156735000Y-59275000D01*
X156735000Y-59275000D02*
X156605000Y-59275000D01*
X156735000Y-59275000D02*
X156735000Y-59275000D01*
X156605000Y-56735000D02*
X156605000Y-56735000D01*
X156605000Y-56735000D02*
X156735000Y-56735000D01*
X156735000Y-56735000D02*
X156605000Y-56735000D01*
X156735000Y-56735000D02*
X156735000Y-56735000D01*
X156735000Y-55445000D02*
X162895000Y-55445000D01*
X156735000Y-55445000D02*
X156735000Y-55045000D01*
X157855000Y-55445000D02*
X156735000Y-55445000D01*
X156735000Y-55045000D02*
X157855000Y-55045000D01*
X157855000Y-55045000D02*
X157855000Y-55445000D01*
X162895000Y-55445000D02*
G75*
G02*
X162895000Y-60565000I0J-2560000D01*
G01*
%TO.C,D6*%
X129065000Y-41765000D02*
X129065000Y-35605000D01*
X129065000Y-41765000D02*
X123945000Y-41765000D01*
X127775000Y-41895000D02*
X127775000Y-41895000D01*
X127775000Y-41895000D02*
X127775000Y-41765000D01*
X127775000Y-41765000D02*
X127775000Y-41895000D01*
X127775000Y-41765000D02*
X127775000Y-41765000D01*
X125235000Y-41895000D02*
X125235000Y-41895000D01*
X125235000Y-41895000D02*
X125235000Y-41765000D01*
X125235000Y-41765000D02*
X125235000Y-41895000D01*
X125235000Y-41765000D02*
X125235000Y-41765000D01*
X123945000Y-41765000D02*
X123945000Y-35605000D01*
X123945000Y-41765000D02*
X123545000Y-41765000D01*
X123945000Y-40645000D02*
X123945000Y-41765000D01*
X123545000Y-41765000D02*
X123545000Y-40645000D01*
X123545000Y-40645000D02*
X123945000Y-40645000D01*
X123945000Y-35605000D02*
G75*
G02*
X129065000Y-35605000I2560000J0D01*
G01*
%TO.C,D4*%
X82265000Y-42435000D02*
X76105000Y-42435000D01*
X82265000Y-42435000D02*
X82265000Y-47555000D01*
X82395000Y-43725000D02*
X82395000Y-43725000D01*
X82395000Y-43725000D02*
X82265000Y-43725000D01*
X82265000Y-43725000D02*
X82395000Y-43725000D01*
X82265000Y-43725000D02*
X82265000Y-43725000D01*
X82395000Y-46265000D02*
X82395000Y-46265000D01*
X82395000Y-46265000D02*
X82265000Y-46265000D01*
X82265000Y-46265000D02*
X82395000Y-46265000D01*
X82265000Y-46265000D02*
X82265000Y-46265000D01*
X82265000Y-47555000D02*
X76105000Y-47555000D01*
X82265000Y-47555000D02*
X82265000Y-47955000D01*
X81145000Y-47555000D02*
X82265000Y-47555000D01*
X82265000Y-47955000D02*
X81145000Y-47955000D01*
X81145000Y-47955000D02*
X81145000Y-47555000D01*
X76105000Y-47555000D02*
G75*
G02*
X76105000Y-42435000I0J2560000D01*
G01*
%TO.C,D3*%
X156735000Y-47565000D02*
X162895000Y-47565000D01*
X156735000Y-47565000D02*
X156735000Y-42445000D01*
X156605000Y-46275000D02*
X156605000Y-46275000D01*
X156605000Y-46275000D02*
X156735000Y-46275000D01*
X156735000Y-46275000D02*
X156605000Y-46275000D01*
X156735000Y-46275000D02*
X156735000Y-46275000D01*
X156605000Y-43735000D02*
X156605000Y-43735000D01*
X156605000Y-43735000D02*
X156735000Y-43735000D01*
X156735000Y-43735000D02*
X156605000Y-43735000D01*
X156735000Y-43735000D02*
X156735000Y-43735000D01*
X156735000Y-42445000D02*
X162895000Y-42445000D01*
X156735000Y-42445000D02*
X156735000Y-42045000D01*
X157855000Y-42445000D02*
X156735000Y-42445000D01*
X156735000Y-42045000D02*
X157855000Y-42045000D01*
X157855000Y-42045000D02*
X157855000Y-42445000D01*
X162895000Y-42445000D02*
G75*
G02*
X162895000Y-47565000I0J-2560000D01*
G01*
%TO.C,D2*%
X115065000Y-41765000D02*
X115065000Y-35605000D01*
X115065000Y-41765000D02*
X109945000Y-41765000D01*
X113775000Y-41895000D02*
X113775000Y-41895000D01*
X113775000Y-41895000D02*
X113775000Y-41765000D01*
X113775000Y-41765000D02*
X113775000Y-41895000D01*
X113775000Y-41765000D02*
X113775000Y-41765000D01*
X111235000Y-41895000D02*
X111235000Y-41895000D01*
X111235000Y-41895000D02*
X111235000Y-41765000D01*
X111235000Y-41765000D02*
X111235000Y-41895000D01*
X111235000Y-41765000D02*
X111235000Y-41765000D01*
X109945000Y-41765000D02*
X109945000Y-35605000D01*
X109945000Y-41765000D02*
X109545000Y-41765000D01*
X109945000Y-40645000D02*
X109945000Y-41765000D01*
X109545000Y-41765000D02*
X109545000Y-40645000D01*
X109545000Y-40645000D02*
X109945000Y-40645000D01*
X109945000Y-35605000D02*
G75*
G02*
X115065000Y-35605000I2560000J0D01*
G01*
%TO.C,D1*%
X82265000Y-55435000D02*
X76105000Y-55435000D01*
X82265000Y-55435000D02*
X82265000Y-60555000D01*
X82395000Y-56725000D02*
X82395000Y-56725000D01*
X82395000Y-56725000D02*
X82265000Y-56725000D01*
X82265000Y-56725000D02*
X82395000Y-56725000D01*
X82265000Y-56725000D02*
X82265000Y-56725000D01*
X82395000Y-59265000D02*
X82395000Y-59265000D01*
X82395000Y-59265000D02*
X82265000Y-59265000D01*
X82265000Y-59265000D02*
X82395000Y-59265000D01*
X82265000Y-59265000D02*
X82265000Y-59265000D01*
X82265000Y-60555000D02*
X76105000Y-60555000D01*
X82265000Y-60555000D02*
X82265000Y-60955000D01*
X81145000Y-60555000D02*
X82265000Y-60555000D01*
X82265000Y-60955000D02*
X81145000Y-60955000D01*
X81145000Y-60955000D02*
X81145000Y-60555000D01*
X76105000Y-60555000D02*
G75*
G02*
X76105000Y-55435000I0J2560000D01*
G01*
%TO.C,J1*%
X134530000Y-60830000D02*
X101450000Y-60830000D01*
X137130000Y-60830000D02*
X135800000Y-60830000D01*
X137130000Y-59500000D02*
X137130000Y-60830000D01*
X134530000Y-58230000D02*
X134530000Y-60830000D01*
X137130000Y-58230000D02*
X134530000Y-58230000D01*
X101450000Y-55630000D02*
X101450000Y-60830000D01*
X137130000Y-55630000D02*
X137130000Y-58230000D01*
X137130000Y-55630000D02*
X101450000Y-55630000D01*
%TO.C,R9*%
X97762742Y-52477500D02*
X98237258Y-52477500D01*
X97762742Y-53522500D02*
X98237258Y-53522500D01*
%TO.C,TP5*%
X139550000Y-42550000D02*
X141450000Y-42550000D01*
X139550000Y-44450000D02*
X139550000Y-42550000D01*
X141450000Y-42550000D02*
X141450000Y-44450000D01*
X141450000Y-44450000D02*
X139550000Y-44450000D01*
%TO.C,TP4*%
X105050000Y-42550000D02*
X106950000Y-42550000D01*
X105050000Y-44450000D02*
X105050000Y-42550000D01*
X106950000Y-42550000D02*
X106950000Y-44450000D01*
X106950000Y-44450000D02*
X105050000Y-44450000D01*
%TO.C,TP3*%
X138550000Y-47550000D02*
X140450000Y-47550000D01*
X138550000Y-49450000D02*
X138550000Y-47550000D01*
X140450000Y-47550000D02*
X140450000Y-49450000D01*
X140450000Y-49450000D02*
X138550000Y-49450000D01*
%TO.C,TP2*%
X98050000Y-47050000D02*
X99950000Y-47050000D01*
X98050000Y-48950000D02*
X98050000Y-47050000D01*
X99950000Y-47050000D02*
X99950000Y-48950000D01*
X99950000Y-48950000D02*
X98050000Y-48950000D01*
%TO.C,TP1*%
X95550000Y-42550000D02*
X97450000Y-42550000D01*
X95550000Y-44450000D02*
X95550000Y-42550000D01*
X97450000Y-42550000D02*
X97450000Y-44450000D01*
X97450000Y-44450000D02*
X95550000Y-44450000D01*
%TO.C,R21*%
X150262742Y-54477500D02*
X150737258Y-54477500D01*
X150262742Y-55522500D02*
X150737258Y-55522500D01*
%TO.C,R20*%
X150262742Y-50977500D02*
X150737258Y-50977500D01*
X150262742Y-52022500D02*
X150737258Y-52022500D01*
%TO.C,R19*%
X87762742Y-54477500D02*
X88237258Y-54477500D01*
X87762742Y-55522500D02*
X88237258Y-55522500D01*
%TO.C,R18*%
X150262742Y-47477500D02*
X150737258Y-47477500D01*
X150262742Y-48522500D02*
X150737258Y-48522500D01*
%TO.C,R17*%
X124437742Y-47477500D02*
X124912258Y-47477500D01*
X124437742Y-48522500D02*
X124912258Y-48522500D01*
%TO.C,R16*%
X117262742Y-47477500D02*
X117737258Y-47477500D01*
X117262742Y-48522500D02*
X117737258Y-48522500D01*
%TO.C,R15*%
X109762742Y-47477500D02*
X110237258Y-47477500D01*
X109762742Y-48522500D02*
X110237258Y-48522500D01*
%TO.C,R14*%
X150262742Y-57977500D02*
X150737258Y-57977500D01*
X150262742Y-59022500D02*
X150737258Y-59022500D01*
%TO.C,R13*%
X131587742Y-47477500D02*
X132062258Y-47477500D01*
X131587742Y-48522500D02*
X132062258Y-48522500D01*
%TO.C,R12*%
X87762742Y-43977500D02*
X88237258Y-43977500D01*
X87762742Y-45022500D02*
X88237258Y-45022500D01*
%TO.C,R11*%
X140262742Y-52477500D02*
X140737258Y-52477500D01*
X140262742Y-53522500D02*
X140737258Y-53522500D01*
%TO.C,R10*%
X132937742Y-52477500D02*
X133412258Y-52477500D01*
X132937742Y-53522500D02*
X133412258Y-53522500D01*
%TO.C,R8*%
X87762742Y-50977500D02*
X88237258Y-50977500D01*
X87762742Y-52022500D02*
X88237258Y-52022500D01*
%TO.C,R7*%
X87762742Y-47477500D02*
X88237258Y-47477500D01*
X87762742Y-48522500D02*
X88237258Y-48522500D01*
%TO.C,R6*%
X105087742Y-52477500D02*
X105562258Y-52477500D01*
X105087742Y-53522500D02*
X105562258Y-53522500D01*
%TO.C,R5*%
X125762742Y-52477500D02*
X126237258Y-52477500D01*
X125762742Y-53522500D02*
X126237258Y-53522500D01*
%TO.C,R4*%
X87762742Y-57977500D02*
X88237258Y-57977500D01*
X87762742Y-59022500D02*
X88237258Y-59022500D01*
%TO.C,R3*%
X112762742Y-52477500D02*
X113237258Y-52477500D01*
X112762742Y-53522500D02*
X113237258Y-53522500D01*
%TO.C,R2*%
X150262742Y-43477500D02*
X150737258Y-43477500D01*
X150262742Y-44522500D02*
X150737258Y-44522500D01*
%TO.C,R1*%
X106262742Y-47477500D02*
X106737258Y-47477500D01*
X106262742Y-48522500D02*
X106737258Y-48522500D01*
%TO.C,Q2*%
X135562500Y-46940000D02*
X134912500Y-46940000D01*
X135562500Y-46940000D02*
X136212500Y-46940000D01*
X135562500Y-50060000D02*
X134912500Y-50060000D01*
X135562500Y-50060000D02*
X136212500Y-50060000D01*
X134400000Y-46990000D02*
X134160000Y-46660000D01*
X134640000Y-46660000D01*
X134400000Y-46990000D01*
G36*
X134400000Y-46990000D02*
G01*
X134160000Y-46660000D01*
X134640000Y-46660000D01*
X134400000Y-46990000D01*
G37*
%TO.C,Q1*%
X102562500Y-46440000D02*
X101912500Y-46440000D01*
X102562500Y-46440000D02*
X103212500Y-46440000D01*
X102562500Y-49560000D02*
X101912500Y-49560000D01*
X102562500Y-49560000D02*
X103212500Y-49560000D01*
X101400000Y-46490000D02*
X101160000Y-46160000D01*
X101640000Y-46160000D01*
X101400000Y-46490000D01*
G36*
X101400000Y-46490000D02*
G01*
X101160000Y-46160000D01*
X101640000Y-46160000D01*
X101400000Y-46490000D01*
G37*
%TO.C,JP15*%
X144450000Y-56800000D02*
X144450000Y-56200000D01*
X145150000Y-55500000D02*
X146550000Y-55500000D01*
X146550000Y-57500000D02*
X145150000Y-57500000D01*
X147250000Y-56200000D02*
X147250000Y-56800000D01*
X144450000Y-56200000D02*
G75*
G02*
X145150000Y-55500000I699999J1D01*
G01*
X145150000Y-57500000D02*
G75*
G02*
X144450000Y-56800000I-1J699999D01*
G01*
X146550000Y-55500000D02*
G75*
G02*
X147250000Y-56200000I0J-700000D01*
G01*
X147250000Y-56800000D02*
G75*
G02*
X146550000Y-57500000I-700000J0D01*
G01*
%TO.C,JP14*%
X144450000Y-51800000D02*
X144450000Y-51200000D01*
X145150000Y-50500000D02*
X146550000Y-50500000D01*
X146550000Y-52500000D02*
X145150000Y-52500000D01*
X147250000Y-51200000D02*
X147250000Y-51800000D01*
X144450000Y-51200000D02*
G75*
G02*
X145150000Y-50500000I699999J1D01*
G01*
X145150000Y-52500000D02*
G75*
G02*
X144450000Y-51800000I-1J699999D01*
G01*
X146550000Y-50500000D02*
G75*
G02*
X147250000Y-51200000I0J-700000D01*
G01*
X147250000Y-51800000D02*
G75*
G02*
X146550000Y-52500000I-700000J0D01*
G01*
%TO.C,JP13*%
X144450000Y-46800000D02*
X144450000Y-46200000D01*
X145150000Y-45500000D02*
X146550000Y-45500000D01*
X146550000Y-47500000D02*
X145150000Y-47500000D01*
X147250000Y-46200000D02*
X147250000Y-46800000D01*
X144450000Y-46200000D02*
G75*
G02*
X145150000Y-45500000I699999J1D01*
G01*
X145150000Y-47500000D02*
G75*
G02*
X144450000Y-46800000I-1J699999D01*
G01*
X146550000Y-45500000D02*
G75*
G02*
X147250000Y-46200000I0J-700000D01*
G01*
X147250000Y-46800000D02*
G75*
G02*
X146550000Y-47500000I-700000J0D01*
G01*
%TO.C,JP12*%
X126750000Y-48300000D02*
X126750000Y-47700000D01*
X127450000Y-47000000D02*
X128850000Y-47000000D01*
X128850000Y-49000000D02*
X127450000Y-49000000D01*
X129550000Y-47700000D02*
X129550000Y-48300000D01*
X126750000Y-47700000D02*
G75*
G02*
X127450000Y-47000000I699999J1D01*
G01*
X127450000Y-49000000D02*
G75*
G02*
X126750000Y-48300000I-1J699999D01*
G01*
X128850000Y-47000000D02*
G75*
G02*
X129550000Y-47700000I0J-700000D01*
G01*
X129550000Y-48300000D02*
G75*
G02*
X128850000Y-49000000I-700000J0D01*
G01*
%TO.C,JP11*%
X119750000Y-48300000D02*
X119750000Y-47700000D01*
X120450000Y-47000000D02*
X121850000Y-47000000D01*
X121850000Y-49000000D02*
X120450000Y-49000000D01*
X122550000Y-47700000D02*
X122550000Y-48300000D01*
X119750000Y-47700000D02*
G75*
G02*
X120450000Y-47000000I699999J1D01*
G01*
X120450000Y-49000000D02*
G75*
G02*
X119750000Y-48300000I-1J699999D01*
G01*
X121850000Y-47000000D02*
G75*
G02*
X122550000Y-47700000I0J-700000D01*
G01*
X122550000Y-48300000D02*
G75*
G02*
X121850000Y-49000000I-700000J0D01*
G01*
%TO.C,JP10*%
X112450000Y-48300000D02*
X112450000Y-47700000D01*
X113150000Y-47000000D02*
X114550000Y-47000000D01*
X114550000Y-49000000D02*
X113150000Y-49000000D01*
X115250000Y-47700000D02*
X115250000Y-48300000D01*
X112450000Y-47700000D02*
G75*
G02*
X113150000Y-47000000I699999J1D01*
G01*
X113150000Y-49000000D02*
G75*
G02*
X112450000Y-48300000I-1J699999D01*
G01*
X114550000Y-47000000D02*
G75*
G02*
X115250000Y-47700000I0J-700000D01*
G01*
X115250000Y-48300000D02*
G75*
G02*
X114550000Y-49000000I-700000J0D01*
G01*
%TO.C,JP9*%
X91450000Y-56300000D02*
X91450000Y-55700000D01*
X92150000Y-55000000D02*
X93550000Y-55000000D01*
X93550000Y-57000000D02*
X92150000Y-57000000D01*
X94250000Y-55700000D02*
X94250000Y-56300000D01*
X91450000Y-55700000D02*
G75*
G02*
X92150000Y-55000000I699999J1D01*
G01*
X92150000Y-57000000D02*
G75*
G02*
X91450000Y-56300000I-1J699999D01*
G01*
X93550000Y-55000000D02*
G75*
G02*
X94250000Y-55700000I0J-700000D01*
G01*
X94250000Y-56300000D02*
G75*
G02*
X93550000Y-57000000I-700000J0D01*
G01*
%TO.C,JP8*%
X91450000Y-51800000D02*
X91450000Y-51200000D01*
X92150000Y-50500000D02*
X93550000Y-50500000D01*
X93550000Y-52500000D02*
X92150000Y-52500000D01*
X94250000Y-51200000D02*
X94250000Y-51800000D01*
X91450000Y-51200000D02*
G75*
G02*
X92150000Y-50500000I699999J1D01*
G01*
X92150000Y-52500000D02*
G75*
G02*
X91450000Y-51800000I-1J699999D01*
G01*
X93550000Y-50500000D02*
G75*
G02*
X94250000Y-51200000I0J-700000D01*
G01*
X94250000Y-51800000D02*
G75*
G02*
X93550000Y-52500000I-700000J0D01*
G01*
%TO.C,JP7*%
X91450000Y-47300000D02*
X91450000Y-46700000D01*
X92150000Y-46000000D02*
X93550000Y-46000000D01*
X93550000Y-48000000D02*
X92150000Y-48000000D01*
X94250000Y-46700000D02*
X94250000Y-47300000D01*
X91450000Y-46700000D02*
G75*
G02*
X92150000Y-46000000I699999J1D01*
G01*
X92150000Y-48000000D02*
G75*
G02*
X91450000Y-47300000I-1J699999D01*
G01*
X93550000Y-46000000D02*
G75*
G02*
X94250000Y-46700000I0J-700000D01*
G01*
X94250000Y-47300000D02*
G75*
G02*
X93550000Y-48000000I-700000J0D01*
G01*
%TO.C,JP6*%
X135600000Y-53300000D02*
X135600000Y-52700000D01*
X136300000Y-52000000D02*
X137700000Y-52000000D01*
X137700000Y-54000000D02*
X136300000Y-54000000D01*
X138400000Y-52700000D02*
X138400000Y-53300000D01*
X135600000Y-52700000D02*
G75*
G02*
X136300000Y-52000000I699999J1D01*
G01*
X136300000Y-54000000D02*
G75*
G02*
X135600000Y-53300000I-1J699999D01*
G01*
X137700000Y-52000000D02*
G75*
G02*
X138400000Y-52700000I0J-700000D01*
G01*
X138400000Y-53300000D02*
G75*
G02*
X137700000Y-54000000I-700000J0D01*
G01*
%TO.C,JP5*%
X128100000Y-53300000D02*
X128100000Y-52700000D01*
X128800000Y-52000000D02*
X130200000Y-52000000D01*
X130200000Y-54000000D02*
X128800000Y-54000000D01*
X130900000Y-52700000D02*
X130900000Y-53300000D01*
X128100000Y-52700000D02*
G75*
G02*
X128800000Y-52000000I699999J1D01*
G01*
X128800000Y-54000000D02*
G75*
G02*
X128100000Y-53300000I-1J699999D01*
G01*
X130200000Y-52000000D02*
G75*
G02*
X130900000Y-52700000I0J-700000D01*
G01*
X130900000Y-53300000D02*
G75*
G02*
X130200000Y-54000000I-700000J0D01*
G01*
%TO.C,JP4*%
X120950000Y-53300000D02*
X120950000Y-52700000D01*
X121650000Y-52000000D02*
X123050000Y-52000000D01*
X123050000Y-54000000D02*
X121650000Y-54000000D01*
X123750000Y-52700000D02*
X123750000Y-53300000D01*
X120950000Y-52700000D02*
G75*
G02*
X121650000Y-52000000I699999J1D01*
G01*
X121650000Y-54000000D02*
G75*
G02*
X120950000Y-53300000I-1J699999D01*
G01*
X123050000Y-52000000D02*
G75*
G02*
X123750000Y-52700000I0J-700000D01*
G01*
X123750000Y-53300000D02*
G75*
G02*
X123050000Y-54000000I-700000J0D01*
G01*
%TO.C,JP3*%
X100100000Y-53300000D02*
X100100000Y-52700000D01*
X100800000Y-52000000D02*
X102200000Y-52000000D01*
X102200000Y-54000000D02*
X100800000Y-54000000D01*
X102900000Y-52700000D02*
X102900000Y-53300000D01*
X100100000Y-52700000D02*
G75*
G02*
X100800000Y-52000000I699999J1D01*
G01*
X100800000Y-54000000D02*
G75*
G02*
X100100000Y-53300000I-1J699999D01*
G01*
X102200000Y-52000000D02*
G75*
G02*
X102900000Y-52700000I0J-700000D01*
G01*
X102900000Y-53300000D02*
G75*
G02*
X102200000Y-54000000I-700000J0D01*
G01*
%TO.C,JP2*%
X107750000Y-53300000D02*
X107750000Y-52700000D01*
X108450000Y-52000000D02*
X109850000Y-52000000D01*
X109850000Y-54000000D02*
X108450000Y-54000000D01*
X110550000Y-52700000D02*
X110550000Y-53300000D01*
X107750000Y-52700000D02*
G75*
G02*
X108450000Y-52000000I699999J1D01*
G01*
X108450000Y-54000000D02*
G75*
G02*
X107750000Y-53300000I-1J699999D01*
G01*
X109850000Y-52000000D02*
G75*
G02*
X110550000Y-52700000I0J-700000D01*
G01*
X110550000Y-53300000D02*
G75*
G02*
X109850000Y-54000000I-700000J0D01*
G01*
%TO.C,JP1*%
X115450000Y-53300000D02*
X115450000Y-52700000D01*
X116150000Y-52000000D02*
X117550000Y-52000000D01*
X117550000Y-54000000D02*
X116150000Y-54000000D01*
X118250000Y-52700000D02*
X118250000Y-53300000D01*
X115450000Y-52700000D02*
G75*
G02*
X116150000Y-52000000I699999J1D01*
G01*
X116150000Y-54000000D02*
G75*
G02*
X115450000Y-53300000I-1J699999D01*
G01*
X117550000Y-52000000D02*
G75*
G02*
X118250000Y-52700000I0J-700000D01*
G01*
X118250000Y-53300000D02*
G75*
G02*
X117550000Y-54000000I-700000J0D01*
G01*
%TO.C,D9*%
X156735000Y-54065000D02*
X162895000Y-54065000D01*
X156735000Y-54065000D02*
X156735000Y-48945000D01*
X156605000Y-52775000D02*
X156605000Y-52775000D01*
X156605000Y-52775000D02*
X156735000Y-52775000D01*
X156735000Y-52775000D02*
X156605000Y-52775000D01*
X156735000Y-52775000D02*
X156735000Y-52775000D01*
X156605000Y-50235000D02*
X156605000Y-50235000D01*
X156605000Y-50235000D02*
X156735000Y-50235000D01*
X156735000Y-50235000D02*
X156605000Y-50235000D01*
X156735000Y-50235000D02*
X156735000Y-50235000D01*
X156735000Y-48945000D02*
X162895000Y-48945000D01*
X156735000Y-48945000D02*
X156735000Y-48545000D01*
X157855000Y-48945000D02*
X156735000Y-48945000D01*
X156735000Y-48545000D02*
X157855000Y-48545000D01*
X157855000Y-48545000D02*
X157855000Y-48945000D01*
X162895000Y-48945000D02*
G75*
G02*
X162895000Y-54065000I0J-2560000D01*
G01*
%TO.C,D8*%
X122065000Y-41765000D02*
X122065000Y-35605000D01*
X122065000Y-41765000D02*
X116945000Y-41765000D01*
X120775000Y-41895000D02*
X120775000Y-41895000D01*
X120775000Y-41895000D02*
X120775000Y-41765000D01*
X120775000Y-41765000D02*
X120775000Y-41895000D01*
X120775000Y-41765000D02*
X120775000Y-41765000D01*
X118235000Y-41895000D02*
X118235000Y-41895000D01*
X118235000Y-41895000D02*
X118235000Y-41765000D01*
X118235000Y-41765000D02*
X118235000Y-41895000D01*
X118235000Y-41765000D02*
X118235000Y-41765000D01*
X116945000Y-41765000D02*
X116945000Y-35605000D01*
X116945000Y-41765000D02*
X116545000Y-41765000D01*
X116945000Y-40645000D02*
X116945000Y-41765000D01*
X116545000Y-41765000D02*
X116545000Y-40645000D01*
X116545000Y-40645000D02*
X116945000Y-40645000D01*
X116945000Y-35605000D02*
G75*
G02*
X122065000Y-35605000I2560000J0D01*
G01*
%TO.C,D5*%
X82265000Y-48935000D02*
X76105000Y-48935000D01*
X82265000Y-48935000D02*
X82265000Y-54055000D01*
X82395000Y-50225000D02*
X82395000Y-50225000D01*
X82395000Y-50225000D02*
X82265000Y-50225000D01*
X82265000Y-50225000D02*
X82395000Y-50225000D01*
X82265000Y-50225000D02*
X82265000Y-50225000D01*
X82395000Y-52765000D02*
X82395000Y-52765000D01*
X82395000Y-52765000D02*
X82265000Y-52765000D01*
X82265000Y-52765000D02*
X82395000Y-52765000D01*
X82265000Y-52765000D02*
X82265000Y-52765000D01*
X82265000Y-54055000D02*
X76105000Y-54055000D01*
X82265000Y-54055000D02*
X82265000Y-54455000D01*
X81145000Y-54055000D02*
X82265000Y-54055000D01*
X82265000Y-54455000D02*
X81145000Y-54455000D01*
X81145000Y-54455000D02*
X81145000Y-54055000D01*
X76105000Y-54055000D02*
G75*
G02*
X76105000Y-48935000I0J2560000D01*
G01*
%TD*%
%LPC*%
D13*
%TO.C,D7*%
X155525000Y-59275000D03*
D14*
X155525000Y-56735000D03*
%TD*%
D13*
%TO.C,D6*%
X127775000Y-42975000D03*
D14*
X125235000Y-42975000D03*
%TD*%
D13*
%TO.C,D4*%
X83475000Y-43725000D03*
D14*
X83475000Y-46265000D03*
%TD*%
D13*
%TO.C,D3*%
X155525000Y-46275000D03*
D14*
X155525000Y-43735000D03*
%TD*%
D13*
%TO.C,D2*%
X113775000Y-42975000D03*
D14*
X111235000Y-42975000D03*
%TD*%
D13*
%TO.C,D1*%
X83475000Y-56725000D03*
D14*
X83475000Y-59265000D03*
%TD*%
D15*
%TO.C,J1*%
X102780000Y-56960000D03*
X102780000Y-59500000D03*
X105320000Y-56960000D03*
X105320000Y-59500000D03*
X107860000Y-56960000D03*
X107860000Y-59500000D03*
X110400000Y-56960000D03*
X110400000Y-59500000D03*
X112940000Y-56960000D03*
X112940000Y-59500000D03*
X115480000Y-56960000D03*
X115480000Y-59500000D03*
X118020000Y-56960000D03*
X118020000Y-59500000D03*
X120560000Y-56960000D03*
X120560000Y-59500000D03*
X123100000Y-56960000D03*
X123100000Y-59500000D03*
X125640000Y-56960000D03*
X125640000Y-59500000D03*
X128180000Y-56960000D03*
X128180000Y-59500000D03*
X130720000Y-56960000D03*
X130720000Y-59500000D03*
X133260000Y-56960000D03*
X133260000Y-59500000D03*
X135800000Y-56960000D03*
D16*
X135800000Y-59500000D03*
%TD*%
D17*
%TO.C,R9*%
X97175000Y-53000000D03*
X98825000Y-53000000D03*
%TD*%
D18*
%TO.C,TP5*%
X140500000Y-43500000D03*
%TD*%
%TO.C,TP4*%
X106000000Y-43500000D03*
%TD*%
%TO.C,TP3*%
X139500000Y-48500000D03*
%TD*%
%TO.C,TP2*%
X99000000Y-48000000D03*
%TD*%
%TO.C,TP1*%
X96500000Y-43500000D03*
%TD*%
D17*
%TO.C,R21*%
X149675000Y-55000000D03*
X151325000Y-55000000D03*
%TD*%
%TO.C,R20*%
X149675000Y-51500000D03*
X151325000Y-51500000D03*
%TD*%
%TO.C,R19*%
X87175000Y-55000000D03*
X88825000Y-55000000D03*
%TD*%
%TO.C,R18*%
X149675000Y-48000000D03*
X151325000Y-48000000D03*
%TD*%
%TO.C,R17*%
X123850000Y-48000000D03*
X125500000Y-48000000D03*
%TD*%
%TO.C,R16*%
X116675000Y-48000000D03*
X118325000Y-48000000D03*
%TD*%
%TO.C,R15*%
X109175000Y-48000000D03*
X110825000Y-48000000D03*
%TD*%
%TO.C,R14*%
X149675000Y-58500000D03*
X151325000Y-58500000D03*
%TD*%
%TO.C,R13*%
X131000000Y-48000000D03*
X132650000Y-48000000D03*
%TD*%
%TO.C,R12*%
X87175000Y-44500000D03*
X88825000Y-44500000D03*
%TD*%
%TO.C,R11*%
X139675000Y-53000000D03*
X141325000Y-53000000D03*
%TD*%
%TO.C,R10*%
X132350000Y-53000000D03*
X134000000Y-53000000D03*
%TD*%
%TO.C,R8*%
X87175000Y-51500000D03*
X88825000Y-51500000D03*
%TD*%
%TO.C,R7*%
X87175000Y-48000000D03*
X88825000Y-48000000D03*
%TD*%
%TO.C,R6*%
X104500000Y-53000000D03*
X106150000Y-53000000D03*
%TD*%
%TO.C,R5*%
X125175000Y-53000000D03*
X126825000Y-53000000D03*
%TD*%
%TO.C,R4*%
X87175000Y-58500000D03*
X88825000Y-58500000D03*
%TD*%
%TO.C,R3*%
X112175000Y-53000000D03*
X113825000Y-53000000D03*
%TD*%
%TO.C,R2*%
X149675000Y-44000000D03*
X151325000Y-44000000D03*
%TD*%
%TO.C,R1*%
X105675000Y-48000000D03*
X107325000Y-48000000D03*
%TD*%
D19*
%TO.C,Q2*%
X134625000Y-47550000D03*
X134625000Y-49450000D03*
X136500000Y-48500000D03*
%TD*%
%TO.C,Q1*%
X101625000Y-47050000D03*
X101625000Y-48950000D03*
X103500000Y-48000000D03*
%TD*%
D20*
%TO.C,JP15*%
X145200000Y-56500000D03*
D21*
X146500000Y-56500000D03*
%TD*%
D20*
%TO.C,JP14*%
X145200000Y-51500000D03*
D21*
X146500000Y-51500000D03*
%TD*%
D20*
%TO.C,JP13*%
X145200000Y-46500000D03*
D21*
X146500000Y-46500000D03*
%TD*%
D20*
%TO.C,JP12*%
X127500000Y-48000000D03*
D21*
X128800000Y-48000000D03*
%TD*%
D20*
%TO.C,JP11*%
X120500000Y-48000000D03*
D21*
X121800000Y-48000000D03*
%TD*%
D20*
%TO.C,JP10*%
X113200000Y-48000000D03*
D21*
X114500000Y-48000000D03*
%TD*%
D20*
%TO.C,JP9*%
X92200000Y-56000000D03*
D21*
X93500000Y-56000000D03*
%TD*%
D20*
%TO.C,JP8*%
X92200000Y-51500000D03*
D21*
X93500000Y-51500000D03*
%TD*%
D20*
%TO.C,JP7*%
X92200000Y-47000000D03*
D21*
X93500000Y-47000000D03*
%TD*%
D20*
%TO.C,JP6*%
X136350000Y-53000000D03*
D21*
X137650000Y-53000000D03*
%TD*%
D20*
%TO.C,JP5*%
X128850000Y-53000000D03*
D21*
X130150000Y-53000000D03*
%TD*%
D20*
%TO.C,JP4*%
X121700000Y-53000000D03*
D21*
X123000000Y-53000000D03*
%TD*%
D20*
%TO.C,JP3*%
X100850000Y-53000000D03*
D21*
X102150000Y-53000000D03*
%TD*%
D20*
%TO.C,JP2*%
X108500000Y-53000000D03*
D21*
X109800000Y-53000000D03*
%TD*%
D20*
%TO.C,JP1*%
X116200000Y-53000000D03*
D21*
X117500000Y-53000000D03*
%TD*%
D13*
%TO.C,D9*%
X155525000Y-52775000D03*
D14*
X155525000Y-50235000D03*
%TD*%
D13*
%TO.C,D8*%
X120775000Y-42975000D03*
D14*
X118235000Y-42975000D03*
%TD*%
D13*
%TO.C,D5*%
X83475000Y-50225000D03*
D14*
X83475000Y-52765000D03*
%TD*%
%LPD*%
M02*
