%TF.GenerationSoftware,KiCad,Pcbnew,8.0.0*%
%TF.CreationDate,2024-03-24T20:02:06+02:00*%
%TF.ProjectId,Power Subsystem,506f7765-7220-4537-9562-73797374656d,rev?*%
%TF.SameCoordinates,Original*%
%TF.FileFunction,Legend,Top*%
%TF.FilePolarity,Positive*%
%FSLAX46Y46*%
G04 Gerber Fmt 4.6, Leading zero omitted, Abs format (unit mm)*
G04 Created by KiCad (PCBNEW 8.0.0) date 2024-03-24 20:02:06*
%MOMM*%
%LPD*%
G01*
G04 APERTURE LIST*
G04 Aperture macros list*
%AMRoundRect*
0 Rectangle with rounded corners*
0 $1 Rounding radius*
0 $2 $3 $4 $5 $6 $7 $8 $9 X,Y pos of 4 corners*
0 Add a 4 corners polygon primitive as box body*
4,1,4,$2,$3,$4,$5,$6,$7,$8,$9,$2,$3,0*
0 Add four circle primitives for the rounded corners*
1,1,$1+$1,$2,$3*
1,1,$1+$1,$4,$5*
1,1,$1+$1,$6,$7*
1,1,$1+$1,$8,$9*
0 Add four rect primitives between the rounded corners*
20,1,$1+$1,$2,$3,$4,$5,0*
20,1,$1+$1,$4,$5,$6,$7,0*
20,1,$1+$1,$6,$7,$8,$9,0*
20,1,$1+$1,$8,$9,$2,$3,0*%
%AMFreePoly0*
4,1,19,0.500000,-0.750000,0.000000,-0.750000,0.000000,-0.744911,-0.071157,-0.744911,-0.207708,-0.704816,-0.327430,-0.627875,-0.420627,-0.520320,-0.479746,-0.390866,-0.500000,-0.250000,-0.500000,0.250000,-0.479746,0.390866,-0.420627,0.520320,-0.327430,0.627875,-0.207708,0.704816,-0.071157,0.744911,0.000000,0.744911,0.000000,0.750000,0.500000,0.750000,0.500000,-0.750000,0.500000,-0.750000,
$1*%
%AMFreePoly1*
4,1,19,0.000000,0.744911,0.071157,0.744911,0.207708,0.704816,0.327430,0.627875,0.420627,0.520320,0.479746,0.390866,0.500000,0.250000,0.500000,-0.250000,0.479746,-0.390866,0.420627,-0.520320,0.327430,-0.627875,0.207708,-0.704816,0.071157,-0.744911,0.000000,-0.744911,0.000000,-0.750000,-0.500000,-0.750000,-0.500000,0.750000,0.000000,0.750000,0.000000,0.744911,0.000000,0.744911,
$1*%
%AMFreePoly2*
4,1,6,1.000000,0.000000,0.500000,-0.750000,-0.500000,-0.750000,-0.500000,0.750000,0.500000,0.750000,1.000000,0.000000,1.000000,0.000000,$1*%
%AMFreePoly3*
4,1,6,0.500000,-0.750000,-0.650000,-0.750000,-0.150000,0.000000,-0.650000,0.750000,0.500000,0.750000,0.500000,-0.750000,0.500000,-0.750000,$1*%
G04 Aperture macros list end*
%ADD10C,0.150000*%
%ADD11C,0.254000*%
%ADD12C,0.120000*%
%ADD13C,2.500000*%
%ADD14FreePoly0,0.000000*%
%ADD15FreePoly1,0.000000*%
%ADD16RoundRect,0.140000X0.140000X0.170000X-0.140000X0.170000X-0.140000X-0.170000X0.140000X-0.170000X0*%
%ADD17RoundRect,0.200000X-0.200000X-0.275000X0.200000X-0.275000X0.200000X0.275000X-0.200000X0.275000X0*%
%ADD18R,3.800000X2.000000*%
%ADD19RoundRect,0.250000X0.350000X0.625000X-0.350000X0.625000X-0.350000X-0.625000X0.350000X-0.625000X0*%
%ADD20O,1.200000X1.750000*%
%ADD21FreePoly2,180.000000*%
%ADD22FreePoly3,180.000000*%
%ADD23FreePoly0,90.000000*%
%ADD24FreePoly1,90.000000*%
%ADD25FreePoly2,0.000000*%
%ADD26FreePoly3,0.000000*%
%ADD27RoundRect,0.062500X-0.187500X-0.062500X0.187500X-0.062500X0.187500X0.062500X-0.187500X0.062500X0*%
%ADD28R,0.900000X1.600000*%
%ADD29RoundRect,0.150000X-0.512500X-0.150000X0.512500X-0.150000X0.512500X0.150000X-0.512500X0.150000X0*%
%ADD30RoundRect,0.200000X0.200000X0.275000X-0.200000X0.275000X-0.200000X-0.275000X0.200000X-0.275000X0*%
%ADD31RoundRect,0.135000X0.135000X0.185000X-0.135000X0.185000X-0.135000X-0.185000X0.135000X-0.185000X0*%
%ADD32RoundRect,0.140000X-0.140000X-0.170000X0.140000X-0.170000X0.140000X0.170000X-0.140000X0.170000X0*%
%ADD33RoundRect,0.218750X-0.256250X0.218750X-0.256250X-0.218750X0.256250X-0.218750X0.256250X0.218750X0*%
%ADD34R,1.700000X1.700000*%
%ADD35O,1.700000X1.700000*%
G04 APERTURE END LIST*
D10*
X159956667Y-70257200D02*
X160099524Y-70304819D01*
X160099524Y-70304819D02*
X160337619Y-70304819D01*
X160337619Y-70304819D02*
X160432857Y-70257200D01*
X160432857Y-70257200D02*
X160480476Y-70209580D01*
X160480476Y-70209580D02*
X160528095Y-70114342D01*
X160528095Y-70114342D02*
X160528095Y-70019104D01*
X160528095Y-70019104D02*
X160480476Y-69923866D01*
X160480476Y-69923866D02*
X160432857Y-69876247D01*
X160432857Y-69876247D02*
X160337619Y-69828628D01*
X160337619Y-69828628D02*
X160147143Y-69781009D01*
X160147143Y-69781009D02*
X160051905Y-69733390D01*
X160051905Y-69733390D02*
X160004286Y-69685771D01*
X160004286Y-69685771D02*
X159956667Y-69590533D01*
X159956667Y-69590533D02*
X159956667Y-69495295D01*
X159956667Y-69495295D02*
X160004286Y-69400057D01*
X160004286Y-69400057D02*
X160051905Y-69352438D01*
X160051905Y-69352438D02*
X160147143Y-69304819D01*
X160147143Y-69304819D02*
X160385238Y-69304819D01*
X160385238Y-69304819D02*
X160528095Y-69352438D01*
X160861429Y-69304819D02*
X161099524Y-70304819D01*
X161099524Y-70304819D02*
X161290000Y-69590533D01*
X161290000Y-69590533D02*
X161480476Y-70304819D01*
X161480476Y-70304819D02*
X161718572Y-69304819D01*
X162623333Y-70304819D02*
X162051905Y-70304819D01*
X162337619Y-70304819D02*
X162337619Y-69304819D01*
X162337619Y-69304819D02*
X162242381Y-69447676D01*
X162242381Y-69447676D02*
X162147143Y-69542914D01*
X162147143Y-69542914D02*
X162051905Y-69590533D01*
X161980666Y-68034819D02*
X161980666Y-68749104D01*
X161980666Y-68749104D02*
X161933047Y-68891961D01*
X161933047Y-68891961D02*
X161837809Y-68987200D01*
X161837809Y-68987200D02*
X161694952Y-69034819D01*
X161694952Y-69034819D02*
X161599714Y-69034819D01*
X162456857Y-69034819D02*
X162456857Y-68034819D01*
X162456857Y-68034819D02*
X162837809Y-68034819D01*
X162837809Y-68034819D02*
X162933047Y-68082438D01*
X162933047Y-68082438D02*
X162980666Y-68130057D01*
X162980666Y-68130057D02*
X163028285Y-68225295D01*
X163028285Y-68225295D02*
X163028285Y-68368152D01*
X163028285Y-68368152D02*
X162980666Y-68463390D01*
X162980666Y-68463390D02*
X162933047Y-68511009D01*
X162933047Y-68511009D02*
X162837809Y-68558628D01*
X162837809Y-68558628D02*
X162456857Y-68558628D01*
X163980666Y-69034819D02*
X163409238Y-69034819D01*
X163694952Y-69034819D02*
X163694952Y-68034819D01*
X163694952Y-68034819D02*
X163599714Y-68177676D01*
X163599714Y-68177676D02*
X163504476Y-68272914D01*
X163504476Y-68272914D02*
X163409238Y-68320533D01*
X141576333Y-53782580D02*
X141528714Y-53830200D01*
X141528714Y-53830200D02*
X141385857Y-53877819D01*
X141385857Y-53877819D02*
X141290619Y-53877819D01*
X141290619Y-53877819D02*
X141147762Y-53830200D01*
X141147762Y-53830200D02*
X141052524Y-53734961D01*
X141052524Y-53734961D02*
X141004905Y-53639723D01*
X141004905Y-53639723D02*
X140957286Y-53449247D01*
X140957286Y-53449247D02*
X140957286Y-53306390D01*
X140957286Y-53306390D02*
X141004905Y-53115914D01*
X141004905Y-53115914D02*
X141052524Y-53020676D01*
X141052524Y-53020676D02*
X141147762Y-52925438D01*
X141147762Y-52925438D02*
X141290619Y-52877819D01*
X141290619Y-52877819D02*
X141385857Y-52877819D01*
X141385857Y-52877819D02*
X141528714Y-52925438D01*
X141528714Y-52925438D02*
X141576333Y-52973057D01*
X141909667Y-52877819D02*
X142528714Y-52877819D01*
X142528714Y-52877819D02*
X142195381Y-53258771D01*
X142195381Y-53258771D02*
X142338238Y-53258771D01*
X142338238Y-53258771D02*
X142433476Y-53306390D01*
X142433476Y-53306390D02*
X142481095Y-53354009D01*
X142481095Y-53354009D02*
X142528714Y-53449247D01*
X142528714Y-53449247D02*
X142528714Y-53687342D01*
X142528714Y-53687342D02*
X142481095Y-53782580D01*
X142481095Y-53782580D02*
X142433476Y-53830200D01*
X142433476Y-53830200D02*
X142338238Y-53877819D01*
X142338238Y-53877819D02*
X142052524Y-53877819D01*
X142052524Y-53877819D02*
X141957286Y-53830200D01*
X141957286Y-53830200D02*
X141909667Y-53782580D01*
X145425533Y-61160819D02*
X145092200Y-60684628D01*
X144854105Y-61160819D02*
X144854105Y-60160819D01*
X144854105Y-60160819D02*
X145235057Y-60160819D01*
X145235057Y-60160819D02*
X145330295Y-60208438D01*
X145330295Y-60208438D02*
X145377914Y-60256057D01*
X145377914Y-60256057D02*
X145425533Y-60351295D01*
X145425533Y-60351295D02*
X145425533Y-60494152D01*
X145425533Y-60494152D02*
X145377914Y-60589390D01*
X145377914Y-60589390D02*
X145330295Y-60637009D01*
X145330295Y-60637009D02*
X145235057Y-60684628D01*
X145235057Y-60684628D02*
X144854105Y-60684628D01*
X145758867Y-60160819D02*
X146377914Y-60160819D01*
X146377914Y-60160819D02*
X146044581Y-60541771D01*
X146044581Y-60541771D02*
X146187438Y-60541771D01*
X146187438Y-60541771D02*
X146282676Y-60589390D01*
X146282676Y-60589390D02*
X146330295Y-60637009D01*
X146330295Y-60637009D02*
X146377914Y-60732247D01*
X146377914Y-60732247D02*
X146377914Y-60970342D01*
X146377914Y-60970342D02*
X146330295Y-61065580D01*
X146330295Y-61065580D02*
X146282676Y-61113200D01*
X146282676Y-61113200D02*
X146187438Y-61160819D01*
X146187438Y-61160819D02*
X145901724Y-61160819D01*
X145901724Y-61160819D02*
X145806486Y-61113200D01*
X145806486Y-61113200D02*
X145758867Y-61065580D01*
X155610048Y-62465819D02*
X155610048Y-61465819D01*
X155610048Y-61465819D02*
X155991000Y-61465819D01*
X155991000Y-61465819D02*
X156086238Y-61513438D01*
X156086238Y-61513438D02*
X156133857Y-61561057D01*
X156133857Y-61561057D02*
X156181476Y-61656295D01*
X156181476Y-61656295D02*
X156181476Y-61799152D01*
X156181476Y-61799152D02*
X156133857Y-61894390D01*
X156133857Y-61894390D02*
X156086238Y-61942009D01*
X156086238Y-61942009D02*
X155991000Y-61989628D01*
X155991000Y-61989628D02*
X155610048Y-61989628D01*
X156514810Y-61465819D02*
X156752905Y-62465819D01*
X156752905Y-62465819D02*
X156943381Y-61751533D01*
X156943381Y-61751533D02*
X157133857Y-62465819D01*
X157133857Y-62465819D02*
X157371953Y-61465819D01*
X157752905Y-62465819D02*
X157752905Y-61465819D01*
X157752905Y-61465819D02*
X158086238Y-62180104D01*
X158086238Y-62180104D02*
X158419571Y-61465819D01*
X158419571Y-61465819D02*
X158419571Y-62465819D01*
X158848143Y-61561057D02*
X158895762Y-61513438D01*
X158895762Y-61513438D02*
X158991000Y-61465819D01*
X158991000Y-61465819D02*
X159229095Y-61465819D01*
X159229095Y-61465819D02*
X159324333Y-61513438D01*
X159324333Y-61513438D02*
X159371952Y-61561057D01*
X159371952Y-61561057D02*
X159419571Y-61656295D01*
X159419571Y-61656295D02*
X159419571Y-61751533D01*
X159419571Y-61751533D02*
X159371952Y-61894390D01*
X159371952Y-61894390D02*
X158800524Y-62465819D01*
X158800524Y-62465819D02*
X159419571Y-62465819D01*
X139862048Y-55166819D02*
X139862048Y-54166819D01*
X139862048Y-54166819D02*
X140243000Y-54166819D01*
X140243000Y-54166819D02*
X140338238Y-54214438D01*
X140338238Y-54214438D02*
X140385857Y-54262057D01*
X140385857Y-54262057D02*
X140433476Y-54357295D01*
X140433476Y-54357295D02*
X140433476Y-54500152D01*
X140433476Y-54500152D02*
X140385857Y-54595390D01*
X140385857Y-54595390D02*
X140338238Y-54643009D01*
X140338238Y-54643009D02*
X140243000Y-54690628D01*
X140243000Y-54690628D02*
X139862048Y-54690628D01*
X140766810Y-54166819D02*
X141004905Y-55166819D01*
X141004905Y-55166819D02*
X141195381Y-54452533D01*
X141195381Y-54452533D02*
X141385857Y-55166819D01*
X141385857Y-55166819D02*
X141623953Y-54166819D01*
X142004905Y-55166819D02*
X142004905Y-54166819D01*
X142004905Y-54166819D02*
X142338238Y-54881104D01*
X142338238Y-54881104D02*
X142671571Y-54166819D01*
X142671571Y-54166819D02*
X142671571Y-55166819D01*
X143052524Y-54166819D02*
X143671571Y-54166819D01*
X143671571Y-54166819D02*
X143338238Y-54547771D01*
X143338238Y-54547771D02*
X143481095Y-54547771D01*
X143481095Y-54547771D02*
X143576333Y-54595390D01*
X143576333Y-54595390D02*
X143623952Y-54643009D01*
X143623952Y-54643009D02*
X143671571Y-54738247D01*
X143671571Y-54738247D02*
X143671571Y-54976342D01*
X143671571Y-54976342D02*
X143623952Y-55071580D01*
X143623952Y-55071580D02*
X143576333Y-55119200D01*
X143576333Y-55119200D02*
X143481095Y-55166819D01*
X143481095Y-55166819D02*
X143195381Y-55166819D01*
X143195381Y-55166819D02*
X143100143Y-55119200D01*
X143100143Y-55119200D02*
X143052524Y-55071580D01*
X154466933Y-70254019D02*
X154133600Y-69777828D01*
X153895505Y-70254019D02*
X153895505Y-69254019D01*
X153895505Y-69254019D02*
X154276457Y-69254019D01*
X154276457Y-69254019D02*
X154371695Y-69301638D01*
X154371695Y-69301638D02*
X154419314Y-69349257D01*
X154419314Y-69349257D02*
X154466933Y-69444495D01*
X154466933Y-69444495D02*
X154466933Y-69587352D01*
X154466933Y-69587352D02*
X154419314Y-69682590D01*
X154419314Y-69682590D02*
X154371695Y-69730209D01*
X154371695Y-69730209D02*
X154276457Y-69777828D01*
X154276457Y-69777828D02*
X153895505Y-69777828D01*
X155038362Y-69682590D02*
X154943124Y-69634971D01*
X154943124Y-69634971D02*
X154895505Y-69587352D01*
X154895505Y-69587352D02*
X154847886Y-69492114D01*
X154847886Y-69492114D02*
X154847886Y-69444495D01*
X154847886Y-69444495D02*
X154895505Y-69349257D01*
X154895505Y-69349257D02*
X154943124Y-69301638D01*
X154943124Y-69301638D02*
X155038362Y-69254019D01*
X155038362Y-69254019D02*
X155228838Y-69254019D01*
X155228838Y-69254019D02*
X155324076Y-69301638D01*
X155324076Y-69301638D02*
X155371695Y-69349257D01*
X155371695Y-69349257D02*
X155419314Y-69444495D01*
X155419314Y-69444495D02*
X155419314Y-69492114D01*
X155419314Y-69492114D02*
X155371695Y-69587352D01*
X155371695Y-69587352D02*
X155324076Y-69634971D01*
X155324076Y-69634971D02*
X155228838Y-69682590D01*
X155228838Y-69682590D02*
X155038362Y-69682590D01*
X155038362Y-69682590D02*
X154943124Y-69730209D01*
X154943124Y-69730209D02*
X154895505Y-69777828D01*
X154895505Y-69777828D02*
X154847886Y-69873066D01*
X154847886Y-69873066D02*
X154847886Y-70063542D01*
X154847886Y-70063542D02*
X154895505Y-70158780D01*
X154895505Y-70158780D02*
X154943124Y-70206400D01*
X154943124Y-70206400D02*
X155038362Y-70254019D01*
X155038362Y-70254019D02*
X155228838Y-70254019D01*
X155228838Y-70254019D02*
X155324076Y-70206400D01*
X155324076Y-70206400D02*
X155371695Y-70158780D01*
X155371695Y-70158780D02*
X155419314Y-70063542D01*
X155419314Y-70063542D02*
X155419314Y-69873066D01*
X155419314Y-69873066D02*
X155371695Y-69777828D01*
X155371695Y-69777828D02*
X155324076Y-69730209D01*
X155324076Y-69730209D02*
X155228838Y-69682590D01*
X159305666Y-64732819D02*
X159305666Y-65447104D01*
X159305666Y-65447104D02*
X159258047Y-65589961D01*
X159258047Y-65589961D02*
X159162809Y-65685200D01*
X159162809Y-65685200D02*
X159019952Y-65732819D01*
X159019952Y-65732819D02*
X158924714Y-65732819D01*
X159734238Y-64828057D02*
X159781857Y-64780438D01*
X159781857Y-64780438D02*
X159877095Y-64732819D01*
X159877095Y-64732819D02*
X160115190Y-64732819D01*
X160115190Y-64732819D02*
X160210428Y-64780438D01*
X160210428Y-64780438D02*
X160258047Y-64828057D01*
X160258047Y-64828057D02*
X160305666Y-64923295D01*
X160305666Y-64923295D02*
X160305666Y-65018533D01*
X160305666Y-65018533D02*
X160258047Y-65161390D01*
X160258047Y-65161390D02*
X159686619Y-65732819D01*
X159686619Y-65732819D02*
X160305666Y-65732819D01*
X150651666Y-57112819D02*
X150651666Y-57827104D01*
X150651666Y-57827104D02*
X150604047Y-57969961D01*
X150604047Y-57969961D02*
X150508809Y-58065200D01*
X150508809Y-58065200D02*
X150365952Y-58112819D01*
X150365952Y-58112819D02*
X150270714Y-58112819D01*
X151127857Y-58112819D02*
X151127857Y-57112819D01*
X151127857Y-57112819D02*
X151508809Y-57112819D01*
X151508809Y-57112819D02*
X151604047Y-57160438D01*
X151604047Y-57160438D02*
X151651666Y-57208057D01*
X151651666Y-57208057D02*
X151699285Y-57303295D01*
X151699285Y-57303295D02*
X151699285Y-57446152D01*
X151699285Y-57446152D02*
X151651666Y-57541390D01*
X151651666Y-57541390D02*
X151604047Y-57589009D01*
X151604047Y-57589009D02*
X151508809Y-57636628D01*
X151508809Y-57636628D02*
X151127857Y-57636628D01*
X152080238Y-57208057D02*
X152127857Y-57160438D01*
X152127857Y-57160438D02*
X152223095Y-57112819D01*
X152223095Y-57112819D02*
X152461190Y-57112819D01*
X152461190Y-57112819D02*
X152556428Y-57160438D01*
X152556428Y-57160438D02*
X152604047Y-57208057D01*
X152604047Y-57208057D02*
X152651666Y-57303295D01*
X152651666Y-57303295D02*
X152651666Y-57398533D01*
X152651666Y-57398533D02*
X152604047Y-57541390D01*
X152604047Y-57541390D02*
X152032619Y-58112819D01*
X152032619Y-58112819D02*
X152651666Y-58112819D01*
X144593819Y-56569523D02*
X145308104Y-56569523D01*
X145308104Y-56569523D02*
X145450961Y-56617142D01*
X145450961Y-56617142D02*
X145546200Y-56712380D01*
X145546200Y-56712380D02*
X145593819Y-56855237D01*
X145593819Y-56855237D02*
X145593819Y-56950475D01*
X145593819Y-56093332D02*
X144593819Y-56093332D01*
X144593819Y-56093332D02*
X144593819Y-55712380D01*
X144593819Y-55712380D02*
X144641438Y-55617142D01*
X144641438Y-55617142D02*
X144689057Y-55569523D01*
X144689057Y-55569523D02*
X144784295Y-55521904D01*
X144784295Y-55521904D02*
X144927152Y-55521904D01*
X144927152Y-55521904D02*
X145022390Y-55569523D01*
X145022390Y-55569523D02*
X145070009Y-55617142D01*
X145070009Y-55617142D02*
X145117628Y-55712380D01*
X145117628Y-55712380D02*
X145117628Y-56093332D01*
X145593819Y-54569523D02*
X145593819Y-55140951D01*
X145593819Y-54855237D02*
X144593819Y-54855237D01*
X144593819Y-54855237D02*
X144736676Y-54950475D01*
X144736676Y-54950475D02*
X144831914Y-55045713D01*
X144831914Y-55045713D02*
X144879533Y-55140951D01*
X144593819Y-54236189D02*
X144593819Y-53617142D01*
X144593819Y-53617142D02*
X144974771Y-53950475D01*
X144974771Y-53950475D02*
X144974771Y-53807618D01*
X144974771Y-53807618D02*
X145022390Y-53712380D01*
X145022390Y-53712380D02*
X145070009Y-53664761D01*
X145070009Y-53664761D02*
X145165247Y-53617142D01*
X145165247Y-53617142D02*
X145403342Y-53617142D01*
X145403342Y-53617142D02*
X145498580Y-53664761D01*
X145498580Y-53664761D02*
X145546200Y-53712380D01*
X145546200Y-53712380D02*
X145593819Y-53807618D01*
X145593819Y-53807618D02*
X145593819Y-54093332D01*
X145593819Y-54093332D02*
X145546200Y-54188570D01*
X145546200Y-54188570D02*
X145498580Y-54236189D01*
X157197333Y-53765580D02*
X157149714Y-53813200D01*
X157149714Y-53813200D02*
X157006857Y-53860819D01*
X157006857Y-53860819D02*
X156911619Y-53860819D01*
X156911619Y-53860819D02*
X156768762Y-53813200D01*
X156768762Y-53813200D02*
X156673524Y-53717961D01*
X156673524Y-53717961D02*
X156625905Y-53622723D01*
X156625905Y-53622723D02*
X156578286Y-53432247D01*
X156578286Y-53432247D02*
X156578286Y-53289390D01*
X156578286Y-53289390D02*
X156625905Y-53098914D01*
X156625905Y-53098914D02*
X156673524Y-53003676D01*
X156673524Y-53003676D02*
X156768762Y-52908438D01*
X156768762Y-52908438D02*
X156911619Y-52860819D01*
X156911619Y-52860819D02*
X157006857Y-52860819D01*
X157006857Y-52860819D02*
X157149714Y-52908438D01*
X157149714Y-52908438D02*
X157197333Y-52956057D01*
X158054476Y-53194152D02*
X158054476Y-53860819D01*
X157816381Y-52813200D02*
X157578286Y-53527485D01*
X157578286Y-53527485D02*
X158197333Y-53527485D01*
X149196333Y-57465580D02*
X149148714Y-57513200D01*
X149148714Y-57513200D02*
X149005857Y-57560819D01*
X149005857Y-57560819D02*
X148910619Y-57560819D01*
X148910619Y-57560819D02*
X148767762Y-57513200D01*
X148767762Y-57513200D02*
X148672524Y-57417961D01*
X148672524Y-57417961D02*
X148624905Y-57322723D01*
X148624905Y-57322723D02*
X148577286Y-57132247D01*
X148577286Y-57132247D02*
X148577286Y-56989390D01*
X148577286Y-56989390D02*
X148624905Y-56798914D01*
X148624905Y-56798914D02*
X148672524Y-56703676D01*
X148672524Y-56703676D02*
X148767762Y-56608438D01*
X148767762Y-56608438D02*
X148910619Y-56560819D01*
X148910619Y-56560819D02*
X149005857Y-56560819D01*
X149005857Y-56560819D02*
X149148714Y-56608438D01*
X149148714Y-56608438D02*
X149196333Y-56656057D01*
X149577286Y-56656057D02*
X149624905Y-56608438D01*
X149624905Y-56608438D02*
X149720143Y-56560819D01*
X149720143Y-56560819D02*
X149958238Y-56560819D01*
X149958238Y-56560819D02*
X150053476Y-56608438D01*
X150053476Y-56608438D02*
X150101095Y-56656057D01*
X150101095Y-56656057D02*
X150148714Y-56751295D01*
X150148714Y-56751295D02*
X150148714Y-56846533D01*
X150148714Y-56846533D02*
X150101095Y-56989390D01*
X150101095Y-56989390D02*
X149529667Y-57560819D01*
X149529667Y-57560819D02*
X150148714Y-57560819D01*
X153610266Y-62954819D02*
X153610266Y-63669104D01*
X153610266Y-63669104D02*
X153562647Y-63811961D01*
X153562647Y-63811961D02*
X153467409Y-63907200D01*
X153467409Y-63907200D02*
X153324552Y-63954819D01*
X153324552Y-63954819D02*
X153229314Y-63954819D01*
X154086457Y-63954819D02*
X154086457Y-62954819D01*
X154086457Y-62954819D02*
X154467409Y-62954819D01*
X154467409Y-62954819D02*
X154562647Y-63002438D01*
X154562647Y-63002438D02*
X154610266Y-63050057D01*
X154610266Y-63050057D02*
X154657885Y-63145295D01*
X154657885Y-63145295D02*
X154657885Y-63288152D01*
X154657885Y-63288152D02*
X154610266Y-63383390D01*
X154610266Y-63383390D02*
X154562647Y-63431009D01*
X154562647Y-63431009D02*
X154467409Y-63478628D01*
X154467409Y-63478628D02*
X154086457Y-63478628D01*
X155562647Y-62954819D02*
X155086457Y-62954819D01*
X155086457Y-62954819D02*
X155038838Y-63431009D01*
X155038838Y-63431009D02*
X155086457Y-63383390D01*
X155086457Y-63383390D02*
X155181695Y-63335771D01*
X155181695Y-63335771D02*
X155419790Y-63335771D01*
X155419790Y-63335771D02*
X155515028Y-63383390D01*
X155515028Y-63383390D02*
X155562647Y-63431009D01*
X155562647Y-63431009D02*
X155610266Y-63526247D01*
X155610266Y-63526247D02*
X155610266Y-63764342D01*
X155610266Y-63764342D02*
X155562647Y-63859580D01*
X155562647Y-63859580D02*
X155515028Y-63907200D01*
X155515028Y-63907200D02*
X155419790Y-63954819D01*
X155419790Y-63954819D02*
X155181695Y-63954819D01*
X155181695Y-63954819D02*
X155086457Y-63907200D01*
X155086457Y-63907200D02*
X155038838Y-63859580D01*
X147513742Y-70152419D02*
X147180409Y-69676228D01*
X146942314Y-70152419D02*
X146942314Y-69152419D01*
X146942314Y-69152419D02*
X147323266Y-69152419D01*
X147323266Y-69152419D02*
X147418504Y-69200038D01*
X147418504Y-69200038D02*
X147466123Y-69247657D01*
X147466123Y-69247657D02*
X147513742Y-69342895D01*
X147513742Y-69342895D02*
X147513742Y-69485752D01*
X147513742Y-69485752D02*
X147466123Y-69580990D01*
X147466123Y-69580990D02*
X147418504Y-69628609D01*
X147418504Y-69628609D02*
X147323266Y-69676228D01*
X147323266Y-69676228D02*
X146942314Y-69676228D01*
X148466123Y-70152419D02*
X147894695Y-70152419D01*
X148180409Y-70152419D02*
X148180409Y-69152419D01*
X148180409Y-69152419D02*
X148085171Y-69295276D01*
X148085171Y-69295276D02*
X147989933Y-69390514D01*
X147989933Y-69390514D02*
X147894695Y-69438133D01*
X149418504Y-70152419D02*
X148847076Y-70152419D01*
X149132790Y-70152419D02*
X149132790Y-69152419D01*
X149132790Y-69152419D02*
X149037552Y-69295276D01*
X149037552Y-69295276D02*
X148942314Y-69390514D01*
X148942314Y-69390514D02*
X148847076Y-69438133D01*
X139371523Y-49058819D02*
X139371523Y-48058819D01*
X139371523Y-48058819D02*
X139704856Y-48773104D01*
X139704856Y-48773104D02*
X140038189Y-48058819D01*
X140038189Y-48058819D02*
X140038189Y-49058819D01*
X140657237Y-49058819D02*
X140561999Y-49011200D01*
X140561999Y-49011200D02*
X140514380Y-48963580D01*
X140514380Y-48963580D02*
X140466761Y-48868342D01*
X140466761Y-48868342D02*
X140466761Y-48582628D01*
X140466761Y-48582628D02*
X140514380Y-48487390D01*
X140514380Y-48487390D02*
X140561999Y-48439771D01*
X140561999Y-48439771D02*
X140657237Y-48392152D01*
X140657237Y-48392152D02*
X140800094Y-48392152D01*
X140800094Y-48392152D02*
X140895332Y-48439771D01*
X140895332Y-48439771D02*
X140942951Y-48487390D01*
X140942951Y-48487390D02*
X140990570Y-48582628D01*
X140990570Y-48582628D02*
X140990570Y-48868342D01*
X140990570Y-48868342D02*
X140942951Y-48963580D01*
X140942951Y-48963580D02*
X140895332Y-49011200D01*
X140895332Y-49011200D02*
X140800094Y-49058819D01*
X140800094Y-49058819D02*
X140657237Y-49058819D01*
X141276285Y-48392152D02*
X141657237Y-48392152D01*
X141419142Y-48058819D02*
X141419142Y-48915961D01*
X141419142Y-48915961D02*
X141466761Y-49011200D01*
X141466761Y-49011200D02*
X141561999Y-49058819D01*
X141561999Y-49058819D02*
X141657237Y-49058819D01*
X142133428Y-49058819D02*
X142038190Y-49011200D01*
X142038190Y-49011200D02*
X141990571Y-48963580D01*
X141990571Y-48963580D02*
X141942952Y-48868342D01*
X141942952Y-48868342D02*
X141942952Y-48582628D01*
X141942952Y-48582628D02*
X141990571Y-48487390D01*
X141990571Y-48487390D02*
X142038190Y-48439771D01*
X142038190Y-48439771D02*
X142133428Y-48392152D01*
X142133428Y-48392152D02*
X142276285Y-48392152D01*
X142276285Y-48392152D02*
X142371523Y-48439771D01*
X142371523Y-48439771D02*
X142419142Y-48487390D01*
X142419142Y-48487390D02*
X142466761Y-48582628D01*
X142466761Y-48582628D02*
X142466761Y-48868342D01*
X142466761Y-48868342D02*
X142419142Y-48963580D01*
X142419142Y-48963580D02*
X142371523Y-49011200D01*
X142371523Y-49011200D02*
X142276285Y-49058819D01*
X142276285Y-49058819D02*
X142133428Y-49058819D01*
X142895333Y-49058819D02*
X142895333Y-48392152D01*
X142895333Y-48582628D02*
X142942952Y-48487390D01*
X142942952Y-48487390D02*
X142990571Y-48439771D01*
X142990571Y-48439771D02*
X143085809Y-48392152D01*
X143085809Y-48392152D02*
X143181047Y-48392152D01*
X143276286Y-49154057D02*
X144038190Y-49154057D01*
X144800095Y-49058819D02*
X144228667Y-49058819D01*
X144514381Y-49058819D02*
X144514381Y-48058819D01*
X144514381Y-48058819D02*
X144419143Y-48201676D01*
X144419143Y-48201676D02*
X144323905Y-48296914D01*
X144323905Y-48296914D02*
X144228667Y-48344533D01*
X131715333Y-76019819D02*
X131715333Y-75019819D01*
X131715333Y-75019819D02*
X132048666Y-75734104D01*
X132048666Y-75734104D02*
X132381999Y-75019819D01*
X132381999Y-75019819D02*
X132381999Y-76019819D01*
X133001047Y-76019819D02*
X132905809Y-75972200D01*
X132905809Y-75972200D02*
X132858190Y-75924580D01*
X132858190Y-75924580D02*
X132810571Y-75829342D01*
X132810571Y-75829342D02*
X132810571Y-75543628D01*
X132810571Y-75543628D02*
X132858190Y-75448390D01*
X132858190Y-75448390D02*
X132905809Y-75400771D01*
X132905809Y-75400771D02*
X133001047Y-75353152D01*
X133001047Y-75353152D02*
X133143904Y-75353152D01*
X133143904Y-75353152D02*
X133239142Y-75400771D01*
X133239142Y-75400771D02*
X133286761Y-75448390D01*
X133286761Y-75448390D02*
X133334380Y-75543628D01*
X133334380Y-75543628D02*
X133334380Y-75829342D01*
X133334380Y-75829342D02*
X133286761Y-75924580D01*
X133286761Y-75924580D02*
X133239142Y-75972200D01*
X133239142Y-75972200D02*
X133143904Y-76019819D01*
X133143904Y-76019819D02*
X133001047Y-76019819D01*
X133620095Y-75353152D02*
X134001047Y-75353152D01*
X133762952Y-75019819D02*
X133762952Y-75876961D01*
X133762952Y-75876961D02*
X133810571Y-75972200D01*
X133810571Y-75972200D02*
X133905809Y-76019819D01*
X133905809Y-76019819D02*
X134001047Y-76019819D01*
X134477238Y-76019819D02*
X134382000Y-75972200D01*
X134382000Y-75972200D02*
X134334381Y-75924580D01*
X134334381Y-75924580D02*
X134286762Y-75829342D01*
X134286762Y-75829342D02*
X134286762Y-75543628D01*
X134286762Y-75543628D02*
X134334381Y-75448390D01*
X134334381Y-75448390D02*
X134382000Y-75400771D01*
X134382000Y-75400771D02*
X134477238Y-75353152D01*
X134477238Y-75353152D02*
X134620095Y-75353152D01*
X134620095Y-75353152D02*
X134715333Y-75400771D01*
X134715333Y-75400771D02*
X134762952Y-75448390D01*
X134762952Y-75448390D02*
X134810571Y-75543628D01*
X134810571Y-75543628D02*
X134810571Y-75829342D01*
X134810571Y-75829342D02*
X134762952Y-75924580D01*
X134762952Y-75924580D02*
X134715333Y-75972200D01*
X134715333Y-75972200D02*
X134620095Y-76019819D01*
X134620095Y-76019819D02*
X134477238Y-76019819D01*
X135239143Y-76019819D02*
X135239143Y-75353152D01*
X135239143Y-75543628D02*
X135286762Y-75448390D01*
X135286762Y-75448390D02*
X135334381Y-75400771D01*
X135334381Y-75400771D02*
X135429619Y-75353152D01*
X135429619Y-75353152D02*
X135524857Y-75353152D01*
X135810572Y-75115057D02*
X135858191Y-75067438D01*
X135858191Y-75067438D02*
X135953429Y-75019819D01*
X135953429Y-75019819D02*
X136191524Y-75019819D01*
X136191524Y-75019819D02*
X136286762Y-75067438D01*
X136286762Y-75067438D02*
X136334381Y-75115057D01*
X136334381Y-75115057D02*
X136382000Y-75210295D01*
X136382000Y-75210295D02*
X136382000Y-75305533D01*
X136382000Y-75305533D02*
X136334381Y-75448390D01*
X136334381Y-75448390D02*
X135762953Y-76019819D01*
X135762953Y-76019819D02*
X136382000Y-76019819D01*
X136572477Y-76115057D02*
X137334381Y-76115057D01*
X137905810Y-75496009D02*
X138048667Y-75543628D01*
X138048667Y-75543628D02*
X138096286Y-75591247D01*
X138096286Y-75591247D02*
X138143905Y-75686485D01*
X138143905Y-75686485D02*
X138143905Y-75829342D01*
X138143905Y-75829342D02*
X138096286Y-75924580D01*
X138096286Y-75924580D02*
X138048667Y-75972200D01*
X138048667Y-75972200D02*
X137953429Y-76019819D01*
X137953429Y-76019819D02*
X137572477Y-76019819D01*
X137572477Y-76019819D02*
X137572477Y-75019819D01*
X137572477Y-75019819D02*
X137905810Y-75019819D01*
X137905810Y-75019819D02*
X138001048Y-75067438D01*
X138001048Y-75067438D02*
X138048667Y-75115057D01*
X138048667Y-75115057D02*
X138096286Y-75210295D01*
X138096286Y-75210295D02*
X138096286Y-75305533D01*
X138096286Y-75305533D02*
X138048667Y-75400771D01*
X138048667Y-75400771D02*
X138001048Y-75448390D01*
X138001048Y-75448390D02*
X137905810Y-75496009D01*
X137905810Y-75496009D02*
X137572477Y-75496009D01*
X139096286Y-76019819D02*
X138524858Y-76019819D01*
X138810572Y-76019819D02*
X138810572Y-75019819D01*
X138810572Y-75019819D02*
X138715334Y-75162676D01*
X138715334Y-75162676D02*
X138620096Y-75257914D01*
X138620096Y-75257914D02*
X138524858Y-75305533D01*
X143634476Y-65472819D02*
X143634476Y-66187104D01*
X143634476Y-66187104D02*
X143586857Y-66329961D01*
X143586857Y-66329961D02*
X143491619Y-66425200D01*
X143491619Y-66425200D02*
X143348762Y-66472819D01*
X143348762Y-66472819D02*
X143253524Y-66472819D01*
X144110667Y-66472819D02*
X144110667Y-65472819D01*
X144110667Y-65472819D02*
X144491619Y-65472819D01*
X144491619Y-65472819D02*
X144586857Y-65520438D01*
X144586857Y-65520438D02*
X144634476Y-65568057D01*
X144634476Y-65568057D02*
X144682095Y-65663295D01*
X144682095Y-65663295D02*
X144682095Y-65806152D01*
X144682095Y-65806152D02*
X144634476Y-65901390D01*
X144634476Y-65901390D02*
X144586857Y-65949009D01*
X144586857Y-65949009D02*
X144491619Y-65996628D01*
X144491619Y-65996628D02*
X144110667Y-65996628D01*
X145634476Y-66472819D02*
X145063048Y-66472819D01*
X145348762Y-66472819D02*
X145348762Y-65472819D01*
X145348762Y-65472819D02*
X145253524Y-65615676D01*
X145253524Y-65615676D02*
X145158286Y-65710914D01*
X145158286Y-65710914D02*
X145063048Y-65758533D01*
X146586857Y-66472819D02*
X146015429Y-66472819D01*
X146301143Y-66472819D02*
X146301143Y-65472819D01*
X146301143Y-65472819D02*
X146205905Y-65615676D01*
X146205905Y-65615676D02*
X146110667Y-65710914D01*
X146110667Y-65710914D02*
X146015429Y-65758533D01*
X148722595Y-48108819D02*
X148722595Y-48918342D01*
X148722595Y-48918342D02*
X148770214Y-49013580D01*
X148770214Y-49013580D02*
X148817833Y-49061200D01*
X148817833Y-49061200D02*
X148913071Y-49108819D01*
X148913071Y-49108819D02*
X149103547Y-49108819D01*
X149103547Y-49108819D02*
X149198785Y-49061200D01*
X149198785Y-49061200D02*
X149246404Y-49013580D01*
X149246404Y-49013580D02*
X149294023Y-48918342D01*
X149294023Y-48918342D02*
X149294023Y-48108819D01*
X150294023Y-49108819D02*
X149722595Y-49108819D01*
X150008309Y-49108819D02*
X150008309Y-48108819D01*
X150008309Y-48108819D02*
X149913071Y-48251676D01*
X149913071Y-48251676D02*
X149817833Y-48346914D01*
X149817833Y-48346914D02*
X149722595Y-48394533D01*
X145425533Y-59382819D02*
X145092200Y-58906628D01*
X144854105Y-59382819D02*
X144854105Y-58382819D01*
X144854105Y-58382819D02*
X145235057Y-58382819D01*
X145235057Y-58382819D02*
X145330295Y-58430438D01*
X145330295Y-58430438D02*
X145377914Y-58478057D01*
X145377914Y-58478057D02*
X145425533Y-58573295D01*
X145425533Y-58573295D02*
X145425533Y-58716152D01*
X145425533Y-58716152D02*
X145377914Y-58811390D01*
X145377914Y-58811390D02*
X145330295Y-58859009D01*
X145330295Y-58859009D02*
X145235057Y-58906628D01*
X145235057Y-58906628D02*
X144854105Y-58906628D01*
X145806486Y-58478057D02*
X145854105Y-58430438D01*
X145854105Y-58430438D02*
X145949343Y-58382819D01*
X145949343Y-58382819D02*
X146187438Y-58382819D01*
X146187438Y-58382819D02*
X146282676Y-58430438D01*
X146282676Y-58430438D02*
X146330295Y-58478057D01*
X146330295Y-58478057D02*
X146377914Y-58573295D01*
X146377914Y-58573295D02*
X146377914Y-58668533D01*
X146377914Y-58668533D02*
X146330295Y-58811390D01*
X146330295Y-58811390D02*
X145758867Y-59382819D01*
X145758867Y-59382819D02*
X146377914Y-59382819D01*
X145719333Y-64589819D02*
X145386000Y-64113628D01*
X145147905Y-64589819D02*
X145147905Y-63589819D01*
X145147905Y-63589819D02*
X145528857Y-63589819D01*
X145528857Y-63589819D02*
X145624095Y-63637438D01*
X145624095Y-63637438D02*
X145671714Y-63685057D01*
X145671714Y-63685057D02*
X145719333Y-63780295D01*
X145719333Y-63780295D02*
X145719333Y-63923152D01*
X145719333Y-63923152D02*
X145671714Y-64018390D01*
X145671714Y-64018390D02*
X145624095Y-64066009D01*
X145624095Y-64066009D02*
X145528857Y-64113628D01*
X145528857Y-64113628D02*
X145147905Y-64113628D01*
X146624095Y-63589819D02*
X146147905Y-63589819D01*
X146147905Y-63589819D02*
X146100286Y-64066009D01*
X146100286Y-64066009D02*
X146147905Y-64018390D01*
X146147905Y-64018390D02*
X146243143Y-63970771D01*
X146243143Y-63970771D02*
X146481238Y-63970771D01*
X146481238Y-63970771D02*
X146576476Y-64018390D01*
X146576476Y-64018390D02*
X146624095Y-64066009D01*
X146624095Y-64066009D02*
X146671714Y-64161247D01*
X146671714Y-64161247D02*
X146671714Y-64399342D01*
X146671714Y-64399342D02*
X146624095Y-64494580D01*
X146624095Y-64494580D02*
X146576476Y-64542200D01*
X146576476Y-64542200D02*
X146481238Y-64589819D01*
X146481238Y-64589819D02*
X146243143Y-64589819D01*
X146243143Y-64589819D02*
X146147905Y-64542200D01*
X146147905Y-64542200D02*
X146100286Y-64494580D01*
X139862048Y-62496819D02*
X139862048Y-61496819D01*
X139862048Y-61496819D02*
X140243000Y-61496819D01*
X140243000Y-61496819D02*
X140338238Y-61544438D01*
X140338238Y-61544438D02*
X140385857Y-61592057D01*
X140385857Y-61592057D02*
X140433476Y-61687295D01*
X140433476Y-61687295D02*
X140433476Y-61830152D01*
X140433476Y-61830152D02*
X140385857Y-61925390D01*
X140385857Y-61925390D02*
X140338238Y-61973009D01*
X140338238Y-61973009D02*
X140243000Y-62020628D01*
X140243000Y-62020628D02*
X139862048Y-62020628D01*
X140766810Y-61496819D02*
X141004905Y-62496819D01*
X141004905Y-62496819D02*
X141195381Y-61782533D01*
X141195381Y-61782533D02*
X141385857Y-62496819D01*
X141385857Y-62496819D02*
X141623953Y-61496819D01*
X142004905Y-62496819D02*
X142004905Y-61496819D01*
X142004905Y-61496819D02*
X142338238Y-62211104D01*
X142338238Y-62211104D02*
X142671571Y-61496819D01*
X142671571Y-61496819D02*
X142671571Y-62496819D01*
X143576333Y-61830152D02*
X143576333Y-62496819D01*
X143338238Y-61449200D02*
X143100143Y-62163485D01*
X143100143Y-62163485D02*
X143719190Y-62163485D01*
X131786761Y-68526819D02*
X131786761Y-67526819D01*
X131786761Y-67526819D02*
X132120094Y-68241104D01*
X132120094Y-68241104D02*
X132453427Y-67526819D01*
X132453427Y-67526819D02*
X132453427Y-68526819D01*
X133072475Y-68526819D02*
X132977237Y-68479200D01*
X132977237Y-68479200D02*
X132929618Y-68431580D01*
X132929618Y-68431580D02*
X132881999Y-68336342D01*
X132881999Y-68336342D02*
X132881999Y-68050628D01*
X132881999Y-68050628D02*
X132929618Y-67955390D01*
X132929618Y-67955390D02*
X132977237Y-67907771D01*
X132977237Y-67907771D02*
X133072475Y-67860152D01*
X133072475Y-67860152D02*
X133215332Y-67860152D01*
X133215332Y-67860152D02*
X133310570Y-67907771D01*
X133310570Y-67907771D02*
X133358189Y-67955390D01*
X133358189Y-67955390D02*
X133405808Y-68050628D01*
X133405808Y-68050628D02*
X133405808Y-68336342D01*
X133405808Y-68336342D02*
X133358189Y-68431580D01*
X133358189Y-68431580D02*
X133310570Y-68479200D01*
X133310570Y-68479200D02*
X133215332Y-68526819D01*
X133215332Y-68526819D02*
X133072475Y-68526819D01*
X133691523Y-67860152D02*
X134072475Y-67860152D01*
X133834380Y-67526819D02*
X133834380Y-68383961D01*
X133834380Y-68383961D02*
X133881999Y-68479200D01*
X133881999Y-68479200D02*
X133977237Y-68526819D01*
X133977237Y-68526819D02*
X134072475Y-68526819D01*
X134548666Y-68526819D02*
X134453428Y-68479200D01*
X134453428Y-68479200D02*
X134405809Y-68431580D01*
X134405809Y-68431580D02*
X134358190Y-68336342D01*
X134358190Y-68336342D02*
X134358190Y-68050628D01*
X134358190Y-68050628D02*
X134405809Y-67955390D01*
X134405809Y-67955390D02*
X134453428Y-67907771D01*
X134453428Y-67907771D02*
X134548666Y-67860152D01*
X134548666Y-67860152D02*
X134691523Y-67860152D01*
X134691523Y-67860152D02*
X134786761Y-67907771D01*
X134786761Y-67907771D02*
X134834380Y-67955390D01*
X134834380Y-67955390D02*
X134881999Y-68050628D01*
X134881999Y-68050628D02*
X134881999Y-68336342D01*
X134881999Y-68336342D02*
X134834380Y-68431580D01*
X134834380Y-68431580D02*
X134786761Y-68479200D01*
X134786761Y-68479200D02*
X134691523Y-68526819D01*
X134691523Y-68526819D02*
X134548666Y-68526819D01*
X135310571Y-68526819D02*
X135310571Y-67860152D01*
X135310571Y-68050628D02*
X135358190Y-67955390D01*
X135358190Y-67955390D02*
X135405809Y-67907771D01*
X135405809Y-67907771D02*
X135501047Y-67860152D01*
X135501047Y-67860152D02*
X135596285Y-67860152D01*
X135691524Y-68622057D02*
X136453428Y-68622057D01*
X136643905Y-67622057D02*
X136691524Y-67574438D01*
X136691524Y-67574438D02*
X136786762Y-67526819D01*
X136786762Y-67526819D02*
X137024857Y-67526819D01*
X137024857Y-67526819D02*
X137120095Y-67574438D01*
X137120095Y-67574438D02*
X137167714Y-67622057D01*
X137167714Y-67622057D02*
X137215333Y-67717295D01*
X137215333Y-67717295D02*
X137215333Y-67812533D01*
X137215333Y-67812533D02*
X137167714Y-67955390D01*
X137167714Y-67955390D02*
X136596286Y-68526819D01*
X136596286Y-68526819D02*
X137215333Y-68526819D01*
X137596286Y-68241104D02*
X138072476Y-68241104D01*
X137501048Y-68526819D02*
X137834381Y-67526819D01*
X137834381Y-67526819D02*
X138167714Y-68526819D01*
X139024857Y-68526819D02*
X138453429Y-68526819D01*
X138739143Y-68526819D02*
X138739143Y-67526819D01*
X138739143Y-67526819D02*
X138643905Y-67669676D01*
X138643905Y-67669676D02*
X138548667Y-67764914D01*
X138548667Y-67764914D02*
X138453429Y-67812533D01*
X155610048Y-55166819D02*
X155610048Y-54166819D01*
X155610048Y-54166819D02*
X155991000Y-54166819D01*
X155991000Y-54166819D02*
X156086238Y-54214438D01*
X156086238Y-54214438D02*
X156133857Y-54262057D01*
X156133857Y-54262057D02*
X156181476Y-54357295D01*
X156181476Y-54357295D02*
X156181476Y-54500152D01*
X156181476Y-54500152D02*
X156133857Y-54595390D01*
X156133857Y-54595390D02*
X156086238Y-54643009D01*
X156086238Y-54643009D02*
X155991000Y-54690628D01*
X155991000Y-54690628D02*
X155610048Y-54690628D01*
X156514810Y-54166819D02*
X156752905Y-55166819D01*
X156752905Y-55166819D02*
X156943381Y-54452533D01*
X156943381Y-54452533D02*
X157133857Y-55166819D01*
X157133857Y-55166819D02*
X157371953Y-54166819D01*
X157752905Y-55166819D02*
X157752905Y-54166819D01*
X157752905Y-54166819D02*
X158086238Y-54881104D01*
X158086238Y-54881104D02*
X158419571Y-54166819D01*
X158419571Y-54166819D02*
X158419571Y-55166819D01*
X159419571Y-55166819D02*
X158848143Y-55166819D01*
X159133857Y-55166819D02*
X159133857Y-54166819D01*
X159133857Y-54166819D02*
X159038619Y-54309676D01*
X159038619Y-54309676D02*
X158943381Y-54404914D01*
X158943381Y-54404914D02*
X158848143Y-54452533D01*
X131715333Y-67002819D02*
X131715333Y-66002819D01*
X131715333Y-66002819D02*
X132048666Y-66717104D01*
X132048666Y-66717104D02*
X132381999Y-66002819D01*
X132381999Y-66002819D02*
X132381999Y-67002819D01*
X133001047Y-67002819D02*
X132905809Y-66955200D01*
X132905809Y-66955200D02*
X132858190Y-66907580D01*
X132858190Y-66907580D02*
X132810571Y-66812342D01*
X132810571Y-66812342D02*
X132810571Y-66526628D01*
X132810571Y-66526628D02*
X132858190Y-66431390D01*
X132858190Y-66431390D02*
X132905809Y-66383771D01*
X132905809Y-66383771D02*
X133001047Y-66336152D01*
X133001047Y-66336152D02*
X133143904Y-66336152D01*
X133143904Y-66336152D02*
X133239142Y-66383771D01*
X133239142Y-66383771D02*
X133286761Y-66431390D01*
X133286761Y-66431390D02*
X133334380Y-66526628D01*
X133334380Y-66526628D02*
X133334380Y-66812342D01*
X133334380Y-66812342D02*
X133286761Y-66907580D01*
X133286761Y-66907580D02*
X133239142Y-66955200D01*
X133239142Y-66955200D02*
X133143904Y-67002819D01*
X133143904Y-67002819D02*
X133001047Y-67002819D01*
X133620095Y-66336152D02*
X134001047Y-66336152D01*
X133762952Y-66002819D02*
X133762952Y-66859961D01*
X133762952Y-66859961D02*
X133810571Y-66955200D01*
X133810571Y-66955200D02*
X133905809Y-67002819D01*
X133905809Y-67002819D02*
X134001047Y-67002819D01*
X134477238Y-67002819D02*
X134382000Y-66955200D01*
X134382000Y-66955200D02*
X134334381Y-66907580D01*
X134334381Y-66907580D02*
X134286762Y-66812342D01*
X134286762Y-66812342D02*
X134286762Y-66526628D01*
X134286762Y-66526628D02*
X134334381Y-66431390D01*
X134334381Y-66431390D02*
X134382000Y-66383771D01*
X134382000Y-66383771D02*
X134477238Y-66336152D01*
X134477238Y-66336152D02*
X134620095Y-66336152D01*
X134620095Y-66336152D02*
X134715333Y-66383771D01*
X134715333Y-66383771D02*
X134762952Y-66431390D01*
X134762952Y-66431390D02*
X134810571Y-66526628D01*
X134810571Y-66526628D02*
X134810571Y-66812342D01*
X134810571Y-66812342D02*
X134762952Y-66907580D01*
X134762952Y-66907580D02*
X134715333Y-66955200D01*
X134715333Y-66955200D02*
X134620095Y-67002819D01*
X134620095Y-67002819D02*
X134477238Y-67002819D01*
X135239143Y-67002819D02*
X135239143Y-66336152D01*
X135239143Y-66526628D02*
X135286762Y-66431390D01*
X135286762Y-66431390D02*
X135334381Y-66383771D01*
X135334381Y-66383771D02*
X135429619Y-66336152D01*
X135429619Y-66336152D02*
X135524857Y-66336152D01*
X135620096Y-67098057D02*
X136382000Y-67098057D01*
X137143905Y-67002819D02*
X136572477Y-67002819D01*
X136858191Y-67002819D02*
X136858191Y-66002819D01*
X136858191Y-66002819D02*
X136762953Y-66145676D01*
X136762953Y-66145676D02*
X136667715Y-66240914D01*
X136667715Y-66240914D02*
X136572477Y-66288533D01*
X137905810Y-66479009D02*
X138048667Y-66526628D01*
X138048667Y-66526628D02*
X138096286Y-66574247D01*
X138096286Y-66574247D02*
X138143905Y-66669485D01*
X138143905Y-66669485D02*
X138143905Y-66812342D01*
X138143905Y-66812342D02*
X138096286Y-66907580D01*
X138096286Y-66907580D02*
X138048667Y-66955200D01*
X138048667Y-66955200D02*
X137953429Y-67002819D01*
X137953429Y-67002819D02*
X137572477Y-67002819D01*
X137572477Y-67002819D02*
X137572477Y-66002819D01*
X137572477Y-66002819D02*
X137905810Y-66002819D01*
X137905810Y-66002819D02*
X138001048Y-66050438D01*
X138001048Y-66050438D02*
X138048667Y-66098057D01*
X138048667Y-66098057D02*
X138096286Y-66193295D01*
X138096286Y-66193295D02*
X138096286Y-66288533D01*
X138096286Y-66288533D02*
X138048667Y-66383771D01*
X138048667Y-66383771D02*
X138001048Y-66431390D01*
X138001048Y-66431390D02*
X137905810Y-66479009D01*
X137905810Y-66479009D02*
X137572477Y-66479009D01*
X139096286Y-67002819D02*
X138524858Y-67002819D01*
X138810572Y-67002819D02*
X138810572Y-66002819D01*
X138810572Y-66002819D02*
X138715334Y-66145676D01*
X138715334Y-66145676D02*
X138620096Y-66240914D01*
X138620096Y-66240914D02*
X138524858Y-66288533D01*
X145719333Y-63192819D02*
X145386000Y-62716628D01*
X145147905Y-63192819D02*
X145147905Y-62192819D01*
X145147905Y-62192819D02*
X145528857Y-62192819D01*
X145528857Y-62192819D02*
X145624095Y-62240438D01*
X145624095Y-62240438D02*
X145671714Y-62288057D01*
X145671714Y-62288057D02*
X145719333Y-62383295D01*
X145719333Y-62383295D02*
X145719333Y-62526152D01*
X145719333Y-62526152D02*
X145671714Y-62621390D01*
X145671714Y-62621390D02*
X145624095Y-62669009D01*
X145624095Y-62669009D02*
X145528857Y-62716628D01*
X145528857Y-62716628D02*
X145147905Y-62716628D01*
X146576476Y-62526152D02*
X146576476Y-63192819D01*
X146338381Y-62145200D02*
X146100286Y-62859485D01*
X146100286Y-62859485D02*
X146719333Y-62859485D01*
X154466933Y-65877619D02*
X154133600Y-65401428D01*
X153895505Y-65877619D02*
X153895505Y-64877619D01*
X153895505Y-64877619D02*
X154276457Y-64877619D01*
X154276457Y-64877619D02*
X154371695Y-64925238D01*
X154371695Y-64925238D02*
X154419314Y-64972857D01*
X154419314Y-64972857D02*
X154466933Y-65068095D01*
X154466933Y-65068095D02*
X154466933Y-65210952D01*
X154466933Y-65210952D02*
X154419314Y-65306190D01*
X154419314Y-65306190D02*
X154371695Y-65353809D01*
X154371695Y-65353809D02*
X154276457Y-65401428D01*
X154276457Y-65401428D02*
X153895505Y-65401428D01*
X154800267Y-64877619D02*
X155466933Y-64877619D01*
X155466933Y-64877619D02*
X155038362Y-65877619D01*
X149196333Y-54002580D02*
X149148714Y-54050200D01*
X149148714Y-54050200D02*
X149005857Y-54097819D01*
X149005857Y-54097819D02*
X148910619Y-54097819D01*
X148910619Y-54097819D02*
X148767762Y-54050200D01*
X148767762Y-54050200D02*
X148672524Y-53954961D01*
X148672524Y-53954961D02*
X148624905Y-53859723D01*
X148624905Y-53859723D02*
X148577286Y-53669247D01*
X148577286Y-53669247D02*
X148577286Y-53526390D01*
X148577286Y-53526390D02*
X148624905Y-53335914D01*
X148624905Y-53335914D02*
X148672524Y-53240676D01*
X148672524Y-53240676D02*
X148767762Y-53145438D01*
X148767762Y-53145438D02*
X148910619Y-53097819D01*
X148910619Y-53097819D02*
X149005857Y-53097819D01*
X149005857Y-53097819D02*
X149148714Y-53145438D01*
X149148714Y-53145438D02*
X149196333Y-53193057D01*
X150148714Y-54097819D02*
X149577286Y-54097819D01*
X149863000Y-54097819D02*
X149863000Y-53097819D01*
X149863000Y-53097819D02*
X149767762Y-53240676D01*
X149767762Y-53240676D02*
X149672524Y-53335914D01*
X149672524Y-53335914D02*
X149577286Y-53383533D01*
X141001904Y-75448438D02*
X140906666Y-75400819D01*
X140906666Y-75400819D02*
X140763809Y-75400819D01*
X140763809Y-75400819D02*
X140620952Y-75448438D01*
X140620952Y-75448438D02*
X140525714Y-75543676D01*
X140525714Y-75543676D02*
X140478095Y-75638914D01*
X140478095Y-75638914D02*
X140430476Y-75829390D01*
X140430476Y-75829390D02*
X140430476Y-75972247D01*
X140430476Y-75972247D02*
X140478095Y-76162723D01*
X140478095Y-76162723D02*
X140525714Y-76257961D01*
X140525714Y-76257961D02*
X140620952Y-76353200D01*
X140620952Y-76353200D02*
X140763809Y-76400819D01*
X140763809Y-76400819D02*
X140859047Y-76400819D01*
X140859047Y-76400819D02*
X141001904Y-76353200D01*
X141001904Y-76353200D02*
X141049523Y-76305580D01*
X141049523Y-76305580D02*
X141049523Y-75972247D01*
X141049523Y-75972247D02*
X140859047Y-75972247D01*
X141478095Y-76400819D02*
X141478095Y-75400819D01*
X141478095Y-75400819D02*
X142049523Y-76400819D01*
X142049523Y-76400819D02*
X142049523Y-75400819D01*
X142525714Y-76400819D02*
X142525714Y-75400819D01*
X142525714Y-75400819D02*
X142763809Y-75400819D01*
X142763809Y-75400819D02*
X142906666Y-75448438D01*
X142906666Y-75448438D02*
X143001904Y-75543676D01*
X143001904Y-75543676D02*
X143049523Y-75638914D01*
X143049523Y-75638914D02*
X143097142Y-75829390D01*
X143097142Y-75829390D02*
X143097142Y-75972247D01*
X143097142Y-75972247D02*
X143049523Y-76162723D01*
X143049523Y-76162723D02*
X143001904Y-76257961D01*
X143001904Y-76257961D02*
X142906666Y-76353200D01*
X142906666Y-76353200D02*
X142763809Y-76400819D01*
X142763809Y-76400819D02*
X142525714Y-76400819D01*
X144049523Y-76400819D02*
X143478095Y-76400819D01*
X143763809Y-76400819D02*
X143763809Y-75400819D01*
X143763809Y-75400819D02*
X143668571Y-75543676D01*
X143668571Y-75543676D02*
X143573333Y-75638914D01*
X143573333Y-75638914D02*
X143478095Y-75686533D01*
X150587666Y-65472819D02*
X150587666Y-66187104D01*
X150587666Y-66187104D02*
X150540047Y-66329961D01*
X150540047Y-66329961D02*
X150444809Y-66425200D01*
X150444809Y-66425200D02*
X150301952Y-66472819D01*
X150301952Y-66472819D02*
X150206714Y-66472819D01*
X151063857Y-66472819D02*
X151063857Y-65472819D01*
X151063857Y-65472819D02*
X151444809Y-65472819D01*
X151444809Y-65472819D02*
X151540047Y-65520438D01*
X151540047Y-65520438D02*
X151587666Y-65568057D01*
X151587666Y-65568057D02*
X151635285Y-65663295D01*
X151635285Y-65663295D02*
X151635285Y-65806152D01*
X151635285Y-65806152D02*
X151587666Y-65901390D01*
X151587666Y-65901390D02*
X151540047Y-65949009D01*
X151540047Y-65949009D02*
X151444809Y-65996628D01*
X151444809Y-65996628D02*
X151063857Y-65996628D01*
X152206714Y-65901390D02*
X152111476Y-65853771D01*
X152111476Y-65853771D02*
X152063857Y-65806152D01*
X152063857Y-65806152D02*
X152016238Y-65710914D01*
X152016238Y-65710914D02*
X152016238Y-65663295D01*
X152016238Y-65663295D02*
X152063857Y-65568057D01*
X152063857Y-65568057D02*
X152111476Y-65520438D01*
X152111476Y-65520438D02*
X152206714Y-65472819D01*
X152206714Y-65472819D02*
X152397190Y-65472819D01*
X152397190Y-65472819D02*
X152492428Y-65520438D01*
X152492428Y-65520438D02*
X152540047Y-65568057D01*
X152540047Y-65568057D02*
X152587666Y-65663295D01*
X152587666Y-65663295D02*
X152587666Y-65710914D01*
X152587666Y-65710914D02*
X152540047Y-65806152D01*
X152540047Y-65806152D02*
X152492428Y-65853771D01*
X152492428Y-65853771D02*
X152397190Y-65901390D01*
X152397190Y-65901390D02*
X152206714Y-65901390D01*
X152206714Y-65901390D02*
X152111476Y-65949009D01*
X152111476Y-65949009D02*
X152063857Y-65996628D01*
X152063857Y-65996628D02*
X152016238Y-66091866D01*
X152016238Y-66091866D02*
X152016238Y-66282342D01*
X152016238Y-66282342D02*
X152063857Y-66377580D01*
X152063857Y-66377580D02*
X152111476Y-66425200D01*
X152111476Y-66425200D02*
X152206714Y-66472819D01*
X152206714Y-66472819D02*
X152397190Y-66472819D01*
X152397190Y-66472819D02*
X152492428Y-66425200D01*
X152492428Y-66425200D02*
X152540047Y-66377580D01*
X152540047Y-66377580D02*
X152587666Y-66282342D01*
X152587666Y-66282342D02*
X152587666Y-66091866D01*
X152587666Y-66091866D02*
X152540047Y-65996628D01*
X152540047Y-65996628D02*
X152492428Y-65949009D01*
X152492428Y-65949009D02*
X152397190Y-65901390D01*
X139335095Y-66748866D02*
X140097000Y-66748866D01*
X139716047Y-67129819D02*
X139716047Y-66367914D01*
X141049380Y-66129819D02*
X140573190Y-66129819D01*
X140573190Y-66129819D02*
X140525571Y-66606009D01*
X140525571Y-66606009D02*
X140573190Y-66558390D01*
X140573190Y-66558390D02*
X140668428Y-66510771D01*
X140668428Y-66510771D02*
X140906523Y-66510771D01*
X140906523Y-66510771D02*
X141001761Y-66558390D01*
X141001761Y-66558390D02*
X141049380Y-66606009D01*
X141049380Y-66606009D02*
X141096999Y-66701247D01*
X141096999Y-66701247D02*
X141096999Y-66939342D01*
X141096999Y-66939342D02*
X141049380Y-67034580D01*
X141049380Y-67034580D02*
X141001761Y-67082200D01*
X141001761Y-67082200D02*
X140906523Y-67129819D01*
X140906523Y-67129819D02*
X140668428Y-67129819D01*
X140668428Y-67129819D02*
X140573190Y-67082200D01*
X140573190Y-67082200D02*
X140525571Y-67034580D01*
X141382714Y-66129819D02*
X141716047Y-67129819D01*
X141716047Y-67129819D02*
X142049380Y-66129819D01*
X142906523Y-67129819D02*
X142335095Y-67129819D01*
X142620809Y-67129819D02*
X142620809Y-66129819D01*
X142620809Y-66129819D02*
X142525571Y-66272676D01*
X142525571Y-66272676D02*
X142430333Y-66367914D01*
X142430333Y-66367914D02*
X142335095Y-66415533D01*
X147513742Y-65877619D02*
X147180409Y-65401428D01*
X146942314Y-65877619D02*
X146942314Y-64877619D01*
X146942314Y-64877619D02*
X147323266Y-64877619D01*
X147323266Y-64877619D02*
X147418504Y-64925238D01*
X147418504Y-64925238D02*
X147466123Y-64972857D01*
X147466123Y-64972857D02*
X147513742Y-65068095D01*
X147513742Y-65068095D02*
X147513742Y-65210952D01*
X147513742Y-65210952D02*
X147466123Y-65306190D01*
X147466123Y-65306190D02*
X147418504Y-65353809D01*
X147418504Y-65353809D02*
X147323266Y-65401428D01*
X147323266Y-65401428D02*
X146942314Y-65401428D01*
X148466123Y-65877619D02*
X147894695Y-65877619D01*
X148180409Y-65877619D02*
X148180409Y-64877619D01*
X148180409Y-64877619D02*
X148085171Y-65020476D01*
X148085171Y-65020476D02*
X147989933Y-65115714D01*
X147989933Y-65115714D02*
X147894695Y-65163333D01*
X149085171Y-64877619D02*
X149180409Y-64877619D01*
X149180409Y-64877619D02*
X149275647Y-64925238D01*
X149275647Y-64925238D02*
X149323266Y-64972857D01*
X149323266Y-64972857D02*
X149370885Y-65068095D01*
X149370885Y-65068095D02*
X149418504Y-65258571D01*
X149418504Y-65258571D02*
X149418504Y-65496666D01*
X149418504Y-65496666D02*
X149370885Y-65687142D01*
X149370885Y-65687142D02*
X149323266Y-65782380D01*
X149323266Y-65782380D02*
X149275647Y-65830000D01*
X149275647Y-65830000D02*
X149180409Y-65877619D01*
X149180409Y-65877619D02*
X149085171Y-65877619D01*
X149085171Y-65877619D02*
X148989933Y-65830000D01*
X148989933Y-65830000D02*
X148942314Y-65782380D01*
X148942314Y-65782380D02*
X148894695Y-65687142D01*
X148894695Y-65687142D02*
X148847076Y-65496666D01*
X148847076Y-65496666D02*
X148847076Y-65258571D01*
X148847076Y-65258571D02*
X148894695Y-65068095D01*
X148894695Y-65068095D02*
X148942314Y-64972857D01*
X148942314Y-64972857D02*
X148989933Y-64925238D01*
X148989933Y-64925238D02*
X149085171Y-64877619D01*
X154926523Y-49058819D02*
X154926523Y-48058819D01*
X154926523Y-48058819D02*
X155259856Y-48773104D01*
X155259856Y-48773104D02*
X155593189Y-48058819D01*
X155593189Y-48058819D02*
X155593189Y-49058819D01*
X156212237Y-49058819D02*
X156116999Y-49011200D01*
X156116999Y-49011200D02*
X156069380Y-48963580D01*
X156069380Y-48963580D02*
X156021761Y-48868342D01*
X156021761Y-48868342D02*
X156021761Y-48582628D01*
X156021761Y-48582628D02*
X156069380Y-48487390D01*
X156069380Y-48487390D02*
X156116999Y-48439771D01*
X156116999Y-48439771D02*
X156212237Y-48392152D01*
X156212237Y-48392152D02*
X156355094Y-48392152D01*
X156355094Y-48392152D02*
X156450332Y-48439771D01*
X156450332Y-48439771D02*
X156497951Y-48487390D01*
X156497951Y-48487390D02*
X156545570Y-48582628D01*
X156545570Y-48582628D02*
X156545570Y-48868342D01*
X156545570Y-48868342D02*
X156497951Y-48963580D01*
X156497951Y-48963580D02*
X156450332Y-49011200D01*
X156450332Y-49011200D02*
X156355094Y-49058819D01*
X156355094Y-49058819D02*
X156212237Y-49058819D01*
X156831285Y-48392152D02*
X157212237Y-48392152D01*
X156974142Y-48058819D02*
X156974142Y-48915961D01*
X156974142Y-48915961D02*
X157021761Y-49011200D01*
X157021761Y-49011200D02*
X157116999Y-49058819D01*
X157116999Y-49058819D02*
X157212237Y-49058819D01*
X157688428Y-49058819D02*
X157593190Y-49011200D01*
X157593190Y-49011200D02*
X157545571Y-48963580D01*
X157545571Y-48963580D02*
X157497952Y-48868342D01*
X157497952Y-48868342D02*
X157497952Y-48582628D01*
X157497952Y-48582628D02*
X157545571Y-48487390D01*
X157545571Y-48487390D02*
X157593190Y-48439771D01*
X157593190Y-48439771D02*
X157688428Y-48392152D01*
X157688428Y-48392152D02*
X157831285Y-48392152D01*
X157831285Y-48392152D02*
X157926523Y-48439771D01*
X157926523Y-48439771D02*
X157974142Y-48487390D01*
X157974142Y-48487390D02*
X158021761Y-48582628D01*
X158021761Y-48582628D02*
X158021761Y-48868342D01*
X158021761Y-48868342D02*
X157974142Y-48963580D01*
X157974142Y-48963580D02*
X157926523Y-49011200D01*
X157926523Y-49011200D02*
X157831285Y-49058819D01*
X157831285Y-49058819D02*
X157688428Y-49058819D01*
X158450333Y-49058819D02*
X158450333Y-48392152D01*
X158450333Y-48582628D02*
X158497952Y-48487390D01*
X158497952Y-48487390D02*
X158545571Y-48439771D01*
X158545571Y-48439771D02*
X158640809Y-48392152D01*
X158640809Y-48392152D02*
X158736047Y-48392152D01*
X158831286Y-49154057D02*
X159593190Y-49154057D01*
X159783667Y-48154057D02*
X159831286Y-48106438D01*
X159831286Y-48106438D02*
X159926524Y-48058819D01*
X159926524Y-48058819D02*
X160164619Y-48058819D01*
X160164619Y-48058819D02*
X160259857Y-48106438D01*
X160259857Y-48106438D02*
X160307476Y-48154057D01*
X160307476Y-48154057D02*
X160355095Y-48249295D01*
X160355095Y-48249295D02*
X160355095Y-48344533D01*
X160355095Y-48344533D02*
X160307476Y-48487390D01*
X160307476Y-48487390D02*
X159736048Y-49058819D01*
X159736048Y-49058819D02*
X160355095Y-49058819D01*
X146931381Y-76146866D02*
X147693286Y-76146866D01*
X147312333Y-76527819D02*
X147312333Y-75765914D01*
X148502809Y-76004009D02*
X148645666Y-76051628D01*
X148645666Y-76051628D02*
X148693285Y-76099247D01*
X148693285Y-76099247D02*
X148740904Y-76194485D01*
X148740904Y-76194485D02*
X148740904Y-76337342D01*
X148740904Y-76337342D02*
X148693285Y-76432580D01*
X148693285Y-76432580D02*
X148645666Y-76480200D01*
X148645666Y-76480200D02*
X148550428Y-76527819D01*
X148550428Y-76527819D02*
X148169476Y-76527819D01*
X148169476Y-76527819D02*
X148169476Y-75527819D01*
X148169476Y-75527819D02*
X148502809Y-75527819D01*
X148502809Y-75527819D02*
X148598047Y-75575438D01*
X148598047Y-75575438D02*
X148645666Y-75623057D01*
X148645666Y-75623057D02*
X148693285Y-75718295D01*
X148693285Y-75718295D02*
X148693285Y-75813533D01*
X148693285Y-75813533D02*
X148645666Y-75908771D01*
X148645666Y-75908771D02*
X148598047Y-75956390D01*
X148598047Y-75956390D02*
X148502809Y-76004009D01*
X148502809Y-76004009D02*
X148169476Y-76004009D01*
X149121857Y-76242104D02*
X149598047Y-76242104D01*
X149026619Y-76527819D02*
X149359952Y-75527819D01*
X149359952Y-75527819D02*
X149693285Y-76527819D01*
X149883762Y-75527819D02*
X150455190Y-75527819D01*
X150169476Y-76527819D02*
X150169476Y-75527819D01*
X150645667Y-75527819D02*
X151217095Y-75527819D01*
X150931381Y-76527819D02*
X150931381Y-75527819D01*
X152074238Y-76527819D02*
X151502810Y-76527819D01*
X151788524Y-76527819D02*
X151788524Y-75527819D01*
X151788524Y-75527819D02*
X151693286Y-75670676D01*
X151693286Y-75670676D02*
X151598048Y-75765914D01*
X151598048Y-75765914D02*
X151502810Y-75813533D01*
X145367319Y-50461094D02*
X144367319Y-50461094D01*
X144367319Y-50461094D02*
X144367319Y-50222999D01*
X144367319Y-50222999D02*
X144414938Y-50080142D01*
X144414938Y-50080142D02*
X144510176Y-49984904D01*
X144510176Y-49984904D02*
X144605414Y-49937285D01*
X144605414Y-49937285D02*
X144795890Y-49889666D01*
X144795890Y-49889666D02*
X144938747Y-49889666D01*
X144938747Y-49889666D02*
X145129223Y-49937285D01*
X145129223Y-49937285D02*
X145224461Y-49984904D01*
X145224461Y-49984904D02*
X145319700Y-50080142D01*
X145319700Y-50080142D02*
X145367319Y-50222999D01*
X145367319Y-50222999D02*
X145367319Y-50461094D01*
X145367319Y-48937285D02*
X145367319Y-49508713D01*
X145367319Y-49222999D02*
X144367319Y-49222999D01*
X144367319Y-49222999D02*
X144510176Y-49318237D01*
X144510176Y-49318237D02*
X144605414Y-49413475D01*
X144605414Y-49413475D02*
X144653033Y-49508713D01*
X131786761Y-60017819D02*
X131786761Y-59017819D01*
X131786761Y-59017819D02*
X132120094Y-59732104D01*
X132120094Y-59732104D02*
X132453427Y-59017819D01*
X132453427Y-59017819D02*
X132453427Y-60017819D01*
X133072475Y-60017819D02*
X132977237Y-59970200D01*
X132977237Y-59970200D02*
X132929618Y-59922580D01*
X132929618Y-59922580D02*
X132881999Y-59827342D01*
X132881999Y-59827342D02*
X132881999Y-59541628D01*
X132881999Y-59541628D02*
X132929618Y-59446390D01*
X132929618Y-59446390D02*
X132977237Y-59398771D01*
X132977237Y-59398771D02*
X133072475Y-59351152D01*
X133072475Y-59351152D02*
X133215332Y-59351152D01*
X133215332Y-59351152D02*
X133310570Y-59398771D01*
X133310570Y-59398771D02*
X133358189Y-59446390D01*
X133358189Y-59446390D02*
X133405808Y-59541628D01*
X133405808Y-59541628D02*
X133405808Y-59827342D01*
X133405808Y-59827342D02*
X133358189Y-59922580D01*
X133358189Y-59922580D02*
X133310570Y-59970200D01*
X133310570Y-59970200D02*
X133215332Y-60017819D01*
X133215332Y-60017819D02*
X133072475Y-60017819D01*
X133691523Y-59351152D02*
X134072475Y-59351152D01*
X133834380Y-59017819D02*
X133834380Y-59874961D01*
X133834380Y-59874961D02*
X133881999Y-59970200D01*
X133881999Y-59970200D02*
X133977237Y-60017819D01*
X133977237Y-60017819D02*
X134072475Y-60017819D01*
X134548666Y-60017819D02*
X134453428Y-59970200D01*
X134453428Y-59970200D02*
X134405809Y-59922580D01*
X134405809Y-59922580D02*
X134358190Y-59827342D01*
X134358190Y-59827342D02*
X134358190Y-59541628D01*
X134358190Y-59541628D02*
X134405809Y-59446390D01*
X134405809Y-59446390D02*
X134453428Y-59398771D01*
X134453428Y-59398771D02*
X134548666Y-59351152D01*
X134548666Y-59351152D02*
X134691523Y-59351152D01*
X134691523Y-59351152D02*
X134786761Y-59398771D01*
X134786761Y-59398771D02*
X134834380Y-59446390D01*
X134834380Y-59446390D02*
X134881999Y-59541628D01*
X134881999Y-59541628D02*
X134881999Y-59827342D01*
X134881999Y-59827342D02*
X134834380Y-59922580D01*
X134834380Y-59922580D02*
X134786761Y-59970200D01*
X134786761Y-59970200D02*
X134691523Y-60017819D01*
X134691523Y-60017819D02*
X134548666Y-60017819D01*
X135310571Y-60017819D02*
X135310571Y-59351152D01*
X135310571Y-59541628D02*
X135358190Y-59446390D01*
X135358190Y-59446390D02*
X135405809Y-59398771D01*
X135405809Y-59398771D02*
X135501047Y-59351152D01*
X135501047Y-59351152D02*
X135596285Y-59351152D01*
X135691524Y-60113057D02*
X136453428Y-60113057D01*
X137215333Y-60017819D02*
X136643905Y-60017819D01*
X136929619Y-60017819D02*
X136929619Y-59017819D01*
X136929619Y-59017819D02*
X136834381Y-59160676D01*
X136834381Y-59160676D02*
X136739143Y-59255914D01*
X136739143Y-59255914D02*
X136643905Y-59303533D01*
X137596286Y-59732104D02*
X138072476Y-59732104D01*
X137501048Y-60017819D02*
X137834381Y-59017819D01*
X137834381Y-59017819D02*
X138167714Y-60017819D01*
X139024857Y-60017819D02*
X138453429Y-60017819D01*
X138739143Y-60017819D02*
X138739143Y-59017819D01*
X138739143Y-59017819D02*
X138643905Y-59160676D01*
X138643905Y-59160676D02*
X138548667Y-59255914D01*
X138548667Y-59255914D02*
X138453429Y-59303533D01*
X149145666Y-46571819D02*
X149145666Y-47286104D01*
X149145666Y-47286104D02*
X149098047Y-47428961D01*
X149098047Y-47428961D02*
X149002809Y-47524200D01*
X149002809Y-47524200D02*
X148859952Y-47571819D01*
X148859952Y-47571819D02*
X148764714Y-47571819D01*
X150145666Y-47571819D02*
X149574238Y-47571819D01*
X149859952Y-47571819D02*
X149859952Y-46571819D01*
X149859952Y-46571819D02*
X149764714Y-46714676D01*
X149764714Y-46714676D02*
X149669476Y-46809914D01*
X149669476Y-46809914D02*
X149574238Y-46857533D01*
%TO.C,SW1*%
D11*
X154687000Y-70564000D02*
X167387000Y-70564000D01*
X167387000Y-77264000D01*
X154687000Y-77264000D01*
X154687000Y-70564000D01*
D12*
%TO.C,JP1*%
X164335000Y-69134000D02*
X164335000Y-68534000D01*
X165035000Y-67834000D02*
X166435000Y-67834000D01*
X166435000Y-69834000D02*
X165035000Y-69834000D01*
X167135000Y-68534000D02*
X167135000Y-69134000D01*
X164335000Y-68534000D02*
G75*
G02*
X165035000Y-67834000I699999J1D01*
G01*
X165035000Y-69834000D02*
G75*
G02*
X164335000Y-69134000I-1J699999D01*
G01*
X166435000Y-67834000D02*
G75*
G02*
X167135000Y-68534000I0J-700000D01*
G01*
X167135000Y-69134000D02*
G75*
G02*
X166435000Y-69834000I-700000J0D01*
G01*
%TO.C,C3*%
X141850836Y-51903000D02*
X141635164Y-51903000D01*
X141850836Y-52623000D02*
X141635164Y-52623000D01*
%TO.C,R3*%
X147781742Y-60056500D02*
X148256258Y-60056500D01*
X147781742Y-61101500D02*
X148256258Y-61101500D01*
D10*
%TO.C,PWM2*%
X155391000Y-58779000D02*
X159591000Y-58779000D01*
X155391000Y-61179000D02*
X155391000Y-58779000D01*
X159591000Y-58779000D02*
X159591000Y-61179000D01*
X159591000Y-61179000D02*
X155391000Y-61179000D01*
%TO.C,PWM3*%
X139643000Y-55762000D02*
X143843000Y-55762000D01*
X139643000Y-58162000D02*
X139643000Y-55762000D01*
X143843000Y-55762000D02*
X143843000Y-58162000D01*
X143843000Y-58162000D02*
X139643000Y-58162000D01*
D12*
%TO.C,R8*%
X154396342Y-67803500D02*
X154870858Y-67803500D01*
X154396342Y-68848500D02*
X154870858Y-68848500D01*
%TO.C,J2*%
X161024000Y-58955000D02*
X161024000Y-66775000D01*
X161024000Y-65175000D02*
X161944000Y-65175000D01*
X161024000Y-66775000D02*
X161944000Y-66775000D01*
X161784000Y-61215000D02*
X162784000Y-61215000D01*
X161784000Y-62815000D02*
X161784000Y-61215000D01*
X161944000Y-65175000D02*
X162224000Y-65175000D01*
X161944000Y-66775000D02*
X161944000Y-65175000D01*
X162784000Y-61215000D02*
X162784000Y-62815000D01*
X162784000Y-62815000D02*
X161784000Y-62815000D01*
X163584000Y-63315000D02*
X163584000Y-58955000D01*
X164584000Y-58955000D02*
X164584000Y-63315000D01*
X164584000Y-63315000D02*
X163584000Y-63315000D01*
X165384000Y-61215000D02*
X165384000Y-58955000D01*
X165384000Y-61215000D02*
X165384000Y-62815000D01*
X165384000Y-62815000D02*
X166384000Y-62815000D01*
X165884000Y-61215000D02*
X165884000Y-58955000D01*
X165944000Y-65175000D02*
X165944000Y-66390000D01*
X165944000Y-65175000D02*
X166224000Y-65175000D01*
X166224000Y-65175000D02*
X166224000Y-66775000D01*
X166224000Y-66775000D02*
X167144000Y-66775000D01*
X166384000Y-61215000D02*
X165384000Y-61215000D01*
X166384000Y-62815000D02*
X166384000Y-61215000D01*
X167144000Y-58955000D02*
X161024000Y-58955000D01*
X167144000Y-65175000D02*
X166224000Y-65175000D01*
X167144000Y-66775000D02*
X167144000Y-58955000D01*
%TO.C,JP2*%
X150124200Y-58436000D02*
X152924200Y-58436000D01*
X150124200Y-60436000D02*
X150124200Y-58436000D01*
X152924200Y-58436000D02*
X152924200Y-60436000D01*
X152924200Y-60436000D02*
X150124200Y-60436000D01*
%TO.C,JP13*%
X145939000Y-55960000D02*
X145939000Y-54560000D01*
X146639000Y-53860000D02*
X147239000Y-53860000D01*
X147239000Y-56660000D02*
X146639000Y-56660000D01*
X147939000Y-54560000D02*
X147939000Y-55960000D01*
X145939000Y-54560000D02*
G75*
G02*
X146639000Y-53860000I700000J0D01*
G01*
X146639000Y-56660000D02*
G75*
G02*
X145939000Y-55960000I-1J699999D01*
G01*
X147239000Y-53860000D02*
G75*
G02*
X147939000Y-54560000I0J-700000D01*
G01*
X147939000Y-55960000D02*
G75*
G02*
X147239000Y-56660000I-699999J-1D01*
G01*
%TO.C,C4*%
X157443836Y-51903000D02*
X157228164Y-51903000D01*
X157443836Y-52623000D02*
X157228164Y-52623000D01*
%TO.C,C2*%
X149470836Y-55586000D02*
X149255164Y-55586000D01*
X149470836Y-56306000D02*
X149255164Y-56306000D01*
%TO.C,JP5*%
X150122600Y-62500000D02*
X152922600Y-62500000D01*
X150122600Y-64500000D02*
X150122600Y-62500000D01*
X152922600Y-62500000D02*
X152922600Y-64500000D01*
X152922600Y-64500000D02*
X150122600Y-64500000D01*
%TO.C,R11*%
X147919342Y-67803500D02*
X148393858Y-67803500D01*
X147919342Y-68848500D02*
X148393858Y-68848500D01*
%TO.C,Motor_1*%
X140672000Y-49364000D02*
X142672000Y-49364000D01*
X140682000Y-51644000D02*
X142682000Y-51644000D01*
X140312000Y-49434000D02*
X140032000Y-49434000D01*
X140312000Y-49154000D01*
X140312000Y-49434000D01*
G36*
X140312000Y-49434000D02*
G01*
X140032000Y-49434000D01*
X140312000Y-49154000D01*
X140312000Y-49434000D01*
G37*
D10*
%TO.C,Motor2_B1*%
X133282000Y-72206000D02*
X137482000Y-72206000D01*
X133282000Y-74606000D02*
X133282000Y-72206000D01*
X137482000Y-72206000D02*
X137482000Y-74606000D01*
X137482000Y-74606000D02*
X133282000Y-74606000D01*
D12*
%TO.C,JP11*%
X143544000Y-66818000D02*
X146344000Y-66818000D01*
X143544000Y-68818000D02*
X143544000Y-66818000D01*
X146344000Y-66818000D02*
X146344000Y-68818000D01*
X146344000Y-68818000D02*
X143544000Y-68818000D01*
%TO.C,U1*%
X149484500Y-49494000D02*
X148684500Y-49494000D01*
X149484500Y-49494000D02*
X150284500Y-49494000D01*
X149484500Y-52614000D02*
X148684500Y-52614000D01*
X149484500Y-52614000D02*
X150284500Y-52614000D01*
X148184500Y-49544000D02*
X147944500Y-49214000D01*
X148424500Y-49214000D01*
X148184500Y-49544000D01*
G36*
X148184500Y-49544000D02*
G01*
X147944500Y-49214000D01*
X148424500Y-49214000D01*
X148184500Y-49544000D01*
G37*
%TO.C,R2*%
X148256258Y-58405500D02*
X147781742Y-58405500D01*
X148256258Y-59450500D02*
X147781742Y-59450500D01*
%TO.C,R5*%
X148071641Y-63628000D02*
X147764359Y-63628000D01*
X148071641Y-64388000D02*
X147764359Y-64388000D01*
D10*
%TO.C,PWM4*%
X139643000Y-58683000D02*
X143843000Y-58683000D01*
X139643000Y-61083000D02*
X139643000Y-58683000D01*
X143843000Y-58683000D02*
X143843000Y-61083000D01*
X143843000Y-61083000D02*
X139643000Y-61083000D01*
%TO.C,Motor_2A1*%
X133282000Y-69031000D02*
X137482000Y-69031000D01*
X133282000Y-71431000D02*
X133282000Y-69031000D01*
X137482000Y-69031000D02*
X137482000Y-71431000D01*
X137482000Y-71431000D02*
X133282000Y-71431000D01*
%TO.C,PWM1*%
X155391000Y-55762000D02*
X159591000Y-55762000D01*
X155391000Y-58162000D02*
X155391000Y-55762000D01*
X159591000Y-55762000D02*
X159591000Y-58162000D01*
X159591000Y-58162000D02*
X155391000Y-58162000D01*
%TO.C,Motor_1B1*%
X133282000Y-63316000D02*
X137482000Y-63316000D01*
X133282000Y-65716000D02*
X133282000Y-63316000D01*
X137482000Y-63316000D02*
X137482000Y-65716000D01*
X137482000Y-65716000D02*
X133282000Y-65716000D01*
D12*
%TO.C,R4*%
X148071641Y-62358000D02*
X147764359Y-62358000D01*
X148071641Y-63118000D02*
X147764359Y-63118000D01*
%TO.C,R7*%
X154396342Y-66330300D02*
X154870858Y-66330300D01*
X154396342Y-67375300D02*
X154870858Y-67375300D01*
%TO.C,C1*%
X149255164Y-54443000D02*
X149470836Y-54443000D01*
X149255164Y-55163000D02*
X149470836Y-55163000D01*
D10*
%TO.C,GND1*%
X140140000Y-72460000D02*
X144340000Y-72460000D01*
X140140000Y-74860000D02*
X140140000Y-72460000D01*
X144340000Y-72460000D02*
X144340000Y-74860000D01*
X144340000Y-74860000D02*
X140140000Y-74860000D01*
D12*
%TO.C,JP8*%
X150021000Y-66818000D02*
X152821000Y-66818000D01*
X150021000Y-68818000D02*
X150021000Y-66818000D01*
X152821000Y-66818000D02*
X152821000Y-68818000D01*
X152821000Y-68818000D02*
X150021000Y-68818000D01*
D10*
%TO.C,+5V1*%
X139251000Y-63189000D02*
X143451000Y-63189000D01*
X139251000Y-65589000D02*
X139251000Y-63189000D01*
X143451000Y-63189000D02*
X143451000Y-65589000D01*
X143451000Y-65589000D02*
X139251000Y-65589000D01*
D12*
%TO.C,R10*%
X147919342Y-66330300D02*
X148393858Y-66330300D01*
X147919342Y-67375300D02*
X148393858Y-67375300D01*
%TO.C,Motor_2*%
X156227000Y-49364000D02*
X158227000Y-49364000D01*
X156237000Y-51644000D02*
X158237000Y-51644000D01*
X155867000Y-49434000D02*
X155587000Y-49434000D01*
X155867000Y-49154000D01*
X155867000Y-49434000D01*
G36*
X155867000Y-49434000D02*
G01*
X155587000Y-49434000D01*
X155867000Y-49154000D01*
X155867000Y-49434000D01*
G37*
D10*
%TO.C,+BATT1*%
X147506000Y-72460000D02*
X151706000Y-72460000D01*
X147506000Y-74860000D02*
X147506000Y-72460000D01*
X151706000Y-72460000D02*
X151706000Y-74860000D01*
X151706000Y-74860000D02*
X147506000Y-74860000D01*
D12*
%TO.C,D1*%
X145696000Y-48578500D02*
X145696000Y-50863500D01*
X147166000Y-48578500D02*
X145696000Y-48578500D01*
X147166000Y-50863500D02*
X147166000Y-48578500D01*
D10*
%TO.C,Motor_1A1*%
X133282000Y-60395000D02*
X137482000Y-60395000D01*
X133282000Y-62795000D02*
X133282000Y-60395000D01*
X137482000Y-60395000D02*
X137482000Y-62795000D01*
X137482000Y-62795000D02*
X133282000Y-62795000D01*
%TD*%
%LPC*%
D13*
%TO.C,SW1*%
X156337000Y-73914000D03*
X161037000Y-73914000D03*
X165737000Y-73914000D03*
%TD*%
D14*
%TO.C,JP1*%
X165085000Y-68834000D03*
D15*
X166385000Y-68834000D03*
%TD*%
D16*
%TO.C,C3*%
X142223000Y-52263000D03*
X141263000Y-52263000D03*
%TD*%
D17*
%TO.C,R3*%
X147194000Y-60579000D03*
X148844000Y-60579000D03*
%TD*%
D18*
%TO.C,PWM2*%
X157491000Y-59979000D03*
%TD*%
%TO.C,PWM3*%
X141743000Y-56962000D03*
%TD*%
D17*
%TO.C,R8*%
X153808600Y-68326000D03*
X155458600Y-68326000D03*
%TD*%
D19*
%TO.C,J2*%
X165084000Y-65315000D03*
D20*
X163084000Y-65315000D03*
%TD*%
D21*
%TO.C,JP2*%
X152249200Y-59436000D03*
D22*
X150799200Y-59436000D03*
%TD*%
D23*
%TO.C,JP13*%
X146939000Y-55910000D03*
D24*
X146939000Y-54610000D03*
%TD*%
D16*
%TO.C,C4*%
X157816000Y-52263000D03*
X156856000Y-52263000D03*
%TD*%
%TO.C,C2*%
X149843000Y-55946000D03*
X148883000Y-55946000D03*
%TD*%
D25*
%TO.C,JP5*%
X150797600Y-63500000D03*
D26*
X152247600Y-63500000D03*
%TD*%
D17*
%TO.C,R11*%
X147331600Y-68326000D03*
X148981600Y-68326000D03*
%TD*%
D27*
%TO.C,Motor_1*%
X140732000Y-49754000D03*
X140732000Y-50254000D03*
X140732000Y-50754000D03*
X140732000Y-51254000D03*
X142632000Y-51254000D03*
X142632000Y-50754000D03*
X142632000Y-50254000D03*
X142632000Y-49754000D03*
D28*
X141682000Y-50504000D03*
%TD*%
D18*
%TO.C,Motor2_B1*%
X135382000Y-73406000D03*
%TD*%
D25*
%TO.C,JP11*%
X144219000Y-67818000D03*
D26*
X145669000Y-67818000D03*
%TD*%
D29*
%TO.C,U1*%
X148347000Y-50104000D03*
X148347000Y-51054000D03*
X148347000Y-52004000D03*
X150622000Y-52004000D03*
X150622000Y-50104000D03*
%TD*%
D30*
%TO.C,R2*%
X148844000Y-58928000D03*
X147194000Y-58928000D03*
%TD*%
D31*
%TO.C,R5*%
X148428000Y-64008000D03*
X147408000Y-64008000D03*
%TD*%
D18*
%TO.C,PWM4*%
X141743000Y-59883000D03*
%TD*%
%TO.C,Motor_2A1*%
X135382000Y-70231000D03*
%TD*%
%TO.C,PWM1*%
X157491000Y-56962000D03*
%TD*%
%TO.C,Motor_1B1*%
X135382000Y-64516000D03*
%TD*%
D31*
%TO.C,R4*%
X148428000Y-62738000D03*
X147408000Y-62738000D03*
%TD*%
D17*
%TO.C,R7*%
X153808600Y-66852800D03*
X155458600Y-66852800D03*
%TD*%
D32*
%TO.C,C1*%
X148883000Y-54803000D03*
X149843000Y-54803000D03*
%TD*%
D18*
%TO.C,GND1*%
X142240000Y-73660000D03*
%TD*%
D25*
%TO.C,JP8*%
X150696000Y-67818000D03*
D26*
X152146000Y-67818000D03*
%TD*%
D18*
%TO.C,+5V1*%
X141351000Y-64389000D03*
%TD*%
D17*
%TO.C,R10*%
X147331600Y-66852800D03*
X148981600Y-66852800D03*
%TD*%
D27*
%TO.C,Motor_2*%
X156287000Y-49754000D03*
X156287000Y-50254000D03*
X156287000Y-50754000D03*
X156287000Y-51254000D03*
X158187000Y-51254000D03*
X158187000Y-50754000D03*
X158187000Y-50254000D03*
X158187000Y-49754000D03*
D28*
X157237000Y-50504000D03*
%TD*%
D18*
%TO.C,+BATT1*%
X149606000Y-73660000D03*
%TD*%
D33*
%TO.C,D1*%
X146431000Y-49276000D03*
X146431000Y-50851000D03*
%TD*%
D18*
%TO.C,Motor_1A1*%
X135382000Y-61595000D03*
%TD*%
D34*
%TO.C,J1*%
X158496000Y-45212000D03*
D35*
X158496000Y-42672000D03*
X155956000Y-45212000D03*
X155956000Y-42672000D03*
X153416000Y-45212000D03*
X153416000Y-42672000D03*
X150876000Y-45212000D03*
X150876000Y-42672000D03*
X148336000Y-45212000D03*
X148336000Y-42672000D03*
X145796000Y-45212000D03*
X145796000Y-42672000D03*
X143256000Y-45212000D03*
X143256000Y-42672000D03*
X140716000Y-45212000D03*
X140716000Y-42672000D03*
%TD*%
%LPD*%
M02*
