M48
; DRILL file {KiCad 8.0.0} date 2024-03-24T20:02:06+0200
; FORMAT={-:-/ absolute / inch / decimal}
; #@! TF.CreationDate,2024-03-24T20:02:06+02:00
; #@! TF.GenerationSoftware,Kicad,Pcbnew,8.0.0
; #@! TF.FileFunction,Plated,1,2,PTH
FMAT,2
INCH
; #@! TA.AperFunction,Plated,PTH,ViaDrill
T1C0.0157
; #@! TA.AperFunction,Plated,PTH,ComponentDrill
T2C0.0295
; #@! TA.AperFunction,Plated,PTH,ComponentDrill
T3C0.0394
; #@! TA.AperFunction,Plated,PTH,ComponentDrill
T4C0.0709
%
G90
G05
T1
X5.225Y-2.515
X5.46Y-2.42
X5.5535Y-2.1
X5.6662Y-2.0438
X5.68Y-1.885
X5.7Y-2.095
X5.705Y-2.44
X5.715Y-1.995
X5.76Y-2.275
X5.775Y-2.0961
X5.8654Y-2.5804
X5.905Y-2.27
X5.915Y-2.7935
X5.945Y-2.0815
X5.945Y-2.165
X5.98Y-2.77
X6.0Y-1.995
X6.08Y-2.05
X6.1Y-1.975
X6.22Y-1.86
X6.22Y-2.145
X6.26Y-1.9
X6.26Y-2.145
X6.285Y-2.71
X6.425Y-2.71
T2
X6.4206Y-2.5715
X6.4994Y-2.5715
T3
X5.54Y-1.68
X5.54Y-1.78
X5.64Y-1.68
X5.64Y-1.78
X5.74Y-1.68
X5.74Y-1.78
X5.84Y-1.68
X5.84Y-1.78
X5.94Y-1.68
X5.94Y-1.78
X6.04Y-1.68
X6.04Y-1.78
X6.14Y-1.68
X6.14Y-1.78
X6.24Y-1.68
X6.24Y-1.78
T4
X6.155Y-2.91
X6.34Y-2.91
X6.5251Y-2.91
M30
