%TF.GenerationSoftware,KiCad,Pcbnew,8.0.0*%
%TF.CreationDate,2024-03-24T20:02:06+02:00*%
%TF.ProjectId,Power Subsystem,506f7765-7220-4537-9562-73797374656d,rev?*%
%TF.SameCoordinates,Original*%
%TF.FileFunction,Paste,Top*%
%TF.FilePolarity,Positive*%
%FSLAX46Y46*%
G04 Gerber Fmt 4.6, Leading zero omitted, Abs format (unit mm)*
G04 Created by KiCad (PCBNEW 8.0.0) date 2024-03-24 20:02:06*
%MOMM*%
%LPD*%
G01*
G04 APERTURE LIST*
G04 Aperture macros list*
%AMRoundRect*
0 Rectangle with rounded corners*
0 $1 Rounding radius*
0 $2 $3 $4 $5 $6 $7 $8 $9 X,Y pos of 4 corners*
0 Add a 4 corners polygon primitive as box body*
4,1,4,$2,$3,$4,$5,$6,$7,$8,$9,$2,$3,0*
0 Add four circle primitives for the rounded corners*
1,1,$1+$1,$2,$3*
1,1,$1+$1,$4,$5*
1,1,$1+$1,$6,$7*
1,1,$1+$1,$8,$9*
0 Add four rect primitives between the rounded corners*
20,1,$1+$1,$2,$3,$4,$5,0*
20,1,$1+$1,$4,$5,$6,$7,0*
20,1,$1+$1,$6,$7,$8,$9,0*
20,1,$1+$1,$8,$9,$2,$3,0*%
G04 Aperture macros list end*
%ADD10RoundRect,0.140000X0.140000X0.170000X-0.140000X0.170000X-0.140000X-0.170000X0.140000X-0.170000X0*%
%ADD11RoundRect,0.200000X-0.200000X-0.275000X0.200000X-0.275000X0.200000X0.275000X-0.200000X0.275000X0*%
%ADD12R,3.800000X2.000000*%
%ADD13R,0.750000X0.650000*%
%ADD14RoundRect,0.062500X-0.187500X-0.062500X0.187500X-0.062500X0.187500X0.062500X-0.187500X0.062500X0*%
%ADD15RoundRect,0.150000X-0.512500X-0.150000X0.512500X-0.150000X0.512500X0.150000X-0.512500X0.150000X0*%
%ADD16RoundRect,0.200000X0.200000X0.275000X-0.200000X0.275000X-0.200000X-0.275000X0.200000X-0.275000X0*%
%ADD17RoundRect,0.135000X0.135000X0.185000X-0.135000X0.185000X-0.135000X-0.185000X0.135000X-0.185000X0*%
%ADD18RoundRect,0.140000X-0.140000X-0.170000X0.140000X-0.170000X0.140000X0.170000X-0.140000X0.170000X0*%
%ADD19RoundRect,0.218750X-0.256250X0.218750X-0.256250X-0.218750X0.256250X-0.218750X0.256250X0.218750X0*%
G04 APERTURE END LIST*
D10*
%TO.C,C3*%
X142223000Y-52263000D03*
X141263000Y-52263000D03*
%TD*%
D11*
%TO.C,R3*%
X147194000Y-60579000D03*
X148844000Y-60579000D03*
%TD*%
D12*
%TO.C,PWM2*%
X157491000Y-59979000D03*
%TD*%
%TO.C,PWM3*%
X141743000Y-56962000D03*
%TD*%
D11*
%TO.C,R8*%
X153808600Y-68326000D03*
X155458600Y-68326000D03*
%TD*%
D10*
%TO.C,C4*%
X157816000Y-52263000D03*
X156856000Y-52263000D03*
%TD*%
%TO.C,C2*%
X149843000Y-55946000D03*
X148883000Y-55946000D03*
%TD*%
D11*
%TO.C,R11*%
X147331600Y-68326000D03*
X148981600Y-68326000D03*
%TD*%
D13*
%TO.C,Motor_1*%
X141682000Y-50104000D03*
X141682000Y-50904000D03*
D14*
X140732000Y-49754000D03*
X140732000Y-50254000D03*
X140732000Y-50754000D03*
X140732000Y-51254000D03*
X142632000Y-51254000D03*
X142632000Y-50754000D03*
X142632000Y-50254000D03*
X142632000Y-49754000D03*
%TD*%
D12*
%TO.C,Motor2_B1*%
X135382000Y-73406000D03*
%TD*%
D15*
%TO.C,U1*%
X148347000Y-50104000D03*
X148347000Y-51054000D03*
X148347000Y-52004000D03*
X150622000Y-52004000D03*
X150622000Y-50104000D03*
%TD*%
D16*
%TO.C,R2*%
X148844000Y-58928000D03*
X147194000Y-58928000D03*
%TD*%
D17*
%TO.C,R5*%
X148428000Y-64008000D03*
X147408000Y-64008000D03*
%TD*%
D12*
%TO.C,PWM4*%
X141743000Y-59883000D03*
%TD*%
%TO.C,Motor_2A1*%
X135382000Y-70231000D03*
%TD*%
%TO.C,PWM1*%
X157491000Y-56962000D03*
%TD*%
%TO.C,Motor_1B1*%
X135382000Y-64516000D03*
%TD*%
D17*
%TO.C,R4*%
X148428000Y-62738000D03*
X147408000Y-62738000D03*
%TD*%
D11*
%TO.C,R7*%
X153808600Y-66852800D03*
X155458600Y-66852800D03*
%TD*%
D18*
%TO.C,C1*%
X148883000Y-54803000D03*
X149843000Y-54803000D03*
%TD*%
D12*
%TO.C,GND1*%
X142240000Y-73660000D03*
%TD*%
%TO.C,+5V1*%
X141351000Y-64389000D03*
%TD*%
D11*
%TO.C,R10*%
X147331600Y-66852800D03*
X148981600Y-66852800D03*
%TD*%
D13*
%TO.C,Motor_2*%
X157237000Y-50104000D03*
X157237000Y-50904000D03*
D14*
X156287000Y-49754000D03*
X156287000Y-50254000D03*
X156287000Y-50754000D03*
X156287000Y-51254000D03*
X158187000Y-51254000D03*
X158187000Y-50754000D03*
X158187000Y-50254000D03*
X158187000Y-49754000D03*
%TD*%
D12*
%TO.C,+BATT1*%
X149606000Y-73660000D03*
%TD*%
D19*
%TO.C,D1*%
X146431000Y-49276000D03*
X146431000Y-50851000D03*
%TD*%
D12*
%TO.C,Motor_1A1*%
X135382000Y-61595000D03*
%TD*%
M02*
