%TF.GenerationSoftware,KiCad,Pcbnew,8.0.0*%
%TF.CreationDate,2024-03-24T20:02:06+02:00*%
%TF.ProjectId,Power Subsystem,506f7765-7220-4537-9562-73797374656d,rev?*%
%TF.SameCoordinates,Original*%
%TF.FileFunction,Copper,L1,Top*%
%TF.FilePolarity,Positive*%
%FSLAX46Y46*%
G04 Gerber Fmt 4.6, Leading zero omitted, Abs format (unit mm)*
G04 Created by KiCad (PCBNEW 8.0.0) date 2024-03-24 20:02:06*
%MOMM*%
%LPD*%
G01*
G04 APERTURE LIST*
G04 Aperture macros list*
%AMRoundRect*
0 Rectangle with rounded corners*
0 $1 Rounding radius*
0 $2 $3 $4 $5 $6 $7 $8 $9 X,Y pos of 4 corners*
0 Add a 4 corners polygon primitive as box body*
4,1,4,$2,$3,$4,$5,$6,$7,$8,$9,$2,$3,0*
0 Add four circle primitives for the rounded corners*
1,1,$1+$1,$2,$3*
1,1,$1+$1,$4,$5*
1,1,$1+$1,$6,$7*
1,1,$1+$1,$8,$9*
0 Add four rect primitives between the rounded corners*
20,1,$1+$1,$2,$3,$4,$5,0*
20,1,$1+$1,$4,$5,$6,$7,0*
20,1,$1+$1,$6,$7,$8,$9,0*
20,1,$1+$1,$8,$9,$2,$3,0*%
%AMFreePoly0*
4,1,19,0.500000,-0.750000,0.000000,-0.750000,0.000000,-0.744911,-0.071157,-0.744911,-0.207708,-0.704816,-0.327430,-0.627875,-0.420627,-0.520320,-0.479746,-0.390866,-0.500000,-0.250000,-0.500000,0.250000,-0.479746,0.390866,-0.420627,0.520320,-0.327430,0.627875,-0.207708,0.704816,-0.071157,0.744911,0.000000,0.744911,0.000000,0.750000,0.500000,0.750000,0.500000,-0.750000,0.500000,-0.750000,
$1*%
%AMFreePoly1*
4,1,19,0.000000,0.744911,0.071157,0.744911,0.207708,0.704816,0.327430,0.627875,0.420627,0.520320,0.479746,0.390866,0.500000,0.250000,0.500000,-0.250000,0.479746,-0.390866,0.420627,-0.520320,0.327430,-0.627875,0.207708,-0.704816,0.071157,-0.744911,0.000000,-0.744911,0.000000,-0.750000,-0.500000,-0.750000,-0.500000,0.750000,0.000000,0.750000,0.000000,0.744911,0.000000,0.744911,
$1*%
%AMFreePoly2*
4,1,6,1.000000,0.000000,0.500000,-0.750000,-0.500000,-0.750000,-0.500000,0.750000,0.500000,0.750000,1.000000,0.000000,1.000000,0.000000,$1*%
%AMFreePoly3*
4,1,6,0.500000,-0.750000,-0.650000,-0.750000,-0.150000,0.000000,-0.650000,0.750000,0.500000,0.750000,0.500000,-0.750000,0.500000,-0.750000,$1*%
G04 Aperture macros list end*
%TA.AperFunction,EtchedComponent*%
%ADD10C,0.000000*%
%TD*%
%TA.AperFunction,ComponentPad*%
%ADD11C,2.500000*%
%TD*%
%TA.AperFunction,SMDPad,CuDef*%
%ADD12FreePoly0,0.000000*%
%TD*%
%TA.AperFunction,SMDPad,CuDef*%
%ADD13FreePoly1,0.000000*%
%TD*%
%TA.AperFunction,SMDPad,CuDef*%
%ADD14RoundRect,0.140000X0.140000X0.170000X-0.140000X0.170000X-0.140000X-0.170000X0.140000X-0.170000X0*%
%TD*%
%TA.AperFunction,SMDPad,CuDef*%
%ADD15RoundRect,0.200000X-0.200000X-0.275000X0.200000X-0.275000X0.200000X0.275000X-0.200000X0.275000X0*%
%TD*%
%TA.AperFunction,SMDPad,CuDef*%
%ADD16R,3.800000X2.000000*%
%TD*%
%TA.AperFunction,ComponentPad*%
%ADD17RoundRect,0.250000X0.350000X0.625000X-0.350000X0.625000X-0.350000X-0.625000X0.350000X-0.625000X0*%
%TD*%
%TA.AperFunction,ComponentPad*%
%ADD18O,1.200000X1.750000*%
%TD*%
%TA.AperFunction,SMDPad,CuDef*%
%ADD19FreePoly2,180.000000*%
%TD*%
%TA.AperFunction,SMDPad,CuDef*%
%ADD20FreePoly3,180.000000*%
%TD*%
%TA.AperFunction,SMDPad,CuDef*%
%ADD21FreePoly0,90.000000*%
%TD*%
%TA.AperFunction,SMDPad,CuDef*%
%ADD22FreePoly1,90.000000*%
%TD*%
%TA.AperFunction,SMDPad,CuDef*%
%ADD23FreePoly2,0.000000*%
%TD*%
%TA.AperFunction,SMDPad,CuDef*%
%ADD24FreePoly3,0.000000*%
%TD*%
%TA.AperFunction,SMDPad,CuDef*%
%ADD25RoundRect,0.062500X-0.187500X-0.062500X0.187500X-0.062500X0.187500X0.062500X-0.187500X0.062500X0*%
%TD*%
%TA.AperFunction,SMDPad,CuDef*%
%ADD26R,0.900000X1.600000*%
%TD*%
%TA.AperFunction,SMDPad,CuDef*%
%ADD27RoundRect,0.150000X-0.512500X-0.150000X0.512500X-0.150000X0.512500X0.150000X-0.512500X0.150000X0*%
%TD*%
%TA.AperFunction,SMDPad,CuDef*%
%ADD28RoundRect,0.200000X0.200000X0.275000X-0.200000X0.275000X-0.200000X-0.275000X0.200000X-0.275000X0*%
%TD*%
%TA.AperFunction,SMDPad,CuDef*%
%ADD29RoundRect,0.135000X0.135000X0.185000X-0.135000X0.185000X-0.135000X-0.185000X0.135000X-0.185000X0*%
%TD*%
%TA.AperFunction,SMDPad,CuDef*%
%ADD30RoundRect,0.140000X-0.140000X-0.170000X0.140000X-0.170000X0.140000X0.170000X-0.140000X0.170000X0*%
%TD*%
%TA.AperFunction,SMDPad,CuDef*%
%ADD31RoundRect,0.218750X-0.256250X0.218750X-0.256250X-0.218750X0.256250X-0.218750X0.256250X0.218750X0*%
%TD*%
%TA.AperFunction,ComponentPad*%
%ADD32R,1.700000X1.700000*%
%TD*%
%TA.AperFunction,ComponentPad*%
%ADD33O,1.700000X1.700000*%
%TD*%
%TA.AperFunction,ViaPad*%
%ADD34C,0.800000*%
%TD*%
%TA.AperFunction,Conductor*%
%ADD35C,0.250000*%
%TD*%
%TA.AperFunction,Conductor*%
%ADD36C,0.500000*%
%TD*%
G04 APERTURE END LIST*
D10*
%TA.AperFunction,EtchedComponent*%
%TO.C,JP1*%
G36*
X165985000Y-68634000D02*
G01*
X165485000Y-68634000D01*
X165485000Y-68234000D01*
X165985000Y-68234000D01*
X165985000Y-68634000D01*
G37*
%TD.AperFunction*%
%TA.AperFunction,EtchedComponent*%
G36*
X165985000Y-69434000D02*
G01*
X165485000Y-69434000D01*
X165485000Y-69034000D01*
X165985000Y-69034000D01*
X165985000Y-69434000D01*
G37*
%TD.AperFunction*%
%TA.AperFunction,EtchedComponent*%
%TO.C,JP13*%
G36*
X146739000Y-55510000D02*
G01*
X146339000Y-55510000D01*
X146339000Y-55010000D01*
X146739000Y-55010000D01*
X146739000Y-55510000D01*
G37*
%TD.AperFunction*%
%TA.AperFunction,EtchedComponent*%
G36*
X147539000Y-55510000D02*
G01*
X147139000Y-55510000D01*
X147139000Y-55010000D01*
X147539000Y-55010000D01*
X147539000Y-55510000D01*
G37*
%TD.AperFunction*%
%TD*%
D11*
%TO.P,SW1,1,B*%
%TO.N,Net-(J2-Pin_1)*%
X156337000Y-73914000D03*
%TO.P,SW1,2,C*%
%TO.N,GND*%
X161037000Y-73914000D03*
%TO.P,SW1,3,A*%
%TO.N,+BATT*%
X165737000Y-73914000D03*
%TD*%
D12*
%TO.P,JP1,1,A*%
%TO.N,+BATT*%
X165085000Y-68834000D03*
D13*
%TO.P,JP1,2,B*%
X166385000Y-68834000D03*
%TD*%
D14*
%TO.P,C3,1*%
%TO.N,+BATT*%
X142223000Y-52263000D03*
%TO.P,C3,2*%
%TO.N,GND*%
X141263000Y-52263000D03*
%TD*%
D15*
%TO.P,R3,1*%
%TO.N,GND*%
X147194000Y-60579000D03*
%TO.P,R3,2*%
%TO.N,Net-(U1-PROG)*%
X148844000Y-60579000D03*
%TD*%
D16*
%TO.P,PWM2,1,1*%
%TO.N,PWM2*%
X157491000Y-59979000D03*
%TD*%
%TO.P,PWM3,1,1*%
%TO.N,PWM3*%
X141743000Y-56962000D03*
%TD*%
D15*
%TO.P,R8,1*%
%TO.N,Net-(JP8-B)*%
X153808600Y-68326000D03*
%TO.P,R8,2*%
%TO.N,+BATT*%
X155458600Y-68326000D03*
%TD*%
D17*
%TO.P,J2,1,Pin_1*%
%TO.N,Net-(J2-Pin_1)*%
X165084000Y-65315000D03*
D18*
%TO.P,J2,2,Pin_2*%
%TO.N,GND*%
X163084000Y-65315000D03*
%TD*%
D19*
%TO.P,JP2,1,A*%
%TO.N,GND*%
X152249200Y-59436000D03*
D20*
%TO.P,JP2,2,B*%
%TO.N,Net-(JP2-B)*%
X150799200Y-59436000D03*
%TD*%
D21*
%TO.P,JP13,1,A*%
%TO.N,Net-(JP13-A)*%
X146939000Y-55910000D03*
D22*
%TO.P,JP13,2,B*%
%TO.N,Net-(D1-A)*%
X146939000Y-54610000D03*
%TD*%
D14*
%TO.P,C4,1*%
%TO.N,+BATT*%
X157816000Y-52263000D03*
%TO.P,C4,2*%
%TO.N,GND*%
X156856000Y-52263000D03*
%TD*%
%TO.P,C2,1*%
%TO.N,+5V*%
X149843000Y-55946000D03*
%TO.P,C2,2*%
%TO.N,GND*%
X148883000Y-55946000D03*
%TD*%
D23*
%TO.P,JP5,1,A*%
%TO.N,Net-(JP13-A)*%
X150797600Y-63500000D03*
D24*
%TO.P,JP5,2,B*%
%TO.N,Net-(JP5-B)*%
X152247600Y-63500000D03*
%TD*%
D15*
%TO.P,R11,1*%
%TO.N,Net-(JP11-B)*%
X147331600Y-68326000D03*
%TO.P,R11,2*%
%TO.N,BATT_ADC*%
X148981600Y-68326000D03*
%TD*%
D25*
%TO.P,Motor_1,1,VM*%
%TO.N,+BATT*%
X140732000Y-49754000D03*
%TO.P,Motor_1,2,OUT1*%
%TO.N,Motor1_A*%
X140732000Y-50254000D03*
%TO.P,Motor_1,3,OUT2*%
%TO.N,Motor1_B*%
X140732000Y-50754000D03*
%TO.P,Motor_1,4,GND*%
%TO.N,GND*%
X140732000Y-51254000D03*
%TO.P,Motor_1,5,IN2*%
%TO.N,PWM4*%
X142632000Y-51254000D03*
%TO.P,Motor_1,6,IN1*%
%TO.N,PWM3*%
X142632000Y-50754000D03*
%TO.P,Motor_1,7,~{SLEEP}*%
%TO.N,+BATT*%
X142632000Y-50254000D03*
%TO.P,Motor_1,8,VCC*%
X142632000Y-49754000D03*
D26*
%TO.P,Motor_1,9,GND*%
%TO.N,GND*%
X141682000Y-50504000D03*
%TD*%
D16*
%TO.P,Motor2_B1,1,1*%
%TO.N,Motor2_B*%
X135382000Y-73406000D03*
%TD*%
D23*
%TO.P,JP11,1,A*%
%TO.N,GND*%
X144219000Y-67818000D03*
D24*
%TO.P,JP11,2,B*%
%TO.N,Net-(JP11-B)*%
X145669000Y-67818000D03*
%TD*%
D27*
%TO.P,U1,1,STAT*%
%TO.N,/STAT*%
X148347000Y-50104000D03*
%TO.P,U1,2,V_{SS}*%
%TO.N,GND*%
X148347000Y-51054000D03*
%TO.P,U1,3,V_{BAT}*%
%TO.N,+BATT*%
X148347000Y-52004000D03*
%TO.P,U1,4,V_{DD}*%
%TO.N,+5V*%
X150622000Y-52004000D03*
%TO.P,U1,5,PROG*%
%TO.N,Net-(U1-PROG)*%
X150622000Y-50104000D03*
%TD*%
D28*
%TO.P,R2,1*%
%TO.N,Net-(JP2-B)*%
X148844000Y-58928000D03*
%TO.P,R2,2*%
%TO.N,Net-(U1-PROG)*%
X147194000Y-58928000D03*
%TD*%
D29*
%TO.P,R5,1*%
%TO.N,Net-(JP5-B)*%
X148428000Y-64008000D03*
%TO.P,R5,2*%
%TO.N,+5V*%
X147408000Y-64008000D03*
%TD*%
D16*
%TO.P,PWM4,1,1*%
%TO.N,PWM4*%
X141743000Y-59883000D03*
%TD*%
%TO.P,Motor_2A1,1,1*%
%TO.N,Motor2_A*%
X135382000Y-70231000D03*
%TD*%
%TO.P,PWM1,1,1*%
%TO.N,PWM1*%
X157491000Y-56962000D03*
%TD*%
%TO.P,Motor_1B1,1,1*%
%TO.N,Motor1_B*%
X135382000Y-64516000D03*
%TD*%
D29*
%TO.P,R4,1*%
%TO.N,Net-(JP13-A)*%
X148428000Y-62738000D03*
%TO.P,R4,2*%
%TO.N,+5V*%
X147408000Y-62738000D03*
%TD*%
D15*
%TO.P,R7,1*%
%TO.N,BATT_ADC*%
X153808600Y-66852800D03*
%TO.P,R7,2*%
%TO.N,+BATT*%
X155458600Y-66852800D03*
%TD*%
D30*
%TO.P,C1,1*%
%TO.N,+BATT*%
X148883000Y-54803000D03*
%TO.P,C1,2*%
%TO.N,GND*%
X149843000Y-54803000D03*
%TD*%
D16*
%TO.P,GND1,1,1*%
%TO.N,GND*%
X142240000Y-73660000D03*
%TD*%
D23*
%TO.P,JP8,1,A*%
%TO.N,BATT_ADC*%
X150696000Y-67818000D03*
D24*
%TO.P,JP8,2,B*%
%TO.N,Net-(JP8-B)*%
X152146000Y-67818000D03*
%TD*%
D16*
%TO.P,+5V1,1,1*%
%TO.N,+5V*%
X141351000Y-64389000D03*
%TD*%
D15*
%TO.P,R10,1*%
%TO.N,GND*%
X147331600Y-66852800D03*
%TO.P,R10,2*%
%TO.N,BATT_ADC*%
X148981600Y-66852800D03*
%TD*%
D25*
%TO.P,Motor_2,1,VM*%
%TO.N,+BATT*%
X156287000Y-49754000D03*
%TO.P,Motor_2,2,OUT1*%
%TO.N,Motor2_A*%
X156287000Y-50254000D03*
%TO.P,Motor_2,3,OUT2*%
%TO.N,Motor2_B*%
X156287000Y-50754000D03*
%TO.P,Motor_2,4,GND*%
%TO.N,GND*%
X156287000Y-51254000D03*
%TO.P,Motor_2,5,IN2*%
%TO.N,PWM2*%
X158187000Y-51254000D03*
%TO.P,Motor_2,6,IN1*%
%TO.N,PWM1*%
X158187000Y-50754000D03*
%TO.P,Motor_2,7,~{SLEEP}*%
%TO.N,+BATT*%
X158187000Y-50254000D03*
%TO.P,Motor_2,8,VCC*%
X158187000Y-49754000D03*
D26*
%TO.P,Motor_2,9,GND*%
%TO.N,GND*%
X157237000Y-50504000D03*
%TD*%
D16*
%TO.P,+BATT1,1,1*%
%TO.N,+BATT*%
X149606000Y-73660000D03*
%TD*%
D31*
%TO.P,D1,1,K*%
%TO.N,/STAT*%
X146431000Y-49276000D03*
%TO.P,D1,2,A*%
%TO.N,Net-(D1-A)*%
X146431000Y-50851000D03*
%TD*%
D16*
%TO.P,Motor_1A1,1,1*%
%TO.N,Motor1_A*%
X135382000Y-61595000D03*
%TD*%
D32*
%TO.P,J1,1,Pin_1*%
%TO.N,Motor2_A*%
X158496000Y-45212000D03*
D33*
%TO.P,J1,2,Pin_2*%
%TO.N,PWM1*%
X158496000Y-42672000D03*
%TO.P,J1,3,Pin_3*%
%TO.N,Motor2_B*%
X155956000Y-45212000D03*
%TO.P,J1,4,Pin_4*%
%TO.N,PWM2*%
X155956000Y-42672000D03*
%TO.P,J1,5,Pin_5*%
%TO.N,GND*%
X153416000Y-45212000D03*
%TO.P,J1,6,Pin_6*%
X153416000Y-42672000D03*
%TO.P,J1,7,Pin_7*%
%TO.N,+BATT*%
X150876000Y-45212000D03*
%TO.P,J1,8,Pin_8*%
X150876000Y-42672000D03*
%TO.P,J1,9,Pin_9*%
%TO.N,RESV*%
X148336000Y-45212000D03*
%TO.P,J1,10,Pin_10*%
%TO.N,BATT_ADC*%
X148336000Y-42672000D03*
%TO.P,J1,11,Pin_11*%
%TO.N,+5V*%
X145796000Y-45212000D03*
%TO.P,J1,12,Pin_12*%
X145796000Y-42672000D03*
%TO.P,J1,13,Pin_13*%
%TO.N,Motor1_A*%
X143256000Y-45212000D03*
%TO.P,J1,14,Pin_14*%
%TO.N,PWM3*%
X143256000Y-42672000D03*
%TO.P,J1,15,Pin_15*%
%TO.N,Motor1_B*%
X140716000Y-45212000D03*
%TO.P,J1,16,Pin_16*%
%TO.N,PWM4*%
X140716000Y-42672000D03*
%TD*%
D34*
%TO.N,+5V*%
X144907000Y-61976000D03*
X146304000Y-57785000D03*
%TO.N,Net-(D1-A)*%
X145161000Y-50673000D03*
X146685000Y-53241909D03*
%TO.N,+5V*%
X151003000Y-54991000D03*
X151003000Y-52871000D03*
%TO.N,Motor1_A*%
X138684000Y-61468000D03*
%TO.N,Motor1_B*%
X132715000Y-63881000D03*
%TO.N,Motor2_B*%
X150241000Y-70956000D03*
%TO.N,Motor2_A*%
X151892000Y-70358000D03*
%TO.N,+BATT*%
X157988000Y-54483000D03*
X157988000Y-47244000D03*
%TO.N,PWM1*%
X159004000Y-54483000D03*
X159004000Y-48260000D03*
%TO.N,Motor2_A*%
X154940000Y-50165000D03*
%TO.N,Motor2_B*%
X154432000Y-52070000D03*
%TO.N,BATT_ADC*%
X148981600Y-65542600D03*
%TO.N,Net-(U1-PROG)*%
X149987000Y-57658000D03*
X152400000Y-50673000D03*
%TO.N,PWM3*%
X144272000Y-47879000D03*
X143920550Y-51913450D03*
%TO.N,+BATT*%
X144780000Y-53213000D03*
X141060000Y-53340000D03*
X159639000Y-68834000D03*
X163195000Y-68834000D03*
%TD*%
D35*
%TO.N,PWM4*%
X140970000Y-54864000D02*
X139573000Y-54864000D01*
X142828000Y-51450000D02*
X142828000Y-53006000D01*
X142828000Y-53006000D02*
X140970000Y-54864000D01*
X142632000Y-51254000D02*
X142828000Y-51450000D01*
%TO.N,+BATT*%
X141060000Y-53340000D02*
X141455999Y-53340000D01*
X141455999Y-53340000D02*
X142223000Y-52572999D01*
X142223000Y-52572999D02*
X142223000Y-52263000D01*
%TO.N,Net-(JP8-B)*%
X153300600Y-67818000D02*
X153808600Y-68326000D01*
X152146000Y-67818000D02*
X153300600Y-67818000D01*
D36*
%TO.N,+5V*%
X144907000Y-61976000D02*
X144907000Y-64008000D01*
X144907000Y-64008000D02*
X141732000Y-64008000D01*
X147408000Y-64008000D02*
X144907000Y-64008000D01*
X147066000Y-57023000D02*
X146304000Y-57785000D01*
X149075999Y-57023000D02*
X147066000Y-57023000D01*
X149843000Y-56255999D02*
X149075999Y-57023000D01*
X149843000Y-55946000D02*
X149843000Y-56255999D01*
%TO.N,Net-(D1-A)*%
X146253000Y-50673000D02*
X146431000Y-50851000D01*
X145161000Y-50673000D02*
X146253000Y-50673000D01*
X146939000Y-53495909D02*
X146685000Y-53241909D01*
X146939000Y-54610000D02*
X146939000Y-53495909D01*
%TO.N,+BATT*%
X147125091Y-52391909D02*
X147513000Y-52004000D01*
X147513000Y-52004000D02*
X148347000Y-52004000D01*
X145601091Y-52391909D02*
X147125091Y-52391909D01*
X144974909Y-52391909D02*
X145601091Y-52391909D01*
X144770550Y-52187550D02*
X144974909Y-52391909D01*
X144770550Y-51552550D02*
X144770550Y-52187550D01*
X143510000Y-50292000D02*
X144770550Y-51552550D01*
%TO.N,/STAT*%
X147519000Y-49276000D02*
X148347000Y-50104000D01*
X146431000Y-49276000D02*
X147519000Y-49276000D01*
%TO.N,+5V*%
X151003000Y-52385000D02*
X150622000Y-52004000D01*
X151003000Y-52871000D02*
X151003000Y-52385000D01*
X150048000Y-55946000D02*
X151003000Y-54991000D01*
X149843000Y-55946000D02*
X150048000Y-55946000D01*
X147408000Y-62738000D02*
X147408000Y-64008000D01*
D35*
%TO.N,Motor1_A*%
X138557000Y-61595000D02*
X135382000Y-61595000D01*
X138684000Y-61468000D02*
X138557000Y-61595000D01*
%TO.N,Motor1_B*%
X133350000Y-64516000D02*
X135382000Y-64516000D01*
X132715000Y-63881000D02*
X133350000Y-64516000D01*
%TO.N,PWM4*%
X139257000Y-54548000D02*
X139573000Y-54864000D01*
X139257000Y-44131000D02*
X139257000Y-54548000D01*
X140716000Y-42672000D02*
X139257000Y-44131000D01*
%TO.N,Motor2_B*%
X138732000Y-70956000D02*
X150241000Y-70956000D01*
X136282000Y-73406000D02*
X138732000Y-70956000D01*
X135382000Y-73406000D02*
X136282000Y-73406000D01*
%TO.N,Motor2_A*%
X151765000Y-70231000D02*
X151892000Y-70358000D01*
X135382000Y-70231000D02*
X151765000Y-70231000D01*
D36*
%TO.N,+BATT*%
X157988000Y-54483000D02*
X157988000Y-53594000D01*
X157405759Y-53011759D02*
X157816000Y-52601518D01*
X157988000Y-53594000D02*
X157405759Y-53011759D01*
X157099000Y-48133000D02*
X157988000Y-47244000D01*
X157099000Y-49254000D02*
X157099000Y-48133000D01*
X157099000Y-49254000D02*
X156587000Y-49254000D01*
X156315518Y-54102000D02*
X157405759Y-53011759D01*
X157887000Y-49254000D02*
X157099000Y-49254000D01*
D35*
%TO.N,PWM1*%
X159004000Y-55449000D02*
X157491000Y-56962000D01*
X159004000Y-54483000D02*
X159004000Y-55449000D01*
X159385000Y-48260000D02*
X159004000Y-48260000D01*
X159671000Y-48260000D02*
X159671000Y-49569740D01*
X159671000Y-48260000D02*
X159385000Y-48260000D01*
X159671000Y-43847000D02*
X159671000Y-48260000D01*
%TO.N,PWM2*%
X158391000Y-59979000D02*
X157491000Y-59979000D01*
X160121000Y-58249000D02*
X158391000Y-59979000D01*
X160121000Y-49810000D02*
X160121000Y-58249000D01*
X160121000Y-49810000D02*
X158677000Y-51254000D01*
X160121000Y-42519000D02*
X160121000Y-49810000D01*
X159099000Y-41497000D02*
X160121000Y-42519000D01*
X158677000Y-51254000D02*
X158187000Y-51254000D01*
X157131000Y-41497000D02*
X159099000Y-41497000D01*
X155956000Y-42672000D02*
X157131000Y-41497000D01*
%TO.N,PWM1*%
X158486740Y-50754000D02*
X158187000Y-50754000D01*
X159671000Y-49569740D02*
X158486740Y-50754000D01*
X158496000Y-42672000D02*
X159671000Y-43847000D01*
%TO.N,Motor2_A*%
X155029000Y-50254000D02*
X156287000Y-50254000D01*
X154940000Y-50165000D02*
X155029000Y-50254000D01*
%TO.N,Motor2_B*%
X154432000Y-52070000D02*
X154671260Y-52070000D01*
X154671260Y-52070000D02*
X155987260Y-50754000D01*
X155987260Y-50754000D02*
X156287000Y-50754000D01*
%TO.N,BATT_ADC*%
X148971000Y-65532000D02*
X148981600Y-65542600D01*
X148981600Y-66852800D02*
X148981600Y-65542600D01*
X153693800Y-66738000D02*
X153808600Y-66852800D01*
X151021000Y-66738000D02*
X153693800Y-66738000D01*
X150696000Y-67063000D02*
X151021000Y-66738000D01*
X150696000Y-67818000D02*
X150696000Y-67063000D01*
X148981600Y-68326000D02*
X148981600Y-66852800D01*
X148981600Y-68326000D02*
X150188000Y-68326000D01*
X150188000Y-68326000D02*
X150696000Y-67818000D01*
%TO.N,Net-(JP11-B)*%
X147077600Y-68580000D02*
X147331600Y-68326000D01*
X146431000Y-68580000D02*
X147077600Y-68580000D01*
X145669000Y-67818000D02*
X146431000Y-68580000D01*
D36*
%TO.N,+5V*%
X141732000Y-64008000D02*
X141351000Y-64389000D01*
D35*
%TO.N,Net-(JP5-B)*%
X152247600Y-64287400D02*
X152247600Y-63500000D01*
X149000000Y-64580000D02*
X151955000Y-64580000D01*
X151955000Y-64580000D02*
X152247600Y-64287400D01*
X148428000Y-64008000D02*
X149000000Y-64580000D01*
%TO.N,Net-(JP13-A)*%
X145512000Y-55910000D02*
X146939000Y-55910000D01*
X145288000Y-60960000D02*
X145288000Y-56134000D01*
X146431000Y-62103000D02*
X145288000Y-60960000D01*
X146441000Y-62093000D02*
X146431000Y-62103000D01*
X147783000Y-62093000D02*
X146441000Y-62093000D01*
X145288000Y-56134000D02*
X145512000Y-55910000D01*
X148428000Y-62738000D02*
X147783000Y-62093000D01*
X150035600Y-62738000D02*
X148428000Y-62738000D01*
X150797600Y-63500000D02*
X150035600Y-62738000D01*
%TO.N,Net-(JP2-B)*%
X149352000Y-59436000D02*
X148844000Y-58928000D01*
X150799200Y-59436000D02*
X149352000Y-59436000D01*
%TO.N,Net-(U1-PROG)*%
X148844000Y-60579000D02*
X148844000Y-60578000D01*
X148844000Y-60578000D02*
X147194000Y-58928000D01*
X148464000Y-57658000D02*
X147194000Y-58928000D01*
X149987000Y-57658000D02*
X148464000Y-57658000D01*
X150622000Y-50104000D02*
X151831000Y-50104000D01*
X151831000Y-50104000D02*
X152400000Y-50673000D01*
D36*
%TO.N,+5V*%
X153543000Y-49276000D02*
X152146000Y-47879000D01*
X148463000Y-47879000D02*
X145796000Y-45212000D01*
X152593000Y-52004000D02*
X153543000Y-51054000D01*
X153543000Y-51054000D02*
X153543000Y-49276000D01*
X152146000Y-47879000D02*
X148463000Y-47879000D01*
X150622000Y-52004000D02*
X152593000Y-52004000D01*
D35*
%TO.N,PWM3*%
X144621000Y-44037000D02*
X143256000Y-42672000D01*
X144621000Y-47530000D02*
X144621000Y-44037000D01*
X144272000Y-47879000D02*
X144621000Y-47530000D01*
X143823100Y-51816000D02*
X143920550Y-51913450D01*
X143637000Y-51816000D02*
X143823100Y-51816000D01*
X143637000Y-51459260D02*
X143637000Y-51816000D01*
X143637000Y-51816000D02*
X143637000Y-55068000D01*
%TO.N,+BATT*%
X144780000Y-53213000D02*
X145601091Y-52391909D01*
%TO.N,PWM3*%
X142931740Y-50754000D02*
X143637000Y-51459260D01*
X142632000Y-50754000D02*
X142931740Y-50754000D01*
X143637000Y-55068000D02*
X141743000Y-56962000D01*
%TO.N,PWM4*%
X139446000Y-58486000D02*
X140843000Y-59883000D01*
X139573000Y-54864000D02*
X139446000Y-54991000D01*
X139446000Y-54991000D02*
X139446000Y-58486000D01*
X140843000Y-59883000D02*
X141743000Y-59883000D01*
%TO.N,+BATT*%
X143472000Y-50254000D02*
X143510000Y-50292000D01*
X142632000Y-50254000D02*
X143472000Y-50254000D01*
X142632000Y-49754000D02*
X142632000Y-50254000D01*
X142632000Y-49644000D02*
X142632000Y-49754000D01*
X142367000Y-49379000D02*
X142632000Y-49644000D01*
X140907000Y-49379000D02*
X142367000Y-49379000D01*
X140732000Y-49554000D02*
X140907000Y-49379000D01*
X140732000Y-49754000D02*
X140732000Y-49554000D01*
%TO.N,Motor1_B*%
X140033604Y-50754000D02*
X140732000Y-50754000D01*
X139707000Y-50427396D02*
X140033604Y-50754000D01*
X139707000Y-46221000D02*
X139707000Y-50427396D01*
X140716000Y-45212000D02*
X139707000Y-46221000D01*
%TO.N,Motor1_A*%
X140170000Y-50254000D02*
X140732000Y-50254000D01*
X140157000Y-50241000D02*
X140170000Y-50254000D01*
X140157000Y-48311000D02*
X140157000Y-50241000D01*
X143256000Y-45212000D02*
X140157000Y-48311000D01*
D36*
%TO.N,+BATT*%
X154918000Y-49254000D02*
X150876000Y-45212000D01*
X156587000Y-49254000D02*
X154918000Y-49254000D01*
X156287000Y-49554000D02*
X156287000Y-49679000D01*
X156587000Y-49254000D02*
X156287000Y-49554000D01*
X158187000Y-49554000D02*
X157887000Y-49254000D01*
X158187000Y-49754000D02*
X158187000Y-49554000D01*
X158187000Y-49754000D02*
X158187000Y-50179000D01*
X149655001Y-53312001D02*
X148347000Y-52004000D01*
X149655001Y-53721000D02*
X149655001Y-53312001D01*
X149655001Y-53721000D02*
X148883000Y-54493001D01*
X152781000Y-54991000D02*
X151511000Y-53721000D01*
X154051000Y-54991000D02*
X152781000Y-54991000D01*
X148883000Y-54493001D02*
X148883000Y-54803000D01*
X154305000Y-55245000D02*
X154051000Y-54991000D01*
X151511000Y-53721000D02*
X149655001Y-53721000D01*
X154178000Y-55372000D02*
X154305000Y-55245000D01*
X154305000Y-55245000D02*
X155448000Y-54102000D01*
X155448000Y-54102000D02*
X156315518Y-54102000D01*
X155458600Y-63510600D02*
X154178000Y-62230000D01*
X154178000Y-62230000D02*
X154178000Y-55372000D01*
X157816000Y-52601518D02*
X157816000Y-52263000D01*
X155458600Y-66852800D02*
X155458600Y-63510600D01*
X150124600Y-73660000D02*
X149606000Y-73660000D01*
X155458600Y-68326000D02*
X150124600Y-73660000D01*
X155458600Y-68326000D02*
X155458600Y-66852800D01*
X155966600Y-68834000D02*
X155458600Y-68326000D01*
X159639000Y-68834000D02*
X155966600Y-68834000D01*
X165085000Y-68834000D02*
X163195000Y-68834000D01*
X166435000Y-73216000D02*
X166435000Y-68847604D01*
X165737000Y-73914000D02*
X166435000Y-73216000D01*
%TO.N,Net-(J2-Pin_1)*%
X156485000Y-73914000D02*
X156337000Y-73914000D01*
X165084000Y-65315000D02*
X156485000Y-73914000D01*
%TO.N,+BATT*%
X165085000Y-73262000D02*
X165737000Y-73914000D01*
X166385000Y-68834000D02*
X165085000Y-68834000D01*
%TO.N,+5V*%
X145796000Y-42672000D02*
X145796000Y-45212000D01*
X145796000Y-42672000D02*
X145542000Y-42926000D01*
%TO.N,+BATT*%
X150876000Y-42672000D02*
X150876000Y-45212000D01*
%TD*%
%TA.AperFunction,Conductor*%
%TO.N,GND*%
G36*
X145782510Y-53500034D02*
G01*
X145833988Y-53547276D01*
X145845734Y-53572994D01*
X145857819Y-53610189D01*
X145857821Y-53610193D01*
X145952464Y-53774121D01*
X145954038Y-53776287D01*
X145954560Y-53777751D01*
X145955716Y-53779753D01*
X145955350Y-53779964D01*
X145977518Y-53842093D01*
X145961693Y-53910147D01*
X145947435Y-53930374D01*
X145881982Y-54005912D01*
X145881981Y-54005915D01*
X145804255Y-54126857D01*
X145804252Y-54126863D01*
X145744483Y-54257741D01*
X145703977Y-54395691D01*
X145703974Y-54395703D01*
X145683500Y-54538110D01*
X145683500Y-55110002D01*
X145686479Y-55151654D01*
X145671627Y-55219927D01*
X145622222Y-55269332D01*
X145562795Y-55284500D01*
X145450393Y-55284500D01*
X145436386Y-55287286D01*
X145436385Y-55287285D01*
X145329554Y-55308535D01*
X145329541Y-55308539D01*
X145302228Y-55319853D01*
X145282397Y-55328067D01*
X145215720Y-55355685D01*
X145215716Y-55355687D01*
X145215715Y-55355688D01*
X145202840Y-55364291D01*
X145196258Y-55368689D01*
X145196257Y-55368688D01*
X145113268Y-55424140D01*
X145079131Y-55458278D01*
X145026142Y-55511267D01*
X145026139Y-55511270D01*
X144889270Y-55648139D01*
X144889267Y-55648142D01*
X144862402Y-55675007D01*
X144802142Y-55735266D01*
X144773867Y-55777583D01*
X144773866Y-55777582D01*
X144733692Y-55837707D01*
X144733689Y-55837711D01*
X144733688Y-55837714D01*
X144711410Y-55891500D01*
X144686538Y-55951545D01*
X144686535Y-55951555D01*
X144662500Y-56072389D01*
X144662500Y-61018611D01*
X144642815Y-61085650D01*
X144590011Y-61131405D01*
X144588937Y-61131890D01*
X144454267Y-61191850D01*
X144454265Y-61191851D01*
X144301129Y-61303111D01*
X144174466Y-61443785D01*
X144079821Y-61607715D01*
X144079818Y-61607722D01*
X144021327Y-61787740D01*
X144021326Y-61787744D01*
X144001540Y-61976000D01*
X144021326Y-62164256D01*
X144021327Y-62164259D01*
X144079818Y-62344277D01*
X144079821Y-62344284D01*
X144122940Y-62418969D01*
X144139887Y-62448321D01*
X144156500Y-62510321D01*
X144156500Y-63133500D01*
X144136815Y-63200539D01*
X144084011Y-63246294D01*
X144032500Y-63257500D01*
X143822229Y-63257500D01*
X143755190Y-63237815D01*
X143709435Y-63185011D01*
X143706047Y-63176833D01*
X143694797Y-63146671D01*
X143694793Y-63146664D01*
X143608547Y-63031455D01*
X143608544Y-63031452D01*
X143493335Y-62945206D01*
X143493328Y-62945202D01*
X143358482Y-62894908D01*
X143358483Y-62894908D01*
X143298883Y-62888501D01*
X143298881Y-62888500D01*
X143298873Y-62888500D01*
X143298864Y-62888500D01*
X139403129Y-62888500D01*
X139403123Y-62888501D01*
X139343516Y-62894908D01*
X139208671Y-62945202D01*
X139208664Y-62945206D01*
X139093455Y-63031452D01*
X139093452Y-63031455D01*
X139007206Y-63146664D01*
X139007202Y-63146671D01*
X138956908Y-63281517D01*
X138950501Y-63341116D01*
X138950500Y-63341135D01*
X138950500Y-65436870D01*
X138950501Y-65436876D01*
X138956908Y-65496483D01*
X139007202Y-65631328D01*
X139007206Y-65631335D01*
X139093452Y-65746544D01*
X139093455Y-65746547D01*
X139208664Y-65832793D01*
X139208671Y-65832797D01*
X139343517Y-65883091D01*
X139343516Y-65883091D01*
X139350444Y-65883835D01*
X139403127Y-65889500D01*
X143298872Y-65889499D01*
X143358483Y-65883091D01*
X143493331Y-65832796D01*
X143608546Y-65746546D01*
X143694796Y-65631331D01*
X143745091Y-65496483D01*
X143751500Y-65436873D01*
X143751500Y-64882500D01*
X143771185Y-64815461D01*
X143823989Y-64769706D01*
X143875500Y-64758500D01*
X144833082Y-64758500D01*
X146946861Y-64758500D01*
X147009981Y-64775767D01*
X147018607Y-64780869D01*
X147056297Y-64791819D01*
X147172791Y-64825664D01*
X147172794Y-64825664D01*
X147172796Y-64825665D01*
X147208819Y-64828500D01*
X147607180Y-64828499D01*
X147643204Y-64825665D01*
X147797393Y-64780869D01*
X147854882Y-64746869D01*
X147922602Y-64729688D01*
X147981117Y-64746869D01*
X148038607Y-64780869D01*
X148180647Y-64822135D01*
X148239531Y-64859741D01*
X148268738Y-64923213D01*
X148258992Y-64992400D01*
X148251933Y-65004535D01*
X148252316Y-65004756D01*
X148154421Y-65174315D01*
X148154418Y-65174322D01*
X148098026Y-65347881D01*
X148095926Y-65354344D01*
X148076140Y-65542600D01*
X148095926Y-65730856D01*
X148095927Y-65730859D01*
X148142675Y-65874736D01*
X148144670Y-65944577D01*
X148108589Y-66004410D01*
X148045888Y-66035238D01*
X147976474Y-66027273D01*
X147960594Y-66019171D01*
X147820995Y-65934780D01*
X147820996Y-65934780D01*
X147658705Y-65884209D01*
X147658706Y-65884209D01*
X147588172Y-65877800D01*
X147581600Y-65877800D01*
X147581600Y-66978800D01*
X147561915Y-67045839D01*
X147509111Y-67091594D01*
X147457600Y-67102800D01*
X147205600Y-67102800D01*
X147138561Y-67083115D01*
X147092806Y-67030311D01*
X147081600Y-66978800D01*
X147081600Y-65877800D01*
X147081599Y-65877799D01*
X147075036Y-65877800D01*
X147075017Y-65877801D01*
X147004497Y-65884208D01*
X147004492Y-65884209D01*
X146842203Y-65934781D01*
X146696722Y-66022727D01*
X146576527Y-66142922D01*
X146488580Y-66288404D01*
X146438009Y-66450693D01*
X146436334Y-66469128D01*
X146410662Y-66534111D01*
X146353934Y-66574899D01*
X146295197Y-66580643D01*
X146169001Y-66562500D01*
X146169000Y-66562500D01*
X145019000Y-66562500D01*
X145018978Y-66562500D01*
X144938669Y-66568923D01*
X144938656Y-66568926D01*
X144801310Y-66611773D01*
X144801308Y-66611775D01*
X144681595Y-66691584D01*
X144589211Y-66801894D01*
X144531651Y-66933754D01*
X144513570Y-67076490D01*
X144536438Y-67218545D01*
X144536439Y-67218548D01*
X144598399Y-67348401D01*
X144865609Y-67749216D01*
X144886417Y-67815915D01*
X144867862Y-67883276D01*
X144865609Y-67886782D01*
X144598399Y-68287598D01*
X144559182Y-68358005D01*
X144559179Y-68358012D01*
X144518645Y-68496058D01*
X144518645Y-68496060D01*
X144518645Y-68639940D01*
X144545236Y-68730501D01*
X144559182Y-68777994D01*
X144636967Y-68899030D01*
X144636971Y-68899034D01*
X144740417Y-68988671D01*
X144745706Y-68993254D01*
X144786174Y-69011735D01*
X144876580Y-69053023D01*
X144876583Y-69053023D01*
X144876584Y-69053024D01*
X145019000Y-69073500D01*
X146006089Y-69073500D01*
X146073128Y-69093185D01*
X146074980Y-69094398D01*
X146082767Y-69099601D01*
X146134715Y-69134312D01*
X146186933Y-69155941D01*
X146248548Y-69181463D01*
X146353226Y-69202284D01*
X146369389Y-69205499D01*
X146369393Y-69205500D01*
X146369394Y-69205500D01*
X146492607Y-69205500D01*
X146742949Y-69205500D01*
X146807098Y-69223382D01*
X146841994Y-69244478D01*
X147004404Y-69295086D01*
X147074984Y-69301500D01*
X147074987Y-69301500D01*
X147588213Y-69301500D01*
X147588216Y-69301500D01*
X147658796Y-69295086D01*
X147821206Y-69244478D01*
X147966785Y-69156472D01*
X148003799Y-69119458D01*
X148068919Y-69054339D01*
X148130242Y-69020854D01*
X148199934Y-69025838D01*
X148244281Y-69054339D01*
X148346411Y-69156469D01*
X148346413Y-69156470D01*
X148346415Y-69156472D01*
X148491994Y-69244478D01*
X148654404Y-69295086D01*
X148724984Y-69301500D01*
X148724987Y-69301500D01*
X149238213Y-69301500D01*
X149238216Y-69301500D01*
X149308796Y-69295086D01*
X149471206Y-69244478D01*
X149616785Y-69156472D01*
X149737072Y-69036185D01*
X149741795Y-69028372D01*
X149793319Y-68981185D01*
X149862177Y-68969343D01*
X149913539Y-68991113D01*
X149915246Y-68988459D01*
X149922700Y-68993249D01*
X149922706Y-68993254D01*
X149963174Y-69011735D01*
X150053580Y-69053023D01*
X150053583Y-69053023D01*
X150053584Y-69053024D01*
X150196000Y-69073500D01*
X150196003Y-69073500D01*
X151195984Y-69073500D01*
X151196000Y-69073500D01*
X151259522Y-69069493D01*
X151259526Y-69069492D01*
X151259527Y-69069492D01*
X151279755Y-69063919D01*
X151306104Y-69056660D01*
X151356680Y-69053469D01*
X151496000Y-69073500D01*
X151496003Y-69073500D01*
X152646000Y-69073500D01*
X152717940Y-69068355D01*
X152855992Y-69027819D01*
X152887747Y-69007410D01*
X152954786Y-68987726D01*
X153021826Y-69007410D01*
X153047715Y-69030990D01*
X153047824Y-69030882D01*
X153050137Y-69033195D01*
X153052401Y-69035257D01*
X153053131Y-69036189D01*
X153173411Y-69156469D01*
X153173413Y-69156470D01*
X153173415Y-69156472D01*
X153283117Y-69222789D01*
X153330302Y-69274315D01*
X153342141Y-69343174D01*
X153314872Y-69407503D01*
X153306646Y-69416585D01*
X152838695Y-69884536D01*
X152777372Y-69918021D01*
X152707680Y-69913037D01*
X152651747Y-69871165D01*
X152643627Y-69858855D01*
X152634895Y-69843733D01*
X152624533Y-69825784D01*
X152497871Y-69685112D01*
X152473757Y-69667592D01*
X152344734Y-69573851D01*
X152344729Y-69573848D01*
X152171807Y-69496857D01*
X152171802Y-69496855D01*
X152022919Y-69465210D01*
X151986646Y-69457500D01*
X151797354Y-69457500D01*
X151764897Y-69464398D01*
X151612197Y-69496855D01*
X151612192Y-69496857D01*
X151439270Y-69573848D01*
X151428302Y-69581818D01*
X151362496Y-69605298D01*
X151355416Y-69605500D01*
X137906499Y-69605500D01*
X137839460Y-69585815D01*
X137793705Y-69533011D01*
X137782499Y-69481500D01*
X137782499Y-69183129D01*
X137782498Y-69183123D01*
X137782497Y-69183116D01*
X137776091Y-69123517D01*
X137765230Y-69094398D01*
X137725797Y-68988671D01*
X137725793Y-68988664D01*
X137639547Y-68873455D01*
X137639544Y-68873452D01*
X137524335Y-68787206D01*
X137524328Y-68787202D01*
X137389482Y-68736908D01*
X137389483Y-68736908D01*
X137329883Y-68730501D01*
X137329881Y-68730500D01*
X137329873Y-68730500D01*
X137329864Y-68730500D01*
X133434129Y-68730500D01*
X133434123Y-68730501D01*
X133374516Y-68736908D01*
X133239671Y-68787202D01*
X133239664Y-68787206D01*
X133124455Y-68873452D01*
X133124452Y-68873455D01*
X133038206Y-68988664D01*
X133038202Y-68988671D01*
X132987908Y-69123517D01*
X132981679Y-69181461D01*
X132981501Y-69183123D01*
X132981500Y-69183135D01*
X132981500Y-71278870D01*
X132981501Y-71278876D01*
X132987908Y-71338483D01*
X133038202Y-71473328D01*
X133038206Y-71473335D01*
X133124452Y-71588544D01*
X133124455Y-71588547D01*
X133239664Y-71674793D01*
X133239671Y-71674797D01*
X133313458Y-71702318D01*
X133369392Y-71744189D01*
X133393809Y-71809653D01*
X133378957Y-71877926D01*
X133329552Y-71927332D01*
X133313458Y-71934682D01*
X133239671Y-71962202D01*
X133239664Y-71962206D01*
X133124455Y-72048452D01*
X133124452Y-72048455D01*
X133038206Y-72163664D01*
X133038202Y-72163671D01*
X132987908Y-72298517D01*
X132981501Y-72358116D01*
X132981500Y-72358135D01*
X132981500Y-74453870D01*
X132981501Y-74453876D01*
X132987908Y-74513483D01*
X133038202Y-74648328D01*
X133038206Y-74648335D01*
X133124452Y-74763544D01*
X133124455Y-74763547D01*
X133239664Y-74849793D01*
X133239671Y-74849797D01*
X133374517Y-74900091D01*
X133374516Y-74900091D01*
X133381444Y-74900835D01*
X133434127Y-74906500D01*
X137329872Y-74906499D01*
X137389483Y-74900091D01*
X137524331Y-74849796D01*
X137639546Y-74763546D01*
X137725796Y-74648331D01*
X137776091Y-74513483D01*
X137782500Y-74453873D01*
X137782499Y-73910000D01*
X139840000Y-73910000D01*
X139840000Y-74707844D01*
X139846401Y-74767372D01*
X139846403Y-74767379D01*
X139896645Y-74902086D01*
X139896649Y-74902093D01*
X139982809Y-75017187D01*
X139982812Y-75017190D01*
X140097906Y-75103350D01*
X140097913Y-75103354D01*
X140232620Y-75153596D01*
X140232627Y-75153598D01*
X140292155Y-75159999D01*
X140292172Y-75160000D01*
X141990000Y-75160000D01*
X141990000Y-73910000D01*
X142490000Y-73910000D01*
X142490000Y-75160000D01*
X144187828Y-75160000D01*
X144187844Y-75159999D01*
X144247372Y-75153598D01*
X144247379Y-75153596D01*
X144382086Y-75103354D01*
X144382093Y-75103350D01*
X144497187Y-75017190D01*
X144497190Y-75017187D01*
X144583350Y-74902093D01*
X144583354Y-74902086D01*
X144633596Y-74767379D01*
X144633598Y-74767372D01*
X144639999Y-74707844D01*
X144640000Y-74707827D01*
X144640000Y-73910000D01*
X142490000Y-73910000D01*
X141990000Y-73910000D01*
X139840000Y-73910000D01*
X137782499Y-73910000D01*
X137782499Y-73410000D01*
X139840000Y-73410000D01*
X141990000Y-73410000D01*
X141990000Y-72160000D01*
X142490000Y-72160000D01*
X142490000Y-73410000D01*
X144640000Y-73410000D01*
X144640000Y-72612172D01*
X144639999Y-72612155D01*
X144633598Y-72552627D01*
X144633596Y-72552620D01*
X144583354Y-72417913D01*
X144583350Y-72417906D01*
X144497190Y-72302812D01*
X144497187Y-72302809D01*
X144382093Y-72216649D01*
X144382086Y-72216645D01*
X144247379Y-72166403D01*
X144247372Y-72166401D01*
X144187844Y-72160000D01*
X142490000Y-72160000D01*
X141990000Y-72160000D01*
X140292155Y-72160000D01*
X140232627Y-72166401D01*
X140232620Y-72166403D01*
X140097913Y-72216645D01*
X140097906Y-72216649D01*
X139982812Y-72302809D01*
X139982809Y-72302812D01*
X139896649Y-72417906D01*
X139896645Y-72417913D01*
X139846403Y-72552620D01*
X139846401Y-72552627D01*
X139840000Y-72612155D01*
X139840000Y-73410000D01*
X137782499Y-73410000D01*
X137782499Y-72841450D01*
X137802184Y-72774412D01*
X137818813Y-72753775D01*
X138954771Y-71617819D01*
X139016094Y-71584334D01*
X139042452Y-71581500D01*
X149537252Y-71581500D01*
X149604291Y-71601185D01*
X149629400Y-71622526D01*
X149635126Y-71628885D01*
X149635130Y-71628889D01*
X149788265Y-71740148D01*
X149788270Y-71740151D01*
X149961192Y-71817142D01*
X149961197Y-71817144D01*
X150146354Y-71856500D01*
X150146355Y-71856500D01*
X150335644Y-71856500D01*
X150335646Y-71856500D01*
X150520803Y-71817144D01*
X150604094Y-71780059D01*
X150673342Y-71770774D01*
X150736619Y-71800402D01*
X150773833Y-71859537D01*
X150773169Y-71929403D01*
X150742210Y-71981020D01*
X150600049Y-72123181D01*
X150538726Y-72156666D01*
X150512368Y-72159500D01*
X147658129Y-72159500D01*
X147658123Y-72159501D01*
X147598516Y-72165908D01*
X147463671Y-72216202D01*
X147463664Y-72216206D01*
X147348455Y-72302452D01*
X147348452Y-72302455D01*
X147262206Y-72417664D01*
X147262202Y-72417671D01*
X147211908Y-72552517D01*
X147205501Y-72612116D01*
X147205500Y-72612135D01*
X147205500Y-74707870D01*
X147205501Y-74707876D01*
X147211908Y-74767483D01*
X147262202Y-74902328D01*
X147262206Y-74902335D01*
X147348452Y-75017544D01*
X147348455Y-75017547D01*
X147463664Y-75103793D01*
X147463671Y-75103797D01*
X147598517Y-75154091D01*
X147598516Y-75154091D01*
X147605444Y-75154835D01*
X147658127Y-75160500D01*
X151553872Y-75160499D01*
X151613483Y-75154091D01*
X151748331Y-75103796D01*
X151863546Y-75017546D01*
X151949796Y-74902331D01*
X152000091Y-74767483D01*
X152006500Y-74707873D01*
X152006499Y-72890828D01*
X152026184Y-72823790D01*
X152042813Y-72803153D01*
X155380758Y-69465208D01*
X155442079Y-69431725D01*
X155511771Y-69436709D01*
X155537327Y-69449788D01*
X155611100Y-69499081D01*
X155611111Y-69499087D01*
X155693012Y-69533011D01*
X155747687Y-69555658D01*
X155747691Y-69555658D01*
X155747692Y-69555659D01*
X155892679Y-69584500D01*
X155892682Y-69584500D01*
X159099663Y-69584500D01*
X159166702Y-69604185D01*
X159172548Y-69608182D01*
X159186265Y-69618148D01*
X159186270Y-69618151D01*
X159359192Y-69695142D01*
X159359193Y-69695142D01*
X159359197Y-69695144D01*
X159369438Y-69697320D01*
X159430920Y-69730512D01*
X159464697Y-69791675D01*
X159460045Y-69861390D01*
X159431339Y-69906292D01*
X157091815Y-72245815D01*
X157030492Y-72279300D01*
X156967586Y-72276625D01*
X156839518Y-72237121D01*
X156727623Y-72202606D01*
X156727619Y-72202605D01*
X156727615Y-72202604D01*
X156590349Y-72181914D01*
X156468187Y-72163500D01*
X156468182Y-72163500D01*
X156205818Y-72163500D01*
X156205812Y-72163500D01*
X156044247Y-72187853D01*
X155946385Y-72202604D01*
X155946382Y-72202605D01*
X155946376Y-72202606D01*
X155695673Y-72279938D01*
X155459303Y-72393767D01*
X155459302Y-72393768D01*
X155459296Y-72393771D01*
X155459296Y-72393772D01*
X155433839Y-72411128D01*
X155242520Y-72541567D01*
X155050198Y-72720014D01*
X154886614Y-72925143D01*
X154755432Y-73152356D01*
X154659582Y-73396578D01*
X154659576Y-73396597D01*
X154601197Y-73652374D01*
X154601196Y-73652379D01*
X154581592Y-73913995D01*
X154581592Y-73914004D01*
X154601196Y-74175620D01*
X154601197Y-74175625D01*
X154659576Y-74431402D01*
X154659578Y-74431411D01*
X154659580Y-74431416D01*
X154755432Y-74675643D01*
X154886614Y-74902857D01*
X155018736Y-75068533D01*
X155050198Y-75107985D01*
X155231753Y-75276441D01*
X155242521Y-75286433D01*
X155459296Y-75434228D01*
X155459301Y-75434230D01*
X155459302Y-75434231D01*
X155459303Y-75434232D01*
X155584843Y-75494688D01*
X155695673Y-75548061D01*
X155695674Y-75548061D01*
X155695677Y-75548063D01*
X155946385Y-75625396D01*
X156205818Y-75664500D01*
X156468182Y-75664500D01*
X156727615Y-75625396D01*
X156978323Y-75548063D01*
X157214704Y-75434228D01*
X157431479Y-75286433D01*
X157623805Y-75107981D01*
X157787386Y-74902857D01*
X157918568Y-74675643D01*
X158014420Y-74431416D01*
X158072802Y-74175630D01*
X158072803Y-74175620D01*
X158073674Y-74164000D01*
X159300828Y-74164000D01*
X159301694Y-74175551D01*
X159301695Y-74175558D01*
X159360058Y-74431270D01*
X159455883Y-74675426D01*
X159455882Y-74675426D01*
X159587028Y-74902573D01*
X159750562Y-75107639D01*
X159750570Y-75107648D01*
X159942830Y-75286040D01*
X159942832Y-75286041D01*
X160159546Y-75433793D01*
X160159550Y-75433795D01*
X160395854Y-75547594D01*
X160395858Y-75547595D01*
X160646494Y-75624907D01*
X160646502Y-75624909D01*
X160787000Y-75646085D01*
X160787000Y-74781904D01*
X160948358Y-74814000D01*
X161125642Y-74814000D01*
X161287000Y-74781904D01*
X161287000Y-75646084D01*
X161427497Y-75624909D01*
X161427505Y-75624907D01*
X161678143Y-75547595D01*
X161914445Y-75433798D01*
X161914454Y-75433793D01*
X162131167Y-75286041D01*
X162131169Y-75286040D01*
X162323429Y-75107648D01*
X162323437Y-75107639D01*
X162486971Y-74902573D01*
X162618116Y-74675426D01*
X162713941Y-74431270D01*
X162772304Y-74175558D01*
X162772305Y-74175551D01*
X162773172Y-74164000D01*
X161904904Y-74164000D01*
X161937000Y-74002642D01*
X161937000Y-73825358D01*
X161904904Y-73664000D01*
X162773171Y-73664000D01*
X162772305Y-73652448D01*
X162772304Y-73652441D01*
X162713941Y-73396729D01*
X162618116Y-73152573D01*
X162618117Y-73152573D01*
X162486971Y-72925426D01*
X162323437Y-72720360D01*
X162323429Y-72720351D01*
X162131169Y-72541959D01*
X162131167Y-72541958D01*
X161914454Y-72394206D01*
X161914445Y-72394201D01*
X161678142Y-72280404D01*
X161678144Y-72280404D01*
X161427512Y-72203094D01*
X161427506Y-72203093D01*
X161287000Y-72181914D01*
X161287000Y-73046095D01*
X161125642Y-73014000D01*
X160948358Y-73014000D01*
X160787000Y-73046095D01*
X160787000Y-72181914D01*
X160646493Y-72203093D01*
X160646487Y-72203094D01*
X160395858Y-72280404D01*
X160395854Y-72280405D01*
X160159550Y-72394204D01*
X160159546Y-72394206D01*
X159942832Y-72541958D01*
X159942830Y-72541959D01*
X159750570Y-72720351D01*
X159750562Y-72720360D01*
X159587028Y-72925426D01*
X159455883Y-73152573D01*
X159360058Y-73396729D01*
X159301695Y-73652441D01*
X159301694Y-73652448D01*
X159300828Y-73664000D01*
X160169096Y-73664000D01*
X160137000Y-73825358D01*
X160137000Y-74002642D01*
X160169096Y-74164000D01*
X159300828Y-74164000D01*
X158073674Y-74164000D01*
X158092408Y-73914004D01*
X158092408Y-73913995D01*
X158072803Y-73652379D01*
X158072803Y-73652378D01*
X158072802Y-73652374D01*
X158072802Y-73652370D01*
X158038842Y-73503584D01*
X158043115Y-73433849D01*
X158072050Y-73388316D01*
X162213387Y-69246979D01*
X162274708Y-69213496D01*
X162344400Y-69218480D01*
X162400333Y-69260352D01*
X162408453Y-69272662D01*
X162462466Y-69366214D01*
X162462465Y-69366214D01*
X162589129Y-69506888D01*
X162742265Y-69618148D01*
X162742270Y-69618151D01*
X162915192Y-69695142D01*
X162915197Y-69695144D01*
X163100354Y-69734500D01*
X163100355Y-69734500D01*
X163289644Y-69734500D01*
X163289646Y-69734500D01*
X163474803Y-69695144D01*
X163647730Y-69618151D01*
X163649776Y-69616664D01*
X163661452Y-69608182D01*
X163727258Y-69584702D01*
X163734337Y-69584500D01*
X164143706Y-69584500D01*
X164210745Y-69604185D01*
X164248022Y-69641461D01*
X164278015Y-69688132D01*
X164278018Y-69688136D01*
X164367735Y-69791675D01*
X164372168Y-69796791D01*
X164372171Y-69796794D01*
X164480909Y-69891015D01*
X164541386Y-69929881D01*
X164601857Y-69968744D01*
X164601863Y-69968747D01*
X164732741Y-70028517D01*
X164870696Y-70069024D01*
X165013111Y-70089500D01*
X165013114Y-70089500D01*
X165560500Y-70089500D01*
X165627539Y-70109185D01*
X165673294Y-70161989D01*
X165684500Y-70213500D01*
X165684500Y-72044929D01*
X165664815Y-72111968D01*
X165612011Y-72157723D01*
X165578982Y-72167544D01*
X165346382Y-72202604D01*
X165346376Y-72202606D01*
X165095673Y-72279938D01*
X164859303Y-72393767D01*
X164859302Y-72393768D01*
X164859296Y-72393771D01*
X164859296Y-72393772D01*
X164833839Y-72411128D01*
X164642520Y-72541567D01*
X164450198Y-72720014D01*
X164286614Y-72925143D01*
X164155432Y-73152356D01*
X164059582Y-73396578D01*
X164059576Y-73396597D01*
X164001197Y-73652374D01*
X164001196Y-73652379D01*
X163981592Y-73913995D01*
X163981592Y-73914004D01*
X164001196Y-74175620D01*
X164001197Y-74175625D01*
X164059576Y-74431402D01*
X164059578Y-74431411D01*
X164059580Y-74431416D01*
X164155432Y-74675643D01*
X164286614Y-74902857D01*
X164418736Y-75068533D01*
X164450198Y-75107985D01*
X164631753Y-75276441D01*
X164642521Y-75286433D01*
X164859296Y-75434228D01*
X164859301Y-75434230D01*
X164859302Y-75434231D01*
X164859303Y-75434232D01*
X164984843Y-75494688D01*
X165095673Y-75548061D01*
X165095674Y-75548061D01*
X165095677Y-75548063D01*
X165346385Y-75625396D01*
X165605818Y-75664500D01*
X165868182Y-75664500D01*
X166127615Y-75625396D01*
X166378323Y-75548063D01*
X166614704Y-75434228D01*
X166831479Y-75286433D01*
X167023805Y-75107981D01*
X167187386Y-74902857D01*
X167318568Y-74675643D01*
X167414420Y-74431416D01*
X167472802Y-74175630D01*
X167472803Y-74175620D01*
X167492408Y-73914004D01*
X167492408Y-73913995D01*
X167472803Y-73652379D01*
X167472802Y-73652374D01*
X167472802Y-73652370D01*
X167414420Y-73396584D01*
X167318568Y-73152357D01*
X167202112Y-72950650D01*
X167185500Y-72888651D01*
X167185500Y-69734631D01*
X167205183Y-69667594D01*
X167269770Y-69567094D01*
X167326742Y-69442342D01*
X167328986Y-69438053D01*
X167329498Y-69436308D01*
X167329499Y-69436308D01*
X167370035Y-69298256D01*
X167390497Y-69155941D01*
X167390497Y-69099601D01*
X167390500Y-69099590D01*
X167390500Y-68568426D01*
X167390497Y-68568399D01*
X167390497Y-68512060D01*
X167383834Y-68465721D01*
X167370035Y-68369744D01*
X167370035Y-68369743D01*
X167329498Y-68231691D01*
X167329496Y-68231686D01*
X167269776Y-68100918D01*
X167269773Y-68100914D01*
X167269770Y-68100906D01*
X167191986Y-67979870D01*
X167191985Y-67979869D01*
X167191984Y-67979867D01*
X167191981Y-67979863D01*
X167097847Y-67871226D01*
X167097830Y-67871207D01*
X167097829Y-67871206D01*
X166989091Y-67776985D01*
X166953858Y-67754342D01*
X166868142Y-67699255D01*
X166868136Y-67699252D01*
X166768061Y-67653550D01*
X166737259Y-67639483D01*
X166619650Y-67604950D01*
X166599308Y-67598977D01*
X166599296Y-67598974D01*
X166456889Y-67578500D01*
X165885000Y-67578500D01*
X165884997Y-67578500D01*
X165813061Y-67583644D01*
X165813056Y-67583645D01*
X165775735Y-67594603D01*
X165723158Y-67598363D01*
X165585001Y-67578500D01*
X165585000Y-67578500D01*
X165013111Y-67578500D01*
X165013110Y-67578500D01*
X164870703Y-67598974D01*
X164870691Y-67598977D01*
X164732741Y-67639483D01*
X164601863Y-67699252D01*
X164601861Y-67699254D01*
X164486523Y-67773376D01*
X164485083Y-67774196D01*
X164480901Y-67776988D01*
X164372169Y-67871207D01*
X164372166Y-67871210D01*
X164278018Y-67979864D01*
X164278015Y-67979867D01*
X164248022Y-68026539D01*
X164195218Y-68072294D01*
X164143706Y-68083500D01*
X163734337Y-68083500D01*
X163667298Y-68063815D01*
X163661452Y-68059818D01*
X163647734Y-68049851D01*
X163642107Y-68046603D01*
X163642807Y-68045389D01*
X163595174Y-68004895D01*
X163574858Y-67938045D01*
X163593909Y-67870822D01*
X163611163Y-67849203D01*
X164733548Y-66726817D01*
X164794871Y-66693333D01*
X164821229Y-66690499D01*
X165484002Y-66690499D01*
X165484008Y-66690499D01*
X165586797Y-66679999D01*
X165753334Y-66624814D01*
X165902656Y-66532712D01*
X166026712Y-66408656D01*
X166118814Y-66259334D01*
X166173999Y-66092797D01*
X166184500Y-65990009D01*
X166184499Y-64639992D01*
X166183685Y-64632028D01*
X166173999Y-64537203D01*
X166173998Y-64537200D01*
X166149568Y-64463475D01*
X166118814Y-64370666D01*
X166026712Y-64221344D01*
X165902656Y-64097288D01*
X165753334Y-64005186D01*
X165586797Y-63950001D01*
X165586795Y-63950000D01*
X165484010Y-63939500D01*
X164683998Y-63939500D01*
X164683980Y-63939501D01*
X164581203Y-63950000D01*
X164581200Y-63950001D01*
X164414668Y-64005185D01*
X164414663Y-64005187D01*
X164265342Y-64097289D01*
X164141289Y-64221342D01*
X164101420Y-64285981D01*
X164049472Y-64332705D01*
X163980509Y-64343928D01*
X163916427Y-64316084D01*
X163908200Y-64308565D01*
X163800602Y-64200967D01*
X163660524Y-64099195D01*
X163506257Y-64020591D01*
X163341589Y-63967087D01*
X163341581Y-63967085D01*
X163334000Y-63965884D01*
X163334000Y-65034670D01*
X163314255Y-65014925D01*
X163228745Y-64965556D01*
X163133370Y-64940000D01*
X163034630Y-64940000D01*
X162939255Y-64965556D01*
X162853745Y-65014925D01*
X162834000Y-65034670D01*
X162834000Y-63965884D01*
X162833999Y-63965884D01*
X162826418Y-63967085D01*
X162826410Y-63967087D01*
X162661742Y-64020591D01*
X162507475Y-64099195D01*
X162367397Y-64200967D01*
X162244967Y-64323397D01*
X162143195Y-64463475D01*
X162064591Y-64617742D01*
X162011085Y-64782415D01*
X161984000Y-64953428D01*
X161984000Y-65065000D01*
X162803670Y-65065000D01*
X162783925Y-65084745D01*
X162734556Y-65170255D01*
X162709000Y-65265630D01*
X162709000Y-65364370D01*
X162734556Y-65459745D01*
X162783925Y-65545255D01*
X162803670Y-65565000D01*
X161984000Y-65565000D01*
X161984000Y-65676571D01*
X162011085Y-65847584D01*
X162064591Y-66012257D01*
X162143195Y-66166524D01*
X162244967Y-66306602D01*
X162367397Y-66429032D01*
X162507475Y-66530804D01*
X162553714Y-66554364D01*
X162604510Y-66602339D01*
X162621305Y-66670160D01*
X162598767Y-66736295D01*
X162585100Y-66752530D01*
X160708763Y-68628868D01*
X160647440Y-68662353D01*
X160577748Y-68657369D01*
X160521815Y-68615497D01*
X160503152Y-68579507D01*
X160481237Y-68512059D01*
X160466181Y-68465721D01*
X160466178Y-68465715D01*
X160371533Y-68301784D01*
X160244871Y-68161112D01*
X160244870Y-68161111D01*
X160091734Y-68049851D01*
X160091729Y-68049848D01*
X159918807Y-67972857D01*
X159918802Y-67972855D01*
X159773001Y-67941865D01*
X159733646Y-67933500D01*
X159544354Y-67933500D01*
X159511897Y-67940398D01*
X159359197Y-67972855D01*
X159359192Y-67972857D01*
X159186270Y-68049848D01*
X159186265Y-68049851D01*
X159172548Y-68059818D01*
X159106742Y-68083298D01*
X159099663Y-68083500D01*
X156480440Y-68083500D01*
X156413401Y-68063815D01*
X156367646Y-68011011D01*
X156356949Y-67970724D01*
X156352686Y-67923804D01*
X156302078Y-67761394D01*
X156236882Y-67653547D01*
X156219047Y-67585996D01*
X156236882Y-67525252D01*
X156302078Y-67417406D01*
X156352686Y-67254996D01*
X156359100Y-67184416D01*
X156359100Y-66521184D01*
X156352686Y-66450604D01*
X156302078Y-66288194D01*
X156226982Y-66163971D01*
X156209100Y-66099823D01*
X156209100Y-63436679D01*
X156180259Y-63291692D01*
X156180258Y-63291691D01*
X156180258Y-63291687D01*
X156180256Y-63291682D01*
X156123685Y-63155107D01*
X156118048Y-63146671D01*
X156079575Y-63089091D01*
X156041552Y-63032184D01*
X154964819Y-61955451D01*
X154931334Y-61894128D01*
X154928500Y-61867770D01*
X154928500Y-61301737D01*
X154948185Y-61234698D01*
X155000989Y-61188943D01*
X155070147Y-61178999D01*
X155133703Y-61208024D01*
X155151766Y-61227426D01*
X155233452Y-61336544D01*
X155233455Y-61336547D01*
X155348664Y-61422793D01*
X155348671Y-61422797D01*
X155483517Y-61473091D01*
X155483516Y-61473091D01*
X155490444Y-61473835D01*
X155543127Y-61479500D01*
X159438872Y-61479499D01*
X159498483Y-61473091D01*
X159633331Y-61422796D01*
X159748546Y-61336546D01*
X159834796Y-61221331D01*
X159885091Y-61086483D01*
X159891500Y-61026873D01*
X159891499Y-59414452D01*
X159911184Y-59347414D01*
X159927818Y-59326772D01*
X160023819Y-59230771D01*
X160606857Y-58647734D01*
X160607920Y-58646144D01*
X160675311Y-58545286D01*
X160722463Y-58431452D01*
X160746500Y-58310606D01*
X160746500Y-58163000D01*
X160766185Y-58095961D01*
X160818989Y-58050206D01*
X160870500Y-58039000D01*
X167643000Y-58039000D01*
X167710039Y-58058685D01*
X167755794Y-58111489D01*
X167767000Y-58163000D01*
X167767000Y-77981000D01*
X167747315Y-78048039D01*
X167694511Y-78093794D01*
X167643000Y-78105000D01*
X131569000Y-78105000D01*
X131501961Y-78085315D01*
X131456206Y-78032511D01*
X131445000Y-77981000D01*
X131445000Y-58290000D01*
X131464685Y-58222961D01*
X131517489Y-58177206D01*
X131569000Y-58166000D01*
X138696500Y-58166000D01*
X138763539Y-58185685D01*
X138809294Y-58238489D01*
X138820500Y-58290000D01*
X138820500Y-58547611D01*
X138844535Y-58668444D01*
X138844540Y-58668461D01*
X138891685Y-58782281D01*
X138891690Y-58782290D01*
X138905737Y-58803312D01*
X138905738Y-58803313D01*
X138960140Y-58884731D01*
X138960141Y-58884732D01*
X138960142Y-58884733D01*
X139047267Y-58971858D01*
X139047268Y-58971858D01*
X139054335Y-58978925D01*
X139054334Y-58978925D01*
X139054338Y-58978928D01*
X139306181Y-59230771D01*
X139339666Y-59292094D01*
X139342500Y-59318452D01*
X139342500Y-60589985D01*
X139322815Y-60657024D01*
X139270011Y-60702779D01*
X139200853Y-60712723D01*
X139145618Y-60690306D01*
X139136730Y-60683849D01*
X139136729Y-60683848D01*
X138963807Y-60606857D01*
X138963802Y-60606855D01*
X138818001Y-60575865D01*
X138778646Y-60567500D01*
X138589354Y-60567500D01*
X138556897Y-60574398D01*
X138404197Y-60606855D01*
X138404192Y-60606857D01*
X138231270Y-60683848D01*
X138231265Y-60683851D01*
X138078129Y-60795111D01*
X137998649Y-60883383D01*
X137939162Y-60920032D01*
X137869305Y-60918701D01*
X137811257Y-60879815D01*
X137783447Y-60815718D01*
X137782499Y-60800411D01*
X137782499Y-60547129D01*
X137782498Y-60547123D01*
X137782497Y-60547116D01*
X137776091Y-60487517D01*
X137762883Y-60452105D01*
X137725797Y-60352671D01*
X137725793Y-60352664D01*
X137639547Y-60237455D01*
X137639544Y-60237452D01*
X137524335Y-60151206D01*
X137524328Y-60151202D01*
X137389482Y-60100908D01*
X137389483Y-60100908D01*
X137329883Y-60094501D01*
X137329881Y-60094500D01*
X137329873Y-60094500D01*
X137329864Y-60094500D01*
X133434129Y-60094500D01*
X133434123Y-60094501D01*
X133374516Y-60100908D01*
X133239671Y-60151202D01*
X133239664Y-60151206D01*
X133124455Y-60237452D01*
X133124452Y-60237455D01*
X133038206Y-60352664D01*
X133038202Y-60352671D01*
X132987908Y-60487517D01*
X132983756Y-60526141D01*
X132981501Y-60547123D01*
X132981500Y-60547135D01*
X132981500Y-62642870D01*
X132981501Y-62642876D01*
X132987909Y-62702484D01*
X133036968Y-62834021D01*
X133041952Y-62903712D01*
X133008466Y-62965035D01*
X132947143Y-62998519D01*
X132895007Y-62998643D01*
X132809646Y-62980500D01*
X132620354Y-62980500D01*
X132588979Y-62987169D01*
X132435197Y-63019855D01*
X132435192Y-63019857D01*
X132262270Y-63096848D01*
X132262265Y-63096851D01*
X132109129Y-63208111D01*
X131982466Y-63348785D01*
X131887821Y-63512715D01*
X131887818Y-63512722D01*
X131829327Y-63692740D01*
X131829326Y-63692744D01*
X131809540Y-63881000D01*
X131829326Y-64069256D01*
X131829327Y-64069259D01*
X131887818Y-64249277D01*
X131887821Y-64249284D01*
X131982467Y-64413216D01*
X132094103Y-64537200D01*
X132109129Y-64553888D01*
X132262265Y-64665148D01*
X132262270Y-64665151D01*
X132435192Y-64742142D01*
X132435197Y-64742144D01*
X132620354Y-64781500D01*
X132679547Y-64781500D01*
X132746586Y-64801185D01*
X132767228Y-64817819D01*
X132945181Y-64995773D01*
X132978666Y-65057096D01*
X132981500Y-65083454D01*
X132981500Y-65563870D01*
X132981501Y-65563876D01*
X132987908Y-65623483D01*
X133038202Y-65758328D01*
X133038206Y-65758335D01*
X133124452Y-65873544D01*
X133124455Y-65873547D01*
X133239664Y-65959793D01*
X133239671Y-65959797D01*
X133374517Y-66010091D01*
X133374516Y-66010091D01*
X133381444Y-66010835D01*
X133434127Y-66016500D01*
X137329872Y-66016499D01*
X137389483Y-66010091D01*
X137524331Y-65959796D01*
X137639546Y-65873546D01*
X137725796Y-65758331D01*
X137776091Y-65623483D01*
X137782500Y-65563873D01*
X137782499Y-63468128D01*
X137776091Y-63408517D01*
X137765115Y-63379090D01*
X137725797Y-63273671D01*
X137725793Y-63273664D01*
X137639548Y-63158456D01*
X137639546Y-63158455D01*
X137639546Y-63158454D01*
X137634620Y-63154766D01*
X137592750Y-63098837D01*
X137587763Y-63029145D01*
X137621246Y-62967821D01*
X137634612Y-62956239D01*
X137639546Y-62952546D01*
X137725796Y-62837331D01*
X137776091Y-62702483D01*
X137782500Y-62642873D01*
X137782500Y-62344500D01*
X137802185Y-62277461D01*
X137854989Y-62231706D01*
X137906500Y-62220500D01*
X138147416Y-62220500D01*
X138214455Y-62240185D01*
X138220294Y-62244177D01*
X138229580Y-62250923D01*
X138231270Y-62252151D01*
X138404192Y-62329142D01*
X138404197Y-62329144D01*
X138589354Y-62368500D01*
X138589355Y-62368500D01*
X138778644Y-62368500D01*
X138778646Y-62368500D01*
X138963803Y-62329144D01*
X139136730Y-62252151D01*
X139289871Y-62140888D01*
X139416533Y-62000216D01*
X139511179Y-61836284D01*
X139569674Y-61656256D01*
X139587596Y-61485729D01*
X139614180Y-61421116D01*
X139671478Y-61381131D01*
X139727556Y-61378565D01*
X139727804Y-61376262D01*
X139744387Y-61378044D01*
X139795127Y-61383500D01*
X143690872Y-61383499D01*
X143750483Y-61377091D01*
X143885331Y-61326796D01*
X144000546Y-61240546D01*
X144086796Y-61125331D01*
X144137091Y-60990483D01*
X144143500Y-60930873D01*
X144143499Y-58835128D01*
X144137818Y-58782281D01*
X144137091Y-58775516D01*
X144086797Y-58640671D01*
X144086793Y-58640664D01*
X144000548Y-58525456D01*
X144000546Y-58525455D01*
X144000546Y-58525454D01*
X143995620Y-58521766D01*
X143953750Y-58465837D01*
X143948763Y-58396145D01*
X143982246Y-58334821D01*
X143995612Y-58323239D01*
X144000546Y-58319546D01*
X144086796Y-58204331D01*
X144137091Y-58069483D01*
X144143500Y-58009873D01*
X144143499Y-55914128D01*
X144137091Y-55854517D01*
X144130821Y-55837707D01*
X144086797Y-55719671D01*
X144086796Y-55719669D01*
X144058340Y-55681657D01*
X144033923Y-55616193D01*
X144048774Y-55547920D01*
X144069927Y-55519664D01*
X144122852Y-55466739D01*
X144122852Y-55466738D01*
X144122857Y-55466734D01*
X144123707Y-55465463D01*
X144191311Y-55364286D01*
X144238463Y-55250452D01*
X144243656Y-55224342D01*
X144262500Y-55129607D01*
X144262500Y-55006394D01*
X144262500Y-54159257D01*
X144282185Y-54092218D01*
X144334989Y-54046463D01*
X144404147Y-54036519D01*
X144436933Y-54045977D01*
X144500197Y-54074144D01*
X144685354Y-54113500D01*
X144685355Y-54113500D01*
X144874644Y-54113500D01*
X144874646Y-54113500D01*
X145059803Y-54074144D01*
X145232730Y-53997151D01*
X145385871Y-53885888D01*
X145512533Y-53745216D01*
X145607179Y-53581284D01*
X145609871Y-53572999D01*
X145649306Y-53515322D01*
X145713664Y-53488122D01*
X145782510Y-53500034D01*
G37*
%TD.AperFunction*%
%TA.AperFunction,Conductor*%
G36*
X152003485Y-55284232D02*
G01*
X152036468Y-55307835D01*
X152198049Y-55469416D01*
X152251847Y-55523214D01*
X152302585Y-55573952D01*
X152425498Y-55656080D01*
X152425511Y-55656087D01*
X152562082Y-55712656D01*
X152562087Y-55712658D01*
X152562091Y-55712658D01*
X152562092Y-55712659D01*
X152707079Y-55741500D01*
X152707082Y-55741500D01*
X153303500Y-55741500D01*
X153370539Y-55761185D01*
X153416294Y-55813989D01*
X153427500Y-55865500D01*
X153427500Y-62303918D01*
X153427500Y-62303920D01*
X153427499Y-62303920D01*
X153456340Y-62448907D01*
X153456343Y-62448917D01*
X153512914Y-62585492D01*
X153545812Y-62634727D01*
X153545813Y-62634730D01*
X153595046Y-62708414D01*
X153595052Y-62708421D01*
X154671781Y-63785149D01*
X154705266Y-63846472D01*
X154708100Y-63872830D01*
X154708100Y-65987280D01*
X154688415Y-66054319D01*
X154635611Y-66100074D01*
X154566453Y-66110018D01*
X154502897Y-66080993D01*
X154496419Y-66074961D01*
X154443788Y-66022330D01*
X154438562Y-66019171D01*
X154298206Y-65934322D01*
X154135796Y-65883714D01*
X154135794Y-65883713D01*
X154135792Y-65883713D01*
X154086378Y-65879223D01*
X154065216Y-65877300D01*
X153551984Y-65877300D01*
X153532745Y-65879048D01*
X153481407Y-65883713D01*
X153318993Y-65934322D01*
X153173411Y-66022330D01*
X153173410Y-66022331D01*
X153119563Y-66076180D01*
X153058240Y-66109666D01*
X153031881Y-66112500D01*
X151082606Y-66112500D01*
X150959393Y-66112500D01*
X150904926Y-66123334D01*
X150904925Y-66123333D01*
X150838555Y-66136535D01*
X150838545Y-66136538D01*
X150724716Y-66183687D01*
X150635802Y-66243097D01*
X150635803Y-66243098D01*
X150622264Y-66252144D01*
X150567807Y-66306602D01*
X150348227Y-66526182D01*
X150286907Y-66559666D01*
X150260548Y-66562500D01*
X150195997Y-66562500D01*
X150124057Y-66567645D01*
X150037271Y-66593128D01*
X149967401Y-66593128D01*
X149908623Y-66555354D01*
X149879598Y-66491798D01*
X149878847Y-66485393D01*
X149875686Y-66450604D01*
X149825078Y-66288194D01*
X149743218Y-66152782D01*
X149725383Y-66085231D01*
X149741947Y-66026640D01*
X149808779Y-65910884D01*
X149867274Y-65730856D01*
X149887060Y-65542600D01*
X149867274Y-65354344D01*
X149867272Y-65354340D01*
X149866594Y-65347881D01*
X149868048Y-65347728D01*
X149872789Y-65285613D01*
X149914927Y-65229880D01*
X149980507Y-65205775D01*
X149988763Y-65205500D01*
X152016607Y-65205500D01*
X152077029Y-65193481D01*
X152137452Y-65181463D01*
X152137455Y-65181461D01*
X152137458Y-65181461D01*
X152170787Y-65167654D01*
X152170786Y-65167654D01*
X152170792Y-65167652D01*
X152251286Y-65134312D01*
X152308491Y-65096088D01*
X152353733Y-65065858D01*
X152440858Y-64978733D01*
X152440859Y-64978731D01*
X152447925Y-64971665D01*
X152447928Y-64971661D01*
X152627770Y-64791819D01*
X152689093Y-64758334D01*
X152715451Y-64755500D01*
X152747600Y-64755500D01*
X152819540Y-64750355D01*
X152957592Y-64709819D01*
X153078632Y-64632031D01*
X153172854Y-64523294D01*
X153232624Y-64392416D01*
X153253100Y-64250000D01*
X153253100Y-62750000D01*
X153247955Y-62678060D01*
X153207419Y-62540008D01*
X153134003Y-62425771D01*
X153129632Y-62418969D01*
X153129628Y-62418965D01*
X153020899Y-62324750D01*
X153020897Y-62324748D01*
X153020894Y-62324746D01*
X153020890Y-62324744D01*
X152890019Y-62264976D01*
X152890014Y-62264975D01*
X152747600Y-62244500D01*
X151597600Y-62244500D01*
X151597578Y-62244500D01*
X151517269Y-62250923D01*
X151517258Y-62250925D01*
X151488853Y-62259787D01*
X151434280Y-62264151D01*
X151297600Y-62244500D01*
X150460511Y-62244500D01*
X150393472Y-62224815D01*
X150391619Y-62223601D01*
X150383109Y-62217915D01*
X150331886Y-62183688D01*
X150331883Y-62183686D01*
X150331882Y-62183686D01*
X150331881Y-62183685D01*
X150238175Y-62144872D01*
X150218055Y-62136538D01*
X150218053Y-62136537D01*
X150218052Y-62136537D01*
X150157629Y-62124518D01*
X150097210Y-62112500D01*
X150097207Y-62112500D01*
X150097206Y-62112500D01*
X149072596Y-62112500D01*
X149005557Y-62092815D01*
X148984915Y-62076181D01*
X148955603Y-62046869D01*
X148955595Y-62046863D01*
X148817393Y-61965131D01*
X148817388Y-61965129D01*
X148663208Y-61920335D01*
X148663202Y-61920334D01*
X148627188Y-61917500D01*
X148627181Y-61917500D01*
X148543452Y-61917500D01*
X148476413Y-61897815D01*
X148455771Y-61881181D01*
X148300002Y-61725412D01*
X148266517Y-61664089D01*
X148271501Y-61594397D01*
X148313373Y-61538464D01*
X148378837Y-61514047D01*
X148424571Y-61519345D01*
X148516804Y-61548086D01*
X148587384Y-61554500D01*
X148587387Y-61554500D01*
X149100613Y-61554500D01*
X149100616Y-61554500D01*
X149171196Y-61548086D01*
X149333606Y-61497478D01*
X149479185Y-61409472D01*
X149599472Y-61289185D01*
X149687478Y-61143606D01*
X149738086Y-60981196D01*
X149744500Y-60910616D01*
X149744500Y-60638935D01*
X149764185Y-60571896D01*
X149816989Y-60526141D01*
X149886147Y-60516197D01*
X149949700Y-60545220D01*
X150025906Y-60611254D01*
X150066374Y-60629735D01*
X150156780Y-60671023D01*
X150156783Y-60671023D01*
X150156784Y-60671024D01*
X150299200Y-60691500D01*
X150299203Y-60691500D01*
X151449198Y-60691500D01*
X151449200Y-60691500D01*
X151449202Y-60691499D01*
X151449221Y-60691499D01*
X151529530Y-60685076D01*
X151529532Y-60685075D01*
X151529538Y-60685075D01*
X151666889Y-60642226D01*
X151786605Y-60562415D01*
X151878986Y-60452110D01*
X151936548Y-60320246D01*
X151945772Y-60247427D01*
X151954629Y-60177509D01*
X151950395Y-60151206D01*
X151931762Y-60035454D01*
X151869801Y-59905599D01*
X151602589Y-59504782D01*
X151581782Y-59438084D01*
X151600337Y-59370723D01*
X151602590Y-59367217D01*
X151627271Y-59330196D01*
X151869801Y-58966401D01*
X151909019Y-58895992D01*
X151936232Y-58803313D01*
X151949555Y-58757941D01*
X151949555Y-58614059D01*
X151936549Y-58569766D01*
X151909019Y-58476008D01*
X151880386Y-58431454D01*
X151831232Y-58354969D01*
X151831228Y-58354965D01*
X151722499Y-58260750D01*
X151722497Y-58260748D01*
X151722494Y-58260746D01*
X151722490Y-58260744D01*
X151591619Y-58200976D01*
X151591614Y-58200975D01*
X151449200Y-58180500D01*
X150934743Y-58180500D01*
X150867704Y-58160815D01*
X150821949Y-58108011D01*
X150812005Y-58038853D01*
X150816812Y-58018182D01*
X150838153Y-57952500D01*
X150872674Y-57846256D01*
X150892460Y-57658000D01*
X150872674Y-57469744D01*
X150814179Y-57289716D01*
X150719533Y-57125784D01*
X150592871Y-56985112D01*
X150576396Y-56973142D01*
X150464189Y-56891619D01*
X150421523Y-56836289D01*
X150415544Y-56766676D01*
X150433972Y-56722410D01*
X150508084Y-56611494D01*
X150544050Y-56524661D01*
X150570925Y-56484441D01*
X151155771Y-55899595D01*
X151217092Y-55866112D01*
X151217448Y-55866034D01*
X151282803Y-55852144D01*
X151455730Y-55775151D01*
X151608871Y-55663888D01*
X151735533Y-55523216D01*
X151830179Y-55359284D01*
X151830853Y-55357208D01*
X151831568Y-55356161D01*
X151832825Y-55353341D01*
X151833340Y-55353570D01*
X151870282Y-55299532D01*
X151934637Y-55272326D01*
X152003485Y-55284232D01*
G37*
%TD.AperFunction*%
%TA.AperFunction,Conductor*%
G36*
X146063266Y-58654448D02*
G01*
X146195283Y-58682509D01*
X146256763Y-58715700D01*
X146290539Y-58776863D01*
X146293500Y-58803798D01*
X146293500Y-59259613D01*
X146299913Y-59330192D01*
X146299913Y-59330194D01*
X146299914Y-59330196D01*
X146350522Y-59492606D01*
X146438528Y-59638185D01*
X146466515Y-59666172D01*
X146500000Y-59727493D01*
X146495016Y-59797185D01*
X146466517Y-59841533D01*
X146438926Y-59869124D01*
X146350980Y-60014604D01*
X146300409Y-60176893D01*
X146294000Y-60247427D01*
X146294000Y-60329000D01*
X147320000Y-60329000D01*
X147387039Y-60348685D01*
X147432794Y-60401489D01*
X147444000Y-60453000D01*
X147444000Y-60705000D01*
X147424315Y-60772039D01*
X147371511Y-60817794D01*
X147320000Y-60829000D01*
X146294001Y-60829000D01*
X146274483Y-60848517D01*
X146274316Y-60849088D01*
X146271297Y-60851703D01*
X146257682Y-60865319D01*
X146256708Y-60864345D01*
X146221512Y-60894843D01*
X146152354Y-60904787D01*
X146088798Y-60875762D01*
X146082320Y-60869730D01*
X145949819Y-60737229D01*
X145916334Y-60675906D01*
X145913500Y-60649548D01*
X145913500Y-58775741D01*
X145933185Y-58708702D01*
X145985989Y-58662947D01*
X146055147Y-58653003D01*
X146063266Y-58654448D01*
G37*
%TD.AperFunction*%
%TA.AperFunction,Conductor*%
G36*
X155889795Y-51838567D02*
G01*
X155893915Y-51840189D01*
X155952654Y-51864520D01*
X155952660Y-51864522D01*
X155970830Y-51866914D01*
X156034727Y-51895179D01*
X156073199Y-51953503D01*
X156078265Y-51999581D01*
X156077209Y-52012999D01*
X156077210Y-52013000D01*
X156911500Y-52013000D01*
X156978539Y-52032685D01*
X157024294Y-52085489D01*
X157035500Y-52137000D01*
X157035500Y-52269286D01*
X157015815Y-52336325D01*
X156999181Y-52356967D01*
X156909911Y-52446236D01*
X156909902Y-52446248D01*
X156879468Y-52476681D01*
X156818148Y-52510166D01*
X156791788Y-52513000D01*
X156077210Y-52513000D01*
X156078854Y-52533910D01*
X156123968Y-52689195D01*
X156206278Y-52828374D01*
X156206285Y-52828383D01*
X156279344Y-52901442D01*
X156312829Y-52962765D01*
X156307845Y-53032457D01*
X156279345Y-53076804D01*
X156218102Y-53138048D01*
X156040967Y-53315182D01*
X155979647Y-53348666D01*
X155953288Y-53351500D01*
X155374080Y-53351500D01*
X155229092Y-53380340D01*
X155229082Y-53380343D01*
X155092511Y-53436912D01*
X155092498Y-53436919D01*
X154969584Y-53519048D01*
X154969580Y-53519051D01*
X154274556Y-54214075D01*
X154213233Y-54247560D01*
X154162685Y-54248012D01*
X154124918Y-54240500D01*
X153143229Y-54240500D01*
X153076190Y-54220815D01*
X153055548Y-54204181D01*
X151989421Y-53138052D01*
X151989418Y-53138049D01*
X151949802Y-53111579D01*
X151904997Y-53057967D01*
X151895372Y-52995519D01*
X151908460Y-52871000D01*
X151908459Y-52870999D01*
X151909034Y-52865538D01*
X151935619Y-52800923D01*
X151992917Y-52760939D01*
X152032355Y-52754500D01*
X152666920Y-52754500D01*
X152764462Y-52735096D01*
X152811913Y-52725658D01*
X152948495Y-52669084D01*
X153003597Y-52632266D01*
X153071416Y-52586952D01*
X153367387Y-52290979D01*
X153428709Y-52257496D01*
X153498400Y-52262480D01*
X153554334Y-52304351D01*
X153572998Y-52340344D01*
X153604818Y-52438277D01*
X153604820Y-52438281D01*
X153604821Y-52438284D01*
X153699467Y-52602216D01*
X153810613Y-52725656D01*
X153826129Y-52742888D01*
X153979265Y-52854148D01*
X153979270Y-52854151D01*
X154152192Y-52931142D01*
X154152197Y-52931144D01*
X154337354Y-52970500D01*
X154337355Y-52970500D01*
X154526644Y-52970500D01*
X154526646Y-52970500D01*
X154711803Y-52931144D01*
X154884730Y-52854151D01*
X155037871Y-52742888D01*
X155164533Y-52602216D01*
X155259179Y-52438284D01*
X155284448Y-52360512D01*
X155314695Y-52311153D01*
X155758783Y-51867066D01*
X155820103Y-51833583D01*
X155889795Y-51838567D01*
G37*
%TD.AperFunction*%
%TA.AperFunction,Conductor*%
G36*
X140087703Y-51649351D02*
G01*
X140104876Y-51667578D01*
X140143318Y-51717678D01*
X140260824Y-51807843D01*
X140405167Y-51867632D01*
X140404296Y-51869733D01*
X140453906Y-51899969D01*
X140484438Y-51962814D01*
X140485774Y-51993111D01*
X140484208Y-52012998D01*
X140484210Y-52013000D01*
X141318500Y-52013000D01*
X141385539Y-52032685D01*
X141431294Y-52085489D01*
X141442500Y-52137000D01*
X141442500Y-52347558D01*
X141422815Y-52414597D01*
X141370011Y-52460352D01*
X141300853Y-52470296D01*
X141292719Y-52468848D01*
X141252748Y-52460352D01*
X141154646Y-52439500D01*
X140965354Y-52439500D01*
X140933663Y-52446236D01*
X140780197Y-52478855D01*
X140780193Y-52478857D01*
X140727588Y-52502279D01*
X140677152Y-52513000D01*
X140484210Y-52513000D01*
X140485855Y-52533917D01*
X140485855Y-52533920D01*
X140488249Y-52542159D01*
X140488046Y-52612029D01*
X140457107Y-52661048D01*
X140458477Y-52662282D01*
X140327466Y-52807785D01*
X140232821Y-52971715D01*
X140232818Y-52971722D01*
X140178009Y-53140409D01*
X140174326Y-53151744D01*
X140154540Y-53340000D01*
X140174326Y-53528256D01*
X140174327Y-53528259D01*
X140232818Y-53708277D01*
X140232821Y-53708284D01*
X140327467Y-53872216D01*
X140369385Y-53918770D01*
X140454128Y-54012887D01*
X140455909Y-54014181D01*
X140456690Y-54015194D01*
X140458958Y-54017236D01*
X140458584Y-54017650D01*
X140498576Y-54069510D01*
X140504556Y-54139124D01*
X140471950Y-54200919D01*
X140411112Y-54235277D01*
X140383025Y-54238500D01*
X140006500Y-54238500D01*
X139939461Y-54218815D01*
X139893706Y-54166011D01*
X139882500Y-54114500D01*
X139882500Y-51743064D01*
X139902185Y-51676025D01*
X139954989Y-51630270D01*
X140024147Y-51620326D01*
X140087703Y-51649351D01*
G37*
%TD.AperFunction*%
%TA.AperFunction,Conductor*%
G36*
X149660852Y-50744129D02*
G01*
X149700512Y-50768530D01*
X149701469Y-50767298D01*
X149707632Y-50772078D01*
X149707635Y-50772081D01*
X149849102Y-50855744D01*
X149890724Y-50867836D01*
X150006926Y-50901597D01*
X150006929Y-50901597D01*
X150006931Y-50901598D01*
X150043806Y-50904500D01*
X150043814Y-50904500D01*
X151200186Y-50904500D01*
X151200194Y-50904500D01*
X151237069Y-50901598D01*
X151386995Y-50858040D01*
X151456864Y-50858239D01*
X151515534Y-50896181D01*
X151539521Y-50938798D01*
X151572818Y-51041278D01*
X151572821Y-51041284D01*
X151587957Y-51067500D01*
X151604430Y-51135401D01*
X151581577Y-51201427D01*
X151526656Y-51244618D01*
X151480570Y-51253500D01*
X151416828Y-51253500D01*
X151382233Y-51248576D01*
X151237073Y-51206402D01*
X151237067Y-51206401D01*
X151200201Y-51203500D01*
X151200194Y-51203500D01*
X150043806Y-51203500D01*
X150043798Y-51203500D01*
X150006932Y-51206401D01*
X150006926Y-51206402D01*
X149849106Y-51252254D01*
X149849103Y-51252255D01*
X149707637Y-51335917D01*
X149701469Y-51340702D01*
X149700164Y-51339019D01*
X149648454Y-51367246D01*
X149578763Y-51362251D01*
X149531058Y-51330247D01*
X149506796Y-51304000D01*
X149241315Y-51304000D01*
X149178194Y-51286732D01*
X149119896Y-51252255D01*
X149119893Y-51252254D01*
X148962073Y-51206402D01*
X148962067Y-51206401D01*
X148925201Y-51203500D01*
X148925194Y-51203500D01*
X148221000Y-51203500D01*
X148153961Y-51183815D01*
X148108206Y-51131011D01*
X148097000Y-51079500D01*
X148097000Y-51028500D01*
X148116685Y-50961461D01*
X148169489Y-50915706D01*
X148221000Y-50904500D01*
X148925186Y-50904500D01*
X148925194Y-50904500D01*
X148962069Y-50901598D01*
X148962071Y-50901597D01*
X148962073Y-50901597D01*
X149003691Y-50889505D01*
X149119898Y-50855744D01*
X149178194Y-50821268D01*
X149241315Y-50804000D01*
X149506794Y-50804000D01*
X149531057Y-50777752D01*
X149591018Y-50741885D01*
X149660852Y-50744129D01*
G37*
%TD.AperFunction*%
%TA.AperFunction,Conductor*%
G36*
X153666000Y-44778988D02*
G01*
X153608993Y-44746075D01*
X153481826Y-44712000D01*
X153350174Y-44712000D01*
X153223007Y-44746075D01*
X153166000Y-44778988D01*
X153166000Y-43105012D01*
X153223007Y-43137925D01*
X153350174Y-43172000D01*
X153481826Y-43172000D01*
X153608993Y-43137925D01*
X153666000Y-43105012D01*
X153666000Y-44778988D01*
G37*
%TD.AperFunction*%
%TA.AperFunction,Conductor*%
G36*
X156617086Y-40913685D02*
G01*
X156662841Y-40966489D01*
X156672785Y-41035647D01*
X156643760Y-41099203D01*
X156637728Y-41105681D01*
X156411646Y-41331762D01*
X156350323Y-41365247D01*
X156291872Y-41363856D01*
X156191413Y-41336938D01*
X156191403Y-41336936D01*
X155956001Y-41316341D01*
X155955999Y-41316341D01*
X155720596Y-41336936D01*
X155720586Y-41336938D01*
X155492344Y-41398094D01*
X155492335Y-41398098D01*
X155278171Y-41497964D01*
X155278169Y-41497965D01*
X155084597Y-41633505D01*
X154917508Y-41800594D01*
X154787269Y-41986595D01*
X154732692Y-42030219D01*
X154663193Y-42037412D01*
X154600839Y-42005890D01*
X154584119Y-41986594D01*
X154454113Y-41800926D01*
X154454108Y-41800920D01*
X154287082Y-41633894D01*
X154093578Y-41498399D01*
X153879492Y-41398570D01*
X153879486Y-41398567D01*
X153666000Y-41341364D01*
X153666000Y-42238988D01*
X153608993Y-42206075D01*
X153481826Y-42172000D01*
X153350174Y-42172000D01*
X153223007Y-42206075D01*
X153166000Y-42238988D01*
X153166000Y-41341364D01*
X153165999Y-41341364D01*
X152952513Y-41398567D01*
X152952507Y-41398570D01*
X152738422Y-41498399D01*
X152738420Y-41498400D01*
X152544926Y-41633886D01*
X152544920Y-41633891D01*
X152377891Y-41800920D01*
X152377890Y-41800922D01*
X152247880Y-41986595D01*
X152193303Y-42030219D01*
X152123804Y-42037412D01*
X152061450Y-42005890D01*
X152044730Y-41986594D01*
X151914494Y-41800597D01*
X151747402Y-41633506D01*
X151747395Y-41633501D01*
X151553834Y-41497967D01*
X151553830Y-41497965D01*
X151553828Y-41497964D01*
X151339663Y-41398097D01*
X151339659Y-41398096D01*
X151339655Y-41398094D01*
X151111413Y-41336938D01*
X151111403Y-41336936D01*
X150876001Y-41316341D01*
X150875999Y-41316341D01*
X150640596Y-41336936D01*
X150640586Y-41336938D01*
X150412344Y-41398094D01*
X150412335Y-41398098D01*
X150198171Y-41497964D01*
X150198169Y-41497965D01*
X150004597Y-41633505D01*
X149837505Y-41800597D01*
X149707575Y-41986158D01*
X149652998Y-42029783D01*
X149583500Y-42036977D01*
X149521145Y-42005454D01*
X149504425Y-41986158D01*
X149374494Y-41800597D01*
X149207402Y-41633506D01*
X149207395Y-41633501D01*
X149013834Y-41497967D01*
X149013830Y-41497965D01*
X149013828Y-41497964D01*
X148799663Y-41398097D01*
X148799659Y-41398096D01*
X148799655Y-41398094D01*
X148571413Y-41336938D01*
X148571403Y-41336936D01*
X148336001Y-41316341D01*
X148335999Y-41316341D01*
X148100596Y-41336936D01*
X148100586Y-41336938D01*
X147872344Y-41398094D01*
X147872335Y-41398098D01*
X147658171Y-41497964D01*
X147658169Y-41497965D01*
X147464597Y-41633505D01*
X147297505Y-41800597D01*
X147167575Y-41986158D01*
X147112998Y-42029783D01*
X147043500Y-42036977D01*
X146981145Y-42005454D01*
X146964425Y-41986158D01*
X146834494Y-41800597D01*
X146667402Y-41633506D01*
X146667395Y-41633501D01*
X146473834Y-41497967D01*
X146473830Y-41497965D01*
X146473828Y-41497964D01*
X146259663Y-41398097D01*
X146259659Y-41398096D01*
X146259655Y-41398094D01*
X146031413Y-41336938D01*
X146031403Y-41336936D01*
X145796001Y-41316341D01*
X145795999Y-41316341D01*
X145560596Y-41336936D01*
X145560586Y-41336938D01*
X145332344Y-41398094D01*
X145332335Y-41398098D01*
X145118171Y-41497964D01*
X145118169Y-41497965D01*
X144924597Y-41633505D01*
X144757505Y-41800597D01*
X144627575Y-41986158D01*
X144572998Y-42029783D01*
X144503500Y-42036977D01*
X144441145Y-42005454D01*
X144424425Y-41986158D01*
X144294494Y-41800597D01*
X144127402Y-41633506D01*
X144127395Y-41633501D01*
X143933834Y-41497967D01*
X143933830Y-41497965D01*
X143933828Y-41497964D01*
X143719663Y-41398097D01*
X143719659Y-41398096D01*
X143719655Y-41398094D01*
X143491413Y-41336938D01*
X143491403Y-41336936D01*
X143256001Y-41316341D01*
X143255999Y-41316341D01*
X143020596Y-41336936D01*
X143020586Y-41336938D01*
X142792344Y-41398094D01*
X142792335Y-41398098D01*
X142578171Y-41497964D01*
X142578169Y-41497965D01*
X142384597Y-41633505D01*
X142217505Y-41800597D01*
X142087575Y-41986158D01*
X142032998Y-42029783D01*
X141963500Y-42036977D01*
X141901145Y-42005454D01*
X141884425Y-41986158D01*
X141754494Y-41800597D01*
X141587402Y-41633506D01*
X141587395Y-41633501D01*
X141393834Y-41497967D01*
X141393830Y-41497965D01*
X141393828Y-41497964D01*
X141179663Y-41398097D01*
X141179659Y-41398096D01*
X141179655Y-41398094D01*
X140951413Y-41336938D01*
X140951403Y-41336936D01*
X140716001Y-41316341D01*
X140715999Y-41316341D01*
X140480596Y-41336936D01*
X140480586Y-41336938D01*
X140252344Y-41398094D01*
X140252335Y-41398098D01*
X140038171Y-41497964D01*
X140038169Y-41497965D01*
X139844597Y-41633505D01*
X139677505Y-41800597D01*
X139541965Y-41994169D01*
X139541964Y-41994171D01*
X139442098Y-42208335D01*
X139442094Y-42208344D01*
X139380938Y-42436586D01*
X139380936Y-42436596D01*
X139360341Y-42671999D01*
X139360341Y-42672000D01*
X139380936Y-42907403D01*
X139380938Y-42907413D01*
X139407856Y-43007872D01*
X139406193Y-43077722D01*
X139375762Y-43127646D01*
X138895681Y-43607728D01*
X138834358Y-43641213D01*
X138764667Y-43636229D01*
X138708733Y-43594358D01*
X138684316Y-43528893D01*
X138684000Y-43520047D01*
X138684000Y-41018000D01*
X138703685Y-40950961D01*
X138756489Y-40905206D01*
X138808000Y-40894000D01*
X156550047Y-40894000D01*
X156617086Y-40913685D01*
G37*
%TD.AperFunction*%
%TD*%
M02*
