%TF.GenerationSoftware,KiCad,Pcbnew,8.0.0*%
%TF.CreationDate,2024-03-24T20:02:06+02:00*%
%TF.ProjectId,Power Subsystem,506f7765-7220-4537-9562-73797374656d,rev?*%
%TF.SameCoordinates,Original*%
%TF.FileFunction,Soldermask,Top*%
%TF.FilePolarity,Negative*%
%FSLAX46Y46*%
G04 Gerber Fmt 4.6, Leading zero omitted, Abs format (unit mm)*
G04 Created by KiCad (PCBNEW 8.0.0) date 2024-03-24 20:02:06*
%MOMM*%
%LPD*%
G01*
G04 APERTURE LIST*
G04 Aperture macros list*
%AMRoundRect*
0 Rectangle with rounded corners*
0 $1 Rounding radius*
0 $2 $3 $4 $5 $6 $7 $8 $9 X,Y pos of 4 corners*
0 Add a 4 corners polygon primitive as box body*
4,1,4,$2,$3,$4,$5,$6,$7,$8,$9,$2,$3,0*
0 Add four circle primitives for the rounded corners*
1,1,$1+$1,$2,$3*
1,1,$1+$1,$4,$5*
1,1,$1+$1,$6,$7*
1,1,$1+$1,$8,$9*
0 Add four rect primitives between the rounded corners*
20,1,$1+$1,$2,$3,$4,$5,0*
20,1,$1+$1,$4,$5,$6,$7,0*
20,1,$1+$1,$6,$7,$8,$9,0*
20,1,$1+$1,$8,$9,$2,$3,0*%
%AMFreePoly0*
4,1,19,0.500000,-0.750000,0.000000,-0.750000,0.000000,-0.744911,-0.071157,-0.744911,-0.207708,-0.704816,-0.327430,-0.627875,-0.420627,-0.520320,-0.479746,-0.390866,-0.500000,-0.250000,-0.500000,0.250000,-0.479746,0.390866,-0.420627,0.520320,-0.327430,0.627875,-0.207708,0.704816,-0.071157,0.744911,0.000000,0.744911,0.000000,0.750000,0.500000,0.750000,0.500000,-0.750000,0.500000,-0.750000,
$1*%
%AMFreePoly1*
4,1,19,0.000000,0.744911,0.071157,0.744911,0.207708,0.704816,0.327430,0.627875,0.420627,0.520320,0.479746,0.390866,0.500000,0.250000,0.500000,-0.250000,0.479746,-0.390866,0.420627,-0.520320,0.327430,-0.627875,0.207708,-0.704816,0.071157,-0.744911,0.000000,-0.744911,0.000000,-0.750000,-0.500000,-0.750000,-0.500000,0.750000,0.000000,0.750000,0.000000,0.744911,0.000000,0.744911,
$1*%
%AMFreePoly2*
4,1,6,1.000000,0.000000,0.500000,-0.750000,-0.500000,-0.750000,-0.500000,0.750000,0.500000,0.750000,1.000000,0.000000,1.000000,0.000000,$1*%
%AMFreePoly3*
4,1,6,0.500000,-0.750000,-0.650000,-0.750000,-0.150000,0.000000,-0.650000,0.750000,0.500000,0.750000,0.500000,-0.750000,0.500000,-0.750000,$1*%
G04 Aperture macros list end*
%ADD10C,2.500000*%
%ADD11FreePoly0,0.000000*%
%ADD12FreePoly1,0.000000*%
%ADD13RoundRect,0.140000X0.140000X0.170000X-0.140000X0.170000X-0.140000X-0.170000X0.140000X-0.170000X0*%
%ADD14RoundRect,0.200000X-0.200000X-0.275000X0.200000X-0.275000X0.200000X0.275000X-0.200000X0.275000X0*%
%ADD15R,3.800000X2.000000*%
%ADD16RoundRect,0.250000X0.350000X0.625000X-0.350000X0.625000X-0.350000X-0.625000X0.350000X-0.625000X0*%
%ADD17O,1.200000X1.750000*%
%ADD18FreePoly2,180.000000*%
%ADD19FreePoly3,180.000000*%
%ADD20FreePoly0,90.000000*%
%ADD21FreePoly1,90.000000*%
%ADD22FreePoly2,0.000000*%
%ADD23FreePoly3,0.000000*%
%ADD24RoundRect,0.062500X-0.187500X-0.062500X0.187500X-0.062500X0.187500X0.062500X-0.187500X0.062500X0*%
%ADD25R,0.900000X1.600000*%
%ADD26RoundRect,0.150000X-0.512500X-0.150000X0.512500X-0.150000X0.512500X0.150000X-0.512500X0.150000X0*%
%ADD27RoundRect,0.200000X0.200000X0.275000X-0.200000X0.275000X-0.200000X-0.275000X0.200000X-0.275000X0*%
%ADD28RoundRect,0.135000X0.135000X0.185000X-0.135000X0.185000X-0.135000X-0.185000X0.135000X-0.185000X0*%
%ADD29RoundRect,0.140000X-0.140000X-0.170000X0.140000X-0.170000X0.140000X0.170000X-0.140000X0.170000X0*%
%ADD30RoundRect,0.218750X-0.256250X0.218750X-0.256250X-0.218750X0.256250X-0.218750X0.256250X0.218750X0*%
%ADD31R,1.700000X1.700000*%
%ADD32O,1.700000X1.700000*%
G04 APERTURE END LIST*
D10*
%TO.C,SW1*%
X156337000Y-73914000D03*
X161037000Y-73914000D03*
X165737000Y-73914000D03*
%TD*%
D11*
%TO.C,JP1*%
X165085000Y-68834000D03*
D12*
X166385000Y-68834000D03*
%TD*%
D13*
%TO.C,C3*%
X142223000Y-52263000D03*
X141263000Y-52263000D03*
%TD*%
D14*
%TO.C,R3*%
X147194000Y-60579000D03*
X148844000Y-60579000D03*
%TD*%
D15*
%TO.C,PWM2*%
X157491000Y-59979000D03*
%TD*%
%TO.C,PWM3*%
X141743000Y-56962000D03*
%TD*%
D14*
%TO.C,R8*%
X153808600Y-68326000D03*
X155458600Y-68326000D03*
%TD*%
D16*
%TO.C,J2*%
X165084000Y-65315000D03*
D17*
X163084000Y-65315000D03*
%TD*%
D18*
%TO.C,JP2*%
X152249200Y-59436000D03*
D19*
X150799200Y-59436000D03*
%TD*%
D20*
%TO.C,JP13*%
X146939000Y-55910000D03*
D21*
X146939000Y-54610000D03*
%TD*%
D13*
%TO.C,C4*%
X157816000Y-52263000D03*
X156856000Y-52263000D03*
%TD*%
%TO.C,C2*%
X149843000Y-55946000D03*
X148883000Y-55946000D03*
%TD*%
D22*
%TO.C,JP5*%
X150797600Y-63500000D03*
D23*
X152247600Y-63500000D03*
%TD*%
D14*
%TO.C,R11*%
X147331600Y-68326000D03*
X148981600Y-68326000D03*
%TD*%
D24*
%TO.C,Motor_1*%
X140732000Y-49754000D03*
X140732000Y-50254000D03*
X140732000Y-50754000D03*
X140732000Y-51254000D03*
X142632000Y-51254000D03*
X142632000Y-50754000D03*
X142632000Y-50254000D03*
X142632000Y-49754000D03*
D25*
X141682000Y-50504000D03*
%TD*%
D15*
%TO.C,Motor2_B1*%
X135382000Y-73406000D03*
%TD*%
D22*
%TO.C,JP11*%
X144219000Y-67818000D03*
D23*
X145669000Y-67818000D03*
%TD*%
D26*
%TO.C,U1*%
X148347000Y-50104000D03*
X148347000Y-51054000D03*
X148347000Y-52004000D03*
X150622000Y-52004000D03*
X150622000Y-50104000D03*
%TD*%
D27*
%TO.C,R2*%
X148844000Y-58928000D03*
X147194000Y-58928000D03*
%TD*%
D28*
%TO.C,R5*%
X148428000Y-64008000D03*
X147408000Y-64008000D03*
%TD*%
D15*
%TO.C,PWM4*%
X141743000Y-59883000D03*
%TD*%
%TO.C,Motor_2A1*%
X135382000Y-70231000D03*
%TD*%
%TO.C,PWM1*%
X157491000Y-56962000D03*
%TD*%
%TO.C,Motor_1B1*%
X135382000Y-64516000D03*
%TD*%
D28*
%TO.C,R4*%
X148428000Y-62738000D03*
X147408000Y-62738000D03*
%TD*%
D14*
%TO.C,R7*%
X153808600Y-66852800D03*
X155458600Y-66852800D03*
%TD*%
D29*
%TO.C,C1*%
X148883000Y-54803000D03*
X149843000Y-54803000D03*
%TD*%
D15*
%TO.C,GND1*%
X142240000Y-73660000D03*
%TD*%
D22*
%TO.C,JP8*%
X150696000Y-67818000D03*
D23*
X152146000Y-67818000D03*
%TD*%
D15*
%TO.C,+5V1*%
X141351000Y-64389000D03*
%TD*%
D14*
%TO.C,R10*%
X147331600Y-66852800D03*
X148981600Y-66852800D03*
%TD*%
D24*
%TO.C,Motor_2*%
X156287000Y-49754000D03*
X156287000Y-50254000D03*
X156287000Y-50754000D03*
X156287000Y-51254000D03*
X158187000Y-51254000D03*
X158187000Y-50754000D03*
X158187000Y-50254000D03*
X158187000Y-49754000D03*
D25*
X157237000Y-50504000D03*
%TD*%
D15*
%TO.C,+BATT1*%
X149606000Y-73660000D03*
%TD*%
D30*
%TO.C,D1*%
X146431000Y-49276000D03*
X146431000Y-50851000D03*
%TD*%
D15*
%TO.C,Motor_1A1*%
X135382000Y-61595000D03*
%TD*%
D31*
%TO.C,J1*%
X158496000Y-45212000D03*
D32*
X158496000Y-42672000D03*
X155956000Y-45212000D03*
X155956000Y-42672000D03*
X153416000Y-45212000D03*
X153416000Y-42672000D03*
X150876000Y-45212000D03*
X150876000Y-42672000D03*
X148336000Y-45212000D03*
X148336000Y-42672000D03*
X145796000Y-45212000D03*
X145796000Y-42672000D03*
X143256000Y-45212000D03*
X143256000Y-42672000D03*
X140716000Y-45212000D03*
X140716000Y-42672000D03*
%TD*%
M02*
